<svg version="1.2" xmlns="http://www.w3.org/2000/svg" viewBox="0 0 2148 470" width="2148" height="470">
	<title>arduino-svg</title>
	<style>
		.s0 { fill: #7dfcda;stroke: #7dfcda;stroke-width: 7.1 } 
		.s1 { fill: #7dfcda;stroke: #7dfcda;stroke-width: .4 } 
		.s2 { fill: #fff;stroke: #fff;stroke-width: .9 } 
		.s3 { fill: #7dfcda;stroke: #7dfcda;stroke-width: 10 } 
		.s4 { fill: none;stroke: #7dfcda;stroke-width: 60 } 
	</style>
	<g id="Mohsine-icons">
		<path id="Layer" class="s0" d="m759.1 285.3v-47.1h-46.6v-19.6h46.7v-46.6h19.8v46.6h46.7v19.7h-46.7v47z"/>
		<path id="Layer" class="s1" d="m979.1 33.9v-19.4h-7.3v-3.4h18.5v3.3h-7.4v19.5zm13.8 0v-22.8h5.7l5.7 18.1 5.5-18.1h5.6v22.7h-3.5v-19.1l-5.9 19.2h-3.5l-6-19.5v19.5z"/>
		<path id="Layer" fill-rule="evenodd" class="s2" d="m1220.8 309.6l-9.3-32.3h-59.2l-9.6 32.3h-31.8l50.2-163.9h44.7l50.2 163.9zm-38.5-133.8l-22.3 76.2h44.4zm176.8 133.9l-23.9-52.7q-3.3-7.6-9.4-11.3c-4-2.5-8.8-3.8-14.2-3.8h-6v67.9h-32v-163.9h49.5c9.3 0 17.7 0.7 25.4 2.3 7.6 1.4 14.2 4 19.5 7.6 5.2 3.6 9.5 8.3 12.3 14.1q4.4 8.6 4.4 21.2c0 6-1 11.3-2.7 16q-2.7 7-7.8 12.2-4.9 5-11.6 8.1-6.8 3.2-14.9 4.5 6.2 1.1 11.4 6.8c3.5 3.7 6.9 9.1 10.5 16.2l27 54.9zm-7.9-115.7q0-12-8-17.3-7.9-5.3-23.7-5.3h-14.1v46.3h13q7.4 0 13.4-1.5 6.1-1.5 10.4-4.5 1-0.7 2-1.5 0.9-0.9 1.7-1.8 0.9-0.9 1.6-2 0.7-1 1.3-2.2 2.4-4.4 2.4-10.2zm186.3 66.2q-4.9 15.5-15.2 26.5-10.4 11-26.4 17c-10.7 4-23.6 6-38.6 6h-43.1v-163.9h50.3c12.9 0 24.4 1.5 34.1 4.7q14.6 4.7 24.3 14.4c6.5 6.5 11.3 14.8 14.6 24.8 3.3 10 4.8 22 4.8 35.9q0 19-4.8 34.6zm-29.4-32.6q0-13.4-2.2-23.7-2.2-10.4-7.4-17.6-5.4-7.2-14.1-11-8.9-3.8-22-3.8h-16.2v112.3h14.1q23.4 0 35.6-13.6 12.2-13.5 12.2-42.6zm176.2 21.6q0 15.7-4.4 27.6-4.4 11.8-12.4 19.7-8.1 7.9-19.8 11.9-11.7 4.1-26.2 4.1c-10.9 0-20.2-1.4-28-4.1q-11.8-4-19-11.5c-4.8-5-8.4-11.1-10.6-18.3q-3.2-10.8-3.2-24.3v-108.8h31.9v107q0 8.2 1.5 14.7 1.6 6.3 5.2 10.7 3.8 4.5 9.3 6.8 5.7 2.2 14 2.2 7.9 0 13.4-1.9 5.5-2 9-6.2 3.7-4.4 5.6-11.2 1.8-6.7 1.8-16.4v-105.5h31.9zm31-78.5v-25.1h107.2v25.1h-37.3v113.3h37.3v25.5h-107.2v-25.5h37.4v-113.3zm223 138.8l-45.5-97.8-9.3-21.1v118.9h-29v-163.9h39.1l46.4 98.4 8.1 19.1v-117.5h29v163.9zm191.7-82.7q0 22.4-5.3 38.5-5.4 16.2-14.8 26.7c-6.3 6.8-13.7 12.1-22.1 15.4-8.4 3.2-17.5 5-27 5q-33.5 0-50.4-21.5-16.8-21.5-16.8-62.5 0-22.4 5.3-38.5 5.4-16.2 14.8-26.7c6.3-6.9 13.6-12.1 22-15.3 8.5-3.4 17.5-5 27.1-5q33.5 0 50.4 21.4 16.8 21.4 16.8 62.5zm-33.7 1.6q0-29.2-8.1-43.5c-5.4-9.5-14.1-14.3-26.5-14.3q-9.2 0-15.6 3.8-6.5 3.7-10.8 10.9-4.2 7.1-6.1 17.5-2 10.5-2 24 0 29.1 8.1 43.4 8.2 14.3 26.4 14.3 9.2 0 15.8-3.6 6.6-3.8 10.7-10.9 4.1-7.2 6.1-17.6c1.3-7 1.9-15 1.9-24zm-554-2.8z"/>
		<path id="Layer" class="s3" d="m198.8 220.7h119.3v16h-119.3z"/>
		<path id="Layer" fill-rule="evenodd" class="s4" d="m251.6 34.9c-115.2 0-208.6 89.9-208.6 200.7 0 110.9 93.3 200.7 208.6 200.7 272.4 14.3 243.7-401.4 530.4-401.4 115.2 0 208.6 89.9 208.6 200.7 0 110.8-93.4 200.7-208.6 200.7-272.4 14.3-243.7-401.4-530.4-401.4z"/>
	</g>
</svg>