<svg version="1.2" xmlns="http://www.w3.org/2000/svg" viewBox="0 0 761 430" width="761" height="430">
	<title>css-svg</title>
	<style>
		.s0 { fill: #ffffff } 
	</style>
	<g id="Mohsine-icons">
		<path id="CoAP" class="s0" aria-label="CoAP"  d="m135.2 311.5q-54.3 0-82.3-23.8-28-23.9-28-72.5 0-31.1 12.9-52.9 12.9-21.8 38-33.1 25.1-11.4 61.2-11.4 23.3 0 43.3 4.5v41.2q-19.6-4.1-39.1-4.1-32.5 0-47.7 13.5-15.2 13.4-15.2 41.8 0 28.7 14.8 42 14.9 13.3 46.3 13.3 19.2 0 40.9-5.5v41.2q-9.8 2.8-21.7 4.3-11.7 1.5-23.4 1.5zm132.2 0.2q-23.4 0-40.6-8.3-17.1-8.4-26.4-24.7-9.1-16.3-9.1-39.4 0-23.3 8.9-39.5 8.9-16.2 26-24.5 17.1-8.4 41.2-8.4 24 0 41.1 8.4 17.1 8.3 26 24.5 9.1 16.2 9.1 39.4 0 23-9.3 39.3-9.3 16.4-26.5 24.8-17.1 8.4-40.4 8.4zm0-37.5q13.2 0 19.7-8 6.6-8.1 6.6-26.8 0-18.8-6.6-26.9-6.5-8-19.7-8-13.2 0-19.8 8-6.5 7.9-6.5 26.7 0 18.8 6.5 27 6.5 8 19.8 8zm287.3 34.8h-50l-14.7-46.1h-71.9l-14.5 46.1h-49.6l63.2-188.6h74.3zm-100.7-159.7l-23.4 74.3h47zm119.2 159.7v-184.9q32.5-6.2 63.7-6.2 46.1 0 68.7 17 22.7 16.8 22.7 52.6 0 34.4-21.9 52-21.9 17.6-64.8 17.6-4.1 0-11.7-0.2l-5.6-0.2v52.3zm68.8-88.6q19.4 0 28.2-7.5 8.8-7.7 8.8-25.3 0-17.3-9.1-25.1-8.9-7.9-28.1-7.9-10 0-17.5 1.4v63.3q9.1 1.1 17.7 1.1z"/>
		<g id="Object">
			<g id="&lt;Group&gt;">
			</g>
		</g>
	</g>
</svg>