<svg version="1.2" xmlns="http://www.w3.org/2000/svg" viewBox="0 0 1034 430" width="1034" height="430">
	<title>css-svg</title>
	<style>
		.s0 { fill: #ffffff } 
		.s1 { fill: #49caa8 } 
		.s2 { fill: #7cfcda } 
		.s3 { fill: #1b1f24 } 
	</style>
	<g id="Mohsine-icons">
		<g id="layer1">
			<g id="g29">
				<path id="path2999" class="s0" d="m452.2 103.3h169.3v70.8h-98.5v70.9h98.5v70.8h-169.3z"/>
				<path id="path3001" class="s0" d="m655.4 103.3h169.4v61.6h-98.6v12.3h98.6v141.7h-169.4v-64.7h98.6v-12.3h-98.6z"/>
				<path id="path3003" class="s0" d="m858.6 103.3h169.4v61.6h-98.5v12.3h98.5v141.7h-169.4v-64.7h98.6v-12.3h-98.6z"/>
			</g>
			<g id="g37">
				<path id="polygon2989" class="s1" d="m342.9 385.1l-154.5 42.8-154.1-42.8-34.3-385.1h377.3z"/>
				<path id="polygon2991" class="s2" d="m188.6 395.2l124.9-34.7 29.4-329h-154.3z"/>
				<path id="polygon2993" class="s3" d="m188.6 174.3h-109.9l4.2 47.3h105.7z"/>
				<path id="polygon2995" class="s3" d="m188.5 78.7h-118.3l4.3 47.3h114.1v-47.3z"/>
				<path id="polygon2997" class="s3" d="m188.4 297l-52.6-14.2-3.3-37.6h-25.6-21.8l6.6 74.1 96.7 26.9 0.2-0.1v-49.1z"/>
				<path id="polygon3005" class="s3" d="m255 126l-4.3 48.3h-62.2v47.3h58.1l-5.4 61.2-52.7 14.2v49.2l96.8-26.9 0.7-7.9 11.1-124.4 1.2-12.7 8.5-95.6h-118.3v47.3z"/>
			</g>
		</g>
	</g>
</svg>