<svg version="1.2" xmlns="http://www.w3.org/2000/svg" viewBox="0 0 1678 430" width="1678" height="430">
	<title>css-svg</title>
	<style>
		.s0 { fill: #7dfcda } 
	</style>
	<g id="Mohsine-icons">
		<path id="Layer" fill-rule="evenodd" class="s0" d="m525.7 154.9c24.3-4.6 55.8-1.3 69.4 8.1l12.7 8.5-2.2 4.5c-3.9 8.3-5.3 10.9-5.8 11.9-22.6 43.4-66.4 43.9-86.8 43.4-51.8 126.6-162.3 196.4-311.8 196.4-69 0-121.8-21.4-157-63.7-46.4-55.5-46.5-127.8-42.6-151l0.8-4.8h412.6q5.9 0.2 11.8-0.3 6-0.6 11.8-1.9 5.8-1.3 11.4-3.3 5.6-2 10.9-4.7-2.4-4-4.4-8.3-1.9-4.3-3.4-8.7-1.5-4.5-2.5-9.1-0.9-4.6-1.4-9.3-0.7-8.4-0.1-16.8 0.6-8.4 2.5-16.6 2-8.3 5.2-16.1 3.2-7.8 7.6-15l8.9-13.4 13.3 8.9c23.1 18.2 35.8 38.2 38.9 61.3zm-256.3-154.6h62.9v57.7h-62.9zm0 69.4h62.9v57.7h-62.9zm-11.3 57.8h-62.8v-57.8h62.8zm-136.9-57.7h62.8v57.7h-62.8zm-74.2 69.4h62.9v57.7h-62.9zm74.2 0h62.8v57.8h-62.8zm74.1 0h62.8v57.8h-62.8zm74.1 0h62.9v57.8h-62.9zm74.2 0h62.8v57.7h-62.8zm444.1-12.8c2.1 0 4.2 0.4 6.2 1.2 2 0.8 3.8 2 5.3 3.5 1.5 1.6 2.7 3.4 3.4 5.4 0.8 1.9 1.2 4.1 1.2 6.2v146.6c0.1 5.7-0.4 11.5-1.4 17.1-1.1 5.6-2.7 11.1-4.9 16.5-2.1 5.3-4.8 10.3-8 15.1-3.2 4.8-6.8 9.2-10.9 13.2-7.9 8.2-17.3 14.6-27.7 19.1-10.4 4.4-21.6 6.7-33 6.7-11.3 0-22.5-2.3-32.9-6.7-10.4-4.5-19.9-10.9-27.7-19.1-8-8.2-14.3-17.9-18.6-28.5-4.3-10.7-6.5-22-6.5-33.5 0-11.5 2.2-22.8 6.5-33.5 4.3-10.6 10.6-20.3 18.6-28.6 7.3-7.5 16-13.6 25.5-18 9.6-4.4 19.9-6.9 30.4-7.5 10.5-0.6 21.1 0.8 31.1 4 10 3.3 19.3 8.4 27.4 15.1v-78.1q0-1.6 0.2-3.2 0.3-1.6 0.9-3.1 0.6-1.5 1.4-2.9 0.9-1.3 2-2.5 1.2-1.1 2.5-2 1.3-0.9 2.8-1.5 1.4-0.6 3-0.9 1.5-0.2 3.1-0.2zm-19.9 183.8q2.1-5 3.1-10.4 1.1-5.3 1.1-10.7 0-5.5-1.1-10.8-1-5.4-3.1-10.4-1-2.4-2.3-4.7-1.2-2.3-2.6-4.5-1.5-2.2-3.1-4.3-1.7-2-3.5-3.9-1.8-1.9-3.8-3.6-2-1.7-4.1-3.2-2.2-1.5-4.5-2.8-2.2-1.3-4.6-2.3-2.5-1.2-5-2-2.6-0.8-5.3-1.4-2.6-0.5-5.3-0.8-2.7-0.3-5.4-0.2-2.7-0.1-5.4 0.2-2.7 0.3-5.4 0.8-2.6 0.6-5.2 1.4-2.6 0.8-5.1 2-2.4 1-4.7 2.3-2.2 1.3-4.4 2.8-2.1 1.5-4.1 3.1-2 1.7-3.8 3.6-1.8 1.9-3.5 3.9-1.6 2.1-3 4.3-1.5 2.2-2.7 4.5-1.2 2.3-2.2 4.7-2.1 5.1-3.2 10.5-1 5.4-1 10.8 0 5.5 1 10.9 1.1 5.4 3.2 10.5 1 2.4 2.2 4.7 1.2 2.3 2.7 4.5 1.4 2.2 3 4.3 1.7 2 3.5 3.9 1.8 1.9 3.8 3.6 2 1.7 4.1 3.1 2.2 1.5 4.4 2.8 2.3 1.3 4.7 2.3 2.5 1.2 5.1 2 2.6 0.8 5.2 1.4 2.7 0.5 5.4 0.8 2.7 0.3 5.4 0.2 2.7 0.1 5.4-0.2 2.7-0.3 5.3-0.8 2.7-0.6 5.2-1.4 2.6-0.9 5.1-2 2.4-1 4.6-2.3 2.3-1.3 4.5-2.8 2.1-1.5 4.1-3.2 2-1.7 3.8-3.6 1.8-1.8 3.5-3.9 1.6-2 3.1-4.2 1.4-2.2 2.7-4.6 1.2-2.3 2.2-4.7zm721.2-82.9q3 3 5.7 6.3 2.7 3.3 5.1 6.8 2.4 3.6 4.4 7.4 2 3.8 3.6 7.7 1.6 4 2.8 8.2 1.2 4.1 1.9 8.4 0.8 4.2 1.2 8.5 0.4 4.3 0.4 8.6c0 2.2-0.4 4.3-1.1 6.3-0.8 2-2 3.8-3.5 5.3-1.5 1.5-3.3 2.7-5.3 3.5-2 0.8-4.1 1.2-6.2 1.2h-121.3q0.6 2.1 1.4 4.2 0.8 2 1.7 4 1 2 2.1 3.9 1.1 1.9 2.4 3.7 1.2 1.7 2.6 3.4 1.4 1.7 2.9 3.2 1.5 1.5 3.1 2.9 1.6 1.5 3.3 2.7 1.7 1.3 3.5 2.4 1.8 1.2 3.7 2.2 1.8 1 3.8 1.8 2 0.8 4 1.5 2 0.7 4.1 1.3 2.1 0.5 4.3 0.9 2.1 0.3 4.3 0.5 2.2 0.2 4.3 0.2 2.4 0 4.7-0.2 2.4-0.2 4.7-0.6 2.4-0.4 4.7-1 2.2-0.6 4.5-1.4 2.1-0.8 4.2-1.8 2.1-1 4-2.1 2-1.2 3.8-2.6 1.9-1.3 3.6-2.9 1.1-0.9 2.3-1.7 1.2-0.7 2.6-1.3 1.3-0.5 2.7-0.8 1.4-0.2 2.9-0.3 1.5 0 3.1 0.3 1.5 0.3 3 0.8 1.5 0.6 2.8 1.5 1.3 0.8 2.4 1.9c1.5 1.6 2.6 3.5 3.4 5.5 0.7 2 1.1 4.1 1.1 6.3 0 2.1-0.4 4.2-1.1 6.2-0.8 2-1.9 3.9-3.4 5.5-8 7.1-17.4 12.7-27.5 16.3-10.2 3.6-20.9 5.3-31.7 4.9-10.8-0.4-21.4-2.9-31.2-7.2-9.9-4.4-18.8-10.7-26.3-18.4-8-8.2-14.3-17.9-18.6-28.6-4.3-10.6-6.5-22-6.5-33.4 0-11.5 2.2-22.9 6.5-33.5 4.3-10.6 10.6-20.3 18.6-28.6 7.9-8.1 17.3-14.6 27.7-19 10.4-4.4 21.7-6.7 33-6.7 11.3 0 22.5 2.3 32.9 6.7 10.5 4.4 19.9 10.9 27.8 19zm-9.4 45.6q-0.6-2.1-1.4-4.2-0.8-2-1.8-4-1-2-2.1-3.9-1.1-1.9-2.4-3.7-2.5-3.5-5.5-6.5-3-3.1-6.4-5.7-3.4-2.6-7.2-4.6-3.8-2-7.9-3.4-2-0.6-4.1-1.2-2-0.5-4.1-0.8-2.1-0.4-4.3-0.6-2.1-0.1-4.2-0.1-2.2 0-4.4 0.1-2.1 0.2-4.3 0.6-2.1 0.3-4.2 0.9-2.1 0.5-4.1 1.2-2.1 0.7-4 1.5-2 0.9-3.9 1.9-1.9 1-3.7 2.1-1.9 1.1-3.6 2.4-1.7 1.3-3.3 2.7-1.6 1.4-3.1 3-1.5 1.5-2.9 3.2-1.4 1.6-2.6 3.4-1.3 1.8-2.4 3.7-1.1 1.9-2 3.8-1 2-1.8 4.1-0.7 2-1.3 4.1zm177.1-60.3q1.1 1.1 1.9 2.4 0.8 1.2 1.4 2.7 0.6 1.4 0.8 2.9 0.3 1.5 0.2 3 0 0.8-0.1 1.6-0.1 0.9-0.2 1.7-0.2 0.8-0.4 1.6-0.3 0.7-0.6 1.5-0.3 0.7-0.7 1.4-0.4 0.7-0.8 1.4-0.5 0.7-1 1.3-0.5 0.6-1 1.2-0.6 0.5-1.1 1-0.6 0.5-1.3 1-0.6 0.4-1.3 0.8-0.7 0.4-1.4 0.7-0.7 0.3-1.5 0.5-0.8 0.3-1.6 0.4-0.7 0.2-1.5 0.2-0.9 0.1-1.7 0.1-0.8 0-1.7-0.2-0.9-0.1-1.7-0.3-0.9-0.2-1.7-0.5-0.8-0.3-1.6-0.7-2.5-1-5.1-1.8-2.5-0.7-5.2-1.2-2.6-0.5-5.3-0.7-2.7-0.3-5.3-0.2-2.7-0.1-5.4 0.2-2.7 0.3-5.3 0.8-2.7 0.6-5.2 1.4-2.6 0.8-5.1 1.9-2.4 1-4.7 2.3-2.2 1.3-4.4 2.7-2.1 1.5-4.1 3.2-2 1.7-3.9 3.5-1.8 1.9-3.4 4-1.7 2-3.1 4.2-1.5 2.2-2.7 4.5-1.2 2.3-2.2 4.8-1.1 2.5-1.9 5.2-0.8 2.6-1.3 5.3-0.5 2.7-0.8 5.4-0.2 2.8-0.2 5.5v71.5q0 1.6-0.3 3.1-0.3 1.6-0.9 3.1-0.6 1.5-1.5 2.8-0.9 1.3-2 2.5-1.1 1.1-2.4 2-1.3 0.9-2.7 1.6-1.5 0.6-3 0.9-1.6 0.3-3.1 0.3-1.6 0-3.2-0.3-1.6-0.3-3-0.9-1.5-0.7-2.8-1.6-1.4-0.9-2.5-2-1.1-1.2-2-2.5-0.9-1.3-1.5-2.8-0.6-1.5-0.9-3.1-0.3-1.5-0.2-3.1v-142.9q-0.1-1.6 0.2-3.2 0.3-1.5 0.9-3 0.6-1.5 1.5-2.8 0.9-1.4 2-2.5 1.2-1.1 2.5-2 1.3-0.9 2.8-1.6 1.4-0.6 3-0.9 1.6-0.3 3.2-0.3 1.5 0 3.1 0.3 1.5 0.3 3 0.9 1.4 0.7 2.7 1.6 1.3 0.9 2.4 2 1.1 1.1 2 2.5 0.9 1.3 1.5 2.8 0.6 1.5 0.9 3 0.3 1.6 0.3 3.2v3.1q2.8-2.3 5.8-4.3 2.9-2.1 6.1-3.9 3.1-1.8 6.4-3.3 3.3-1.6 6.7-2.8 3.4-1.3 7-2.3 3.5-0.9 7.1-1.6 3.7-0.6 7.3-0.9 3.7-0.3 7.4-0.3 1.8 0 3.6 0.1 1.8 0 3.6 0.2 1.8 0.1 3.6 0.3 1.8 0.1 3.7 0.4 1.8 0.2 3.6 0.5 1.8 0.3 3.6 0.7 1.8 0.4 3.5 0.9 1.8 0.6 3.5 1.2 1.5 0.5 2.9 1.2 1.5 0.7 2.8 1.5 1.4 0.9 2.7 1.9 1.2 0.9 2.4 2zm-682.6 21q2.7 3.3 5 6.9 2.4 3.6 4.4 7.4 2 3.8 3.6 7.8 1.6 4 2.8 8.1 1.1 4.2 1.9 8.4 0.8 4.3 1.2 8.6 0.4 4.3 0.5 8.6c0.1 5.7-0.4 11.4-1.4 17.1-1.1 5.6-2.7 11.1-4.8 16.4-2.2 5.3-4.9 10.4-8.1 15.2-3.1 4.8-6.8 9.2-10.8 13.2-7.9 8.2-17.4 14.6-27.8 19-10.4 4.4-21.6 6.7-32.9 6.7-11.3 0-22.6-2.3-33-6.7-10.4-4.4-19.8-10.8-27.7-19-8-8.2-14.3-17.9-18.6-28.6-4.3-10.6-6.5-21.9-6.5-33.4 0-11.5 2.2-22.8 6.5-33.5 4.3-10.6 10.6-20.3 18.6-28.6 7.9-8.1 17.3-14.6 27.7-19 10.4-4.4 21.6-6.7 33-6.7 11.3 0 22.5 2.3 32.9 6.7 10.5 4.4 19.9 10.9 27.8 19q3 3.1 5.7 6.4zm-16.9 76.8q2.1-5.1 3.2-10.4 1-5.4 1-10.8 0-5.5-1-10.8-1.1-5.4-3.2-10.4-1-2.4-2.2-4.7-1.3-2.4-2.7-4.5-1.4-2.2-3.1-4.3-1.6-2.1-3.4-3.9-1.8-1.9-3.8-3.6-2-1.7-4.2-3.2-2.1-1.5-4.4-2.8-2.3-1.3-4.7-2.3-2.5-1.2-5-2-2.6-0.8-5.2-1.4-2.7-0.5-5.4-0.8-2.6-0.3-5.3-0.2-2.8-0.1-5.5 0.2-2.7 0.3-5.4 0.8-2.6 0.6-5.2 1.4-2.6 0.8-5.1 2-2.4 1-4.6 2.3-2.3 1.3-4.5 2.8-2.1 1.4-4.1 3.1-2 1.7-3.8 3.6-1.8 1.9-3.4 3.9-1.7 2.1-3.1 4.3-1.5 2.2-2.7 4.5-1.2 2.3-2.2 4.7-2.1 5.1-3.2 10.5-1 5.4-1 10.8 0 5.5 1 10.9 1.1 5.4 3.2 10.5 1 2.4 2.2 4.7 1.2 2.3 2.7 4.5 1.4 2.2 3.1 4.3 1.6 2 3.4 3.9 1.8 1.9 3.8 3.6 2 1.7 4.1 3.2 2.2 1.4 4.4 2.7 2.3 1.3 4.7 2.3 2.5 1.2 5.1 2 2.6 0.8 5.2 1.4 2.7 0.5 5.4 0.8 2.7 0.3 5.5 0.2 2.7 0.1 5.3-0.2 2.7-0.3 5.4-0.8 2.6-0.6 5.2-1.4 2.5-0.8 5-2 2.4-1 4.7-2.3 2.3-1.3 4.4-2.8 2.2-1.5 4.2-3.2 1.9-1.7 3.8-3.6 1.8-1.8 3.4-3.9 1.7-2 3.1-4.2 1.5-2.2 2.7-4.6 1.2-2.3 2.2-4.7zm367.8-92.7q0.2 1.9-0.2 3.7-0.3 1.9-1.1 3.6-0.8 1.7-2 3.2-1.2 1.4-2.8 2.5l-64.1 42.7 65.8 75.8q1.1 1.2 2 2.5 0.8 1.3 1.4 2.8 0.5 1.4 0.8 3 0.3 1.5 0.3 3.1 0 0.8-0.1 1.6-0.1 0.8-0.2 1.6-0.2 0.8-0.4 1.6-0.3 0.7-0.6 1.5-0.3 0.7-0.7 1.4-0.4 0.7-0.8 1.4-0.5 0.6-1 1.2-0.4 0.7-1 1.2-0.5 0.6-1.1 1.1-0.6 0.5-1.2 0.9-0.7 0.5-1.4 0.9-0.6 0.3-1.4 0.6-0.7 0.4-1.5 0.6-0.7 0.2-1.5 0.4-0.8 0.2-1.6 0.2-0.8 0.1-1.6 0.1-1.5 0.1-3-0.2-1.5-0.3-2.8-0.8-1.4-0.5-2.7-1.4-1.2-0.8-2.3-1.8l-70.8-81.2-18.7 12.5v56.5q0.1 1.7-0.2 3.2-0.3 1.6-0.9 3.1-0.6 1.5-1.5 2.9-0.9 1.3-2 2.5-1.1 1.1-2.4 2.1-1.3 0.9-2.7 1.5-1.5 0.6-3 0.9-1.6 0.3-3.2 0.3-1.6 0-3.1-0.3-1.6-0.3-3.1-0.9-1.5-0.6-2.8-1.5-1.3-1-2.4-2.1-1.1-1.2-2-2.5-0.9-1.4-1.5-2.9-0.6-1.5-0.9-3.1-0.3-1.5-0.3-3.2v-217.7q0-1.6 0.3-3.2 0.3-1.6 0.9-3.2 0.6-1.5 1.5-2.8 0.9-1.4 2-2.5 1.1-1.2 2.4-2.1 1.4-0.9 2.8-1.5 1.5-0.6 3.1-0.9 1.5-0.3 3.1-0.3 1.6 0 3.1 0.3 1.6 0.3 3 0.9 1.5 0.6 2.8 1.5 1.3 0.9 2.4 2.1 1.1 1.1 2 2.5 0.9 1.3 1.5 2.9 0.6 1.5 0.9 3.1 0.3 1.6 0.2 3.2v122.1l91.5-60.8q1-0.7 2-1.1 1-0.5 2.1-0.8 1.1-0.4 2.3-0.5 1.1-0.2 2.2-0.1 0.8 0 1.6 0 0.8 0.1 1.6 0.3 0.8 0.2 1.6 0.4 0.7 0.2 1.5 0.5 0.7 0.3 1.4 0.7 0.7 0.4 1.3 0.8 0.6 0.5 1.2 1 0.6 0.5 1.2 1 0.5 0.6 1 1.2 0.5 0.6 0.9 1.3 0.5 0.7 0.9 1.4 0.3 0.6 0.7 1.4 0.3 0.7 0.5 1.5 0.3 0.7 0.4 1.5 0.2 0.8 0.3 1.6 0 0.8 0 1.6zm-266 32.8q-1.8 1.9-3.5 4-1.7 2-3.1 4.2-1.5 2.2-2.7 4.5-1.2 2.3-2.3 4.8-2 5.1-3.1 10.5-1.1 5.5-1.1 11 0 5.5 1.1 10.9 1.1 5.5 3.1 10.6 1 2.4 2.3 4.8 1.2 2.3 2.7 4.5 1.4 2.2 3.1 4.2 1.7 2.1 3.5 3.9 1.9 1.9 3.9 3.6 2 1.6 4.1 3.1 2.2 1.5 4.5 2.8 2.3 1.2 4.7 2.3 2.4 1 5 1.9 2.6 0.8 5.2 1.3 2.7 0.6 5.3 0.8 2.7 0.3 5.4 0.3 2.4 0 4.8-0.2 2.4-0.2 4.7-0.7 2.4-0.4 4.7-1.1 2.3-0.6 4.5-1.5 2.3-0.9 4.4-2 2.1-1.1 4.2-2.3 2-1.3 3.9-2.7 2-1.5 3.8-3.1 1-0.8 2.2-1.5 1.2-0.6 2.5-1 1.3-0.5 2.6-0.7 1.4-0.3 2.7-0.3 1.6 0 3.2 0.3 1.6 0.2 3 0.8 1.5 0.6 2.8 1.5 1.3 0.9 2.5 2 1.1 1.2 1.9 2.5 0.9 1.4 1.5 2.9 0.6 1.5 0.8 3.1 0.3 1.6 0.3 3.2 0 1.7-0.4 3.3-0.3 1.7-0.9 3.2-0.7 1.6-1.6 3-1 1.4-2.2 2.6c-3.8 3.4-7.8 6.5-12.2 9.2-4.3 2.7-8.9 5-13.7 6.8-4.8 1.8-9.7 3.2-14.7 4.1-5 0.8-10.1 1.3-15.3 1.2-5.6 0.1-11.3-0.4-16.8-1.5-5.6-1.1-11-2.8-16.2-5-5.2-2.2-10.2-4.9-14.8-8.2-4.7-3.2-9-6.9-12.9-11-7.9-8.3-14.2-18-18.5-28.6-4.3-10.6-6.5-22-6.5-33.5 0-11.4 2.2-22.8 6.5-33.4 4.3-10.7 10.6-20.4 18.5-28.6 3.9-4.1 8.2-7.8 12.9-11.1 4.6-3.2 9.6-5.9 14.8-8.1 5.2-2.2 10.7-3.9 16.2-5 5.6-1 11.2-1.6 16.9-1.5 5.1 0 10.2 0.4 15.2 1.3 5.1 0.8 10 2.2 14.8 4 4.7 1.9 9.3 4.1 13.7 6.8 4.3 2.7 8.4 5.8 12.1 9.3 1.7 1.5 3 3.3 4 5.3 0.9 2.1 1.4 4.3 1.5 6.5 0.1 2.2-0.2 4.5-1 6.6-0.8 2.1-1.9 4-3.5 5.6q-1.1 1.2-2.4 2.1-1.3 0.9-2.7 1.5-1.5 0.6-3.1 0.9-1.5 0.3-3.1 0.2-1.5 0-2.9-0.2-1.4-0.3-2.7-0.7-1.3-0.5-2.6-1.2-1.2-0.7-2.3-1.7-1.8-1.5-3.8-3-1.9-1.4-4-2.7-2-1.3-4.2-2.4-2.1-1.1-4.4-2-2.2-0.9-4.5-1.6-2.3-0.6-4.7-1.1-2.3-0.4-4.7-0.6-2.4-0.2-4.8-0.2-2.7 0-5.4 0.3-2.6 0.2-5.3 0.8-2.6 0.5-5.2 1.3-2.6 0.8-5 1.9-2.4 1.1-4.7 2.3-2.3 1.3-4.5 2.8-2.1 1.4-4.1 3.1-2 1.7-3.9 3.6z"/>
	</g>
</svg>