<svg version="1.2" xmlns="http://www.w3.org/2000/svg" viewBox="0 0 1936 430" width="1936" height="430">
	<title>scada-svg</title>
	<style>
		.s0 { fill: #ffffff } 
	</style>
	<g id="Mohsine-icons">
		<path id="Electric Motor" class="s0" aria-label="Electric Motor"  d="m58.2 232.3v37.4h97.8v39.3h-148.3v-188.6h147.1v39.2h-96.6v33.4h83.3v39.3zm173.2 76.7h-49.9v-206h49.9zm162.9-68.1v12.1h-89.7q0.7 8.4 4.8 13.2 4.2 4.9 13.4 7 9.2 2.2 25.2 2.2 17.5 0 37.6-4v36q-22.3 4.3-45 4.3-29.8 0-48.6-7.6-18.9-7.8-28-23.7-9-16-9-41.2 0-22.4 8.3-38.6 8.4-16.3 24.4-25 16.2-8.7 39.3-8.7 21.9 0 37 8.8 15 8.7 22.6 25.3 7.7 16.5 7.7 39.9zm-67.9-43.5q-11.1 0-16.5 6.6-5.2 6.7-5.6 21.7h43.9q-0.4-15-5.6-21.7-5.3-6.6-16.2-6.6zm165.6 114.3q-39.8 0-60.9-18.3-21-18.5-21-53.9 0-35.6 21.9-54.1 22.1-18.5 63.5-18.5 19.9 0 35.4 3.6v38.5q-16.2-2.8-29.2-2.8-21.1 0-30.8 8-9.7 8.1-9.7 25 0 17.1 9.3 25.2 9.4 8.1 28.3 8.1 7.1 0 14.4-1.1 7.4-1.1 17.7-3.5v38.5q-8 2.5-18.1 3.9-9.9 1.4-20.8 1.4zm146.5-40.3q5.7 0 14.8-1.5v38.5q-6.5 1.4-14.3 2.4-7.8 0.9-14.8 0.9-57.7 0-57.7-55.4v-48.2h-22.7v-38.9h22.7l9.2-48.8h40.7v48.8h36.5v38.9h-36.5v39.6q0 9.1 2.2 14.3 2.3 5.1 7 7.3 4.7 2.1 12.9 2.1zm35.8 37.6v-139.8h40.7l3.9 17.1h2.2q5.7-9.7 15.4-14.4 9.7-4.8 22.3-4.8 5.5 0 12.4 1v44.5q-6.3-1.2-15.5-1.2-9 0-17.8 3-8.7 2.8-13.6 7.9v86.7zm166.3 0h-50.1v-139.8h50.1zm-25.1-156.3q-30.1 0-30.1-24.5 0-24.4 30.1-24.4 30 0 30 24.4 0 24.5-30 24.5zm130.6 159q-39.9 0-60.9-18.3-21-18.5-21-54 0-35.5 21.9-54 22-18.5 63.4-18.5 19.9 0 35.5 3.6v38.5q-16.2-2.8-29.2-2.8-21.2 0-30.9 8-9.6 8-9.6 25 0 17.1 9.3 25.2 9.4 8.1 28.3 8.1 7.1 0 14.4-1.1 7.4-1.1 17.7-3.5v38.5q-8.1 2.5-18.1 3.9-10 1.4-20.8 1.4zm245.2-80.9l49.1-110.4h62v188.6h-47.6v-124l-43.2 96.4h-41.8l-43.4-92.2v119.8h-47.6v-188.6h62.2zm213.1 80.9q-23.4 0-40.6-8.2-17-8.5-26.3-24.8-9.2-16.3-9.2-39.3 0-23.4 8.9-39.6 8.9-16.1 26-24.4 17.1-8.4 41.2-8.4 24 0 41.1 8.4 17.1 8.3 26 24.4 9.1 16.2 9.1 39.4 0 23.1-9.3 39.4-9.3 16.3-26.5 24.7-17.1 8.4-40.4 8.4zm0-37.4q13.2 0 19.7-8.1 6.6-8 6.6-26.7 0-18.9-6.6-26.9-6.5-8-19.7-8-13.2 0-19.8 8-6.5 7.9-6.5 26.6 0 18.9 6.5 27 6.5 8.1 19.8 8.1zm178.3-2.8q5.7 0 14.7-1.6v38.5q-6.5 1.4-14.2 2.4-7.8 0.9-14.8 0.9-57.7 0-57.7-55.4v-48.2h-22.7v-38.8h22.7l9.1-48.9h40.8v48.9h36.5v38.8h-36.5v39.7q0 9 2.2 14.2 2.3 5.1 7 7.3 4.7 2.2 12.9 2.2zm104 40.2q-23.4 0-40.6-8.2-17-8.5-26.4-24.8-9.1-16.3-9.1-39.3 0-23.4 8.9-39.6 8.9-16.1 26-24.4 17.1-8.4 41.2-8.4 24 0 41.1 8.4 17.1 8.3 26 24.4 9.1 16.2 9.1 39.4 0 23.1-9.3 39.4-9.3 16.3-26.5 24.7-17.1 8.4-40.4 8.4zm0-37.4q13.2 0 19.7-8.1 6.6-8 6.6-26.7 0-18.9-6.6-26.9-6.5-8-19.7-8-13.2 0-19.8 8-6.5 7.9-6.5 26.6 0 18.9 6.5 27 6.5 8.1 19.8 8.1zm99.7 34.8v-139.8h40.7l4 17h2.1q5.8-9.7 15.4-14.4 9.7-4.8 22.3-4.8 5.5 0 12.4 1v44.5q-6.2-1.2-15.4-1.2-9.1 0-17.9 3-8.6 2.8-13.6 7.9v86.8z"/>
	</g>
</svg>