<svg version="1.2" xmlns="http://www.w3.org/2000/svg" viewBox="0 0 1377 430" width="1377" height="430">
	<title>css-svg</title>
	<style>
		.s0 { fill: #7dfcda } 
	</style>
	<g id="Mohsine-icons">
	</g>
	<path id="Layer" fill-rule="evenodd" class="s0" d="m523.7 123.6q-10.5 0-19.2 2.8-8.4 2.6-14.8 8.7-6.1 5.8-9.8 15.2-3.5 9.4-4 22.4-0.7 21.1 0 42.2 0.5 13.1 4 22.4 3.7 9.3 9.8 15.4 6.4 5.9 14.8 8.7 8.7 2.6 19.2 2.6 10.4 0 19.2-2.8 8.9-3.1 15.3-8.9 6.6-6.1 10.3-15.4 3.8-9.4 3.8-22.1v-11.9h-40.9q-5.1 0-5.1-5.3v-3.3q0-5.2 5.1-5.2h50.2q5.2 0 5.2 5.2v20.6q0 14.1-4.2 25.8-4.2 11.5-12.4 20-8 8.4-19.9 13.1-11.9 4.5-26.8 4.5-15.2 0-26.7-4.5-11.5-4.7-19.4-12.9-7.8-8.2-12-19.4-4-11.5-4.4-25.4-0.5-10.5-0.5-22.2 0-11.9 0.5-22.3 0.4-13.8 4.7-25.1 4.2-11.5 11.9-19.7 8-8.2 19.5-12.6 11.4-4.7 26.4-4.7 16.2 0 27.7 4.9 11.5 4.9 18.8 11.8 7.2 6.9 10.7 14.4 3.6 7.5 3.8 12.4 0.2 2.1-1.2 3.5-1.4 1.2-3.7 1.2h-5.2q-2.1 0-3-0.9-1-1.2-1.9-3.8-1.9-5.3-5.3-10.5-3.3-5.3-8.9-9.4-5.6-4.2-13.3-6.8-7.8-2.6-18.3-2.6zm110.7 46.7q8.4-16.2 31.8-16.2h8.7q5.2 0 5.2 5.1v3.3q0 5.2-5.2 5.2h-10.1q-14 0-22.2 8.2-8.2 8.2-8.2 22.2v72.7q0 2.3-1.7 3.7-1.4 1.4-3.7 1.4h-3.8q-5.1 0-5.1-5.1v-111.4q0-2.3 1.4-3.7 1.4-1.6 3.7-1.6h3.8q2.3 0 3.7 1.6 1.7 1.4 1.7 3.7c0 0 0 10.8 0 10.9q0 0 0 0 0 0 0 0zm144.7 105.7q-5.1 0-5.1-5.1v-11.1q-2.1 3.3-5.7 6.6-3.2 3.3-8.2 5.9-4.9 2.6-11.8 4.2-6.8 1.9-15.9 1.9-8.4 0-16.2-2.6-7.5-2.8-13.4-7.5-5.6-4.7-9.1-11-3.3-6.4-3.3-13.9 0-7.9 3.3-14.3 3.5-6.3 9.6-11 6.1-4.9 14.5-7.9 8.7-3.3 19-4.7l37.1-5.2v-8.2q0-12.6-7.8-19.7-7.5-7-24.1-7-13.1 0-20.4 5.2-7 4.9-8.9 10.7-0.9 2.9-2.3 4-1.2 1-3.3 1h-3.3q-2.1 0-3.8-1.5-1.4-1.6-1.4-3.7 0-3.3 2.4-8.2 2.3-4.9 7.5-9.6 5.2-4.7 13.6-8 8.2-3.5 19.9-3.5 13.8 0 22.8 3.8 9.1 3.7 14.3 9.8 5.1 5.9 7 13.1 2.1 7.3 2.1 14.3v78.1q0 5.1-5.2 5.1c0 0-3.9 0-3.9 0zm-44.3-11.2q8 0 15-2.6 7.3-2.8 12.7-8.2 5.3-5.3 8.4-13.6 3.1-8.2 3.1-19.2v-8l-30.3 4.2q-38.9 5.3-38.9 24.9 0 5.8 2.6 10.1 2.8 4.2 7 7 4.2 2.8 9.6 4.2 5.3 1.2 10.8 1.2zm144.2 13.6q-14.8 0-24.1-5.3-9.4-5.3-15.3-13.1v55.5q0 5.2-5.1 5.2h-4q-5.2 0-5.2-5.2v-156.3q0-5.1 5.2-5.1h4q5.1 0 5.1 5.1v11q5.9-7.9 15.3-13.1 9.3-5.2 24.1-5.2 13.6 0 23 4.9 9.6 4.7 15.5 12.6 5.8 7.8 8.4 17.9 2.8 9.8 3.3 20.1 0.2 3.5 0.2 7.8 0 4.2-0.2 7.7-0.5 10.3-3.3 20.4-2.6 9.8-8.4 17.8-5.9 7.8-15.5 12.7c-6.3 3.1-13.9 4.7-23 4.6zm-39.4-71.8q-0.2 3.5-0.2 9.2 0 5.6 0.2 9.1 0.3 7 2.4 14.3 2.3 7 7 12.7 4.7 5.6 11.9 9.3 7 3.5 16.8 3.5 10.4 0 17.1-3.5 7.1-3.5 11.3-9.3 4.4-6.1 6.3-13.9 2.1-7.9 2.6-16.4 0.2-6.5 0-13.1-0.5-8.4-2.6-16.2-1.9-7.7-6.3-13.6-4.2-6.1-11.3-9.6-6.8-3.7-17.1-3.7-10.1 0-17.1 3.7-7 3.8-11.8 9.9-4.5 5.8-6.8 13.1-2.1 7.2-2.4 14.5zm136-36.3q0 0 0 0 0 0 0 0 6.3-8.2 15.3-13.4 8.8-5.2 24.1-5.2 12 0 20.9 4 8.8 4 14.7 11 6.1 7.1 9.2 16.7 3 9.6 3 20.8v66.6q0 5.2-5.1 5.2h-4q-5.1 0-5.1-5.2v-65.4q0-18.7-9.2-29.3-9.1-10.8-26.7-10.8-16.9 0-26.9 10.5-10.1 10.6-10.1 29.6v65.4q0 5.2-5.2 5.2h-4q-5.1 0-5.1-5.2v-156.1q0-5.2 5.1-5.2h4q5.2 0 5.2 5.2c0 0 0 55.5-0.1 55.6q0 0 0 0 0 0 0 0zm182.8-60.7q13.6 0 24.9 3.9 11.2 4 19.2 12.2 8.2 8 12.7 20.2 4.6 11.9 5.1 28.4 0.5 10.5 0.5 19.6 0 9.2-0.5 19.7-1.2 33.6-17.1 49.3l15 21.1q0.3 0.4 0.5 0.9 0.2 0.4 0.2 1.6 0 1.9-1.4 3.3-1.4 1.4-3.3 1.4h-5.1q-2.6 0-4.5-2.1-1.8-1.9-3-3.3l-10.4-14.3q-14.1 6.8-32.8 6.8-29.3 0-45.2-15.7-15.7-15.7-16.7-49-0.5-10.5-0.5-19.7 0-9.1 0.5-19.6 0.5-16.5 4.9-28.4 4.7-12.2 12.7-20.2 8.2-8.2 19.2-12.2 11.3-3.9 25.1-3.9zm0 14q-9.8 0-18.3 3.1-8.4 2.8-14.7 9.1-6.3 6.3-10.1 16.2-3.5 9.9-4 23.4-0.2 5.3-0.5 9.9 0 4.4 0 8.7 0 4.2 0 8.8 0.3 4.5 0.5 9.6 0.5 13.9 4 23.7 3.7 9.6 9.8 16 6.4 6.3 14.8 9.3 8.4 2.8 18.5 2.8 10.1 0 18.5-2.8 8.4-3 14.5-9.3 6.3-6.4 9.8-16 3.8-9.8 4.2-23.7 0.3-5.1 0.3-9.6 0-4.6 0-8.8 0-4.2 0-8.7 0-4.5-0.3-9.9-0.4-13.6-4.2-23.4-3.5-9.8-9.8-16.2-6.3-6.3-14.8-9.1c-5.6-2-11.7-3.1-18.2-3.1zm114.4 138.3h80.9q5.3 0 5.3 5.3v3.5q0 5.1-5.3 5.1h-90.5q-5.1 0-5.1-5.1v-153.7q0-5.1 5.1-5.1h4.5q5.1 0 5.1 5.1c0 0 0 144.9 0 144.9zm-1238.4 66l-15.8-9.2 176.1-304.9 15.8 9.1z"/>
	<path id="Layer" class="s0" d="m15 294.4h352.2v18.2h-352.2z"/>
	<path id="Layer" class="s0" d="m198.2 406.3l-176.2-101.7 9.1-15.8 176.2 101.7zm153-265.1l-176.1-101.6 9.1-15.8 176.1 101.7z"/>
	<path id="Layer" class="s0" d="m31.2 141.2l-9.2-15.8 176.3-101.6 9.2 15.8z"/>
	<path id="Layer" fill-rule="evenodd" class="s0" d="m347.9 327.9l-6.4-11.2h11.8v-15.9l10.4 17.9zm-176.1-304.9l15.8-9.2 147.5 255.4v36.5zm-142.9 90.4h18.3v203.4h-18.3zm306.1 203.3h6.4l-6.4-11zm18.3-203.4h-18.3v155.8l18.3 31.6z"/>
	<path id="Layer" class="s0" d="m195 398.6l-7.9-13.8 153.2-88.5 7.9 13.8z"/>
	<path id="Layer" class="s0" d="m377.5 322.6c-2.5 4.4-5.9 8.2-9.9 11.3-4 3.1-8.5 5.3-13.4 6.6-4.9 1.3-9.9 1.7-14.9 1-5-0.7-9.9-2.3-14.2-4.8-4.4-2.5-8.2-5.9-11.3-9.9-3-4-5.3-8.5-6.6-13.4-1.3-4.9-1.6-10-1-15 0.7-5 2.3-9.8 4.8-14.2 2.5-4.3 5.9-8.1 9.9-11.2 4-3.1 8.6-5.3 13.4-6.6 4.9-1.3 10-1.7 15-1 5 0.6 9.8 2.3 14.2 4.8 18.4 10.5 24.7 34.2 14 52.4zm-306.3-176.9c-2.5 4.4-5.8 8.2-9.8 11.3-4 3.1-8.6 5.3-13.5 6.6-4.8 1.3-9.9 1.7-14.9 1-5-0.6-9.8-2.3-14.2-4.8-4.4-2.5-8.2-5.9-11.3-9.9-3-4-5.3-8.5-6.6-13.4-1.3-4.9-1.6-9.9-1-14.9 0.7-5 2.3-9.9 4.8-14.2 2.5-4.4 5.9-8.2 9.9-11.3 4-3.1 8.6-5.3 13.4-6.6 4.9-1.3 10-1.7 15-1 5 0.6 9.8 2.3 14.2 4.8 18.3 10.5 24.6 34.2 14 52.4zm-66.4 176.9c-10.5-18.3-4.2-41.7 14.1-52.4 18.4-10.6 41.8-4.3 52.5 14.1 10.5 18.3 4.3 41.7-14.1 52.4-18.5 10.6-41.9 4.3-52.5-14.1zm306.3-176.9c-10.5-18.3-4.2-41.7 14.1-52.4 18.4-10.6 41.8-4.3 52.5 14.1 10.5 18.3 4.3 41.8-14.1 52.4-4.4 2.5-9.2 4.2-14.2 4.8-5 0.7-10.1 0.3-14.9-1-4.9-1.3-9.5-3.5-13.5-6.6-4-3.1-7.3-6.9-9.9-11.3zm-119.9 284.6c-21.3 0-38.4-17.2-38.4-38.4 0-21.2 17.2-38.3 38.4-38.3 21.1 0 38.3 17.1 38.3 38.3 0 5.1-1 10.1-2.9 14.7-2 4.7-4.8 8.9-8.3 12.4-3.6 3.6-7.8 6.4-12.5 8.4-4.6 1.9-9.6 2.9-14.6 2.9zm0-353.8c-21.3 0-38.4-17.1-38.4-38.4 0-21.2 17.2-38.3 38.4-38.3 21.1 0 38.3 17.1 38.3 38.3 0 5.1-1 10.1-2.9 14.7-1.9 4.7-4.7 8.9-8.3 12.5-3.6 3.5-7.8 6.4-12.5 8.3-4.6 1.9-9.6 2.9-14.6 2.9z"/>
</svg>