<svg version="1.2" xmlns="http://www.w3.org/2000/svg" viewBox="0 0 1318 430" width="1318" height="430">
	<title>css-svg</title>
	<style>
		.s0 { fill: #ffffff } 
		.s1 { fill: #49caa8 } 
		.s2 { fill: #7cfcda } 
		.s3 { fill: #1b1f24 } 
	</style>
	<g id="Mohsine-icons">
		<g id="CSS">
			<path id="Layer" class="s0" d="m439.3 113.1h68v67.1h62.1v-67.1h68v203.3h-68v-68h-62.1v68h-68zm287.4 67.4h-59.9v-67.4h187.6v67.4h-59.8v135.9h-68v-135.9zm157.5-67.4h70.9l43.6 71.5 43.5-71.5h70.8v203.3h-67.7v-100.8l-46.8 72.3h-1.1l-46.6-72.3v100.8h-66.5zm262.7 0h68v136.2h95.5v67.2h-163.5z"/>
			<path id="Layer" class="s1" d="m-0.2-0.2h377.2l-34.4 385-154.4 42.8-154.1-42.7z"/>
			<path id="Layer" class="s2" d="m313.2 360.3l29.4-329h-154.1v363.6z"/>
			<path id="Layer" class="s3" d="m125.9 174.1l-4.3-48.4h66.9v-47.2h-118.4l12.8 142.8h105.6v-47.2zm-41.1 70.9l6.6 74.1 96.8 26.9 0.2-0.1v-49.1l-0.2 0.1-52.5-14.4-3.3-37.6h-25.6z"/>
			<path id="Layer" class="s3" d="m296.9 186.8l1.1-12.7h-109.8v47.2h58.2l-5.5 61.2-52.7 14.3v49.1l96.9-26.8 0.7-8zm-108.5-61.1h114.1l4.2-47.3h-118.3v47.1z"/>
		</g>
	</g>
</svg>