<svg version="1.2" xmlns="http://www.w3.org/2000/svg" viewBox="0 0 2245 430" width="2245" height="430">
	<title>css-svg</title>
	<style>
		.s0 { fill: #ffffff } 
		.s1 { fill: #49caa8 } 
		.s2 { fill: #7cfcda } 
		.s3 { fill: #1b1f24 } 
	</style>
	<g id="layer1">
		<g id="g29">
			<path id="JavaScript" class="s0" aria-label="JavaScript"  d="m576.4 109.9v170.5q0 38.5-27.2 65.7-27.3 27.3-65.8 27.3l-15.5-62h15.5q12.7 0 21.7-9 9.3-9.3 9.3-22v-108.5h-68.2v-62zm164.3 0l68.2 201.5h-65.1l-8.3-24.8h-70.1l-8.4 24.8h-65.1l68.2-201.5zm-60.7 133.3h40.9l-20.5-60.1zm239-133.3h65.1l-68.2 201.5h-80.6l-68.2-201.5h65.1l43.4 128.3zm172.1 0l68.2 201.5h-65.1l-8.4-24.8h-70l-8.4 24.8h-65.1l68.2-201.5zm-60.8 133.3h41l-20.5-60.1zm330.5-133.3v62h-81.9q-2.8 0.9-2.8 3.7 0 1.6 1 3.1l24.1 13.6q37.9 21.1 37.9 57.1 0 25.7-18.3 44-18 18-43.7 18h-124v-62h103.5q2.8-0.9 2.8-3.7 0-1.6-0.9-3.1l-24.2-13.7q-37.8-21.1-37.8-57 0-25.7 17.9-43.7 18.3-18.3 44.1-18.3zm186 139.5v62h-69.8q-41.8 0-71.3-29.5-29.4-29.4-29.4-71.3 0-41.5 29.4-71 29.8-29.7 71.3-29.7h69.8v62h-69.8q-16.1 0-27.6 11.5-11.1 11.1-11.1 27.2 0 16.2 11.1 27.6 11.5 11.2 27.6 11.2zm207.7 0v62h-40.3q-24.8 0-43.4-18.6l-46.5-46.5v65.1h-62v-201.5h117.8q28.2 0 48.1 20.1 20.1 19.9 20.1 48.1 0 20.1-11.2 37.2-10.8 16.7-29.1 25.1 4 9 15.5 9zm-68.2-71.3q0-15.5-18.6-15.5h-43.4v31h43.4q18.6 0 18.6-15.5zm145.7-68.2v201.5h-62v-201.5zm201.5 68.2q0 28.2-20.1 48.3-19.9 19.9-48.1 19.9h-55.8v65.1h-62v-201.5h117.8q28.2 0 48.1 20.1 20.1 19.9 20.1 48.1zm-62 0q0-15.5-18.6-15.5h-43.4v31h43.4q18.6 0 18.6-15.5zm263.5-68.2v62h-62v139.5h-62v-139.5h-62v-62z"/>
		</g>
		<g id="g37">
			<g id="JS-icon">
				<path id="Layer" class="s1" d="m31.5 384.8l-31.5-384.8 376 0.8-33.3 384-153.3 44.4z"/>
				<path id="Layer" class="s2" d="m189.4 392v-355.4l154.9 0.6-27.7 317.9z"/>
				<g id="Layer">
					<path id="Layer" fill-rule="evenodd" class="s3" d="m172.8 78.8h-40.9v236.6l-31.8-6.1v-31.8l-37.9-6.1v71.2l110.6 28.9zm30.7 170.8l70.2-10.1-3.8 62.1-66.4 22.8v47l98.2-22.8 7.6-150.1h-62.5v-74.4h62.5l7.6-45.3h-113.4z"/>
				</g>
			</g>
		</g>
	</g>
</svg>