<svg version="1.2" xmlns="http://www.w3.org/2000/svg" viewBox="0 0 1832 430" width="1832" height="430">
	<title>css-svg</title>
	<style>
		.s0 { fill: #7dfcda } 
		.s1 { fill: #16191c } 
	</style>
	<g id="Mohsine-icons">
	</g>
	<path id="Layer" fill-rule="evenodd" class="s0" d="m639.9 219.5q4.6 10.1 8.7 20.6 1-2.6 2-5.3 1.1-2.6 2.2-5.2 1.1-2.7 2.3-5.3 1.1-2.6 2.3-5.1c3.1-6.7 6.4-13.4 9.6-19.8l91.2-179.8c1.7-3.1 3.3-5.4 5.1-7.3 1.6-1.6 3.6-2.9 5.8-3.8 2.2-0.9 4.5-1.2 7.2-1.2h72.4v355.7h-72.7v-204.8c0-10 0.5-20.6 1.4-32.2l-94.3 182.9c-2.9 5.8-6.8 10-11.7 13-4.9 2.9-10.7 4.4-17 4.4h-11.2c-6.4 0-12-1.5-17.1-4.4-4.8-2.9-8.8-7.2-11.7-13l-95-183.1c0.7 5.8 1.1 11.4 1.4 17 0.4 5.6 0.6 10.9 0.6 15.6v204.6h-72.8v-355.7h72.4c2.7 0 5.1 0.3 7.3 1.2 2.1 0.9 3.9 2 5.7 3.8 1.7 1.7 3.5 4.2 5.1 7.3l91.6 180.7c3 6.2 6.3 12.5 9.2 19.2zm599.1-34.5c0 15.3-1.6 30-4.7 44.1-3.3 14.1-7.8 27.3-13.8 39.6-5.9 12.3-13.2 23.9-22 34.4-8.7 10.7-18.7 19.9-29.7 28.1l90.1 98.4h-67.9c-9.7 0-18.6-1.3-26.6-3.6-7.9-2.4-15-7.1-21.1-14.3l-44.2-49.6c-7.2 1.5-14.5 2.5-21.9 3.4-7.4 0.8-15 1.3-22.8 1.3-27.7 0-53-4.7-75.8-13.9-22.8-9.3-42.3-22.1-58.4-38.6-16.3-16.2-28.8-35.6-37.7-57.7-8.8-22.1-13.4-46.1-13.4-71.8 0-25.7 4.6-49.6 13.4-71.9 8.9-22 21.4-41.4 37.7-57.7 16.3-16.3 35.6-29.1 58.4-38.3 22.8-9.3 48-14 75.8-14 27.7 0 52.9 4.7 75.7 14.1 22.8 9.5 42.1 22.3 58.2 38.6 16.1 16.3 28.6 35.5 37.5 57.7 8.9 22.1 13.2 46 13.2 71.7zm-84.5 0c0-17.6-2.4-33.5-6.9-47.6-4.5-14.1-11-26.1-19.7-35.9-8.5-9.7-19-17.1-31.3-22.4-12.3-5.2-26.4-7.8-42.3-7.8-16 0-30.3 2.6-42.8 7.8-12.4 5.3-22.9 12.7-31.4 22.4-8.5 9.8-15.1 21.8-19.8 35.9-4.5 14.1-6.8 29.8-6.8 47.6 0 17.7 2.3 33.6 6.8 47.7 4.6 14.1 11.1 26.1 19.8 35.9 8.5 9.7 19 17.1 31.4 22.4 12.5 5.1 26.6 7.8 42.8 7.8 15.7 0 29.8-2.6 42.3-7.8 12.3-5.1 22.8-12.7 31.3-22.4 8.5-9.8 15-21.8 19.7-35.9 4.7-14.1 6.9-30 6.9-47.7zm349.6-177.9v65.5h-96.5v290.4h-82.5v-290.4h-96.4v-65.5zm315.9 0v65.5h-100.1v290.4h-82.5v-290.4h-96.4v-65.5z"/>
	<path id="Layer" class="s1" d="m0.1 36.6v56.1h1.1c152.7 0 277.2 123 278.4 274.7h54.5c-1.4-182.3-150.5-330.3-334-330.8zm0 115.8v56.1h1.1c88.4 0 160.6 71.1 161.9 158.9h54.5c-1.3-118.4-98.3-214.5-217.5-215zm366.9 69.8v-113.1c-13.9-19-31.1-40.7-48.3-57.5-19.2-19-41.6-36.2-63.3-51.2h-120.2c105.4 37.8 189.9 119.1 231.8 221.8z"/>
	<path id="Layer" fill-rule="evenodd" class="s0" d="m279.3 367.4h-61.9c-1.3-118.6-98.3-214.5-217.5-215v-59.7h1.1c152.9 0 277.2 123 278.3 274.7zm-116.4 0h-144.5c-10.2 0-18.5-8.4-18.5-18.5v-140.4h1.1c88.6 0 160.7 71.1 161.9 158.9zm185.7 0.1h-14.9c-1-182.4-150.3-330.2-333.8-330.7v-17.9c0-10.2 8.3-18.5 18.5-18.5h117c105.2 37.8 189.7 119.1 231.6 221.8v126.9c0 10.1-8.1 18.3-18.4 18.4zm-93-367.1h93.2c2.4 0 4.7 0.5 7 1.4 2.2 0.9 4.2 2.2 5.9 3.9 1.7 1.7 3 3.8 4 6 0.9 2.2 1.3 4.6 1.3 7v90.4c-13.9-19-31.3-40.5-48.3-57.5-19-19-41.4-36.2-63.1-51.2z"/>
</svg>