<svg version="1.2" xmlns="http://www.w3.org/2000/svg" viewBox="0 0 835 430" width="835" height="430">
	<title>css-svg</title>
	<style>
		.s0 { fill: #ffffff } 
		.s1 { fill: #7dfcda } 
	</style>
	<g id="Mohsine-icons">
		<g id="Layer">
			<path id="Layer" fill-rule="evenodd" class="s0" d="m0 390.2v-107.7c0-10.5 4.2-15.5 12.8-18.2 20.9-6.3 34.9-0.9 41 13.1l40.1 92.9 41.7-92.9c6.2-14 20-19.4 40.7-13.1 8.8 2.7 13 7.7 13 18.2v107.7h-27.4v-107.7l-42.2 93.9c-5 11.3-11.5 15.5-24.9 15.5-13.4 0-20.3-4.2-25.1-15.5l-42.5-93.9v107.7zm212-87.7v0.1zm27.3 0v59.2c-0.2 3.3 1.1 10.8 16 11 7.7 0.2 59 0 59.4 0v-70.7h27.4v96.9c0 23.8-29.5 29.1-43.3 29.3h-86.2v-18.2h86.4c17.6-1.9 15.5-10.7 15.5-13.6v-7.1h-58c-26.9-0.2-44.3-12.2-44.5-25.8v-61zm545.9-80.5c-6.7-4.9-13.8-9.9-20.9-14.3-3.8-2.3-10.2-4-14.4-5.8-5.7-2.3-18.2-4.6-21.4-9-6.2-8.2-10.4-18.2-14.8-28.1-4.4-10-9.8-20.5-14.2-30.7-2.3-5-3.4-9.4-5.9-14.2-15.3-29.5-37.9-54.2-65.3-71.6-9-5.6-19-10.9-30.1-14.4-6.3-1.9-13.8-0.9-20.5-2.3h-4.4c-3.7-1.1-6.9-5-9.8-7.1-6.5-4.4-13-7.3-20.7-10.5-2.7-1.2-10.5-4.2-13.2-1.9-1.7 0.5-2.5 1.1-2.9 2.8-1.7 2.5-0.2 6.2 0.8 8.5 3.2 6.7 7.5 10.7 11.5 16.4 3.6 5 8 10.6 10.5 16.1 5.4 11.7 7.9 24.6 13 36.4 1.8 4.3 4.8 9.4 7.5 13.3 2.3 3.2 6.5 5.5 7.7 9.5 2.5 4.1-3.7 17.9-5.2 22.3-5.4 17.2-4.4 41 1.9 55.9 2.5 5.8 4.8 12.8 11.5 14.4 0.3-0.4 0-0.2 0.8-0.4 1.5-11.5 1.9-22.6 5.9-31.6 2.3-5.6 6.9-9.6 10-14.2 2.1 1.2 2.1 5 3.4 7.5 2.7 6.5 5.6 13.6 9 20.1 6.9 13.4 14.6 26.4 23.4 38.1 2.9 4.1 7.1 8.8 10.9 12.5 1.6 1.5 3.5 2.3 4.8 4.2h0.4v0.6c-6.3-2.3-10.3-8.8-15.3-12.5-9.4-7.1-20.7-17.8-27.2-28.1l-8.5-17.3v-0.4c-1.3 1.6-0.9 3.3-1.5 5.8-2.7 10.5-0.6 22.4-10 26.2-10.8 4.4-18.7-7.1-22-12.4-10.7-17.3-13.6-46.6-6.1-70.2 1.7-5.3 1.9-11.6 4.8-15.7-0.6-3.8-3.5-4.9-5.2-7.2-2.9-3.9-5.4-8.5-7.7-12.9-4.4-8.6-7.6-18.9-10.9-28.1-1.5-3.7-1.9-7.5-3.4-11-2.5-5.5-7.1-10.9-10.6-15.7-4.8-6.9-18.8-20.3-13.2-33.9 8.8-21.6 39.6-5.3 51.5 2.3 2.9 1.9 6.3 5.8 9.6 7.3l15.7 0.8c9.8 2.3 19 4.2 26.7 8.6 36 21.2 59.5 42.7 81 78.3 4.6 7.5 6.9 15.6 10.7 23.8 5.2 12.1 11.1 24.9 17.1 36.4 2.7 5.4 4.8 11.5 8.6 16.1 1.5 2.1 5.6 2.7 8.2 4 6.9 3.5 15.2 6.3 21.7 10.4 12.1 7.6 23.9 16.6 34.5 25.8 4 3.5 6.7 8.5 10.5 12.3v1.9c-3.4 1-6.7 2.1-10.1 2.9-7.3 1.9-13.8 1.5-20.9 3.4-4.4 1.2-9.8 2.9-14.4 3.3l0.4 0.4c2.7 7.8 17.4 14 24.1 18.6 8.1 5.9 15.6 13 21.7 21.2 2.1 2.1 4.2 3.9 6.3 6 1.5 2.1 1.9 4.8 3.3 6.7v0.7c-2.9-1.1-4.3-3.8-6.7-5.5-4.6-3.1-9.2-6.9-13.8-9.8-7.9-5-17.1-8-25.3-13-4.6-2.9-9-6.3-13.4-9.6-3.9-2.9-8.3-8.6-10.8-12.8-1.5-2.3-1.7-5-3.4-6.7 0.4-3.9 5.5-3.9 8.6-5.2 10.9-4.6 23.8-6.3 40.6-5.9-0.7-4.1-11.1-9.3-14.5-11.8zm-193.2-165.1c1.1 1.5 1.3 2.9 2.5 4.4 0 5-1.4 8.3-4.4 10.4l-0.4 0.5-4.8-10.1c-2.1-2.9-5-5.2-6.7-8.6h-0.4v-0.4q1-0.3 2.1-0.5 1.1-0.2 2.1-0.3 1.1-0.1 2.2-0.2 1.1 0 2.2 0c1.6 1.7 4.4 2.7 5.6 4.8z"/>
			<path id="Layer" fill-rule="evenodd" class="s1" d="m376 372h75.5c1.1 0 1.7-0.2 2.7-0.2 5.3-0.2 9.3-1.7 11.8-3.8 2.5-2.1 3.7-4.6 3.7-6.5v-15.8c0-1.9-0.4-3.4-2.1-5.1-2.5-3.1-6.2-4.6-14.8-5.4-0.9-0.2-1.9-0.2-2.9-0.2h-28.3c-2.7 0-5.4 0-7.9-0.2-23.5-2.5-37.3-13-37.3-25.3v-15.9c0-14 7.1-22 23.3-27 5.2-1.7 11-2.3 22.1-2.3h76.6v18.2h-80.5c-9.7 1-12.6 2.5-14.1 8.1-0.2 0.9-0.2 1.7-0.2 2.3v12.4c0 0.8 0 1.7 0.2 2.5 1.5 7.3 6.7 10.7 17.8 10.7h33c8.2 0 16.6 1.4 23.3 3.9 12.9 5 19.4 12.4 19.4 20.1v20.1c0 9.6-5.6 16.9-17.6 22.4-7.1 3.3-15.9 5.2-25.1 5.2h-78.6zm291.5-13.4v-94.3h27.5v94.1c0 9.6 6 13.6 21.9 13.6h71.8v18.2h-71.1c-2.8 0-5.3-0.2-8-0.4-28-2.1-42-12.6-42-31.2zm-152.9 0.8v-64.8c0-16.5 11.7-26.6 34.5-29.7 2.5-0.2 5-0.4 7.3-0.4h51.9c2.7 0 5 0.2 7.8 0.4 22.8 3.1 34.3 13.2 34.3 29.7v64.8c0 13.4-4.8 20.5-16.2 25.3l26.8 24.3h-31.6l-21.7-19.7-22 1.3h-29.3q-2 0-4-0.1-2-0.2-4-0.4-2-0.3-3.9-0.7-2-0.4-4-0.9c-17.3-4.8-25.9-14-25.9-29.1zm29.5-1.4c0 0.8 0.5 1.6 0.6 2.7 1.5 7.5 8.6 11.7 19.5 11.7h24.7l-22.6-20.5h31.6l19.8 18q5.7-3.1 6.9-8.8c0.2-0.8 0.2-1.9 0.2-2.7v-62.1c0-0.9 0-1.7-0.2-2.5-1.4-7.2-8.5-11.1-19.2-11.1h-41.2c-12.2 0-20.1 5.2-20.1 13.6z"/>
		</g>
	</g>
</svg>