<svg version="1.2" xmlns="http://www.w3.org/2000/svg" viewBox="0 0 1520 430" width="1520" height="430">
	<title>css-svg</title>
	<style>
		.s0 { fill: #7dfcda } 
		.s1 { fill: #ffffff } 
	</style>
	<g id="Mohsine-icons">
		<g id="Layer">
			<path id="Layer" fill-rule="evenodd" class="s0" d="m1394.6 152.1c3.7 0 7.3 0.8 10.5 2.6l100.4 58c6.5 3.8 10.5 10.8 10.5 18.3v115.9c0 7.5-4 14.6-10.5 18.3l-100.4 57.9c-3.3 1.9-6.8 2.7-10.5 2.7-3.7 0-7.2-0.9-10.5-2.7l-33.7-19.9c-5-2.8-2.5-3.7-0.8-4.3 6.7-2.3 8-2.8 15.1-6.8 0.8-0.4 1.8-0.4 2.6 0l25.8 15.4c0.9 0.5 2.1 0.5 3 0l100.5-57.9c0.9-0.5 1.5-1.6 1.5-2.7v-115.9c0-1.1-0.8-2.2-1.7-2.8l-100.3-57.8c-0.9-0.5-2.1-0.5-3 0l-100.3 57.8c-0.9 0.6-1.7 1.7-1.7 2.8v115.9c0 1 0.8 2 1.7 2.5l27.3 16c14.9 7.5 24.1-1.4 24.1-10.2v-114.4c0-1.6 1.4-2.7 3-2.7h12.6c1.6 0 3 1.1 3 2.7v114.3c0 19.9-10.8 31.4-29.7 31.4-5.8 0-10.5 0.1-23.2-6.2l-26.3-15.1c-6.5-3.8-10.4-10.8-10.4-18.4v-115.8c0-7.5 3.9-14.6 10.4-18.4l100.5-58c3.2-1.8 6.8-2.6 10.5-2.6zm77 118c0 0.8-0.4 1.5-0.9 2.1-0.6 0.6-1.3 1.1-2.1 1.1h-13.1c-1.3 0-2.5-1.1-2.8-2.4-3.1-13.9-10.7-18.4-31.3-18.4-23.1 0-25.6 8.1-25.6 14.1 0 7.3 3 9.3 34.1 13.5 30.9 4 45.7 9.9 45.7 31.5 0 21.9-18.4 34.4-50.2 34.4-43.9 0-53.1-20-53.1-36.9q0-0.6 0.3-1.1 0.2-0.6 0.6-1 0.4-0.4 1-0.7 0.5-0.2 1.1-0.2h13c1.5 0 2.6 1.1 2.8 2.6 2 13.2 7.8 19.8 34.4 19.8 21.1 0 30-4.8 30-16 0-6.4-2.5-11.3-35.4-14.5-27.4-2.7-44.3-8.8-44.3-30.7 0-20.3 17-32.4 45.6-32.4 32.2 0 48.1 11.2 50.2 35.2z"/>
			<path id="Layer" fill-rule="evenodd" class="s1" d="m807 0.8l63.4 35.4c4 2.3 6.6 6.7 6.6 11.3v306.4q0 1.7-0.5 3.3-0.4 1.7-1.2 3.1-0.9 1.5-2.1 2.7-1.2 1.2-2.6 2l-106.5 61.4q-1.5 0.9-3.1 1.3-1.6 0.5-3.3 0.5-1.7 0-3.3-0.5-1.6-0.4-3.1-1.3l-106.5-61.4q-1.4-0.8-2.6-2-1.2-1.2-2-2.7-0.9-1.4-1.3-3.1-0.5-1.6-0.5-3.3v-122.9c0-4.6 2.5-9 6.4-11.3l106.5-61.4q1.5-0.9 3.1-1.3 1.6-0.4 3.3-0.5 1.7 0.1 3.3 0.5 1.6 0.4 3.1 1.3l26.7 15.3q0.5 0.3 1.1 0.5 0.5 0.1 1.1 0.1 0.6 0 1.2-0.1 0.5-0.2 1.1-0.5c1.3-0.8 2.1-2.2 2.1-3.8v-163.2q0-0.9 0.2-1.7 0.2-0.8 0.7-1.5 0.4-0.8 1-1.4 0.6-0.5 1.3-1 0.4-0.2 0.7-0.3 0.4-0.2 0.8-0.3 0.4-0.1 0.9-0.2 0.4 0 0.8 0c1.1 0 2.2 0.1 3.2 0.6zm-686.8 152.8c2.1 0.1 4 0.4 5.8 1.5l106.4 61.4q1.5 0.8 2.7 2 1.2 1.2 2 2.7 0.9 1.4 1.3 3.1 0.4 1.6 0.4 3.3l-0.2 164.9c0 2.3-1.2 4.4-3.2 5.6-2 1.1-4.4 1.1-6.4 0l-63.1-36.3c-4-2.4-6.7-6.5-6.7-11.1v-77c0-4.6-2.4-8.8-6.3-11.1l-26.9-15.6q-0.7-0.4-1.5-0.7-0.8-0.3-1.6-0.6-0.8-0.2-1.7-0.3-0.8-0.1-1.6-0.1-0.9 0-1.7 0.1-0.8 0.1-1.6 0.3-0.8 0.3-1.6 0.6-0.8 0.3-1.5 0.7l-26.9 15.6c-4 2.3-6.4 6.5-6.4 11.1v77c0 4.6-2.6 8.7-6.6 11.1l-63.2 36.3c-1.9 1.2-4.4 1.2-6.4 0-2-1.1-3.2-3.3-3.2-5.6l-0.2-164.9q0-1.7 0.4-3.3 0.5-1.6 1.3-3.1 0.9-1.5 2-2.7 1.2-1.2 2.7-2l106.5-61.4c1.8-1.1 3.7-1.4 5.7-1.5 0 0 1.3 0 1.3 0zm957.1 1.6q0.8 0.1 1.6 0.3 0.8 0.2 1.6 0.5 0.8 0.4 1.5 0.8l105.8 61.4q1.5 0.9 2.7 2.1 1.2 1.2 2 2.6 0.9 1.5 1.3 3.1 0.4 1.6 0.4 3.3v29.7c0 4.5-2.4 8.8-6.4 11.1l-63.8 37.1c-2 1.1-4.4 1.1-6.4 0q-0.7-0.4-1.3-1-0.6-0.6-1-1.4-0.4-0.7-0.7-1.5-0.2-0.8-0.2-1.7v-30.3q0-0.8-0.2-1.6-0.2-0.8-0.6-1.6-0.4-0.7-1-1.3-0.6-0.6-1.4-1l-33.3-19.2c-2-1.2-4.4-1.2-6.4 0l-33.3 19.2c-1.9 1.1-3.4 3.2-3.4 5.5v38.5c0 2.3 1.4 4.6 3.4 5.7l107.2 61.5c2 1.1 3.2 3.2 3.2 5.5-0.1 2.3-1.4 4.4-3.5 5.6l-64 35.6c-3.9 2.2-8.7 2-12.5-0.2l-105.7-60.2c-4-2.3-6.6-6.5-6.6-11.1v-122.9c0-4.6 2.5-8.8 6.4-11.1l106.5-61.4q0.7-0.4 1.5-0.8 0.8-0.3 1.6-0.5 0.8-0.2 1.6-0.3 0.9-0.1 1.7-0.1 0.8 0 1.7 0.1zm-320 91.6c-0.6 0-1 0.1-1.5 0.4l-36.5 21.2c-1 0.5-1.7 1.6-1.7 2.7v42.3c0 1.1 0.7 2.2 1.7 2.7l36.5 21.2c1 0.5 2.2 0.5 3.2 0l36.5-21.2c1-0.5 1.7-1.6 1.7-2.7v-42.3c0-1.1-0.7-2.2-1.7-2.7l-36.5-21.2q-0.2-0.1-0.4-0.2-0.2 0-0.4-0.1-0.3 0-0.5-0.1-0.2 0-0.4 0 0 0 0 0z"/>
			<path id="Layer" class="s0" d="m438.7 154.4q-0.8 0-1.6 0.1-0.9 0.1-1.7 0.4-0.8 0.2-1.6 0.5-0.7 0.3-1.5 0.7l-106.4 61.3c-4 2.3-6.4 6.7-6.4 11.3v122.9q0 1.6 0.4 3.3 0.4 1.6 1.3 3.1 0.8 1.4 2 2.6 1.2 1.2 2.7 2l106.4 61.5q1.5 0.8 3.1 1.3 1.7 0.4 3.3 0.4 1.7 0 3.4-0.4 1.6-0.5 3-1.3l106.5-61.5q1.5-0.8 2.7-2 1.2-1.2 2-2.6 0.8-1.5 1.3-3.1 0.4-1.7 0.4-3.3v-122.9c0-4.6-2.4-9-6.4-11.3l-106.5-61.3q-0.7-0.4-1.5-0.7-0.7-0.3-1.6-0.6-0.8-0.2-1.6-0.3-0.8-0.1-1.7-0.1zm636.7 109.7c-0.4 0-0.9 0-1.3 0.2l-20.5 11.9q-0.3 0.2-0.5 0.4-0.2 0.3-0.4 0.5-0.2 0.3-0.3 0.6 0 0.3-0.1 0.7v23.4c0 0.9 0.6 1.7 1.3 2.2l20.5 11.7q0.3 0.2 0.6 0.3 0.3 0 0.6 0 0.3 0 0.6 0 0.3-0.1 0.6-0.3l20.4-11.7c0.8-0.5 1.3-1.3 1.3-2.2v-23.4c0-0.9-0.5-1.7-1.3-2.2l-20.4-11.9c-0.4-0.2-0.7-0.2-1.1-0.2z"/>
		</g>
	</g>
</svg>