<svg version="1.2" xmlns="http://www.w3.org/2000/svg" viewBox="0 0 811 430" width="811" height="430">
	<title>css-svg</title>
	<defs>
		<clipPath clipPathUnits="userSpaceOnUse" id="cp1">
			<path d="m405.63 422.68c-221.18 0-399.96-92.76-399.96-207.52 0-114.77 178.78-207.53 399.96-207.53 221.18 0 399.97 92.76 399.97 207.53 0 114.76-178.79 207.52-399.97 207.52z"/>
		</clipPath>
		<radialGradient id="g1" cx="0" cy="0" r="1" gradientUnits="userSpaceOnUse" gradientTransform="matrix(525.213,0,0,525.213,245.807,80.59)">
			<stop offset="0" stop-color="#b5fce9"/>
			<stop offset=".3" stop-color="#a4f9e2"/>
			<stop offset=".75" stop-color="#5bf2ca"/>
			<stop offset="1" stop-color="#24e5b1"/>
		</radialGradient>
		<clipPath clipPathUnits="userSpaceOnUse" id="cp2">
			<path d="m-11-16h833.26v462.31h-833.26z"/>
		</clipPath>
		<clipPath clipPathUnits="userSpaceOnUse" id="cp3">
			<path d="m-11-16h833.26v462.31h-833.26z"/>
		</clipPath>
	</defs>
	<style>
		.s0 { fill: url(#g1) } 
		.s1 { fill: #7dfcda } 
		.s2 { fill: #1b1f24 } 
		.s3 { fill: #16191c } 
	</style>
	<g id="Mohsine-icons">
		<g id="Layer">
			<g id="Clip-Path" clip-path="url(#cp1)">
				<g id="Layer">
					<path id="Layer" class="s0" d="m405.6 422.7c-221.1 0-399.9-92.8-399.9-207.5 0-114.8 178.8-207.6 399.9-207.6 221.2 0 400 92.8 400 207.6 0 114.7-178.8 207.5-400 207.5z"/>
				</g>
			</g>
			<g id="Clip-Path" clip-path="url(#cp2)">
				<g id="Layer">
					<path id="Layer" class="s1" d="m405.6 407.3c-212.5 0-384.3-85.9-384.3-192.1 0-106.3 171.8-192.2 384.3-192.2 212.6 0 384.4 85.9 384.4 192.2 0 106.2-171.8 192.1-384.4 192.1z"/>
				</g>
			</g>
			<g id="Clip-Path" clip-path="url(#cp3)">
				<g id="Layer">
					<path id="Layer" fill-rule="evenodd" class="s2" d="m131.7 335.6c-1.3 0-2.5-0.5-3.3-1.5q-0.3-0.4-0.5-0.8-0.2-0.4-0.4-0.9-0.1-0.4-0.1-0.9 0-0.5 0.1-1l41-207.9q0.1-0.8 0.5-1.4 0.4-0.6 1-1.1 0.5-0.5 1.3-0.7 0.7-0.3 1.4-0.3h88.3c27.8 0 48.5 7.4 61.4 22.1 13.1 14.8 17.1 35.4 12 61.3-2 10.5-5.6 20.3-10.6 29.1-5 8.8-11.5 16.9-19.5 24.1-9.6 8.9-20.4 15.3-32.2 19-11.6 3.8-26.4 5.7-44.2 5.7h-35.8l-10.2 51.8q-0.1 0.7-0.5 1.4-0.4 0.6-1 1.1-0.5 0.4-1.3 0.7-0.7 0.2-1.4 0.2c0 0-46 0-46 0zm91.3-96.6c17.4 0 30.5-3.2 38.7-9.5 8.2-6.1 13.8-16.9 16.7-31.9 2.8-13.9 1.7-23.7-3.1-29-4.9-5.4-15.6-8.1-31.6-8.1h-27.9l-15.5 78.5c0 0 22.7 0 22.7 0z"/>
					<path id="Layer" fill-rule="evenodd" class="s3" d="m325.7 138.4c14 15.8 18.4 37.6 13 64.9-2.2 11-5.9 21.2-11.1 30.4-5.2 9.1-12 17.6-20.4 25.2-10 9.2-21.4 16-33.7 19.9-12.1 3.9-27.4 5.8-45.6 5.8h-32.2l-9.5 48.4q-0.3 1.5-1.1 2.7-0.7 1.3-1.9 2.3-1.2 0.9-2.6 1.4-1.4 0.5-2.9 0.5h-46c-1.2 0-2.5-0.3-3.7-0.8-1.1-0.5-2.1-1.3-3-2.3-0.8-1-1.4-2.1-1.7-3.3-0.3-1.2-0.3-2.5-0.1-3.8l41-207.9q0.3-1.5 1.1-2.8 0.7-1.3 1.9-2.2 1.2-1 2.6-1.5 1.4-0.5 2.9-0.5h88.3c29.1 0 50.9 8 64.7 23.6zm-153-15l-41 208h46l10.9-55.3h39.3q26.1 0 42.9-5.4 16.8-5.4 30.5-18.1 11.6-10.5 18.7-23.1 7.2-12.6 10.2-27.9 7.3-36.9-11-57.6-18.3-20.6-58.1-20.6c-0.1 0-88.4 0-88.4 0zm39.5 32.8h31.5q26.1 0 34.9 9.5 8.7 9.6 4.1 32.8-4.8 24.1-18.4 34.4-13.5 10.4-41.3 10.4h-28c0 0 17.2-87.1 17.2-87.1zm-6.6 78.5h17.4c16.4 0 28.6-2.9 36.1-8.6 7.2-5.5 12.3-15.4 15.1-29.3 2.4-12.4 1.7-21.2-2.1-25.3-2.3-2.5-9-6.7-28.4-6.7h-24.4c0 0-13.7 69.9-13.7 69.9z"/>
					<path id="Layer" class="s2" d="m439.7 280.4c-1.2 0-2.5-0.6-3.3-1.6-0.8-1-1.2-2.3-0.9-3.5l18.1-92.1c1.7-8.7 1.3-15-1.2-17.6-1.5-1.7-6.1-4.4-19.7-4.4h-32.8l-22.8 115.7q-0.1 0.7-0.5 1.4-0.4 0.6-1 1.1-0.6 0.4-1.3 0.7-0.7 0.3-1.5 0.3h-45.5q-1 0-1.9-0.5-0.9-0.4-1.5-1.1-0.6-0.7-0.8-1.7-0.3-0.9-0.1-1.8l41-208q0.1-0.7 0.5-1.4 0.4-0.6 1-1.1 0.6-0.5 1.3-0.7 0.7-0.3 1.5-0.3h45.5q1 0 1.9 0.4 0.8 0.4 1.5 1.2 0.6 0.7 0.8 1.7 0.3 0.9 0.1 1.8l-9.9 50.2h35.3c26.9 0 45.2 4.7 55.8 14.3 10.9 9.8 14.2 25.6 10.1 46.7l-19.1 96.8q-0.1 0.7-0.5 1.4-0.4 0.6-1 1.1-0.6 0.5-1.3 0.7-0.7 0.3-1.5 0.3c0 0-46.3 0-46.3 0z"/>
					<path id="Layer" fill-rule="evenodd" class="s3" d="m417.5 60.4c1.2 0.5 2.2 1.3 3 2.3 0.8 0.9 1.4 2.1 1.7 3.3 0.4 1.2 0.4 2.5 0.1 3.7l-8.8 45.1h30c28.1 0 47.3 5.1 58.8 15.5 12 10.9 15.8 27.9 11.3 50.6l-19 96.8q-0.3 1.5-1.1 2.7-0.8 1.3-1.9 2.3-1.2 0.9-2.6 1.4-1.4 0.5-3 0.5h-46.3c-1.2 0-2.5-0.2-3.7-0.8-1.1-0.5-2.1-1.3-2.9-2.3-0.9-1-1.4-2.1-1.8-3.3-0.3-1.2-0.3-2.5-0.1-3.8l18.2-92c1.7-9 0.7-13.1-0.2-13.9-0.1-0.2-2.9-3-16.5-3h-29.2l-22.1 112.2q-0.3 1.5-1.1 2.7-0.8 1.3-1.9 2.3-1.2 0.9-2.6 1.4-1.5 0.5-3 0.5h-45.5c-1.3 0-2.6-0.2-3.7-0.8-1.2-0.5-2.2-1.3-3-2.3-0.8-1-1.4-2.1-1.7-3.3-0.4-1.2-0.4-2.5-0.2-3.8l41-207.9q0.3-1.5 1.1-2.8 0.8-1.3 1.9-2.2 1.2-0.9 2.6-1.5 1.4-0.5 3-0.5h45.5c1.3 0 2.6 0.3 3.7 0.9zm-49.2 7.7l-41 208h45.5l23.5-119.2h36.4q17.5 0 22.9 5.7 5.4 5.8 2.3 21.5l-18.1 92h46.2l19.1-96.8q5.8-29.5-8.7-42.7-14.6-13.2-52.9-13.2h-40.6l10.9-55.3c0 0-45.5 0-45.5 0z"/>
					<path id="Layer" fill-rule="evenodd" class="s2" d="m490.2 335.6c-1.3 0-2.5-0.5-3.3-1.5q-0.3-0.4-0.5-0.8-0.2-0.4-0.4-0.9-0.1-0.4-0.1-0.9 0-0.5 0.1-1l41-207.9q0.1-0.8 0.5-1.4 0.4-0.6 1-1.1 0.5-0.5 1.3-0.7 0.7-0.3 1.4-0.3h88.3c27.8 0 48.5 7.4 61.5 22.1 13 14.8 17 35.4 11.9 61.3-2 10.5-5.6 20.3-10.6 29.1-5 8.8-11.5 16.9-19.5 24.1-9.6 8.9-20.4 15.3-32.2 19-11.6 3.8-26.4 5.7-44.2 5.7h-35.8l-10.2 51.8q-0.1 0.7-0.5 1.4-0.4 0.6-1 1.1-0.6 0.4-1.3 0.7-0.7 0.2-1.4 0.2c0 0-46 0-46 0zm91.3-96.6c17.4 0 30.5-3.2 38.7-9.5 8.2-6.1 13.8-16.9 16.7-31.9 2.8-13.9 1.7-23.7-3.1-29-4.9-5.4-15.6-8.1-31.6-8.1h-27.9l-15.5 78.5c0 0 22.7 0 22.7 0z"/>
					<path id="Layer" fill-rule="evenodd" class="s3" d="m684.2 138.4c14 15.8 18.4 37.6 13 64.9-2.2 11-5.9 21.2-11.1 30.4-5.2 9.1-12 17.6-20.4 25.2-10 9.2-21.4 16-33.7 19.9-12.1 3.9-27.4 5.8-45.6 5.8h-32.2l-9.5 48.4q-0.3 1.5-1.1 2.7-0.7 1.3-1.9 2.3-1.2 0.9-2.6 1.4-1.4 0.5-2.9 0.5h-46c-1.2 0-2.5-0.3-3.7-0.8-1.1-0.5-2.1-1.3-3-2.3-0.8-1-1.4-2.1-1.7-3.3-0.3-1.2-0.3-2.5-0.1-3.8l41-207.9q0.3-1.5 1.1-2.8 0.7-1.3 1.9-2.2 1.2-1 2.6-1.5 1.4-0.5 2.9-0.5h88.3c29.1 0 50.9 8 64.7 23.6zm-153-15l-41 208h46l10.9-55.3h39.3q26.1 0 42.9-5.4 16.8-5.4 30.5-18.1 11.6-10.5 18.7-23.1 7.2-12.6 10.2-27.9 7.3-36.9-11-57.6-18.3-20.6-58.1-20.6c0 0-88.4 0-88.4 0zm39.5 32.8h31.5q26.1 0 34.8 9.5 8.8 9.6 4.2 32.8-4.8 24.1-18.4 34.4-13.5 10.4-41.3 10.4h-28c0 0 17.2-87.1 17.2-87.1zm-6.6 78.5h17.4c16.4 0 28.6-2.9 36.1-8.6 7.2-5.5 12.3-15.4 15.1-29.3 2.4-12.4 1.7-21.2-2.1-25.3-2.3-2.5-9-6.7-28.4-6.7h-24.4c0 0-13.7 69.9-13.7 69.9z"/>
				</g>
			</g>
		</g>
	</g>
</svg>