<svg version="1.2" xmlns="http://www.w3.org/2000/svg" viewBox="0 0 525 430" width="525" height="430">
	<title>scada-svg</title>
	<style>
		.s0 { fill: #ffffff } 
	</style>
	<g id="Mohsine-icons">
		<path id="PLC" class="s0" aria-label="PLC"  d="m7.7 309v-184.9q32.5-6.1 63.7-6.1 46.2 0 68.7 16.9 22.7 16.8 22.7 52.6 0 34.5-21.9 52-21.9 17.6-64.8 17.6-4 0-11.7-0.2l-5.6-0.2v52.3zm68.8-88.6q19.4 0 28.2-7.5 8.8-7.6 8.8-25.2 0-17.4-9.1-25.1-8.9-7.9-28.1-7.9-10 0-17.5 1.4v63.2q9.1 1.1 17.7 1.1zm254.2 88.6h-141.8v-188.6h51.1v147.6h90.7zm115.7 2.5q-54.3 0-82.4-23.8-27.9-24-27.9-72.5 0-31.1 12.9-52.9 12.9-21.8 38-33.2 25.1-11.3 61.2-11.3 23.3 0 43.3 4.5v41.1q-19.6-4.1-39.1-4.1-32.5 0-47.7 13.5-15.2 13.4-15.2 41.9 0 28.6 14.8 42 14.9 13.3 46.3 13.3 19.2 0 40.9-5.5v41.1q-9.8 2.9-21.7 4.4-11.7 1.5-23.4 1.5z"/>
	</g>
</svg>