<svg version="1.2" xmlns="http://www.w3.org/2000/svg" viewBox="0 0 1756 430" width="1756" height="430">
	<title>css-svg</title>
	<defs>
		<linearGradient id="g1" x2="1" gradientUnits="userSpaceOnUse" gradientTransform="matrix(226.291,196.575,-308.8,355.481,-0.016,11.573)">
			<stop offset="0" stop-color="#ffffff"/>
			<stop offset="1" stop-color="#ffffff"/>
		</linearGradient>
		<linearGradient id="g2" x2="1" gradientUnits="userSpaceOnUse" gradientTransform="matrix(-80.812,-115.435,186.701,-130.703,258.03,371.523)">
			<stop offset="0" stop-color="#7dfcda"/>
			<stop offset="1" stop-color="#7dfcda"/>
		</linearGradient>
	</defs>
	<style>
		.s0 { fill: #ffffff } 
		.s1 { fill: url(#g1) } 
		.s2 { fill: url(#g2) } 
	</style>
	<g id="Mohsine-icons">
		<path id="Layer" fill-rule="evenodd" class="s0" d="m698.4 218.7c0 27.4-6.4 50-19.3 68q-21.5 30.6-59.7 31.5c-19.1 0.6-38.9-5.4-59.2-18v116.5l-32.9-11.7v-258.7c5.4-6.6 12.3-12.3 20.8-17.1q29.3-17.2 71.3-17.6l0.4 0.5q38.4-0.5 59.2 31.4c12.9 19.6 19.3 44.5 19.4 75.2zm-37.8-2.2c0-53.8-15.4-81.3-46-82.8q-18.3-0.9-35.7 5.8c-9.2 3.3-15.4 6.6-18.7 9.9v128.3q29.4 18.4 52.2 17.1c32.1-2.1 48.2-28.2 48.2-78.3zm238.7 78.7q0 54.9-11 76.1c-7.4 14.1-21.4 25.3-42.1 33.7q-25.2 9.9-54.5 10.9l-5.4-20.8q29.7-4 41.8-8.1c16-5.3 26.9-13.6 32.9-24.7 4.8-9 7.2-26.3 7.2-51.8v-8.5q-8.3 3.8-16.9 6.7-8.7 2.8-17.6 4.8-8.9 1.9-18 2.8-9.1 1-18.2 1-5.8 0.1-11.5-0.9-5.8-0.9-11.2-2.9-5.5-2-10.6-4.9-5-2.9-9.4-6.6-20.8-16.7-20.8-42.3v-136.9l32.9-11.2v137.7q0 22 14.2 33.9c9.5 8 21.8 11.8 36.9 11.5 15.1-0.3 31.2-6.1 48.4-17.5v-160.6h32.9c0 0 0 178.6 0 178.6zm128.3 21.2l-10.8 0.5q-27.9 0-43.5-13.3c-10.3-8.9-15.5-21.2-15.5-36.8v-129.5h-22.5v-20.7h22.5v-55l32.9-11.6v66.6h36.9v20.7h-36.9v128.5q0 18.6 9.9 26.2c5.7 4.2 14.7 6.6 27 7.2 0 0 0 17.2 0 17.2zm199-2.7h-32.8v-126.9c0-12.9-3-23.9-9.1-33.3q-10.4-15.7-28.9-15.7-22.6 0-56.5 23.8v152.1h-32.9v-303.3l32.9-10.4v138.1q31.5-22.9 68.8-22.9 26.2 0 42.3 17.6 16.3 17.5 16.3 43.6c0 0 0 137.3-0.1 137.3zm210.8-102.2q0 44.1-22.6 73.4c-16.5 21.9-39.3 32.8-68.4 32.8-28.9 0-51.3-10.9-67.6-32.8q-22-29.3-22-73.4c0-27.6 7.9-50.8 23.8-69.8 16.8-20 38.9-30.1 66.2-30.1 27.3 0 49.5 10.1 66.7 30.1q23.8 28.4 23.8 69.8zm-36-0.2q0-31-11.7-51.2-13.9-24.6-43.2-26c-36.1 2.1-54 27.9-54 77.4 0 22.6 3.7 41.6 11.3 56.8q14.4 29.1 43.3 28.6 54.3-0.4 54.3-85.7zm224.5 102.3h-32.9v-134q0-22.1-13.3-34.5c-8.8-8.2-20.6-12.2-35.3-11.9-15.6 0.3-30.5 5.4-44.5 15.3v165.1h-32.9v-169.2q28.4-20.6 52.2-27c15.1-3.9 28.3-5.8 39.7-5.8 7.8 0 15.2 0.7 22.1 2.2q19.3 4.5 31.5 16.7c9 9 13.5 19.8 13.5 32.4v150.7z"/>
		<path id="Layer" fill-rule="evenodd" class="s1" d="m215.6 11.8q6.4 0.2 12.9 0.7 6.4 0.5 12.9 1.3 6.4 0.8 12.8 1.8c26.8 4.5 49.5 24.6 49.5 51.4v94.3c0 27.7-22 50.2-49.5 50.2h-98.8c-33.6 0-61.8 28.8-61.8 61.5v45.2h-34.1c-28.7 0-45.5-20.9-52.5-50.2-9.5-39.3-9.1-62.8 0-100.5 7.8-32.9 33-50.2 61.8-50.2h136v-12.6h-98.9v-37.6c0-28.5 7.6-44 49.5-51.4 14.2-2.6 30.3-4.1 47.2-4.1q6.5-0.1 13 0.2zm-47.9 48.9c0-10.4-8.3-18.8-18.6-18.8-10.2 0-18.5 8.4-18.5 18.8 0 10.5 8.3 18.9 18.5 18.9 10.3 0 18.6-8.4 18.6-18.9z"/>
		<path id="Layer" fill-rule="evenodd" class="s2" d="m353.1 117.4c28.8 0 42.4 21.5 49.5 50.1 9.9 39.8 10.3 69.6 0 100.6-10 30.1-20.7 50.2-49.5 50.2h-148.3v12.5h98.9v37.7c0 28.5-24.6 43-49.5 50.2-37.5 10.9-67.5 9.3-98.8 0-26.2-7.6-49.5-23.4-49.5-50.2v-94.2c0-27.1 22.4-50.3 49.5-50.3h98.8c32.9 0 61.8-28.7 61.8-62.7v-44c0 0.1 37.1 0.1 37.1 0.1zm-74.1 257.3c0-10.4-8.3-18.8-18.6-18.8-10.2 0-18.5 8.4-18.5 18.8 0 10.5 8.3 18.9 18.5 18.9 10.3 0 18.6-8.4 18.6-18.9z"/>
		<path id="Layer" class="s0" d="m1689.9 87.3h5.7v-36.2h13.7v-4.3h-33.1v4.3h13.7zm24.5 0h4.9v-33l10.7 33h5.5l11.1-32.9v32.9h5.4v-40.4h-7.1l-12.2 34.6-10.4-34.6h-7.9c0 0 0 40.4 0 40.4z"/>
	</g>
</svg>