<svg version="1.2" xmlns="http://www.w3.org/2000/svg" viewBox="0 0 1564 430" width="1564" height="430">
	<title>css-svg</title>
	<style>
		.s0 { fill: #000000 } 
		.s1 { fill: #498776 } 
		.s2 { fill: #7dfcda } 
		.s3 { fill: #ffffff } 
	</style>
	<g id="Mohsine-icons">
		<path id="Layer" class="s0" d="m90 0q-1 0-1.9 0.2-1 0.3-1.9 0.6-0.9 0.4-1.7 0.9-0.9 0.5-1.6 1.2-2.2-1.2-4.6-1.7-2.4-0.5-4.9-0.3-2.4 0.2-4.7 1.2-2.3 0.9-4.2 2.5-1.8-0.6-3.7-0.6-1.9-0.1-3.7 0.4-1.9 0.6-3.5 1.6-1.6 1.1-2.8 2.6-2.6-0.6-5.3-0.5-2.7 0.1-5.3 0.9-2.6 0.8-5 2.2-2.3 1.4-4.2 3.3c-14.6-1.7-18.8 8.3-13.7 17.8-1.1 1.2-1.9 2.6-2.5 4.2-0.6 1.5-0.8 3.1-0.7 4.7 0.1 1.7 0.5 3.3 1.2 4.7 0.7 1.5 1.7 2.8 2.9 3.9q-0.7 2.2-0.8 4.4 0 2.3 0.6 4.5 0.7 2.1 1.9 4 1.3 1.9 3.1 3.3-0.4 2.1-0.2 4.2 0.3 2.2 1.2 4.2 0.9 1.9 2.4 3.5 1.4 1.6 3.3 2.7 0.1 2.6 1 5.1 0.8 2.5 2.3 4.7 1.5 2.1 3.5 3.8 2 1.7 4.4 2.8c0.3 1.8 0.9 3.5 1.7 5 0.9 1.6 2 3 3.3 4.2 1.3 1.2 2.8 2.2 4.4 2.9 1.7 0.7 3.4 1.1 5.2 1.2q0.7 2.3 2.1 4.3 1.4 2.1 3.4 3.6 2 1.4 4.3 2.3 2.3 0.8 4.8 0.9c-6.4 2.9-12.2 6.8-17.4 11.5-5.1 4.7-9.5 10.2-12.9 16.3-3.5 6-6 12.6-7.5 19.4-1.4 6.9-1.8 13.9-1.1 20.8l-2.8 5c-7.8 5.3-14.3 12.2-19.2 20.2-4.9 8-8 17-9.1 26.4-1.1 9.3-0.2 18.8 2.7 27.7 2.9 9 7.6 17.2 13.9 24.2q0.9 3.7 1.8 7.4 1 3.7 2.1 7.3 1.2 3.7 2.5 7.3 1.2 3.6 2.7 7.1c0.8 6.4 2.5 12.7 4.9 18.6 2.5 6 5.7 11.6 9.7 16.7 3.9 5.1 8.5 9.6 13.7 13.5 5.1 3.9 10.7 7.1 16.7 9.5q4.9 4 10.1 7.5 5.3 3.5 10.8 6.6 5.5 3.1 11.2 5.7 5.7 2.6 11.6 4.7c3.4 3.7 7.1 7.1 11.1 10 4 3 8.3 5.5 12.9 7.5 4.5 2 9.3 3.6 14.1 4.7 4.9 1 9.9 1.5 14.8 1.6h0.9c5-0.1 10-0.6 14.8-1.6 4.9-1.1 9.6-2.7 14.2-4.7 4.5-2 8.9-4.5 12.9-7.5 4-2.9 7.7-6.3 11-10q6-2.1 11.7-4.7 5.7-2.6 11.2-5.7 5.5-3.1 10.7-6.6 5.2-3.5 10.2-7.5c5.9-2.4 11.6-5.6 16.7-9.5 5.1-3.9 9.7-8.4 13.7-13.5 3.9-5.1 7.2-10.7 9.6-16.7 2.5-5.9 4.2-12.2 5-18.6q1.4-3.5 2.7-7.1 1.3-3.6 2.4-7.3 1.1-3.6 2.1-7.3 1-3.7 1.8-7.4c6.4-7 11.1-15.2 14-24.2 2.8-8.9 3.8-18.4 2.7-27.7-1.2-9.4-4.2-18.4-9.1-26.4-4.9-8-11.5-14.9-19.2-20.2l-4.7-5c0.6-6.8 0.2-13.7-1.3-20.4-1.5-6.7-3.9-13.1-7.3-19.1-3.4-5.9-7.7-11.3-12.7-16-5-4.7-10.7-8.6-16.9-11.5q2.5-0.1 4.8-0.9 2.3-0.8 4.3-2.3 2-1.5 3.4-3.5 1.4-2 2.1-4.4c1.8-0.1 3.5-0.5 5.2-1.2 1.6-0.7 3.1-1.7 4.4-2.9 1.3-1.2 2.4-2.6 3.3-4.1 0.8-1.6 1.4-3.3 1.7-5.1q2.4-1.1 4.4-2.8 2-1.7 3.5-3.8 1.5-2.2 2.3-4.7 0.9-2.5 1-5.1 1.9-1.1 3.3-2.7 1.5-1.6 2.4-3.5 0.9-2 1.2-4.1 0.2-2.2-0.2-4.3 1.8-1.4 3.1-3.3 1.2-1.8 1.9-4 0.6-2.2 0.6-4.5-0.1-2.2-0.8-4.4c1.2-1.1 2.2-2.4 2.9-3.8 0.7-1.5 1.1-3.1 1.2-4.7 0.1-1.7-0.1-3.3-0.7-4.8-0.6-1.6-1.4-3-2.5-4.2 5.1-9.3 0-19.3-13.7-17.7q-1.9-2.2-4.3-3.8-2.3-1.6-5.1-2.5-2.7-0.9-5.5-1.1-2.9-0.2-5.7 0.4-1.2-1.5-2.8-2.5-1.5-1.1-3.3-1.6-1.9-0.5-3.7-0.5-1.9 0-3.7 0.6-1.9-1.6-4.2-2.5-2.3-1-4.7-1.2-2.5-0.2-4.9 0.3-2.4 0.5-4.6 1.7-2.1-1.4-4.5-2.1-2.4-0.7-4.9-0.6-2.5 0.1-4.9 1-2.4 0.9-4.3 2.4-2.1-0.7-4.2-0.9-2.1-0.2-4.2 0.2-2.1 0.4-4.1 1.2-1.9 0.9-3.6 2.3c-1.7-0.4-3.5-0.5-5.3-0.3-1.7 0.1-3.4 0.6-5.1 1.3-1.6 0.8-3.1 1.8-4.4 3-1.3 1.2-2.4 2.6-3.2 4.1h-5.7q-4.8 3.3-8.8 7.4-4.1 4-7.4 8.8-3.3 4.7-5.7 9.9-2.4 5.2-3.8 10.8-1.4-5.7-3.7-11-2.4-5.4-5.7-10.2-3.3-4.8-7.4-9-4.1-4.2-8.8-7.5h-5.7c-1-1.5-2.1-2.8-3.4-4-1.4-1.1-2.9-2-4.5-2.6-1.6-0.7-3.3-1.1-5-1.2-1.8-0.1-3.5 0-5.2 0.5q-1.7-1.4-3.7-2.3-2-0.9-4.1-1.3-2.2-0.3-4.3-0.1-2.2 0.2-4.2 0.9-1.4-0.7-2.7-1.2-1.4-0.6-2.8-1.1-1.4-0.4-2.9-0.8-1.4-0.3-2.9-0.5z"/>
		<path id="Layer" fill-rule="evenodd" class="s1" d="m82.1 48q11.1 4.7 21.8 10.3 10.6 5.6 20.7 12.2 10.1 6.6 19.6 14c28.1-13.2 8.7-46.7-5-60q-0.1 0.9-0.2 1.7-0.2 0.9-0.5 1.7-0.3 0.8-0.7 1.6-0.4 0.7-0.9 1.4-1.7-2-3.5-3.8-1.7-1.9-3.5-3.8-1.8-1.8-3.7-3.5-1.9-1.8-3.9-3.5 0.4 1.1 0.4 2.2 0.1 1-0.2 2.1-0.3 1.1-0.8 2-0.6 0.9-1.4 1.6-1.3-1.7-2.8-3.2-1.5-1.6-3.1-3-1.6-1.4-3.4-2.6-1.7-1.2-3.6-2.3 0.8 0.9 1.1 2 0.3 1.2 0.2 2.3-0.1 1.2-0.7 2.2-0.5 1-1.4 1.7-1.8-1.7-3.6-3.2-1.9-1.5-3.9-2.8-2-1.3-4.2-2.4-2.1-1.1-4.4-1.9c1.9 2.6 5.3 5 1.9 8.1q-2.1-1.4-4.4-2.6-2.3-1.2-4.7-2.2-2.4-0.9-4.9-1.6-2.5-0.6-5.1-1c2.3 2.9 7.1 5.2 4.4 7.8q-2.2-0.8-4.5-1.5-2.2-0.7-4.5-1.3-2.3-0.5-4.6-1-2.3-0.4-4.6-0.7c3.3 2.6 5.9 5.3 3.3 7.3q-2.6-1-5.3-1.7-2.6-0.7-5.4-0.9-2.8-0.3-5.5-0.2-2.8 0.1-5.5 0.6l4.8 5.8q-2.5 0.2-4.9 0.3-2.5 0.1-5 0.1-2.4 0-4.9-0.1-2.4-0.1-4.9-0.3 1.3 1.6 2.5 3.4 1.1 1.7 2.1 3.5 1 1.9 1.8 3.8 0.8 1.9 1.3 3.9-1 0.3-2.1 0.4-1.1 0.1-2.2 0.1-1 0-2.1-0.1-1.1-0.1-2.2-0.4 1.3 2 2.7 3.9 1.4 1.9 2.9 3.8 1.6 1.8 3.2 3.5 1.6 1.8 3.3 3.4-1 0.5-2.2 0.8-1.2 0.3-2.4 0.3-1.2 0-2.3-0.3-1.2-0.3-2.2-0.8 1.3 2.1 2.8 4 1.5 2 3.2 3.8 1.7 1.8 3.5 3.5 1.8 1.7 3.7 3.3-0.9 0.4-1.9 0.7-1 0.3-2 0.4-1.1 0-2.1 0-1-0.1-2-0.4 1.7 1.8 3.5 3.5 1.9 1.7 3.8 3.3 1.9 1.5 4 3 2 1.4 4.1 2.7-0.9 0.5-1.9 0.8-1 0.3-2 0.5-1.1 0.1-2.1 0.1-1.1 0.1-2.1-0.1 2.2 1.9 4.5 3.5 2.3 1.7 4.7 3.2 2.4 1.5 4.9 2.8 2.5 1.3 5.1 2.5-0.9 0.6-1.8 1-1 0.4-2 0.6-1.1 0.2-2.1 0.3-1.1 0-2.1-0.2 2.3 1.5 4.7 2.7 2.5 1.3 5 2.3 2.5 1.1 5.1 1.9 2.6 0.8 5.3 1.4-0.5 0.8-1.1 1.4-0.7 0.7-1.4 1.1-0.8 0.5-1.7 0.7-0.9 0.3-1.8 0.3 2.8 0.8 5.5 1.5 2.8 0.7 5.6 1.3 2.8 0.6 5.6 1.1 2.8 0.4 5.6 0.8-0.4 0.8-1 1.6-0.5 0.7-1.3 1.3-0.7 0.7-1.5 1.1-0.8 0.5-1.7 0.8c12.7 0.7 47.5-0.6 53.9-27.1q-8.4-8.2-17.6-15.5-9.1-7.4-18.8-14-9.7-6.6-19.9-12.3-10.2-5.7-20.9-10.6c7.5 2.5 15.1 5.3 22.5 8.3zm193.2-8.3q-10.7 4.9-21 10.6-10.2 5.7-19.9 12.3-9.7 6.6-18.8 14-9.1 7.3-17.6 15.5c6.7 26.5 41.3 27.8 53.9 27.1q-0.8-0.4-1.5-0.9-0.8-0.5-1.4-1.1-0.6-0.6-1.2-1.4-0.5-0.7-0.8-1.6 2.8-0.3 5.6-0.8 2.8-0.5 5.6-1.1 2.8-0.5 5.6-1.2 2.7-0.7 5.5-1.5-0.9-0.1-1.8-0.3-0.8-0.3-1.6-0.8-0.7-0.4-1.4-1-0.6-0.7-1.1-1.4 2.7-0.6 5.3-1.4 2.6-0.9 5.2-1.9 2.5-1.1 4.9-2.3 2.4-1.3 4.8-2.7-1.1 0.1-2.2 0.1-1 0-2.1-0.2-1-0.2-2-0.7-1-0.4-1.9-1 2.6-1.1 5.1-2.4 2.5-1.3 5-2.8 2.4-1.5 4.7-3.2 2.3-1.7 4.4-3.5-1 0.1-2 0.1-1.1 0-2.1-0.2-1.1-0.2-2.1-0.5-1-0.3-1.9-0.7 2.1-1.3 4.2-2.8 2-1.4 3.9-3 2-1.5 3.8-3.2 1.8-1.7 3.5-3.6-1 0.3-2 0.4-1 0.1-2 0-1.1-0.1-2.1-0.4-1-0.2-1.9-0.7 1.9-1.5 3.8-3.2 1.8-1.7 3.4-3.6 1.7-1.8 3.2-3.7 1.5-2 2.9-4.1-1.1 0.6-2.2 0.9-1.2 0.3-2.4 0.3-1.2 0-2.4-0.3-1.1-0.3-2.2-0.9 1.7-1.6 3.3-3.3 1.7-1.8 3.2-3.6 1.5-1.8 2.9-3.7 1.4-1.9 2.7-3.9-1.1 0.2-2.1 0.3-1.1 0.1-2.2 0.1-1.1 0-2.2-0.1-1-0.1-2.1-0.3 0.6-2 1.4-4 0.7-1.9 1.7-3.7 1-1.9 2.1-3.6 1.2-1.7 2.5-3.3-2.4 0.2-4.9 0.3-2.5 0-4.9 0-2.5 0-4.9 0-2.5-0.1-5-0.3l5-5.1q-2.7-0.5-5.5-0.6-2.8-0.1-5.5 0.1-2.8 0.3-5.5 1-2.7 0.6-5.2 1.7c-2.7-2.1 0-4.7 3.3-7.3q-2.3 0.3-4.6 0.7-2.3 0.4-4.6 1-2.3 0.6-4.6 1.3-2.2 0.7-4.4 1.5c-3.3-3.3 1.3-5.5 3.8-8.4q-2.6 0.3-5.1 1-2.5 0.7-4.9 1.6-2.4 0.9-4.7 2.1-2.3 1.2-4.4 2.7c-3.4-3.1 0-5.5 1.9-8.2q-2.3 0.9-4.4 2-2.1 1.1-4.2 2.4-2 1.3-3.9 2.8-1.8 1.5-3.5 3.2-1-0.7-1.6-1.7-0.6-1-0.7-2.2-0.1-1.1 0.2-2.3 0.3-1.1 1-2-1.8 1.1-3.6 2.3-1.7 1.2-3.4 2.6-1.6 1.4-3 2.9-1.5 1.6-2.8 3.3-0.8-0.7-1.4-1.6-0.6-1-0.8-2-0.3-1.1-0.3-2.2 0.1-1.1 0.5-2.1-2 1.7-3.9 3.4-1.9 1.8-3.7 3.6-1.8 1.8-3.6 3.7-1.7 1.9-3.4 3.9-0.5-0.7-0.9-1.5-0.4-0.7-0.7-1.5-0.3-0.9-0.5-1.7-0.2-0.9-0.2-1.7c-13.7 13.2-33.1 46.8-5 60q9.4-7.4 19.4-14 10-6.5 20.6-12.2 10.6-5.6 21.6-10.2 11.1-4.7 22.5-8.3z"/>
		<path id="Layer" fill-rule="evenodd" class="s2" d="m216.7 310.4c-0.3 6.1-1.7 12.1-4.2 17.7-2.6 5.6-6.2 10.7-10.7 14.9-4.5 4.1-9.8 7.4-15.5 9.6-5.8 2.1-11.9 3.2-18 3-6.2 0.2-12.3-0.7-18.1-2.8-5.8-2.1-11.1-5.3-15.7-9.5-4.5-4.1-8.2-9.1-10.8-14.7-2.6-5.6-4.1-11.6-4.4-17.8 0.2-6.1 1.7-12.1 4.2-17.7 2.6-5.6 6.2-10.7 10.7-14.9 4.5-4.1 9.7-7.4 15.5-9.6 5.7-2.1 11.9-3.2 18-3 6.1-0.2 12.3 0.7 18.1 2.8 5.8 2.1 11.1 5.3 15.6 9.5 4.6 4.1 8.3 9.1 10.9 14.7 2.6 5.6 4.1 11.6 4.4 17.8zm-77-128.3c4.9 3.9 9 8.7 12.1 14.2 3 5.4 5 11.4 5.7 17.6 0.8 6.2 0.3 12.5-1.3 18.5-1.7 6-4.5 11.7-8.3 16.6-3.1 5.5-7.2 10.3-12.1 14.2-4.9 4-10.5 6.9-16.5 8.6-6.1 1.8-12.4 2.4-18.6 1.8-6.2-0.7-12.3-2.5-17.8-5.5-4.9-3.9-9-8.7-12.1-14.1-3-5.5-5-11.5-5.7-17.7-0.8-6.2-0.3-12.4 1.3-18.5 1.7-6 4.5-11.6 8.3-16.6 3.1-5.5 7.2-10.3 12.1-14.2 4.9-3.9 10.5-6.8 16.5-8.6 6-1.8 12.3-2.3 18.6-1.7 6.2 0.6 12.3 2.5 17.8 5.4zm72.4-7.9c6.2-0.6 12.5 0 18.5 1.7 6 1.8 11.7 4.7 16.6 8.6 4.9 3.9 9 8.8 12 14.2 3.8 5 6.7 10.6 8.3 16.7 1.7 6 2.1 12.3 1.4 18.5-0.8 6.2-2.7 12.2-5.8 17.6-3 5.5-7.1 10.3-12 14.1-5.6 3-11.6 4.8-17.9 5.5-6.2 0.6-12.5 0-18.5-1.7-6-1.8-11.7-4.7-16.6-8.6-4.9-3.9-9-8.8-12-14.3-3.8-4.9-6.7-10.5-8.3-16.6-1.7-6-2.1-12.3-1.4-18.5 0.8-6.2 2.7-12.2 5.8-17.6 3-5.5 7.1-10.3 12-14.1 5.6-3 11.6-4.8 17.9-5.5zm-173.2 29.8c21.8-5.8 7.3 90.2-10.4 82.3-5.7-5.6-10.1-12.4-12.8-20-2.7-7.6-3.6-15.7-2.6-23.7 1-8 3.9-15.7 8.4-22.4 4.4-6.7 10.4-12.2 17.4-16.2zm269.2 14.8c4.5 6.7 7.4 14.3 8.4 22.3 1 8 0.1 16.1-2.6 23.7-2.7 7.6-7.1 14.5-12.8 20.1-17.7 7.8-32.2-88.2-10.4-82.4 7 4 13 9.6 17.4 16.3zm-91.4-87.7c37.6-6.4 68.9 16.1 67.6 56.9-1.2 16-81-54.7-67.6-56.9zm-171.7 55.7c-1.4-40.8 30-63.3 67.6-56.8 13.8 2.3-66.5 72.4-67.6 56.8zm121.7-66.3q-0.3 0-0.5 0-0.2 0-0.4 0zm-0.5 0c19.7 0.2 44 16.7 44 29.1 0 12.6-17.8 22.8-43.5 22.5-25.8-0.3-43.6-14.9-43.6-24.9 0-10 20.8-26.5 43.1-26.7zm1.9 249c19.6-0.8 45.8 6.3 45.9 15.8 0.2 9.5-23.7 30-47.2 29.1-23.5-0.9-48-19.8-47.7-27.1 0-10.6 29.2-18.9 49-18.4zm-72.3-56.2c14.6 16.7 20.1 46.3 8.6 54.9-11.5 8.6-37.7 3.9-56.7-23.3-12.7-23-11-46.2-2-53.5 13.4-8.2 34.2 2.9 50.2 21.4zm190.4-27.6c2.8 4.5 5 9.5 6.4 14.6 1.4 5.2 2 10.5 1.9 15.8-0.2 5.4-1.1 10.7-2.7 15.8-1.6 5-4 9.9-7 14.3-20.9 29-49.2 30-59.7 22-10.9-10.4-2-42.6 12.6-60.2 17.2-19.6 35.7-32.2 48.5-22.3z"/>
		<path id="Layer" fill-rule="evenodd" class="s3" d="m450 158q5.1 0.9 10 2.3c4.2 1.2 8.1 3.1 11.8 5.4 3.6 2.4 6.9 5.3 9.8 8.6 2.8 3.3 5.1 7 6.9 11 1.7 4 2.9 8.2 3.5 12.5 2.7 15.5-2.8 31.3-14.7 41.7l-1.3 1.1q1.7 1.3 3.2 2.8 1.5 1.5 2.8 3.2 1.3 1.6 2.4 3.4 1.2 1.8 2.1 3.7 1 2.1 1.7 4.3 0.8 2.2 1.3 4.4 0.5 2.2 0.8 4.5 0.3 2.3 0.3 4.6 0 6 0.8 12.3c0.2 0.8 0.7 1.6 1.4 2.1q1.7 0.8 3.1 2.1 1.4 1.3 2.3 2.9 0.9 1.6 1.3 3.5 0.4 1.8 0.2 3.7c-0.3 1.4-0.7 2.8-1.5 4.1-0.7 1.2-1.6 2.3-2.8 3.3-1.1 0.9-2.3 1.6-3.7 2.1-1.4 0.5-2.8 0.7-4.3 0.7-1.8 0-3.7-0.2-5.4-0.7-1.8-0.5-3.5-1.3-5-2.3-1.6-1-3-2.3-4.1-3.7-1.2-1.5-2.1-3.1-2.7-4.8q-0.9-2.1-1.5-4.2-0.7-2.2-1.1-4.3-0.5-2.2-0.8-4.4-0.2-2.2-0.3-4.4c0-3.7 0-7.4-0.6-10.9q-0.5-2.5-1.6-4.8-1.1-2.2-2.7-4.2-1.6-1.9-3.6-3.4-2.1-1.4-4.4-2.3-1.5-0.9-3.2-1.5-1.6-0.6-3.3-1-1.7-0.4-3.5-0.6-1.7-0.2-3.5-0.1h-21.1v46.8c0 1.5-0.2 3.1-0.8 4.5-0.6 1.4-1.4 2.7-2.4 3.8-1 1.2-2.3 2.1-3.7 2.8-1.3 0.6-2.8 1-4.4 1.2q-2.1 0-4.1-0.6-2-0.7-3.6-1.9-1.7-1.3-2.9-3.1-1.1-1.7-1.6-3.8v-132.8c1.4-4.7 4.9-8.3 9.6-9.6zm-31.4 46.8v20.4c0 1.9 0 2.5 2.4 2.5h23.7q0.8 0 1.5 0 0.7 0 1.5-0.1 0.7-0.1 1.4-0.2 0.8-0.1 1.5-0.3c11.3-2.4 19-13 17.7-24.5-1.5-11.5-11.3-20.1-22.9-20.1h-24.5c-2 0-2.2 0.7-2.2 2.3 0 0-0.1 20.1-0.1 20zm473.2-46.7h-0.3q-0.2-0.1-0.5-0.1zm2.3 1q1.5 0.7 2.7 1.8 1.2 1.2 2.1 2.6 0.9 1.4 1.4 2.9c0.4 1.9 0.6 3.8 0.6 5.7v38.8c23.2-15.7 54.9-10.3 71.4 12.3 3.6 4.8 6.4 10.1 8.3 15.8 1.9 5.7 2.9 11.7 2.9 17.6 0 6-1 12-2.9 17.7-1.9 5.7-4.7 11-8.3 15.8-5.2 7.2-12.2 13-20.3 16.8q-3.1 1.4-6.3 2.4-3.2 1-6.6 1.6-3.3 0.5-6.7 0.6-3.4 0.2-6.7-0.2-3.3-0.4-6.5-1.1-3.2-0.8-6.3-1.9-3.1-1.2-6.1-2.6-2.9-1.5-5.7-3.3-0.4 1.7-1.3 3.2-0.9 1.5-2.2 2.7-1.2 1.2-2.8 2-1.6 0.8-3.3 1.1c-1.7 0.3-3.4 0.1-5-0.3-1.6-0.5-3.1-1.2-4.4-2.3-1.2-1-2.3-2.3-3.1-3.8-0.8-1.4-1.2-3.1-1.4-4.7v-127.5c-0.8-6.6 3.3-12.9 9.7-14.7h4.2q1.4 0.3 2.6 1zm65.7 96.9c0-2.5-0.7-5.2-1.3-7.8-1-3.7-2.6-7.2-4.9-10.3-2.2-3.1-5.1-5.7-8.4-7.7-3.2-2-6.9-3.3-10.7-3.9-3.7-0.6-7.6-0.5-11.3 0.4-9.2 2.8-16.6 9.6-20.2 18.3-3.5 8.8-2.8 19 1.9 27.3 1.4 2.6 3.3 5 5.4 7.1 2.2 2.1 4.7 3.8 7.4 5.2 2.7 1.3 5.6 2.2 8.5 2.6 3 0.5 6 0.4 9-0.1 14.8-3 25.2-16.2 24.8-31.2zm-208 96.7q-0.8-0.5-1.6-1-0.7-0.5-1.5-1.1-0.8-0.5-1.5-1.1-0.8-0.6-1.5-1.2-0.7-0.8-1.2-1.7-0.6-0.9-0.9-1.9-0.4-1-0.5-2-0.1-1.1-0.1-2.1 0-63.4 0-126.5 0-2.1 0.6-4.1 0.6-2 1.9-3.7 1.2-1.6 3-2.8 1.7-1.2 3.7-1.7c1.5-0.3 3-0.4 4.4-0.1 1.5 0.2 2.9 0.6 4.2 1.4 1.3 0.7 2.5 1.6 3.4 2.7 1 1.2 1.7 2.5 2.2 3.9v0.6c14.6-9.7 32.9-11.6 49.1-5.2q3.9 1.6 7.6 3.8 3.6 2.1 6.9 4.9 3.2 2.7 6 5.9 2.8 3.3 5 6.9c13.1 20.6 11.3 47.3-4.6 65.8q-3 3.7-6.7 6.8-3.7 3-7.9 5.3-4.2 2.3-8.8 3.8-4.5 1.4-9.3 2-4.8 0.7-9.6 0.6-4.9-0.2-9.6-1.3-4.7-1.1-9.1-3-4.5-1.9-8.5-4.6c0 11.6 0 26.1 0 37.7q0.1 2.1-0.5 4.1-0.6 1.9-1.8 3.6-1.2 1.7-2.9 2.8-1.6 1.2-3.6 1.8h-6.3zm73.6-95.9q-0.1-2.3-0.4-4.5-0.3-2.3-1-4.5-0.6-2.2-1.5-4.3-1-2.1-2.2-4.1c-2.1-3.5-5-6.5-8.4-8.8-3.5-2.3-7.4-3.9-11.5-4.5-4-0.6-8.2-0.4-12.2 0.7-4 1.2-7.6 3.2-10.8 5.9-3.1 2.9-5.6 6.4-7.4 10.3-1.8 3.8-2.8 8-3 12.3-0.2 4.2 0.4 8.5 1.8 12.5 1.4 4 3.6 7.8 6.4 11 1.8 1.9 3.7 3.5 5.9 4.9 2.2 1.4 4.6 2.4 7.1 3.1 2.4 0.8 5 1.1 7.6 1.2 2.5 0 5.1-0.3 7.6-1 3.2-0.9 6.3-2.4 9.1-4.3 2.7-1.9 5.2-4.3 7.2-6.9 2-2.7 3.5-5.8 4.5-9 1.1-3.2 1.6-6.5 1.5-9.9zm650.5-98.9q5 0.9 9.9 2.3c4.4 1.3 8.6 3.3 12.4 5.8 3.8 2.5 7.2 5.6 10.1 9.1 2.9 3.5 5.2 7.5 6.9 11.7 1.8 4.3 2.8 8.7 3.2 13.3 0.7 5.8 0.2 11.7-1.3 17.4-1.6 5.7-4.2 11-7.8 15.7-3.5 4.7-7.9 8.7-12.9 11.8-5.1 3-10.6 5.1-16.5 6.1q-1 0.2-2.1 0.3-1.1 0.1-2.1 0.3-1.1 0.1-2.2 0.1-1.1 0.1-2.1 0.1h-26.9v47.7c-0.1 2.7-1.2 5.3-2.9 7.3-1.8 2.1-4.1 3.5-6.8 4.1-2.6 0.5-5.4 0.2-7.8-1-2.5-1.1-4.4-3.1-5.7-5.5q-0.2-0.5-0.4-1.1-0.2-0.6-0.3-1.2-0.1-0.6-0.2-1.2 0-0.6 0-1.3 0-64.8 0-129.7 0-1.9 0.7-3.7 0.6-1.8 1.8-3.4 1.2-1.5 2.8-2.6 1.6-1.1 3.5-1.6h46.8zm-31.4 46.7v20.9c0 1.2 0 2.1 1.6 2h28.7c2.7-0.3 5.4-1.1 7.8-2.3 2.4-1.3 4.6-3 6.4-5 1.8-2.1 3.2-4.4 4.1-7 0.9-2.6 1.4-5.3 1.3-8 0-3-0.6-6-1.8-8.7-1.2-2.7-2.9-5.2-5-7.3-2.1-2.1-4.6-3.8-7.4-4.9-2.8-1.1-5.7-1.7-8.7-1.7h-24.5c-1.9 0-2.1 0.6-2.1 2.2zm114.4 95.8c0 1 0 1.9-0.7 2.8-1.2 2.4-3 4.4-5.3 5.6-2.3 1.2-4.9 1.7-7.5 1.4-2.6-0.4-5-1.6-6.9-3.4-1.8-1.8-3.1-4.2-3.5-6.7q0-43 0-86c0.6-2.5 2.1-4.8 4.1-6.5 2-1.6 4.5-2.6 7.1-2.8 2.7-0.1 5.3 0.6 7.4 2.1 2.2 1.4 3.9 3.5 4.8 6q0 0.4 0 0.7v86.7zm0-125.4q-0.5 2.4-1.4 4.6-0.8 1.9-2.2 3.3-1.4 1.4-3.2 2.4-1.8 0.9-3.8 1.2-2 0.2-4-0.1-1.9-0.5-3.6-1.6-1.6-1-2.9-2.5-1.2-1.6-1.9-3.4-0.7-1.8-0.8-3.8-0.4-4 0-8 0.4-1.7 1.3-3.2 0.9-1.5 2.1-2.7 1.3-1.2 2.8-2 1.5-0.8 3.2-1.1h4.6q1.4 0.3 2.7 0.9 1.2 0.7 2.3 1.6 1.1 0.9 2 2.1 0.9 1.1 1.4 2.5c0 1.3 0.8 2.8 1.3 4.3v5.5zm-201.9 132.1q-1.7 0.6-3.5 1.1-1.8 0.5-3.6 0.9-1.8 0.5-3.7 0.9-1.8 0.4-3.6 0.8c-3.3 0.4-6.7 0.5-10 0.2-3.4-0.3-6.7-1-9.9-2-3.1-1.1-6.2-2.5-9-4.3-2.9-1.7-5.5-3.8-7.9-6.2q-3.6-3.3-6.4-7.3-2.8-4-4.7-8.4-1.9-4.5-2.8-9.3-0.9-4.8-0.8-9.7 0-25.3 0-50.6 0.1-1.9 0.7-3.7 0.6-1.8 1.8-3.3 1.1-1.5 2.7-2.6 1.6-1.1 3.4-1.7 1.8-0.5 3.7-0.4 2 0.1 3.8 0.8 1.7 0.8 3.1 2.1 1.5 1.3 2.4 3 0.3 0.9 0.6 1.8 0.3 0.8 0.5 1.8 0.2 0.9 0.2 1.8 0.1 0.9 0.1 1.8v50.4c-0.3 9.9 6 18.7 15.4 21.7 2.2 0.7 4.6 1 7 0.9 2.4 0 4.8-0.5 7-1.3 2.3-0.8 4.4-1.9 6.3-3.4 1.9-1.4 3.5-3.2 4.9-5.1q0.9-1.4 1.6-2.8 0.8-1.5 1.2-3.1 0.5-1.5 0.8-3.1 0.2-1.6 0.2-3.3 0-25.8 0-51.7-0.1-1.9 0.4-3.8 0.6-1.8 1.7-3.4 1.1-1.6 2.6-2.7 1.6-1.2 3.4-1.8 1.9-0.5 3.9-0.3 1.9 0.1 3.7 0.8 1.8 0.8 3.3 2 1.5 1.3 2.6 2.9 0.3 0.7 0.6 1.5 0.3 0.7 0.5 1.4 0.1 0.8 0.2 1.6 0.1 0.8 0.1 1.5v83.8c-0.1 8.7-2.4 17.3-6.7 24.9-4.3 7.7-10.5 14.1-18 18.7-7.4 4.6-15.9 7.2-24.7 7.7-8.7 0.4-17.5-1.4-25.3-5.2-2.4-1-4.4-2.8-5.7-5.1-1.2-2.3-1.6-4.9-1.1-7.5 0.5-2.6 1.8-4.9 3.8-6.5 2-1.7 4.5-2.6 7.1-2.6q0.8 0 1.6 0 0.7 0.1 1.5 0.3 0.7 0.2 1.4 0.4 0.7 0.3 1.4 0.6c14.5 6.8 31.7 0.7 38.5-13.7zm-766.4-95.9q0.4-0.7 0.8-1.3 0.3-0.7 0.8-1.3 0.4-0.7 0.8-1.3 0.5-0.6 0.9-1.2 1.1-1.4 2.5-2.3 1.4-1 3.1-1.5 1.6-0.4 3.3-0.4 1.8 0.1 3.4 0.6 1.6 0.7 3.1 1.7 1.4 1.1 2.5 2.5 1 1.5 1.6 3.2 0.6 1.6 0.7 3.4c0 28.2 0 57.6 0 86 0.1 1.4 0 2.9-0.5 4.3-0.4 1.4-1.2 2.7-2.1 3.8-0.9 1.1-2.1 2.1-3.4 2.8-1.3 0.7-2.7 1.1-4.1 1.3q-1.8 0.2-3.5-0.1-1.7-0.3-3.2-1.1-1.6-0.8-2.8-2-1.2-1.2-2-2.8c0-1-1-2-1.5-3.2-6.5 4.6-14 7.6-21.9 8.8-7.9 1.2-16 0.5-23.5-2-7.6-2.5-14.5-6.8-20.1-12.4-5.6-5.7-9.9-12.5-12.4-20.1-1.8-4.4-3-9.1-3.6-13.8-0.6-4.8-0.5-9.6 0.1-14.3 0.6-4.8 1.9-9.4 3.7-13.8 1.8-4.4 4.2-8.6 7.1-12.4 2.6-3.7 5.7-7 9.1-9.8 3.5-2.9 7.4-5.2 11.5-7 4.2-1.7 8.5-2.9 13-3.5 4.5-0.6 9-0.6 13.4 0.1q2.8 0.3 5.6 1 2.7 0.6 5.3 1.6 2.6 1 5.1 2.3 2.5 1.3 4.9 2.9zm-58 47.8q0.1 1.1 0.2 2.1 0.2 1.1 0.4 2.2 0.1 1 0.4 2.1 0.2 1 0.4 2.1c0.7 2.4 1.6 4.7 2.9 6.9 1.2 2.1 2.8 4.1 4.6 5.9 1.8 1.7 3.9 3.2 6.1 4.3 2.2 1.2 4.6 2.1 7 2.6 2.4 0.6 4.9 0.9 7.3 0.8 2.5 0 4.9-0.4 7.3-1.1 2.4-0.7 4.6-1.7 6.7-3 2.1-1.3 4-2.9 5.7-4.7 2.7-3.1 4.8-6.6 6.2-10.4 1.5-3.8 2.2-7.9 2.2-12 0-4-0.7-8.1-2.2-11.9-1.4-3.8-3.5-7.4-6.2-10.4-9.2-10.2-24.5-12.2-35.9-4.6-9.1 6.8-14.1 17.8-13.1 29.1zm495.5 5.6q0.5 3.2 1.8 6.1 1.2 2.9 3.1 5.4 1.8 2.6 4.2 4.7 2.3 2.1 5.1 3.6c2.5 1.4 5.2 2.6 8 3.4 2.8 0.8 5.6 1.2 8.5 1.3 2.9 0.1 5.8-0.1 8.7-0.7 2.8-0.6 5.5-1.5 8.1-2.8q0.7-0.3 1.3-0.6 0.5-0.3 1.1-0.7 0.6-0.4 1.1-0.8 0.6-0.4 1.1-0.8c1.5-1.4 3.3-2.3 5.2-2.7 2-0.5 4-0.3 5.9 0.3 1.9 0.6 3.6 1.8 4.9 3.3 1.3 1.5 2.1 3.4 2.5 5.3q0.2 1.1 0.1 2.3 0 1.1-0.4 2.2-0.4 1.1-1.1 2.1-0.7 0.9-1.6 1.6c-7.2 6.8-16.2 11.5-25.9 13.6-9.7 2.1-19.9 1.6-29.3-1.6-9.4-3.2-17.8-8.9-24.3-16.4-6.4-7.6-10.7-16.8-12.4-26.6-1.1-6.2-1.2-12.7-0.1-19 1.1-6.3 3.2-12.3 6.3-17.9 3.2-5.5 7.2-10.5 12.1-14.6 4.8-4.2 10.3-7.5 16.3-9.8 3.6-1.4 7.4-2.3 11.2-2.9 3.9-0.5 7.8-0.6 11.7-0.3 3.8 0.3 7.7 1 11.4 2.2 3.7 1.2 7.3 2.7 10.6 4.7 13.7 7.9 23.1 21.6 25.5 37.3q0.1 0.7 0.2 1.5 0.2 0.8 0.3 1.5 0.1 0.8 0.2 1.6 0.1 0.7 0.1 1.5c0.5 3.4-0.7 6.8-3.1 9.2-2.4 2.3-5.6 3.5-9.1 3.1h-69.3zm61.3-18.8c-1.2-3.5-3-6.8-5.3-9.8-2.2-2.9-4.9-5.5-8-7.6-3.1-2.1-6.5-3.8-10-4.8-3.6-1.1-7.3-1.5-11-1.4-13.4 0.5-24.8 9.9-27.9 23h61.3zm-408.5-44.1q3.4 0 6.7 0.5 3.4 0.5 6.7 1.4 3.3 1 6.4 2.4 3.1 1.3 6 3.1l7.1 4.6c1.3 0.9 2.3 2.1 3.1 3.4 0.8 1.3 1.3 2.8 1.6 4.3 0.2 1.5 0.2 3.1-0.2 4.6-0.3 1.5-0.9 2.9-1.8 4.2-0.9 1.2-2.1 2.2-3.4 3-1.2 0.7-2.7 1.2-4.2 1.5-1.4 0.2-3 0.2-4.4-0.1-1.5-0.3-2.9-0.9-4.2-1.7q-1.7-1.2-3.4-2.3-1.8-1.1-3.7-2.1-1.9-0.9-3.9-1.7-1.9-0.8-3.9-1.4c-6.4-1.6-13.1-0.3-18.4 3.5q-0.3 0.2-0.5 0.4-0.3 0.2-0.5 0.4-0.2 0.2-0.4 0.4-0.3 0.3-0.5 0.5-0.4 0.3-0.7 0.7-0.3 0.4-0.5 0.9-0.2 0.5-0.3 1 0 0.5 0 1.1c0.2 1.4 1.1 2.6 2.4 3.1q1.6 1 3.2 1.8 1.7 0.8 3.4 1.4 1.8 0.7 3.5 1.1 1.8 0.5 3.6 0.8 3.6 0.6 7.2 1.4 3.5 0.9 6.9 2 3.5 1.2 6.8 2.6 3.4 1.4 6.6 3 3.1 1.6 5.8 3.9 2.6 2.3 4.7 5.2 2 2.9 3.3 6.1 1.3 3.3 1.8 6.8 0.4 3.3 0.1 6.7-0.3 3.4-1.4 6.6-1.1 3.2-2.9 6-1.9 2.9-4.3 5.2-2.4 2.5-5.3 4.5-2.8 2.1-5.9 3.7-3.2 1.5-6.5 2.6-3.3 1-6.8 1.5c-4.4 0.6-8.8 0.8-13.2 0.5-4.4-0.3-8.8-1-13-2.3-4.2-1.3-8.3-3-12.1-5.2-3.9-2.2-7.5-4.8-10.7-7.7q-1.5-1.5-2.4-3.4-0.9-1.9-1.1-4-0.2-2 0.3-4.1 0.5-2 1.6-3.7c0.8-1.3 1.9-2.5 3.1-3.4 1.3-0.8 2.7-1.5 4.2-1.8 1.5-0.3 3-0.3 4.5 0 1.5 0.3 3 0.9 4.2 1.7q0.4 0.2 0.8 0.5 0.3 0.2 0.7 0.4 0.3 0.3 0.7 0.5 0.3 0.3 0.7 0.6 2.3 1.9 4.8 3.4 2.6 1.6 5.3 2.7 2.8 1.2 5.7 1.9 2.9 0.8 5.9 1 2 0.2 4.1 0 2.1-0.1 4.1-0.6 2-0.5 3.9-1.2 2-0.8 3.8-1.8 0.3-0.2 0.6-0.5 0.4-0.2 0.7-0.5 0.3-0.2 0.6-0.5 0.3-0.3 0.5-0.6c0.9-0.6 1.5-1.4 1.9-2.3 0.4-0.9 0.6-1.9 0.5-2.9-0.2-1-0.6-2-1.2-2.7-0.6-0.8-1.5-1.4-2.4-1.8q-2.2-1.2-4.6-2.3-2.3-1-4.7-1.8-2.4-0.8-4.9-1.4-2.5-0.6-5-1-3.2-0.5-6.3-1.3-3-0.8-6-1.9-3-1.1-5.8-2.5-2.9-1.4-5.6-3.1c-7.4-4.7-12.1-12.6-12.7-21.4-0.7-8.7 2.9-17.3 9.5-23q2.6-2.3 5.4-4.1 2.9-1.9 6-3.2 3.1-1.4 6.4-2.2 3.3-0.9 6.7-1.1zm472.2 12.5q2.1-2.1 4.5-3.8 2.3-1.8 4.9-3.1 2.6-1.4 5.3-2.4 2.8-1 5.7-1.5 1.5-0.3 3-0.6 1.5-0.2 3.1-0.4 1.5-0.1 3-0.2 1.6-0.1 3.1-0.1c1.4 0.1 2.8 0.5 4.1 1.1 1.3 0.6 2.4 1.5 3.3 2.5 1 1 1.7 2.3 2.2 3.6 0.5 1.3 0.8 2.7 0.7 4.1 0 1.4-0.2 2.8-0.7 4.1-0.5 1.4-1.3 2.6-2.2 3.6-1 1.1-2.1 1.9-3.4 2.5-1.2 0.7-2.6 1.1-4 1.2q-3.4 0-6.6 0.9-3.3 0.8-6.2 2.4-3 1.6-5.5 3.9-2.5 2.3-4.4 5.1c-3.9 5.1-7 10.9-9.4 16.9q-0.4 1-0.7 2-0.3 1-0.5 2.1-0.2 1-0.3 2.1-0.1 1-0.1 2.1v37.4c-0.4 2.6-1.7 4.9-3.6 6.7-1.9 1.8-4.3 3-6.9 3.3-2.5 0.4-5.2-0.1-7.4-1.4-2.3-1.2-4.2-3.2-5.3-5.5q0-0.5-0.1-0.9 0-0.5 0-0.9 0-0.4 0-0.9 0.1-0.4 0.1-0.9 0-42.6 0-85.9-0.1-2 0.5-3.9 0.5-1.9 1.7-3.5 1.2-1.6 2.8-2.7 1.7-1.1 3.6-1.6 1.9-0.4 3.8-0.3 1.9 0.1 3.7 0.8 1.7 0.7 3.2 1.9 1.5 1.2 2.6 2.8 0.4 0.8 0.7 1.7 0.4 0.9 0.7 1.8 0.3 0.9 0.5 1.8 0.3 0.9 0.5 1.8zm85 0.4q0-0.1 0-0.2 0 0 0 0zm23.1-12.4q1.5-0.3 3.1-0.4 1.5-0.1 3.1-0.1 1.5 0 3 0.1 1.6 0.1 3.1 0.4 1.9 0.5 3.4 1.5 1.6 1.1 2.7 2.7 1.2 1.6 1.7 3.4 0.5 1.9 0.3 3.8c-0.1 1.4-0.5 2.8-1.1 4.1-0.6 1.3-1.4 2.5-2.4 3.5-1 0.9-2.2 1.7-3.6 2.3-1.3 0.5-2.7 0.9-4.1 0.9-8.8 0.3-17 4.8-21.8 12.3q-1.7 2-3.1 4.2-1.4 2.3-2.7 4.6-1.2 2.3-2.3 4.7-1 2.5-1.9 5-0.2 0.6-0.3 1.2-0.2 0.7-0.3 1.3-0.1 0.6-0.1 1.3-0.1 0.7-0.1 1.3v38c0.1 1.6-0.1 3.1-0.6 4.6-0.4 1.4-1.2 2.8-2.1 3.9-1 1.2-2.2 2.2-3.5 3-1.4 0.7-2.8 1.2-4.3 1.4-1.6 0.2-3.1 0.1-4.6-0.2-1.5-0.4-2.9-1.1-4.1-2.1-1.2-0.9-2.2-2.1-3-3.5-0.7-1.3-1.2-2.8-1.3-4.4q0-44.6 0-89.1c0.1-4.1 2.7-7.7 6.6-9 1.9-0.9 4-1.2 6.1-1 2 0.2 4 0.9 5.7 2.1 1.8 1.2 3.1 2.7 4.1 4.6 0.9 1.8 1.3 3.8 1.3 5.8 6.2-6.4 14.3-10.7 23.1-12.2z"/>
	</g>
</svg>