<svg version="1.2" xmlns="http://www.w3.org/2000/svg" viewBox="0 0 921 430" width="921" height="430">
	<title>scada-svg</title>
	<style>
		.s0 { fill: #ffffff } 
	</style>
	<g id="Mohsine-icons">
		<path id="SCADA" fill-rule="evenodd" class="s0" d="m70.9 307.5q-29.8 0-56-8.1v-38.6q11.7 3.9 27.2 6.2 15.7 2.3 28.8 2.3 16.8 0 23.7-4.1 7.1-4.1 7.1-12.2 0-4.4-2.1-7.3-2-2.9-7-5-5.2-2.2-14.5-4.3l-15.7-3.5q-26.9-6-39.7-18.9-12.7-12.9-12.7-34.2 0-27.3 20.8-42 20.8-14.8 61.8-14.8 26.2 0 47.1 5.6v38.6q-9-2.8-21-4.4-12-1.6-23.8-1.6-20.1 0-28.5 4.4-8.3 4.2-8.3 12.1 0 4.1 1.7 6.7 1.7 2.7 5.9 4.8 4.4 2 12.3 3.9l15.6 3.5q29.4 6.4 42.7 19.4 13.3 12.9 13.3 34.1 0 17.8-9.4 30.7-9.4 12.9-27.2 19.8-17.7 6.9-42.1 6.9zm201 0q-51.7 0-78.5-22.6-26.5-22.9-26.5-69.1 0-29.7 12.2-50.4 12.3-20.8 36.2-31.6 23.9-10.8 58.3-10.8 22.2 0 41.3 4.2v39.2q-18.8-3.8-37.3-3.8-31 0-45.4 12.8-14.5 12.8-14.5 39.9 0 27.3 14.1 40.1 14.2 12.6 44.1 12.6 18.3 0 39-5.3v39.3q-9.4 2.6-20.7 4.1-11.2 1.4-22.3 1.4zm243.2-2.4h-47.8l-13.9-44h-68.5l-13.8 44h-47.3l60.2-179.7h70.9zm-96-152.1l-22.3 70.8h44.8zm169 154q-13-0.1-27.8-0.8-14.7-0.8-27.7-2.4v-173.4q13.9-3.2 31.4-5 17.8-1.9 34-1.9 54.1 0 81.3 22.6 27.3 22.5 27.3 69.2 0 32.1-13 52.4-13 20.2-39.1 29.8-26.1 9.4-66.4 9.4zm13.1-38.7q19.3 0 31.4-5.4 12.3-5.4 18.3-17.1 5.9-11.6 5.9-30.7 0-27.8-13.7-40.4-13.7-12.6-42-12.6-4.5 0-10 0.5-5.3 0.4-9.8 1.3v103.7q7.5 0.7 19.9 0.7zm303.8 36.9h-47.7l-14-43.9h-68.5l-13.8 43.9h-47.3l60.3-179.7h70.7zm-95.9-152.1l-22.3 70.8h44.8z"/>
	</g>
</svg>