<svg version="1.2" xmlns="http://www.w3.org/2000/svg" viewBox="0 0 1220 430" width="1220" height="430">
	<title>css-svg</title>
	<style>
		.s0 { fill: #7cfcda } 
		.s1 { fill: #54ccac } 
		.s2 { fill: #1b1f24 } 
		.s3 { fill: #ffffff } 
	</style>
	<g id="Mohsine-icons">
	</g>
	<g id="Folder 1">
		<path id="Layer" fill-rule="evenodd" class="s0" d="m375.8 398.4l-132.2 28.5-243.9-45.7 32.6-250.9c1.5-11.3 2-11.6 13.8-15.3l38.6-11.9c8.3-35.2 34.6-104 89.9-104.3 7 0 15.3 4.1 22.1 12.9h2c23.7 0 37.2 20.2 44.8 42.2 7.8-2.6 12.6-4.1 12.9-4.1 1.9-0.5 6.9-1.3 9.2 1.3l25.2 25.2c0 0 33.1 2.3 34.6 2.5q0.7 0.1 1.3 0.3 0.6 0.3 1.1 0.8 0.6 0.5 0.9 1.1 0.3 0.6 0.4 1.3c0.3 2.4 46.7 315.8 46.7 316.1zm-171.5-372c3.5 10.8 5.3 22.1 5 33.5v4.5c7.4-2.3 14.6-4.3 20.7-6.3-5-15.9-13.3-29.8-25.7-31.7zm-14.9 3.1c-13.4 5.8-28.8 21.2-37.1 52.3l42.6-13.2v-2.3c0.5-12.5-1.5-25.1-5.5-36.9zm-87.7 68.1l33.7-10.3c8.1-41.9 26.9-62.8 44.7-71-2.1-1.5-4.5-2.3-7-2.3-39.7-0.1-61.9 51.9-71.4 83.6z"/>
		<path id="Layer" class="s1" d="m325.4 78.8c-1.5-0.3-34.6-2.5-34.6-2.5l-25.2-25.3c-0.9-0.9-2.2-1.4-3.5-1.5l-18.4 377.3 132.1-28.5-46.6-315.8c-0.4-1.9-1.9-3.4-3.8-3.7z"/>
		<path id="Layer" class="s2" d="m198.7 151.9l-16.4 48.4c-9.9-4.8-20.7-7.3-31.7-7.5-25.8 0-27 16.1-27 20.1 0 22.1 57.7 30.6 57.7 82.5 0 40.9-26 67.1-60.8 67.1-41.8 0-63.3-26-63.3-26l11.2-37.1c0 0 21.9 18.9 40.6 18.9 2.2 0.1 4.4-0.2 6.5-1 2.1-0.8 4-2 5.6-3.6 1.6-1.6 2.9-3.4 3.8-5.5 0.8-2.1 1.2-4.3 1.2-6.5 0-29-47.4-30.3-47.4-77.7 0-39.9 28.7-78.7 86.5-78.7 22.7 0.3 33.6 6.6 33.5 6.6z"/>
		<path id="Layer" fill-rule="evenodd" class="s3" d="m490.7 223.9c14.5 8.5 26.7 19.8 26.5 35.9 0 29.8-24.1 46.2-57.6 46.2-23 0-36.7-9.2-36.7-9.2l9.2-26.4c0 0 14.8 8.1 30.6 8.1 10.7 0 16.3-5.7 16.3-12.7 0-6.9-4-11.3-15.4-17.9-14.2-8.1-24.7-19.5-24.7-34.4 0-26.2 22.7-44.9 55.3-44.9 23.3 0 31.3 6.2 31.3 6.2l-8.7 26.4q-2.7-1.2-5.6-2.1-2.8-0.9-5.7-1.6-3-0.6-5.9-0.9-3-0.4-6-0.5c-10.7 0-17.4 4.9-17.4 12.5 0 6 4.9 10.4 14.4 15.4zm133.5-55.1c19.3 0 30.4 12.6 30.6 33.6-0.2 8.2-1.2 16.3-2.8 24.3l-14.6 77h-37.3l14.1-74.6q1.6-8.1 1.6-16.4c0-8.2-3.3-13.8-11.6-13.8-11.9 0-24.6 15.2-29.5 39.8l-12.5 65.2h-37.3l36.2-190.6h37.3l-14.3 74.8 0.6 0.2c9.9-12 23-19.8 39.4-19.8zm165.5 51.8c0 46.1-29.8 85.6-73.8 85.6-33.6 0-51.5-23.2-51.5-52.2 0-44.9 29.7-85.5 74.6-85.5 35 0 50.7 25.3 50.7 52.1zm-38.1-1c0-11-4.4-22.4-17.6-22.4-20.4 0-31.4 34.9-31.4 56.3 0 13.3 5.4 24.2 18.1 24.2 19.8 0 30.8-35.1 30.9-58.1zm171.7-3.6c0 45.4-28.6 90.3-72.4 90.3-14.3 0-21.9-4.9-21.9-4.9h-0.8l-10.3 55.3h-37.1l25.9-136.6 7.6-49.4h33l-2.2 19.8h0.5c0 0 14.2-22 39.5-22 27.2 0.1 38.4 22.5 38.2 47.5zm-38.7 3.5c0-9.9-3.5-20.4-14.9-20.4-13 0-25.1 15.5-29.5 38.7l-6.2 35q1.6 1.3 3.5 2.4 1.8 1 3.8 1.7 1.9 0.7 4 1 2.1 0.4 4.2 0.3c20.8 0 35.1-34.4 35.1-58.7zm92.3-104.6c11.5 0 18.7 7.8 18.7 18.7 0.1 2.8-0.4 5.7-1.5 8.4-1.1 2.6-2.7 5.1-4.8 7.1-2 2-4.5 3.6-7.2 4.6-2.6 1.1-5.5 1.5-8.4 1.4h-0.5c-10.6 0-17.7-7.6-17.7-18.6-0.2-5.8 2-11.3 6.1-15.3 4-4.1 9.5-6.3 15.2-6.3zm-27.1 56.5h37.4l-25.3 132.2h-37.3zm132.5-0.2h-0.6zm-0.6 0l-5 28h-25.7l-19.9 104.3h-37.4l19.8-104.3h-17.4l5.5-28.1h17.4l1.2-6.1c3-15.8 9-31.4 21.7-42.2q3.8-3.2 8.1-5.6 4.3-2.4 9-4 4.7-1.6 9.6-2.3 4.9-0.8 9.8-0.6c13.7 0 20.3 3.2 20.3 3.2l-7.2 29.2q-1.4-0.4-2.9-0.8-1.5-0.3-3-0.5-1.5-0.3-3-0.4-1.5-0.1-3-0.1c-12.3 0-19.9 11.4-22.1 24.1l-1.2 6.2zm129.2 0.1l-45.6 97.7c-16.1 33.6-31.9 58.2-48.9 74.1q-3.9 3.6-8.1 6.8-4.3 3.1-8.9 5.7-4.6 2.5-9.5 4.5-4.9 2-10 3.4l-10.4-31.7c7.5-2.5 14.6-6.1 21.1-10.5 8.4-5.8 15.4-13.5 20.2-22.5q0.4-0.7 0.6-1.4 0.3-0.8 0.4-1.6 0.1-0.8 0-1.6 0-0.8-0.2-1.5l-22.5-121.4h39.3l9.2 90.9h0.6l33.9-90.9c-0.1 0 38.8 0 38.8 0z"/>
	</g>
</svg>