<svg version="1.2" xmlns="http://www.w3.org/2000/svg" viewBox="0 0 504 504" width="504" height="504">
	<title>software-developement-icon-svg</title>
	<style>
		.s0 { fill: #1b1f24;stroke: #1b1f24;stroke-width: .4 } 
		.s1 { fill: #ff5151;stroke: #1b1f24;stroke-width: .4 } 
	</style>
	<g id="SVGRepo_bgCarrier">
	</g>
	<g id="SVGRepo_tracerCarrier">
	</g>
	<g id="SVGRepo_iconCarrier">
		<g id="Layer">
			<g id="Layer">
				<g id="Layer">
					<path id="Layer" fill-rule="evenodd" class="s0" d="m321.4 401.2c-1.1 4.4-0.7 9 1.3 13.1h-257.1c-13 0-23.6-10.6-23.6-23.6v-309.1c0-13 10.6-23.6 23.6-23.6h345c13 0 23.6 10.6 23.6 23.6v229.7q-2.6-0.5-5.2-0.3c-2.7 0.2-5.2 1-7.4 2.2-2.5-6.4-8.5-11.1-15.7-11.8v-159.1h-335.6v243.7h247.2q0.8 1.6 1.8 3.1c1.5 2.2 3.4 3.9 5.6 5.3-1.6 2-2.8 4.3-3.5 6.8zm58.6-293.8c0 4.8 3.9 8.7 8.7 8.7h8.7c4.8 0 8.7-3.9 8.7-8.7v-9.8c0-4.8-3.9-8.7-8.7-8.7h-8.7c-4.8 0-8.7 3.9-8.7 8.7zm-40.4 0c0 4.8 3.9 8.7 8.7 8.7h8.7c4.8 0 8.7-3.9 8.7-8.7v-9.9c0-4.8-3.9-8.7-8.7-8.7h-8.7c-4.8 0-8.7 3.9-8.7 8.7zm-40.5 0c0 4.8 3.9 8.7 8.7 8.7h8.7c4.8 0 8.7-3.9 8.7-8.7v-9.9c0-4.8-3.9-8.7-8.7-8.7h-8.7c-4.8 0-8.7 3.9-8.7 8.7z"/>
					<path id="Layer" fill-rule="evenodd" class="s1" d="m461.2 380.5c-0.5 0.8-1.4 1.4-2.3 1.5l-13.2 2.4c-0.2 4-0.9 8-2.1 11.8l11.6 6.7c0.8 0.4 1.5 1.2 1.7 2.2 0.3 0.9 0.1 1.9-0.4 2.8l-7.5 13c-0.5 0.9-1.3 1.5-2.2 1.7q-0.5 0.2-1 0.2c-0.6 0-1.2-0.2-1.8-0.5l-11.6-6.7c-2.7 2.9-5.8 5.5-9.2 7.7l4.6 12.6c0.3 0.9 0.3 1.9-0.1 2.8-0.4 0.8-1.2 1.5-2.1 1.9l-14.1 5.1q-0.7 0.2-1.3 0.2-0.8 0-1.6-0.3c-0.8-0.4-1.5-1.2-1.8-2.1l-4.6-12.6q-3 0.4-6 0.4-3.1 0-6-0.4l-4.6 12.6c-0.3 0.9-1 1.7-1.9 2.1q-0.7 0.3-1.6 0.3-0.6 0-1.2-0.2l-14.2-5.1c-0.9-0.4-1.6-1-2-1.9-0.4-0.9-0.5-1.9-0.2-2.8l4.6-12.6c-3.3-2.2-6.4-4.8-9.2-7.7l-11.6 6.7c-0.5 0.3-1.2 0.5-1.8 0.5q-0.5 0-0.9-0.2c-1-0.2-1.8-0.8-2.3-1.7l-7.5-13c-0.5-0.9-0.6-1.9-0.4-2.8 0.3-1 0.9-1.8 1.7-2.2l11.6-6.7c-1.1-3.8-1.8-7.8-2-11.8l-13.2-2.4c-1-0.1-1.8-0.7-2.4-1.5-0.6-0.8-0.8-1.8-0.6-2.7l2.6-14.9c0.4-2 2.3-3.3 4.3-2.9l13.1 2.3c1.6-3.7 3.7-7.2 6.1-10.4l-8.7-10.3c-0.6-0.7-0.9-1.7-0.8-2.6 0.1-1 0.5-1.9 1.3-2.5l11.5-9.7c1.6-1.3 3.9-1.1 5.2 0.4l8.6 10.3c3.5-1.8 7.3-3.2 11.3-4.1v-13.4c0-2 1.6-3.7 3.7-3.7h15c2 0 3.7 1.7 3.7 3.7v13.4c3.9 0.9 7.7 2.3 11.3 4.1l8.6-10.3c0.6-0.7 1.5-1.2 2.5-1.3 0.9 0 1.9 0.3 2.6 0.9l11.6 9.7c0.7 0.6 1.2 1.5 1.3 2.5 0.1 0.9-0.2 1.9-0.9 2.6l-8.6 10.3c2.4 3.2 4.4 6.7 6 10.4l13.2-2.3c2-0.4 3.9 0.9 4.3 2.9l2.6 14.9c0.1 0.9-0.1 1.9-0.7 2.7zm-44.8 0.6c0-11.1-9.1-20.2-20.2-20.2-11.2 0-20.2 9.1-20.2 20.2 0 11.2 9 20.2 20.2 20.2 11.1 0 20.2-9 20.2-20.2z"/>
					<g id="Layer">
						<path id="Layer" class="s1" d="m206.7 277.4c0-4.8-2.8-9.1-7.1-11.1l-39.5-18.4 39.5-18.3c4.3-2 7.1-6.4 7.1-11.1v-0.3c0-4.3-2.1-8.1-5.7-10.4-1.9-1.2-4.2-1.9-6.6-1.9-1.8 0-3.5 0.4-5.1 1.1l-63.1 29.4c-4.3 2-7.1 6.3-7.1 11.1v0.9c0 4.7 2.8 9.1 7.1 11.1l63.1 29.3q2.4 1.2 5.1 1.2c2.4 0 4.6-0.7 6.6-2 3.6-2.2 5.7-6.1 5.7-10.3z"/>
						<path id="Layer" class="s1" d="m268.9 176c-2.3-3.1-6-5-9.9-5h-0.3c-5.3 0-10 3.4-11.7 8.5l-41.5 128.8c-1.2 3.7-0.5 7.8 1.8 10.9 2.3 3.2 6 5.1 9.9 5.1h0.3c5.3 0 10-3.5 11.6-8.6l41.6-128.7c1.2-3.7 0.5-7.8-1.8-11z"/>
						<path id="Layer" class="s1" d="m350 236.4l-63.1-29.4c-1.6-0.7-3.4-1.1-5.1-1.1-2.4 0-4.7 0.7-6.6 1.9-3.6 2.3-5.7 6.1-5.7 10.4v0.3c0 4.7 2.8 9.1 7.1 11.1l39.4 18.3-39.4 18.4c-4.3 2-7.1 6.3-7.1 11.1v0.3c0 4.2 2.1 8.1 5.7 10.3 1.9 1.3 4.2 2 6.6 2q2.7 0 5.1-1.2l63.1-29.3c4.3-2 7.1-6.4 7.1-11.1v-0.9c0-4.8-2.8-9.1-7.1-11.1z"/>
					</g>
				</g>
			</g>
		</g>
	</g>
</svg>