<svg version="1.2" xmlns="http://www.w3.org/2000/svg" viewBox="0 0 2885 430" width="2885" height="430">
	<title>scada-svg</title>
	<style>
		.s0 { fill: #ffffff } 
	</style>
	<g id="Mohsine-icons">
		<path id="Transformer Machine" class="s0" aria-label="Transformer Machine"  d="m106.2 309h-51.1v-147.6h-61.9v-41h175v41h-62zm60.4 0v-139.8h40.7l3.9 17.1h2.2q5.7-9.7 15.4-14.4 9.7-4.9 22.3-4.9 5.5 0 12.4 1.1v44.4q-6.3-1.1-15.4-1.1-9.1 0-17.9 2.9-8.6 2.8-13.6 7.9v86.8zm163.4-142.1q26.1 0 41.8 6.1 15.8 6 23.3 19.9 7.5 13.9 7.5 37.9v78.2h-41.2l-3.4-12.9h-2.2q-6.6 7.9-16.5 11.8-9.8 3.8-21.9 3.8-15.9 0-27.1-5.2-11.2-5.4-16.9-14.7-5.8-9.4-5.8-21.7 0-20.5 15.5-31.7 15.4-11.2 48.7-13.1l21.9-1.5q-0.5-7.6-4-11.9-3.3-4.5-10.3-6.4-6.9-1.9-18.5-1.9-9.2 0-20.1 1.5-11 1.4-20.4 4.3v-36.2q11.2-3.1 24.5-4.6 13.2-1.7 25.1-1.7zm3.8 111.5q11.8 0 20-5.7v-22.4l-16.9 1.1q-10.6 0.9-15.3 4.5-4.8 3.4-4.8 9.8 0 6 4.4 9.4 4.3 3.3 12.6 3.3zm97.5 30.6v-139.8h40.9l3.3 13.4h2.2q8-7.5 19.1-11.6 11.1-4.1 23.8-4.1 24.5 0 38.6 14.7 14.3 14.6 14.3 45.2v82.2h-49.9v-79.3q0-11.2-4.6-15.9-4.6-4.7-13.8-4.7-6.9 0-13.2 2.4-6.4 2.4-10.7 6.9v90.6zm219 2.7q-14 0-27.2-1.7-13.2-1.6-24-4.8v-34.8q11.2 3.2 24.3 5 13.2 1.8 26.2 1.8 13 0 18.3-2.6 5.4-2.5 5.4-7.5 0-3.6-2.2-5.4-2.2-1.8-8-2.6l-26.4-4.1q-21.7-3.3-31.6-13.4-9.8-10.2-9.8-27.9 0-22.1 18.5-34.4 18.6-12.4 55.8-12.4 11.2 0 22.5 1.4 11.4 1.4 19.8 3.7v34.8q-8.7-2.4-19.6-3.8-10.9-1.4-21.7-1.4-16.4 0-22.6 2.9-6.1 2.8-6.1 7.5 0 3.1 2.2 5 2.3 1.8 8 2.7l26.4 4.1q20.8 3.1 31 12.6 10.3 9.4 10.3 28.6 0 14.6-8.2 25-8 10.5-23.7 16.1-15.5 5.6-37.6 5.6zm180.2-172.3q-15.1 0-22 5.8-6.9 5.8-6.9 18v6h36.6v38.9h-36.6v100.9h-49.7v-100.9h-22.7v-38.9h22.7v-3.9q0-20.1 8.2-34.6 8.2-14.6 24.1-22.4 15.9-7.8 38.2-7.8 11.1 0 22.3 1.5v38.3q-7.1-0.9-14.2-0.9zm92.4 172.3q-23.3 0-40.5-8.3-17.1-8.4-26.4-24.7-9.1-16.3-9.1-39.4 0-23.3 8.9-39.5 8.9-16.2 26-24.5 17.1-8.4 41.1-8.4 24.1 0 41.2 8.4 17.1 8.3 26 24.5 9.1 16.2 9.1 39.4 0 23-9.3 39.4-9.4 16.3-26.6 24.7-17 8.4-40.4 8.4zm0-37.5q13.3 0 19.8-8 6.6-8 6.6-26.8 0-18.8-6.6-26.9-6.5-8-19.8-8-13.1 0-19.7 8-6.5 7.9-6.5 26.7 0 18.8 6.5 27 6.5 8 19.7 8zm99.8 34.8v-139.8h40.7l3.9 17.1h2.2q5.7-9.7 15.4-14.4 9.7-4.9 22.3-4.9 5.5 0 12.4 1.1v44.4q-6.3-1.1-15.4-1.1-9.1 0-17.9 2.9-8.6 2.8-13.6 7.9v86.8zm282.9-142.1q23.9 0 37.6 14.7 13.8 14.5 13.8 45.2v82.2h-49.7v-79.4q0-11.1-4.5-15.8-4.3-4.7-12.3-4.7-11.8 0-19.2 7 0.4 4.3 0.4 9.4v83.5h-48.9v-79.4q0-11.2-4-15.8-3.9-4.7-11.9-4.7-6.4 0-11.9 2.5-5.5 2.5-9 6.9v90.5h-50v-139.8h40.9l3.3 13.4h2.2q7.5-7.7 17.8-11.6 10.5-4.1 23.1-4.1 12.2 0 21.8 4.5 9.7 4.3 16 13.2 9.5-9 20.8-13.4 11.5-4.3 23.7-4.3zm213.2 73.9v12.1h-89.7q0.8 8.5 4.9 13.3 4.2 4.8 13.3 7 9.2 2.2 25.3 2.2 17.4 0 37.6-4v36q-22.3 4.3-45 4.3-29.8 0-48.7-7.7-18.9-7.7-27.9-23.7-9.1-15.9-9.1-41.1 0-22.5 8.3-38.6 8.4-16.4 24.5-25 16.2-8.7 39.3-8.7 21.9 0 36.9 8.8 15.1 8.7 22.7 25.2 7.6 16.6 7.6 39.9zm-67.9-43.4q-11.1 0-16.4 6.6-5.2 6.6-5.6 21.7h43.8q-0.4-15.1-5.6-21.7-5.2-6.6-16.2-6.6zm90 111.6v-139.8h40.7l3.9 17.1h2.2q5.7-9.7 15.4-14.4 9.7-4.9 22.3-4.9 5.5 0 12.4 1.1v44.4q-6.3-1.1-15.5-1.1-9 0-17.8 2.9-8.7 2.8-13.6 7.9v86.8zm297.3-78.2l49.1-110.4h62v188.6h-47.6v-124l-43.2 96.4h-41.8l-43.4-92.2v119.8h-47.6v-188.6h62.1zm198.5-63.9q26.1 0 41.8 6.2 15.8 5.9 23.3 19.8 7.5 13.9 7.5 37.9v78.2h-41.1l-3.5-12.8h-2.1q-6.7 7.9-16.6 11.7-9.8 3.8-21.9 3.8-15.8 0-27.1-5.2-11.2-5.4-16.9-14.7-5.7-9.4-5.7-21.6 0-20.5 15.4-31.8 15.4-11.2 48.7-13.1l21.9-1.5q-0.5-7.5-4-11.9-3.3-4.4-10.3-6.3-6.9-2-18.5-2-9.1 0-20.1 1.6-11 1.4-20.4 4.2v-36.2q11.2-3.1 24.5-4.6 13.2-1.7 25.1-1.7zm3.8 111.6q11.9 0 20-5.8v-22.4l-16.9 1.1q-10.6 0.9-15.3 4.5-4.7 3.4-4.7 9.8 0 6 4.3 9.4 4.3 3.4 12.6 3.4zm173.2 33.2q-39.9 0-60.9-18.3-21-18.5-21-53.9 0-35.6 21.9-54.1 22-18.5 63.4-18.5 19.9 0 35.5 3.6v38.5q-16.2-2.8-29.2-2.8-21.2 0-30.8 8-9.7 8.1-9.7 25 0 17.1 9.3 25.2 9.4 8.1 28.3 8.1 7.1 0 14.4-1.1 7.4-1.1 17.7-3.5v38.5q-8 2.5-18.1 3.9-10 1.4-20.8 1.4zm64.1-2.7v-205.9h50v79.3h2.3q7.5-7.6 17.6-11.5 10.2-4 22-4 14.8 0 26 6.3 11.3 6.2 17.8 19.6 6.5 13.3 6.5 33.9v82.3h-49.9v-79.1q0-11.2-4.6-15.9-4.6-4.7-13.8-4.7-6.8 0-13.3 2.4-6.4 2.4-10.6 6.7v90.6zm221.1 0h-50.1v-139.8h50.1zm-25.1-156.3q-30.1 0-30.1-24.5 0-24.4 30.1-24.4 30.1 0 30.1 24.4 0 24.5-30.1 24.5zm54.9 156.3v-139.8h40.9l3.3 13.4h2.2q8-7.5 19.1-11.6 11.1-4.1 23.9-4.1 24.4 0 38.6 14.7 14.2 14.6 14.2 45.2v82.2h-49.9v-79.2q0-11.3-4.6-16-4.6-4.7-13.8-4.7-6.8 0-13.2 2.4-6.4 2.5-10.7 6.9v90.6zm304.1-68.1v12.1h-89.8q0.8 8.4 4.9 13.2 4.2 4.9 13.4 7 9.1 2.2 25.2 2.2 17.5 0 37.6-4v36q-22.3 4.3-45 4.3-29.8 0-48.7-7.6-18.8-7.8-27.9-23.7-9-16-9-41.2 0-22.4 8.3-38.6 8.4-16.3 24.4-25 16.2-8.7 39.3-8.7 21.9 0 36.9 8.8 15.1 8.7 22.7 25.3 7.7 16.5 7.7 39.9zm-68-43.5q-11 0-16.4 6.6-5.2 6.6-5.6 21.7h43.8q-0.4-15.1-5.6-21.7-5.2-6.6-16.2-6.6z"/>
	</g>
</svg>