<svg version="1.2" xmlns="http://www.w3.org/2000/svg" viewBox="0 0 1897 430" width="1897" height="430">
	<title>css-svg</title>
	<style>
		.s0 { fill: #7cfcda } 
		.s1 { fill: #ffffff } 
	</style>
	<g id="Mohsine-icons">
		<path id="Layer" fill-rule="evenodd" class="s0" d="m1177.6 237c0 37.7-25.7 69.2-84.9 69.2h-120.6l-46-57.6h-7v15c0 29.4 3.7 34.8 26.9 34.8v7.8h-82.4v-7.8c23.2 0 26.9-5.4 26.9-34.8v-53.1c0-29.4-3.7-34.4-26.9-34.4v-7.8h72.9c36.4 0 55.9 17.4 55.9 40.1 0 18.3-13.7 34.4-39.3 39l19 20.7c16.6 18.2 28.6 27.8 46.4 30.3 23.2 0 26.9-5.4 26.9-34.8v-53.1c0-29.4-3.7-34.4-26.9-34.4v-7.8h74.2c59.2 0 84.9 31 84.9 68.7zm-241.5-1.2c18.6 0 26.9-12.8 26.9-27.4 0-14.9-8.3-27.7-26.9-27.7h-17v55.1c0 0 17 0 17 0zm208.8 0.8c0-24.4-7.9-55.9-51-55.9h-19.9v89.9c0 19.1 2.1 22.8 17 22.8h2.9c43.1 0 51-31.5 51-56.8zm-512.1 14.5l28.6-84.5c8.3-24.4 4.6-31.5-22-31.5v-8.3h77.9v8.3c-26.1 0-32.3 6.2-42.6 36.5l-47.3 141.7h-5.4l-42.2-129.7-43.1 129.7h-5.4l-46-141.7c-9.9-30.3-16.6-36.5-40.6-36.5v-8.3h92v8.3c-24.5 0-31.1 5.8-22.4 31.5l27.8 84.5 41.8-124.3h7.9zm140.9 60.5c-45.9 0-82.9-33.2-82.9-74.4 0-41.1 37-74.3 82.9-74.3 45.8 0 82.8 33.2 82.8 74.3 0 41.2-37 74.4-82.8 74.4zm0-135.9c-38.2 0-51.4 34.4-51.4 61.3 0 27.4 13.2 61.4 51.4 61.4 38.5 0 51.7-34 51.7-61.4 0-26.9-13.2-61.3-51.7-61.3z"/>
		<path id="Layer" fill-rule="evenodd" class="s1" d="m1279.9 297.9v8.3h-94.8v-8.3c27.7 0 32.7-7 32.7-48.4v-66.3c0-41.5-5-48.1-32.7-48.1v-8.3h85.7c42.7 0 66.3 22 66.3 51.4 0 28.6-23.6 51-66.3 51h-23.6v20.3c0 41.4 5 48.4 32.7 48.4zm-9.1-156.2h-23.6v72.1h23.6c23.2 0 34-16.1 34-35.6 0-19.9-10.8-36.5-34-36.5zm357.2 125.6l-2.5 38.9h-170.3l-46-57.6h-7v15c0 29.4 3.7 34.8 26.9 34.8v7.8h-82.4v-7.8c23.2 0 26.9-5.4 26.9-34.8v-53.1c0-29.4-3.7-34.4-26.9-34.4v-7.8h72.9c36.4 0 55.9 17.4 55.9 40.1 0 18.3-13.7 34.4-39.4 39l19.1 20.7c16.3 18 28.3 27.5 45.7 30.1 18.2-1 21.4-7.7 21.4-34.6v-53.1c0-29.4-3.7-34.4-26.9-34.4v-7.8h121.8l2.9 38.9h-6.6l-2.1-7.9c-3.7-13.6-8.3-18.6-37.7-18.6h-22.8v46.4c32.3 0 34.8-2.9 34.8-24.5h7.9v61.8h-7.9c0-21.6-2.5-24.5-34.8-24.5v19.1c0 29.4 3.7 34.4 25.3 34.4h5.8c29.4 0 34-5 37.7-18.7l2.1-7.4c0 0 6.2 0 6.2 0zm-208.8-31.5c18.6 0 26.9-12.8 26.9-27.4 0-14.9-8.3-27.7-26.9-27.7h-17v55.1c0 0 17 0 17 0zm286.7 75.8c-16.6 0-31.1-8.7-37.3-14.1-2.1 2.1-5.8 8.3-6.7 14.1h-7.8v-57.2h8.3c3.3 27.4 22.3 43.5 46.8 43.5 13.2 0 24-7.4 24-19.8 0-10.8-9.5-19.1-26.5-27l-23.6-11.2c-16.6-7.8-29-21.5-29-39.7 0-19.9 18.6-36.9 44.3-36.9 13.7 0 25.3 5 32.3 10.8 2.1-1.7 4.2-6.3 5.4-11.2h7.9v48.9h-8.7c-2.9-19.5-13.7-35.7-35.7-35.7-11.6 0-22.3 6.7-22.3 17 0 10.8 8.7 16.6 28.6 25.7l22.7 11.2c19.9 9.5 27.8 24.9 27.8 37.3 0 26.1-22.8 44.3-50.5 44.3zm127.6 0c-16.6 0-31.1-8.7-37.3-14.1-2.1 2.1-5.8 8.3-6.7 14.1h-7.8v-57.2h8.3c3.3 27.4 22.3 43.5 46.8 43.5 13.2 0 24-7.4 24-19.8 0-10.8-9.5-19.1-26.5-27l-23.6-11.2c-16.6-7.8-29-21.5-29-39.7 0-19.9 18.6-36.9 44.3-36.9 13.7 0 25.3 5 32.3 10.8 2.1-1.7 4.2-6.3 5.4-11.2h7.9v48.9h-8.7c-2.9-19.5-13.7-35.7-35.7-35.7-11.6 0-22.3 6.7-22.3 17 0 10.8 8.7 16.6 28.6 25.7l22.7 11.2c19.9 9.5 27.8 24.9 27.8 37.3 0 26.1-22.8 44.3-50.5 44.3z"/>
		<g id="Layer">
			<path id="Layer" class="s1" d="m30.4 213.7c0 72.6 42.2 135.3 103.3 165l-87.4-239.6q-4 8.8-6.9 17.9-3 9.2-5 18.6-2 9.4-3 18.9-1 9.6-1 19.2zm307.1-9.2c0-22.7-8.1-38.4-15.1-50.6-9.3-15.1-18-27.9-18-43 0-16.8 12.8-32.5 30.8-32.5 0.8 0 1.6 0.1 2.4 0.1-32.7-29.9-76.1-48.1-123.9-48.1-64 0-120.4 32.8-153.2 82.6 4.3 0.2 8.4 0.2 11.8 0.2 19.2 0 48.9-2.3 48.9-2.3 9.9-0.6 11.1 14 1.2 15.1 0 0-10 1.2-21 1.8l66.8 198.6 40.1-120.4-28.6-78.2c-9.9-0.6-19.2-1.8-19.2-1.8-9.9-0.6-8.7-15.7 1.2-15.1 0 0 30.2 2.3 48.3 2.3 19.1 0 48.8-2.3 48.8-2.3 9.9-0.6 11.1 13.9 1.2 15.1 0 0-10 1.2-21 1.8l66.3 197.1 18.3-61.2c7.9-25.3 13.9-43.5 13.9-59.2z"/>
			<path id="Layer" class="s1" d="m217 229.8l-55.1 159.8q6.3 1.9 12.8 3.3 6.4 1.4 12.9 2.3 6.5 1 13 1.4 6.6 0.5 13.1 0.5c21.4 0 41.9-3.7 60.9-10.4q-0.2-0.3-0.3-0.6-0.2-0.3-0.4-0.6-0.1-0.3-0.3-0.7-0.1-0.3-0.3-0.6zm157.7-104c0.8 5.8 1.2 12.1 1.2 18.8 0 18.6-3.5 39.5-13.9 65.7l-56 161.9c54.5-31.8 91.2-90.8 91.2-158.5 0-31.8-8.2-61.8-22.5-87.9z"/>
			<path id="Layer" fill-rule="evenodd" class="s1" d="m213.7 427.5c-118.2 0-213.7-95.6-213.7-213.8 0-118.2 95.5-213.7 213.7-213.7 118.2 0 213.8 95.5 213.8 213.7 0 118.2-95.6 213.8-213.8 213.8zm204-213.8c0-112.7-91.2-203.9-204-203.9-112.7 0-203.9 91.2-203.9 203.9 0 112.8 91.2 204 203.9 204 112.8 0 204-91.2 204-204z"/>
		</g>
	</g>
</svg>