<?xml version="1.0" encoding="UTF-8" standalone="no"?>
<svg width="370.417mm" height="224.367mm"
 xmlns="http://www.w3.org/2000/svg" xmlns:xlink="http://www.w3.org/1999/xlink"  version="1.2" baseProfile="tiny">
<title>Qt SVG Document</title>
<desc>Generated with Qt</desc>
<defs>
</defs>
<g fill="none" stroke="black" stroke-width="1" fill-rule="evenodd" stroke-linecap="square" stroke-linejoin="bevel" >

<g fill="none" stroke="#000000" stroke-opacity="1" stroke-width="1" stroke-linecap="square" stroke-linejoin="bevel" transform="matrix(0.72,0,0,0.72,0,0)"
font-family="Sans Serif" font-size="9" font-weight="400" font-style="normal" 
>
</g>

<g fill="#ffffff" fill-opacity="1" stroke="none" transform="matrix(7.632,0,0,7.632,-3388.61,-1839.31)"
font-family="Sans Serif" font-size="9" font-weight="400" font-style="normal" 
>
<path vector-effect="none" fill-rule="evenodd" d="M444,241 L543,241 L543,301 L444,301 L444,241"/>
</g>

<g fill="none" stroke="#000000" stroke-opacity="1" stroke-dasharray="2,1" stroke-dashoffset="0" stroke-width="0.5" stroke-linecap="square" stroke-linejoin="miter" stroke-miterlimit="2" transform="matrix(7.632,0,0,7.632,351.072,221.328)"
font-family="Sans Serif" font-size="9" font-weight="400" font-style="normal" 
>
<polyline fill="none" vector-effect="none" points="-33,0 -26,0 " />
</g>

<g fill="none" stroke="#000000" stroke-opacity="1" stroke-width="0.5" stroke-linecap="square" stroke-linejoin="miter" stroke-miterlimit="2" transform="matrix(7.632,0,0,7.632,351.072,221.328)"
font-family="Sans Serif" font-size="9" font-weight="400" font-style="normal" 
>
<circle cx="-30.3638" cy="8.54479" r="1.5"/>
<polyline fill="none" vector-effect="none" points="-35,-10 -30.7794,6.88233 " />
</g>

<g fill="none" stroke="#000000" stroke-opacity="1" stroke-width="1" stroke-linecap="square" stroke-linejoin="bevel" transform="matrix(7.632,0,0,7.632,351.072,221.328)"
font-family="Sans Serif" font-size="9" font-weight="400" font-style="normal" 
>
<polyline fill="none" vector-effect="none" points="-5,-10 0,10 0,20 " />
<path vector-effect="none" fill-rule="evenodd" d="M-5.69,-4.51 L-3.19,5.49 L0.69,4.51 L-1.81,-5.49 L-5.69,-4.51"/>
<polyline fill="none" vector-effect="none" points="-25,-10 -20,10 -20,20 " />
</g>

<g fill="none" stroke="#000000" stroke-opacity="1" stroke-width="1" stroke-linecap="square" stroke-linejoin="miter" stroke-miterlimit="2" transform="matrix(7.632,0,0,7.632,351.072,221.328)"
font-family="Sans Serif" font-size="9" font-weight="400" font-style="normal" 
>
<polyline fill="none" vector-effect="none" points="0,-20 0,-10 " />
</g>

<g fill="none" stroke="#000000" stroke-opacity="1" stroke-width="1" stroke-linecap="square" stroke-linejoin="bevel" transform="matrix(7.632,0,0,7.632,351.072,221.328)"
font-family="Sans Serif" font-size="9" font-weight="400" font-style="normal" 
>
<polyline fill="none" vector-effect="none" points="15,-10 20,10 20,20 " />
</g>

<g fill="none" stroke="#000000" stroke-opacity="1" stroke-width="1" stroke-linecap="square" stroke-linejoin="miter" stroke-miterlimit="2" transform="matrix(7.632,0,0,7.632,351.072,221.328)"
font-family="Sans Serif" font-size="9" font-weight="400" font-style="normal" 
>
<polyline fill="none" vector-effect="none" points="2,-10 -2,-10 " />
</g>

<g fill="none" stroke="#000000" stroke-opacity="1" stroke-width="1" stroke-linecap="square" stroke-linejoin="bevel" transform="matrix(7.632,0,0,7.632,351.072,221.328)"
font-family="Sans Serif" font-size="9" font-weight="400" font-style="normal" 
>
<path vector-effect="none" fill-rule="evenodd" d="M14.31,-4.51 L16.81,5.49 L20.69,4.51 L18.19,-5.49 L14.31,-4.51"/>
</g>

<g fill="none" stroke="#000000" stroke-opacity="1" stroke-width="1" stroke-linecap="square" stroke-linejoin="miter" stroke-miterlimit="2" transform="matrix(7.632,0,0,7.632,351.072,221.328)"
font-family="Sans Serif" font-size="9" font-weight="400" font-style="normal" 
>
<polyline fill="none" vector-effect="none" points="18,-10 22,-10 " />
<polyline fill="none" vector-effect="none" points="20,-20 20,-10 " />
</g>

<g fill="none" stroke="#000000" stroke-opacity="1" stroke-width="1" stroke-linecap="square" stroke-linejoin="bevel" transform="matrix(7.632,0,0,7.632,351.072,221.328)"
font-family="Sans Serif" font-size="9" font-weight="400" font-style="normal" 
>
<path vector-effect="none" fill-rule="evenodd" d="M-25.69,-4.51 L-23.19,5.49 L-19.31,4.51 L-21.81,-5.49 L-25.69,-4.51"/>
</g>

<g fill="none" stroke="#000000" stroke-opacity="1" stroke-width="1" stroke-linecap="square" stroke-linejoin="miter" stroke-miterlimit="2" transform="matrix(7.632,0,0,7.632,351.072,221.328)"
font-family="Sans Serif" font-size="9" font-weight="400" font-style="normal" 
>
<polyline fill="none" vector-effect="none" points="-20,-20 -20,-10 " />
<polyline fill="none" vector-effect="none" points="-18,-10 -22,-10 " />
</g>

<g fill="none" stroke="#000000" stroke-opacity="1" stroke-dasharray="2,1" stroke-dashoffset="0" stroke-width="0.5" stroke-linecap="square" stroke-linejoin="miter" stroke-miterlimit="2" transform="matrix(7.632,0,0,7.632,351.072,221.328)"
font-family="Sans Serif" font-size="9" font-weight="400" font-style="normal" 
>
<polyline fill="none" vector-effect="none" points="-20,0 -5,0 " />
<polyline fill="none" vector-effect="none" points="-1,0 15,0 " />
</g>

<g fill="none" stroke="#000000" stroke-opacity="1" stroke-width="1" stroke-linecap="square" stroke-linejoin="bevel" transform="matrix(7.632,0,0,7.632,656.352,129.744)"
font-family="Sans Serif" font-size="9" font-weight="400" font-style="normal" 
>
</g>

<g fill="none" stroke="#000000" stroke-opacity="1" stroke-width="1" stroke-linecap="square" stroke-linejoin="bevel" transform="matrix(7.632,0,0,7.632,656.352,129.744)"
font-family="Sans Serif" font-size="9" font-weight="400" font-style="normal" 
>
</g>

<g fill="none" stroke="#000000" stroke-opacity="1" stroke-width="1" stroke-linecap="square" stroke-linejoin="bevel" transform="matrix(0.72,0,0,0.72,0,0)"
font-family="Sans Serif" font-size="9" font-weight="400" font-style="normal" 
>
</g>

<g fill="none" stroke="#000000" stroke-opacity="1" stroke-width="1" stroke-linecap="square" stroke-linejoin="bevel" transform="matrix(0.72,0,0,0.72,0,0)"
font-family="Sans Serif" font-size="9" font-weight="400" font-style="normal" 
>
</g>
</g>
</svg>
