<svg version="1.2" xmlns="http://www.w3.org/2000/svg" viewBox="0 0 1200 800" width="1200" height="800">
	<title>2103</title>
	<defs>
		<linearGradient id="g1" x1="514.5" y1="392.9" x2="655.2" y2="306.4" gradientUnits="userSpaceOnUse">
			<stop offset="0" stop-color="#ffb8a8"/>
			<stop offset="1" stop-color="#ff9696"/>
		</linearGradient>
		<linearGradient id="g2" x1="744.8" y1="297.4" x2="745.3" y2="251.1" gradientUnits="userSpaceOnUse">
			<stop offset="0" stop-color="#ffb8a8"/>
			<stop offset="1" stop-color="#ff9696"/>
		</linearGradient>
		<linearGradient id="g3" x1="667.6" y1="264.7" x2="692.1" y2="165.4" gradientUnits="userSpaceOnUse">
			<stop offset="0" stop-color="#ffb8a8"/>
			<stop offset="1" stop-color="#ff9696"/>
		</linearGradient>
		<linearGradient id="g4" x1="536" y1="359.3" x2="597.3" y2="138" gradientUnits="userSpaceOnUse">
			<stop offset="0" stop-color="#ffb8a8"/>
			<stop offset="1" stop-color="#ff9696"/>
		</linearGradient>
		<linearGradient id="g5" x1="622.9" y1="397.9" x2="692.9" y2="145" gradientUnits="userSpaceOnUse">
			<stop offset="0" stop-color="#ffb8a8"/>
			<stop offset="1" stop-color="#ff9696"/>
		</linearGradient>
		<linearGradient id="g6" x1="627.5" y1="399.7" x2="697.8" y2="145.8" gradientUnits="userSpaceOnUse">
			<stop offset="0" stop-color="#ffb8a8"/>
			<stop offset="1" stop-color="#ff9696"/>
		</linearGradient>
		<linearGradient id="g7" x1="628.3" y1="459" x2="628.3" y2="296.4" gradientUnits="userSpaceOnUse">
			<stop offset="0" stop-color="#ffb8a8"/>
			<stop offset="1" stop-color="#ff9696"/>
		</linearGradient>
		<linearGradient id="g8" x1="757.5" y1="454.4" x2="768" y2="298.5" gradientUnits="userSpaceOnUse">
			<stop offset="0" stop-color="#ffb8a8"/>
			<stop offset="1" stop-color="#ff9696"/>
		</linearGradient>
	</defs>
	<style>
		.s0 { fill: #e2dbe2 } 
		.s1 { fill: #f1ecf1 } 
		.s2 { fill: #c8bfc7 } 
		.s3 { fill: #ccc1b8 } 
		.s4 { fill: #b9c1cf } 
		.s5 { fill: #d2dbe6 } 
		.s6 { fill: #8e9dad } 
		.s7 { fill: #263238 } 
		.s8 { fill: #fbf8fb } 
		.s9 { fill: #dad0d7 } 
		.s10 { fill: #4a495e } 
		.s11 { fill: #828198 } 
		.s12 { fill: #b8adb6 } 
		.s13 { fill: #7dddc2 } 
		.s14 { fill: #56ab93 } 
		.s15 { fill: #a7a7bc } 
		.s16 { fill: #bcbcd4 } 
		.s17 { fill: #94ffe1 } 
		.s18 { fill: #717f94 } 
		.s19 { fill: #ffffff } 
		.s20 { fill: #d37a85 } 
		.s21 { fill: url(#g1) } 
		.s22 { fill: url(#g2) } 
		.s23 { fill: #5c4437 } 
		.s24 { fill: url(#g3) } 
		.s25 { fill: #de8789 } 
		.s26 { fill: #755a5a } 
		.s27 { fill: #fff4e9 } 
		.s28 { fill: #b5866d } 
		.s29 { fill: url(#g4) } 
		.s30 { fill: url(#g5) } 
		.s31 { fill: url(#g6) } 
		.s32 { fill: url(#g7) } 
		.s33 { fill: #413f54 } 
		.s34 { fill: #373647 } 
		.s35 { fill: #4b8171 } 
		.s36 { fill: url(#g8) } 
		.s37 { fill: #9fadbd } 
	</style>
	<g id="1">
		<g id="&lt;Group&gt;">
			<g id="&lt;Group&gt;">
				<g id="&lt;Group&gt;">
					<g id="&lt;Group&gt;">
						<path id="&lt;Compound Path&gt;" fill-rule="evenodd" class="s0" d="m1075.9 327.3c0 0.6-0.4 1.1-1 1.2l-6.1 1.2q-0.7 2.7-1.9 5l3.3 4.8c0.3 0.5 0.3 1.1-0.1 1.6-2.3 2.9-4.9 5.6-7.7 8-0.5 0.4-1.1 0.5-1.6 0.1l-5.4-3.7q-2.2 1.1-4.6 1.9l-1.2 6.5c-0.1 0.5-0.6 1-1.2 1-3.7 0.3-7.4 0.2-11.1-0.3-0.6 0-1.1-0.4-1.2-1l-1.1-5.9q-2.5-0.8-4.7-2.1l-5.3 3.6c-0.5 0.4-1.2 0.3-1.6-0.1-2.8-2.4-5.4-5.1-7.7-8-0.4-0.5-0.5-1.1-0.1-1.6l3.7-5.4q-1.1-2.1-1.9-4.3l-6.6-1.3c-0.5-0.1-1-0.6-1-1.2-0.3-3.7-0.2-7.4 0.3-11.1 0-0.6 0.4-1.1 1-1.2l6.2-1.1q0.8-2.3 2-4.4l-3.8-5.6c-0.4-0.5-0.3-1.1 0.1-1.6 2.4-2.8 5.1-5.4 8.1-7.7 0.4-0.4 1-0.4 1.5-0.1l5.3 3.7q2.1-1.2 4.5-2l1.1-6.2c0.1-0.6 0.6-1 1.2-1 3.7-0.5 7.4-0.5 11.1-0.2 0.6 0 1.1 0.4 1.2 1l1.2 6.2q2.5 0.7 4.8 1.9l5-3.4c0.4-0.3 1.1-0.3 1.5 0.1 3 2.3 5.6 4.9 8 7.7 0.5 0.5 0.5 1.1 0.2 1.6l-3.6 5.2q1.2 2.3 1.9 4.8l6.1 1.1c0.6 0.1 1 0.6 1 1.2 0.5 3.7 0.5 7.4 0.2 11.1zm-21.7 6.4c6.9-6.9 6.8-16.7 0.5-23.2-6.2-6.5-17.4-6.2-23.2-0.6-5.7 5.7-7 17-0.5 23.2 6.5 6.2 16.3 7.5 23.2 0.6z"/>
						<g id="&lt;Group&gt;">
							<g id="&lt;Group&gt;">
								<path id="&lt;Path&gt;" class="s1" d="m1027 307.3q-0.2 0-0.3-0.1c-0.3-0.2-0.3-0.5-0.1-0.8 1.8-1.9 3.8-3.5 5.9-4.7 2.9-1.5 6.4-2.4 10.1-2.4 0.3 0 0.5 0.2 0.5 0.5 0 0.3-0.2 0.5-0.5 0.5-3.5 0.1-6.8 0.9-9.6 2.4-2 1.1-3.9 2.6-5.6 4.5q-0.2 0.1-0.4 0.1z"/>
								<path id="&lt;Path&gt;" class="s1" d="m1021.6 316.9q-0.1 0-0.2-0.1c-0.3-0.1-0.4-0.4-0.3-0.6 0.8-2.6 1.9-4.9 3.4-7.1 0.2-0.3 0.5-0.3 0.8-0.2 0.2 0.2 0.3 0.5 0.1 0.8-1.4 2.1-2.6 4.4-3.3 6.8-0.1 0.2-0.3 0.4-0.5 0.4z"/>
							</g>
							<path id="&lt;Path&gt;" class="s1" d="m1020.6 308q-0.2 0-0.4-0.3l-2.9-4.3c-0.2-0.2-0.1-0.5 0.1-0.7 0.3-0.2 0.6-0.1 0.8 0.1l2.9 4.3c0.1 0.3 0.1 0.6-0.2 0.8q-0.1 0.1-0.3 0.1z"/>
							<path id="&lt;Path&gt;" class="s1" d="m1037.7 295.9q-0.1 0-0.1 0c-0.3 0-0.5-0.3-0.5-0.6l0.7-4.5c0-0.2 0.3-0.5 0.6-0.4 0.3 0 0.5 0.3 0.4 0.6l-0.6 4.5c-0.1 0.2-0.3 0.4-0.5 0.4z"/>
							<path id="&lt;Path&gt;" class="s1" d="m1017.4 328q0 0-0.1 0l-5.8-1.1c-0.3-0.1-0.4-0.3-0.4-0.6 0.1-0.3 0.3-0.5 0.6-0.4l5.8 1.1c0.3 0 0.5 0.3 0.5 0.6-0.1 0.2-0.3 0.4-0.6 0.4z"/>
						</g>
						<g id="&lt;Group&gt;">
							<path id="&lt;Path&gt;" class="s2" d="m1031 333.5q-0.1 0-0.3-0.1c-2.8-2.7-4.4-6.6-4.5-11 0-4.8 1.9-9.6 5.1-12.7 2.9-2.9 7.2-4.5 11.9-4.4 4.6 0 8.9 1.8 11.8 4.9 0.2 0.2 0.2 0.4 0 0.6-0.1 0.1-0.4 0.1-0.5-0.1-2.9-2.9-6.9-4.6-11.4-4.7-4.4 0-8.5 1.5-11.3 4.2-3 3-4.8 7.6-4.8 12.2 0.1 4.2 1.6 7.9 4.3 10.5 0.1 0.1 0.1 0.3 0 0.5q-0.1 0.1-0.3 0.1z"/>
							<path id="&lt;Path&gt;" class="s2" d="m1043.7 355.4q-3.3 0-6.5-0.4c-0.7 0-1.4-0.5-1.5-1.3l-1-5.7q-2.2-0.8-4.4-2l-5.1 3.5c-0.7 0.5-1.5 0.4-2.1-0.2-2.9-2.4-5.5-5.1-7.7-8-0.1-0.2-0.1-0.4 0.1-0.6 0.1-0.1 0.4-0.1 0.5 0.1 2.2 2.8 4.8 5.5 7.6 8 0.4 0.3 0.8 0.3 1.2 0.1l5.3-3.6c0.1-0.1 0.3-0.1 0.4-0.1q2.3 1.3 4.6 2.1 0.2 0.1 0.3 0.3l1 6c0.1 0.4 0.5 0.7 0.9 0.7 3.5 0.4 7.3 0.5 11 0.2 0.3 0 0.4 0.1 0.4 0.3 0.1 0.2-0.1 0.4-0.3 0.4q-2.4 0.2-4.7 0.2z"/>
							<path id="&lt;Path&gt;" class="s2" d="m1075.9 327.7q0 0 0 0c-0.2 0-0.4-0.2-0.4-0.4 0.4-3.8 0.3-7.5-0.2-11.1 0-0.4-0.3-0.7-0.7-0.8l-6.1-1.1c-0.1 0-0.2-0.1-0.3-0.3q-0.7-2.4-1.8-4.7-0.1-0.2 0-0.4l3.6-5.2c0.2-0.3 0.1-0.8-0.1-1.1-2.5-2.9-5.2-5.5-8-7.7-0.3-0.3-0.8-0.3-1.1-0.1l-4.9 3.5q-0.2 0.1-0.4 0-2.3-1.2-4.8-1.9c-0.2-0.1-0.3-0.2-0.3-0.3l-1.2-6.2c-0.1-0.4-0.4-0.8-0.8-0.7q-5.8-0.5-11.1 0.2c-0.2 0-0.4-0.1-0.4-0.4-0.1-0.2 0.1-0.4 0.3-0.4 3.6-0.4 7.4-0.5 11.2-0.2 0.8 0 1.4 0.5 1.6 1.3l1.1 6q2.3 0.7 4.5 1.8l4.7-3.3c0.7-0.4 1.5-0.4 2.1 0.2 2.8 2.1 5.5 4.8 8 7.7 0.6 0.5 0.6 1.4 0.2 2l-3.4 5.1q1 2.1 1.7 4.4l5.9 1c0.7 0.2 1.3 0.8 1.3 1.6 0.5 3.5 0.5 7.3 0.2 11.1 0 0.2-0.2 0.4-0.4 0.4z"/>
							<path id="&lt;Path&gt;" class="s2" d="m1048.9 295.8c-0.2 0-0.4-0.1-0.4-0.3l-0.9-5c-0.1-0.2 0.1-0.4 0.3-0.4 0.2-0.1 0.4 0.1 0.4 0.3l0.9 5c0.1 0.2-0.1 0.4-0.3 0.4q0 0 0 0z"/>
							<path id="&lt;Path&gt;" class="s2" d="m1037.6 353.7c-0.2 0-0.3-0.1-0.4-0.3l-0.9-5c0-0.2 0.1-0.4 0.3-0.5 0.2 0 0.4 0.1 0.5 0.3l0.9 5.1c0 0.2-0.1 0.4-0.3 0.4q0 0-0.1 0z"/>
							<path id="&lt;Path&gt;" class="s3" d="m1065.8 307.9q-0.1 0-0.2-0.1c-0.2-0.1-0.3-0.3-0.1-0.5l2.9-4.2c0.1-0.2 0.3-0.2 0.5-0.1 0.2 0.1 0.2 0.3 0.1 0.5l-2.9 4.2q-0.1 0.2-0.3 0.2z"/>
							<path id="&lt;Path&gt;" class="s2" d="m1016.9 340.9q-0.1 0-0.2-0.1c-0.2-0.1-0.2-0.4-0.1-0.5l2.9-4.2c0.1-0.2 0.3-0.3 0.5-0.1 0.2 0.1 0.2 0.3 0.1 0.5l-2.9 4.2q-0.1 0.2-0.3 0.2z"/>
							<path id="&lt;Path&gt;" class="s2" d="m1069.2 328.4c-0.2 0-0.3-0.2-0.4-0.4 0-0.2 0.1-0.4 0.4-0.4l5-0.9c0.2-0.1 0.4 0.1 0.4 0.3 0.1 0.2-0.1 0.4-0.3 0.4l-5 0.9q0 0.1-0.1 0.1z"/>
							<path id="&lt;Path&gt;" class="s2" d="m1011.3 317.1c-0.1 0-0.3-0.1-0.3-0.3-0.1-0.2 0.1-0.4 0.3-0.5l5-0.9c0.2 0 0.4 0.1 0.4 0.3 0.1 0.2-0.1 0.4-0.3 0.5l-5 0.9q0 0-0.1 0z"/>
							<path id="&lt;Path&gt;" class="s2" d="m1061.4 348.2q-0.1 0-0.2-0.1l-4.2-2.9c-0.2-0.1-0.3-0.4-0.1-0.5 0.1-0.2 0.3-0.3 0.5-0.1l4.2 2.9c0.2 0.1 0.2 0.3 0.1 0.5q-0.1 0.2-0.3 0.2z"/>
							<path id="&lt;Path&gt;" class="s2" d="m1028.4 299.3q-0.1 0-0.2-0.1l-4.2-2.9c-0.2-0.1-0.2-0.3-0.1-0.5 0.1-0.2 0.3-0.2 0.5-0.1l4.2 2.9c0.2 0.1 0.2 0.3 0.1 0.5q-0.1 0.2-0.3 0.2z"/>
						</g>
						<path id="&lt;Path&gt;" class="s1" d="m1045.1 342.3c-0.3 0-0.5-0.2-0.5-0.5-0.1-0.3 0.1-0.6 0.4-0.6 4.1-0.5 8-2.4 11.1-5.6 2.8-2.7 4.7-5.9 5.7-9.5 0.1-0.2 0.3-0.4 0.6-0.3 0.3 0.1 0.5 0.3 0.4 0.6-1 3.7-3 7.1-5.9 10-3.4 3.3-7.4 5.3-11.8 5.9q0 0 0 0z"/>
					</g>
					<g id="&lt;Group&gt;">
						<path id="&lt;Compound Path&gt;" fill-rule="evenodd" class="s0" d="m148.7 360.7c0 0.4-0.3 0.8-0.7 0.9l-4.4 0.8q-0.5 1.9-1.4 3.6l2.4 3.5c0.2 0.3 0.2 0.8-0.1 1.1-1.7 2.2-3.5 4.1-5.6 5.8-0.3 0.3-0.7 0.4-1.1 0.1l-3.9-2.6q-1.6 0.7-3.3 1.3l-0.9 4.7c-0.1 0.4-0.4 0.7-0.9 0.7-2.6 0.2-5.3 0.2-8-0.2-0.4 0-0.8-0.3-0.9-0.7l-0.7-4.3q-1.8-0.6-3.4-1.5l-3.9 2.6c-0.3 0.3-0.8 0.2-1.1-0.1-2-1.7-3.9-3.6-5.6-5.8-0.3-0.3-0.3-0.8-0.1-1.1l2.7-3.9q-0.8-1.5-1.3-3.1l-4.8-0.9c-0.4-0.1-0.7-0.5-0.7-0.9-0.2-2.7-0.2-5.3 0.1-8 0.1-0.5 0.4-0.8 0.8-0.9l4.5-0.8q0.5-1.6 1.4-3.2l-2.7-4c-0.3-0.4-0.2-0.8 0.1-1.1 1.7-2.1 3.6-3.9 5.8-5.6 0.3-0.3 0.7-0.3 1.1-0.1l3.8 2.7q1.6-0.9 3.2-1.5l0.8-4.4c0.1-0.5 0.5-0.8 0.9-0.8 2.7-0.3 5.4-0.4 8-0.1 0.5 0 0.8 0.3 0.9 0.7l0.9 4.5q1.8 0.5 3.5 1.4l3.5-2.5c0.4-0.2 0.8-0.2 1.2 0.1 2.1 1.7 4 3.5 5.7 5.6 0.3 0.3 0.4 0.7 0.2 1.1l-2.6 3.8q0.8 1.6 1.3 3.4l4.4 0.8c0.5 0.1 0.8 0.4 0.8 0.9 0.3 2.7 0.3 5.3 0.1 8zm-15.7 4.6c5-5 4.9-12.1 0.4-16.8-4.5-4.7-12.6-4.5-16.7-0.4-4.2 4.1-5.1 12.3-0.4 16.8 4.7 4.5 11.7 5.4 16.7 0.4z"/>
						<g id="&lt;Group&gt;">
							<g id="&lt;Group&gt;">
								<path id="&lt;Path&gt;" class="s1" d="m113.4 346.3q-0.1 0-0.3-0.1c-0.1-0.2-0.1-0.4 0-0.6q1.9-2.1 4.3-3.4c2.1-1.1 4.6-1.7 7.2-1.8q0 0 0 0c0.3 0 0.4 0.2 0.4 0.4 0 0.2-0.1 0.4-0.4 0.4-2.5 0-4.9 0.6-6.9 1.7q-2.2 1.2-4 3.2-0.1 0.2-0.3 0.2z"/>
								<path id="&lt;Path&gt;" class="s1" d="m109.5 353.1q-0.1 0-0.2 0c-0.2 0-0.3-0.3-0.2-0.5q0.9-2.7 2.5-5.1c0.1-0.1 0.4-0.2 0.5-0.1 0.2 0.1 0.3 0.4 0.1 0.6q-1.5 2.2-2.4 4.9c0 0.1-0.2 0.2-0.3 0.2z"/>
							</g>
							<path id="&lt;Path&gt;" class="s1" d="m108.8 346.7q-0.2 0-0.3-0.2l-2.1-3c-0.2-0.2-0.1-0.5 0.1-0.6 0.1-0.1 0.4-0.1 0.5 0.1l2.1 3.1c0.1 0.2 0.1 0.4-0.1 0.6q-0.1 0-0.2 0z"/>
							<path id="&lt;Path&gt;" class="s1" d="m121.1 338q0 0-0.1 0c-0.2 0-0.3-0.2-0.3-0.4l0.5-3.2c0-0.3 0.2-0.4 0.4-0.4 0.2 0.1 0.4 0.3 0.3 0.5l-0.4 3.2c-0.1 0.2-0.2 0.3-0.4 0.3z"/>
							<path id="&lt;Path&gt;" class="s1" d="m106.5 361.2q-0.1 0-0.1 0l-4.2-0.8c-0.2 0-0.3-0.2-0.3-0.5 0.1-0.2 0.3-0.3 0.5-0.3l4.2 0.8c0.2 0.1 0.3 0.3 0.3 0.5-0.1 0.2-0.2 0.3-0.4 0.3z"/>
						</g>
						<g id="&lt;Group&gt;">
							<path id="&lt;Path&gt;" class="s2" d="m116.3 365.2q-0.1 0-0.2-0.1c-2.1-2-3.2-4.8-3.3-7.9 0-3.5 1.4-7 3.7-9.3 2.1-2 5.2-3.2 8.6-3.1 3.3 0 6.4 1.3 8.5 3.5 0.1 0.2 0.1 0.3 0 0.4-0.1 0.1-0.3 0.1-0.4 0-2-2.1-4.9-3.3-8.1-3.4-3.2 0-6.2 1.1-8.2 3-2.2 2.2-3.5 5.5-3.5 8.9 0 3 1.1 5.6 3.1 7.5 0.1 0.1 0.1 0.3 0 0.4q-0.1 0.1-0.2 0.1z"/>
							<path id="&lt;Path&gt;" class="s2" d="m125.5 381q-2.4 0-4.7-0.3c-0.6 0-1-0.4-1.1-0.9l-0.8-4.2q-1.6-0.5-3.1-1.4l-3.7 2.6c-0.5 0.3-1.1 0.2-1.5-0.2-2.1-1.8-4-3.7-5.6-5.8-0.1-0.1-0.1-0.3 0-0.4 0.2-0.1 0.3-0.1 0.4 0.1 1.6 2 3.5 3.9 5.6 5.7 0.2 0.2 0.5 0.3 0.8 0.1l3.8-2.6q0.2-0.1 0.3-0.1 1.6 1 3.4 1.5 0.1 0.1 0.1 0.3l0.8 4.3c0.1 0.2 0.3 0.5 0.6 0.5q3.9 0.5 8 0.1c0.2 0 0.3 0.1 0.3 0.3 0 0.1-0.1 0.3-0.3 0.3q-1.7 0.1-3.3 0.1z"/>
							<path id="&lt;Path&gt;" class="s2" d="m148.7 361q0 0 0 0c-0.2 0-0.3-0.2-0.3-0.3 0.3-2.8 0.2-5.4-0.1-8 0-0.3-0.2-0.6-0.5-0.6l-4.4-0.8q-0.2 0-0.2-0.2-0.6-1.8-1.4-3.4 0-0.1 0-0.3l2.6-3.8c0.2-0.2 0.2-0.5-0.1-0.7q-2.6-3.2-5.7-5.6c-0.2-0.2-0.6-0.2-0.8-0.1l-3.6 2.5q-0.1 0.1-0.3 0-1.6-0.8-3.4-1.4-0.2 0-0.2-0.2l-0.9-4.5c0-0.3-0.3-0.5-0.6-0.5q-4.1-0.3-8 0.2c-0.1 0-0.3-0.1-0.3-0.2 0-0.2 0.1-0.3 0.3-0.4 2.6-0.3 5.3-0.3 8-0.1 0.6 0 1.1 0.4 1.2 0.9l0.8 4.4q1.7 0.5 3.3 1.3l3.4-2.4c0.4-0.3 1-0.3 1.4 0.1 2.1 1.6 4.1 3.5 5.8 5.6 0.4 0.4 0.5 1 0.2 1.5l-2.5 3.6q0.8 1.5 1.3 3.2l4.2 0.7c0.5 0.1 0.9 0.6 1 1.2 0.3 2.5 0.3 5.2 0.1 8 0 0.2-0.1 0.3-0.3 0.3z"/>
							<path id="&lt;Path&gt;" class="s2" d="m129.2 338c-0.1 0-0.3-0.1-0.3-0.3l-0.7-3.6c0-0.1 0.1-0.3 0.3-0.3 0.1-0.1 0.3 0.1 0.3 0.2l0.7 3.6c0 0.2-0.1 0.3-0.3 0.4q0 0 0 0z"/>
							<path id="&lt;Path&gt;" class="s2" d="m121.1 379.8c-0.2 0-0.3-0.1-0.3-0.3l-0.7-3.6c0-0.1 0.1-0.3 0.2-0.3 0.2 0 0.3 0.1 0.4 0.2l0.6 3.6c0.1 0.2 0 0.3-0.2 0.4q0 0 0 0z"/>
							<path id="&lt;Path&gt;" class="s3" d="m141.4 346.7q-0.1 0-0.2-0.1c-0.1-0.1-0.1-0.3 0-0.4l2.1-3c0-0.1 0.2-0.2 0.4-0.1 0.1 0.1 0.1 0.3 0 0.4l-2.1 3q-0.1 0.2-0.2 0.2z"/>
							<path id="&lt;Path&gt;" class="s2" d="m106.1 370.5q-0.1 0-0.2-0.1c-0.1-0.1-0.1-0.2 0-0.4l2.1-3c0-0.1 0.2-0.1 0.3-0.1 0.2 0.1 0.2 0.3 0.1 0.4l-2.1 3.1q-0.1 0.1-0.2 0.1z"/>
							<path id="&lt;Path&gt;" class="s2" d="m143.9 361.4c-0.1 0-0.3 0-0.3-0.2 0-0.1 0.1-0.3 0.2-0.3l3.7-0.7c0.1 0 0.3 0.1 0.3 0.3 0 0.1-0.1 0.2-0.2 0.3l-3.7 0.6q0 0 0 0z"/>
							<path id="&lt;Path&gt;" class="s2" d="m102.1 353.3c-0.2 0-0.3-0.1-0.3-0.2 0-0.2 0.1-0.3 0.2-0.3l3.6-0.7c0.2 0 0.3 0.1 0.4 0.2 0 0.2-0.1 0.3-0.3 0.4l-3.6 0.6q0 0 0 0z"/>
							<path id="&lt;Path&gt;" class="s2" d="m138.2 375.8q-0.1 0-0.1-0.1l-3.1-2.1c-0.1-0.1-0.1-0.2 0-0.4 0-0.1 0.2-0.1 0.3 0l3.1 2c0.1 0.1 0.1 0.3 0 0.4q0 0.2-0.2 0.2z"/>
							<path id="&lt;Path&gt;" class="s2" d="m114.4 340.4q-0.1 0-0.2 0l-3-2.1c-0.1-0.1-0.2-0.3-0.1-0.4 0.1-0.1 0.3-0.1 0.4-0.1l3.1 2.1c0.1 0.1 0.1 0.3 0 0.4q-0.1 0.1-0.2 0.1z"/>
						</g>
						<path id="&lt;Path&gt;" class="s1" d="m126.4 371.5c-0.1 0-0.3-0.1-0.3-0.3-0.1-0.2 0.1-0.4 0.3-0.5 3-0.3 5.7-1.7 8-4 2-2 3.4-4.3 4.1-6.8 0.1-0.3 0.3-0.4 0.5-0.3 0.2 0 0.3 0.3 0.2 0.5-0.7 2.6-2.1 5-4.2 7.2-2.4 2.4-5.4 3.8-8.5 4.2q0 0-0.1 0z"/>
					</g>
					<g id="&lt;Group&gt;">
						<path id="&lt;Compound Path&gt;" fill-rule="evenodd" class="s4" d="m355.3 145.4c0 0.7-0.5 1.3-1.1 1.4l-6.9 1.3q-0.9 3-2.3 5.7l3.8 5.5c0.4 0.5 0.3 1.3-0.1 1.8-2.7 3.4-5.6 6.4-8.8 9.1-0.5 0.5-1.3 0.6-1.8 0.2l-6.2-4.2q-2.5 1.2-5.2 2.1l-1.4 7.4c-0.1 0.6-0.7 1.1-1.4 1.1-4.2 0.4-8.4 0.3-12.7-0.2-0.6 0-1.2-0.5-1.3-1.2l-1.2-6.8q-2.8-0.9-5.4-2.4l-6.1 4.2c-0.5 0.4-1.3 0.3-1.8-0.2-3.2-2.7-6.1-5.7-8.7-9.1-0.5-0.5-0.6-1.3-0.2-1.8l4.3-6.2q-1.3-2.4-2.2-4.9l-7.5-1.4c-0.6-0.1-1.1-0.7-1.1-1.4-0.4-4.2-0.3-8.4 0.2-12.7 0-0.6 0.5-1.2 1.2-1.3l7.1-1.3q0.9-2.6 2.2-5l-4.3-6.4c-0.4-0.5-0.3-1.3 0.2-1.8 2.7-3.2 5.7-6.1 9.1-8.8 0.5-0.4 1.3-0.5 1.8-0.1l6.1 4.2q2.4-1.3 5-2.2l1.3-7.1c0.1-0.7 0.7-1.2 1.3-1.2 4.3-0.5 8.5-0.6 12.7-0.2 0.7 0 1.3 0.5 1.4 1.1l1.3 7.1q3 0.8 5.6 2.2l5.6-3.9c0.6-0.4 1.3-0.3 1.8 0.1 3.4 2.7 6.4 5.6 9.1 8.8 0.5 0.5 0.6 1.3 0.2 1.8l-4.1 6q1.3 2.6 2.2 5.4l6.9 1.3c0.7 0.1 1.2 0.7 1.2 1.3 0.5 4.3 0.6 8.5 0.2 12.7zm-24.7 7.3c7.9-7.9 7.7-19.1 0.6-26.5-7.1-7.4-19.9-7.1-26.5-0.6-6.6 6.4-8 19.4-0.6 26.4 7.5 7.1 18.6 8.5 26.5 0.7z"/>
						<g id="&lt;Group&gt;">
							<g id="&lt;Group&gt;">
								<path id="&lt;Path&gt;" class="s5" d="m299.6 122.6q-0.3 0-0.4-0.1c-0.3-0.3-0.3-0.6-0.1-0.9 2-2.2 4.3-4 6.7-5.3 3.4-1.8 7.3-2.8 11.5-2.9 0.3 0 0.6 0.3 0.6 0.6 0 0.4-0.3 0.6-0.6 0.6-4 0.1-7.7 1-10.9 2.7-2.3 1.3-4.5 3-6.4 5.1q-0.2 0.2-0.4 0.2z"/>
								<path id="&lt;Path&gt;" class="s5" d="m293.3 133.5q0 0-0.1-0.1c-0.4-0.1-0.5-0.4-0.4-0.7 0.9-2.9 2.2-5.6 3.9-8.1 0.2-0.3 0.6-0.3 0.9-0.1 0.3 0.2 0.3 0.5 0.1 0.8-1.6 2.4-2.9 5-3.8 7.8-0.1 0.2-0.3 0.4-0.6 0.4z"/>
							</g>
							<path id="&lt;Path&gt;" class="s5" d="m292.3 123.3c-0.2 0-0.4-0.1-0.5-0.2l-3.3-4.9c-0.2-0.3-0.2-0.7 0.1-0.8 0.3-0.2 0.7-0.2 0.9 0.1l3.3 4.9c0.2 0.3 0.1 0.7-0.2 0.8q-0.1 0.1-0.3 0.1z"/>
							<path id="&lt;Path&gt;" class="s5" d="m311.7 109.6q-0.1 0-0.1 0c-0.3 0-0.6-0.3-0.5-0.7l0.8-5.1c0-0.3 0.3-0.5 0.6-0.5 0.4 0.1 0.6 0.4 0.5 0.7l-0.7 5.1c-0.1 0.3-0.3 0.5-0.6 0.5z"/>
							<path id="&lt;Path&gt;" class="s5" d="m288.6 146.2q0 0-0.1 0l-6.6-1.3c-0.3 0-0.5-0.4-0.5-0.7 0.1-0.3 0.4-0.5 0.7-0.5l6.7 1.3c0.3 0.1 0.5 0.4 0.4 0.7 0 0.3-0.3 0.5-0.6 0.5z"/>
						</g>
						<g id="&lt;Group&gt;">
							<path id="&lt;Path&gt;" class="s6" d="m304.1 152.5q-0.2 0-0.3-0.1c-3.3-3.1-5.1-7.6-5.1-12.5-0.1-5.6 2.1-11.1 5.7-14.6 3.4-3.3 8.3-5.2 13.6-5 5.3 0 10.1 2 13.5 5.6 0.2 0.2 0.2 0.5 0 0.6-0.2 0.2-0.5 0.2-0.6 0-3.3-3.4-7.9-5.3-12.9-5.4-5.1 0-9.8 1.7-13 4.8-3.4 3.4-5.5 8.6-5.4 14 0 4.7 1.7 8.9 4.8 11.8 0.2 0.2 0.2 0.5 0 0.6q-0.1 0.2-0.3 0.2z"/>
							<path id="&lt;Path&gt;" class="s6" d="m318.6 177.5q-3.8 0-7.4-0.5c-0.8 0-1.6-0.6-1.8-1.5l-1.1-6.6q-2.5-0.8-5-2.2l-5.8 4c-0.8 0.6-1.8 0.5-2.4-0.2-3.3-2.8-6.3-5.9-8.8-9.2-0.1-0.2-0.1-0.4 0.1-0.6 0.2-0.1 0.5-0.1 0.6 0.1 2.5 3.2 5.4 6.3 8.7 9.1 0.4 0.3 0.9 0.4 1.3 0.1l6.1-4.1c0.1-0.1 0.3-0.1 0.4-0.1q2.6 1.5 5.3 2.4c0.2 0 0.3 0.2 0.3 0.3l1.2 6.8c0.1 0.5 0.5 0.8 0.9 0.8 4.1 0.5 8.4 0.6 12.7 0.3 0.2 0 0.4 0.1 0.4 0.4 0.1 0.2-0.1 0.4-0.4 0.4q-2.6 0.3-5.3 0.3z"/>
							<path id="&lt;Path&gt;" class="s6" d="m355.3 145.8q0 0 0 0c-0.3 0-0.4-0.2-0.4-0.4 0.3-4.4 0.3-8.6-0.3-12.6 0-0.5-0.3-0.9-0.8-1l-6.9-1.2c-0.2-0.1-0.3-0.2-0.4-0.3q-0.8-2.9-2.1-5.4c0-0.2 0-0.3 0.1-0.5l4-5.9c0.3-0.4 0.2-0.9-0.1-1.3-2.8-3.3-5.9-6.2-9.1-8.7-0.4-0.4-0.9-0.4-1.2-0.1l-5.7 3.9c-0.1 0.1-0.3 0.1-0.4 0q-2.6-1.4-5.5-2.2c-0.1 0-0.3-0.2-0.3-0.3l-1.3-7.1c-0.1-0.5-0.5-0.8-1-0.8-4.3-0.3-8.6-0.3-12.6 0.3-0.2 0-0.5-0.2-0.5-0.4 0-0.3 0.1-0.5 0.4-0.5 4.1-0.5 8.4-0.6 12.7-0.3 0.9 0 1.7 0.7 1.8 1.5l1.3 6.9q2.7 0.8 5.2 2l5.4-3.8c0.7-0.5 1.7-0.4 2.3 0.2 3.2 2.5 6.3 5.5 9.1 8.8 0.7 0.6 0.8 1.6 0.3 2.4l-4 5.7q1.2 2.4 2 5l6.7 1.2c0.9 0.2 1.5 0.9 1.5 1.8 0.5 4.1 0.6 8.4 0.3 12.7-0.1 0.3-0.3 0.4-0.5 0.4z"/>
							<path id="&lt;Path&gt;" class="s6" d="m324.5 109.5c-0.2 0-0.4-0.1-0.5-0.3l-1-5.8c0-0.2 0.1-0.4 0.3-0.5 0.3 0 0.5 0.1 0.6 0.4l1 5.7c0.1 0.2-0.1 0.5-0.3 0.5q-0.1 0-0.1 0z"/>
							<path id="&lt;Path&gt;" class="s6" d="m311.7 175.5c-0.2 0-0.4-0.1-0.5-0.4l-1-5.7c-0.1-0.2 0.1-0.4 0.3-0.5 0.3 0 0.5 0.1 0.5 0.4l1.1 5.7c0 0.2-0.1 0.5-0.4 0.5q0 0 0 0z"/>
							<path id="&lt;Path&gt;" class="s6" d="m343.8 123.2q-0.2 0-0.3 0c-0.2-0.2-0.2-0.4-0.1-0.6l3.3-4.8c0.1-0.2 0.4-0.3 0.6-0.1 0.2 0.1 0.3 0.4 0.1 0.6l-3.3 4.8q-0.1 0.1-0.3 0.1z"/>
							<path id="&lt;Path&gt;" class="s6" d="m288 160.8q-0.1 0-0.2 0c-0.2-0.2-0.3-0.4-0.1-0.6l3.3-4.8c0.1-0.2 0.4-0.3 0.6-0.1 0.2 0.1 0.2 0.4 0.1 0.6l-3.3 4.8q-0.1 0.1-0.4 0.1z"/>
							<path id="&lt;Path&gt;" class="s6" d="m347.7 146.6c-0.2 0-0.4-0.2-0.5-0.4 0-0.2 0.2-0.4 0.4-0.5l5.7-1c0.3-0.1 0.5 0.1 0.5 0.3 0.1 0.3-0.1 0.5-0.3 0.5l-5.7 1.1q-0.1 0-0.1 0z"/>
							<path id="&lt;Path&gt;" class="s6" d="m281.7 133.8c-0.2 0-0.4-0.2-0.4-0.4-0.1-0.2 0.1-0.5 0.3-0.5l5.7-1.1c0.3 0 0.5 0.2 0.5 0.4 0.1 0.2-0.1 0.5-0.3 0.5l-5.7 1.1q-0.1 0-0.1 0z"/>
							<path id="&lt;Path&gt;" class="s6" d="m338.7 169.2q-0.1 0-0.2-0.1l-4.8-3.3c-0.2-0.1-0.2-0.4-0.1-0.6 0.1-0.2 0.4-0.3 0.6-0.1l4.8 3.3c0.2 0.1 0.2 0.4 0.1 0.6q-0.1 0.2-0.4 0.2z"/>
							<path id="&lt;Path&gt;" class="s6" d="m301.1 113.4q-0.1 0-0.2 0l-4.8-3.3c-0.2-0.2-0.2-0.4-0.1-0.6 0.1-0.2 0.4-0.3 0.6-0.2l4.8 3.3c0.2 0.2 0.2 0.4 0.1 0.6q-0.1 0.2-0.4 0.2z"/>
						</g>
						<path id="&lt;Path&gt;" class="s5" d="m320.2 162.5c-0.3 0-0.6-0.3-0.6-0.6-0.1-0.3 0.2-0.6 0.5-0.7 4.7-0.5 9-2.7 12.6-6.3 3.2-3.2 5.4-6.8 6.5-10.8 0.1-0.3 0.4-0.5 0.7-0.4 0.4 0 0.5 0.4 0.5 0.7-1.2 4.2-3.5 8-6.8 11.4-3.8 3.7-8.4 6-13.4 6.6q0 0 0 0.1z"/>
					</g>
				</g>
				<g id="&lt;Group&gt;">
					<g id="&lt;Group&gt;">
						<path id="&lt;Path&gt;" class="s0" d="m277 311.4v9.1c0 1.3 1.1 2.5 2.5 2.5h47.3l11.4-11.6z"/>
						<path id="&lt;Path&gt;" class="s0" d="m398 286.5v-39.8l10.3 1.1c2.5 0.3 4.5 2.5 4.5 5.1v27.4c0 2.6-2 4.8-4.5 5.1z"/>
						<path id="&lt;Path&gt;" class="s2" d="m408.3 285.4c2.5-0.3 4.5-2.5 4.5-5.1v-10.7c0 2.6-2 4.8-4.5 5.1l-10.3 1.1v10.7z"/>
						<path id="&lt;Path&gt;" class="s7" d="m225.6 236.1c0-3.4 2.7-6.2 6.2-6.2h57.3v12.4h-57.3c-3.5 0-6.2-2.8-6.2-6.2z"/>
						<path id="&lt;Path&gt;" class="s7" d="m225.6 297.1c0-3.4 2.7-6.2 6.2-6.2h57.3v12.4h-57.3c-3.5 0-6.2-2.8-6.2-6.2z"/>
						<path id="&lt;Path&gt;" class="s7" d="m283.1 273.2v-12.2h43.7v12.2z"/>
						<path id="&lt;Path&gt;" class="s1" d="m324.8 314.1v-95h64.9c7.8 0 14.1 6.3 14.1 14.1v66.8c0 7.8-6.3 14.1-14.1 14.1z"/>
						<path id="&lt;Path&gt;" class="s1" d="m338.6 269.3v44.3h-61.6v-41.9c0-1.3 1.1-2.4 2.5-2.4z"/>
						<path id="&lt;Path&gt;" class="s0" d="m277 222v-9.1c0-1.4 1.1-2.5 2.5-2.5h47.3l11.4 11.6z"/>
						<path id="&lt;Path&gt;" class="s1" d="m338.6 264.1v-44.4h-61.6v41.9c0 1.4 1.1 2.5 2.5 2.5z"/>
						<path id="&lt;Path&gt;" class="s8" d="m282.8 292.6v-18h79.9v18z"/>
						<path id="&lt;Path&gt;" class="s8" d="m282.8 243.3v-18h79.9v18z"/>
						<path id="&lt;Compound Path&gt;" fill-rule="evenodd" class="s0" d="m277.1 312.3v-40.6c0-2 1.7-3.6 3.7-3.6h42.9v-3h-42.9c-2 0-3.7-1.6-3.7-3.6v-40.6c0-1.8 1.7-3.3 3.7-3.3h46l11.3 0.4h51.6c8.4 0 15.3 6.8 15.3 15.2v66.8c0 8.4-6.9 15.3-15.3 15.3h-51.7l-11.2 0.3h-46c-2 0-3.7-1.5-3.7-3.3zm48.9-48.3v5.3c0 0.6-0.5 1.1-1.2 1.1h-44c-0.7 0-1.3 0.6-1.3 1.3v40.6c0 0.6 0.6 1 1.3 1h46l11.2-0.3q0 0 0 0h51.7c7.1 0 13-5.8 13-13v-66.8c0-7.1-5.9-12.9-13-12.9h-51.7l-11.3-0.4h-45.9c-0.7 0-1.3 0.5-1.3 1v40.6c0 0.7 0.6 1.3 1.3 1.3h44c0.7 0 1.2 0.5 1.2 1.2z"/>
						<path id="&lt;Path&gt;" class="s8" d="m386.1 307.9c6.8 0 12.3-5.5 12.3-12.3v-58c0-6.8-5.5-12.3-12.3-12.3h-21.6c-19.4 0-27.9 14.7-27.9 41.8 0 25.1 10.7 40.8 27.9 40.8z"/>
						<path id="&lt;Path&gt;" class="s0" d="m335.5 267.1c0-29.3 9.7-44.2 29-44.2 0.6 0 1.1 0.5 1.1 1.1 0 0.7-0.5 1.2-1.1 1.2-17.7 0-26.7 14.1-26.7 41.9 0 24.9 10.5 41 26.7 41 0.6 0 1.1 0.5 1.1 1.1 0 0.6-0.5 1.2-1.1 1.2-17.6 0-29-17-29-43.3z"/>
						<g id="&lt;Group&gt;">
							<path id="&lt;Compound Path&gt;" class="s0" d="m352.6 266.8c-0.4-8.6-6.1-14.6-15.1-15.1-6.7-0.3-15.6 4-16 15.1-0.4 10.4 6.9 15.9 16 15.7 9.5-0.2 15.5-7.1 15.1-15.7z"/>
							<path id="&lt;Compound Path&gt;" class="s4" d="m349.4 266.9c-0.3-6.9-4.8-11.7-12-12-5.3-0.3-12.4 3.1-12.7 12-0.3 8.2 5.5 12.6 12.7 12.5 7.5-0.2 12.3-5.7 12-12.5z"/>
							<path id="&lt;Path&gt;" class="s6" d="m347.4 274.2l-17.3-17.3c-1.4 0.9-2.6 2.1-3.6 3.6l17.2 17.1c1.5-0.8 2.8-2 3.7-3.4z"/>
						</g>
					</g>
					<g id="&lt;Group&gt;">
						<g id="&lt;Group&gt;">
							<path id="&lt;Compound Path&gt;" fill-rule="evenodd" class="s9" d="m897.8 335.6q-1.4 0-2.8-0.2c-38.4-4.8-171.1-39.3-191.6-72.3-6.2-10.1-3.1-23.4 7-29.6 9.9-6.1 22.7-3.2 29.1 6.3 14 14.3 112.6 46.9 160.9 53 11.8 1.5 20.1 12.3 18.6 24-1.3 10.9-10.6 18.8-21.2 18.8zm-158-95.4q0.1 0.1 0.2 0.2-0.1-0.1-0.2-0.2zm0.2 0.2q0 0.1 0 0.1 0 0 0-0.1z"/>
							<path id="&lt;Compound Path&gt;" fill-rule="evenodd" class="s9" d="m896.5 283.1q-1.4 0-2.9-0.2c-38.1-5.2-166.1-43.2-185.4-76.5-6-10.3-2.5-23.4 7.8-29.3 10-5.9 22.8-2.7 28.9 7 12.6 13.7 107.8 49.9 154.5 56.2 11.7 1.6 20 12.4 18.4 24.2-1.5 10.7-10.7 18.6-21.3 18.6zm-151.4-98.6q0.1 0.2 0.2 0.4-0.1-0.2-0.2-0.4z"/>
							<path id="&lt;Compound Path&gt;" fill-rule="evenodd" class="s9" d="m899.8 232.2q-1.5 0-3-0.2c-21.3-2.9-92.6-27.5-103.3-50.6-5-10.8-0.3-23.5 10.5-28.5 9.7-4.5 21-1.1 26.8 7.5 9.3 7.7 51.1 26.2 71.9 29.1 11.8 1.6 20 12.5 18.3 24.2-1.5 10.8-10.7 18.5-21.2 18.5zm-67.3-68.8q0 0 0 0 0 0 0 0z"/>
							<path id="&lt;Path&gt;" class="s9" d="m782.6 441q-1.1 0-2.1-0.1c-11.8-1.2-20.5-11.7-19.3-23.5 2.4-24.9-3.4-30-10.7-36.4-6.6-5.9-16.6-14.8-17.5-31.4-0.7-11.8 8.3-22 20.2-22.6 11.3-0.6 21.2 7.6 22.5 18.8 0.9 0.8 2.2 2 3.3 3 14.3 12.6 29.1 29.7 24.9 72.8-1.1 11.1-10.4 19.4-21.3 19.4z"/>
							<path id="&lt;Path&gt;" class="s9" d="m843 185.8c-6.4 0-12.6-2.9-16.7-8-3.1-0.8-9-1.3-12.7-1-11.7 0.7-22-8.3-22.7-20.2-0.7-11.8 8.3-22 20.2-22.7 12-0.7 41-0.1 51.2 21.1 5.2 10.6 0.8 23.5-9.9 28.7-3 1.4-6.2 2.1-9.4 2.1z"/>
							<path id="&lt;Path&gt;" class="s1" d="m717.8 176.1c0 0 2-0.9 5.5-2.5 3.3-1.4 7.9-3.5 13.5-5.6 11.3-4.3 26.4-9.1 41.7-13 7.7-1.9 15.4-3.6 22.7-5.1 7.2-1.4 14.1-2.5 19.9-3.4 5.9-0.9 10.8-1.3 14.2-1.8 3.4-0.3 5.4-0.6 5.4-0.6 11.8-1.3 22.4 7.2 23.7 19 1.3 11.4-6.6 21.7-17.8 23.6l-0.6 0.1c0 0-1.8 0.3-4.9 0.8-3.1 0.5-7.6 1.2-12.9 2.2-10.6 2-24.8 4.8-38.7 8.4-7 1.9-13.9 3.7-20.3 5.6-6.5 2-12.4 3.8-17.5 5.5-5 1.8-9.1 3.2-11.9 4.3-2.6 1-4.1 1.6-4.1 1.6l-1.1 0.4c-11 4.3-23.5-1.2-27.8-12.2-4.1-10.6 0.8-22.6 11-27.3z"/>
							<path id="&lt;Path&gt;" class="s1" d="m710.6 232.4c0 0 0.7-0.4 2-1.2 1.4-0.7 3.4-1.8 6-3.2 5-2.4 11.9-5.9 20.5-9.4 8.6-3.4 18.5-7.3 29.5-10.5 5.5-1.8 11.2-3.3 16.9-4.9 5.8-1.6 11.7-2.9 17.7-4.3 5.9-1.1 11.9-2.3 17.7-3.4 5.9-0.9 11.7-1.8 17.4-2.7 5.6-0.7 11.1-1.2 16.2-1.7 5.2-0.7 10.1-0.8 14.7-1.1 4.5-0.3 8.6-0.6 12.3-0.6 3.7 0 6.9 0 9.6 0 5.2-0.1 8.3-0.1 8.3-0.1 11.8-0.1 21.5 9.4 21.6 21.3 0.1 11.3-8.7 20.7-19.8 21.6h-1c0 0-2.8 0.2-7.6 0.6-2.4 0.2-5.4 0.4-8.7 0.6-3.4 0.2-7.1 0.8-11.2 1.1-4.1 0.5-8.6 0.7-13.3 1.5-4.7 0.6-9.6 1.3-14.7 2-5.1 0.9-10.4 1.7-15.7 2.6-5.3 1.1-10.7 2.2-16 3.3-5.4 1.3-10.8 2.3-16 3.7-5.2 1.4-10.3 2.7-15.2 4.2-9.8 2.9-18.9 5.8-26.5 8.6-7.6 2.8-13.9 5.1-18.1 7-1.9 0.8-3.5 1.5-4.5 2-1.1 0.5-1.6 0.7-1.6 0.7l-0.8 0.4c-10.7 5.1-23.5 0.5-28.6-10.2-4.8-10.2-0.8-22.4 8.9-27.9z"/>
							<path id="&lt;Compound Path&gt;" fill-rule="evenodd" class="s9" d="m868.8 379.2q-1.3 0-2.7-0.2c-1.3-0.1-134.7-17.5-159-56.9-6.2-10-3.1-23.3 7-29.5 10-6.2 23-3.2 29.3 6.7 9.1 10.4 70.9 29.9 128.1 37.1 11.8 1.5 20.1 12.3 18.6 24-1.3 10.9-10.6 18.8-21.3 18.8zm-125.2-79.6q0-0.1 0-0.1 0 0 0 0.1z"/>
							<path id="&lt;Path&gt;" class="s1" d="m899.6 284.3c0 0-2.9 0.2-7.9 0.4-2.6 0.1-5.6 0.2-9.1 0.3-3.7 0-6.9 0.5-10.9 0.8-3.9 0.3-7.9 0.4-12.6 1.1-4.5 0.6-9.3 1.2-14.3 1.9-5 0.8-10.1 1.6-15.2 2.6-5.2 1.1-10.4 2.1-15.6 3.4-5.1 1.4-10.4 2.5-15.3 4.1-5.1 1.4-10 3-14.7 4.7-9.4 3.2-18 6.6-25.2 9.8-7.3 3.2-13.1 6.1-17 8.2-3.4 1.9-5.4 3-5.4 3l-2 1.1c-10.4 5.7-23.4 1.9-29.1-8.4-5.3-9.6-2.5-21.3 6.1-27.6 0 0 0.8-0.6 2.3-1.7 1.3-1 3.2-2.3 5.6-3.9 4.7-2.9 11.4-7.2 19.8-11.4 4.2-2.2 8.7-4.3 13.6-6.5 4.9-2.1 10-4.5 15.5-6.4 5.4-2 11.1-3.9 17-5.7 5.7-2 11.7-3.3 17.7-5 6-1.5 12.1-2.5 18-3.8 6-1 11.9-1.8 17.6-2.7 5.7-0.7 11.3-1.1 16.6-1.5 5.2-0.5 10.5-0.4 15.2-0.6 4.6-0.1 9.4-0.3 12.7 0 3.5 0.1 6.5 0.3 9 0.4 5.1 0.3 7.9 0.5 7.9 0.5 11.9 0.7 20.9 10.9 20.2 22.8-0.7 11-9.7 19.6-20.5 20.1z"/>
							<path id="&lt;Path&gt;" class="s1" d="m899.7 335.7c0 0-2.4 0.2-6.5 0.5-2.1 0.1-4.6 0.2-7.5 0.3-3 0.1-5.9 0.4-9.1 0.7-3.2 0.3-6.6 0.6-10.3 0.9-3.8 0.5-7.7 0.9-11.8 1.5-4.1 0.4-8.2 1.3-12.5 1.9-4.2 0.6-8.4 1.6-12.7 2.4-4.2 0.9-8.4 1.9-12.5 2.9-4.1 1.2-8.1 2.2-11.9 3.4-7.6 2.4-14.6 4.7-20.3 7.1-2.8 1.3-5.5 2.4-7.6 3.4-2.3 1-4.1 1.9-5.6 2.7q-2 1.1-3.1 1.7c-0.8 0.4-0.6 0.2-0.6 0.2-9.3 7.3-22.8 5.7-30.2-3.6-7.3-9.3-5.7-22.8 3.6-30.2 0 0 0.8-0.6 2.2-1.7 1.3-1 2.8-2.2 4.9-3.7 4.2-2.8 9.9-6.5 17.1-10.1 3.6-1.7 7.5-3.7 11.6-5.4 4.2-1.9 8.6-3.5 13.3-5.1 4.6-1.7 9.4-3.1 14.3-4.5 5-1.2 10-2.6 15-3.6 5.1-0.9 10.1-2 15.1-2.7 5-0.6 9.9-1.4 14.6-1.8 4.8-0.3 9.4-0.6 13.7-0.9 4.5-0.1 8.7-0.2 12.6-0.2 4-0.1 7.5-0.1 10.3 0.1 2.9 0.2 5.4 0.3 7.5 0.4 4.1 0.3 6.5 0.5 6.5 0.5 11.9 0.8 20.8 11 20 22.9-0.7 10.9-9.5 19.4-20.1 20z"/>
							<path id="&lt;Path&gt;" class="s1" d="m847.7 442.4c-10.9 0-20.2-8.3-21.3-19.3-0.6-5.5-4.4-53.8 28.5-81.8 9.1-7.6 22.6-6.5 30.3 2.5 7.7 9.1 6.6 22.6-2.5 30.3-16 13.6-13.6 44.3-13.6 44.6 1.2 11.8-7.4 22.4-19.2 23.6q-1.1 0.1-2.2 0.1z"/>
							<path id="&lt;Path&gt;" class="s0" d="m885.2 343.8c-1.8-2.1-4-3.8-6.4-5 6.8 9 5.1 22.1-4.1 29.7-16.6 13.5-15.6 44.3-15.6 44.6 0.7 11.8-8.4 22.3-20.2 23.5q-1.1 0.1-2.2 0.1-1.9 0-3.8-0.3c3.9 3.7 9.1 6 14.8 6q1.1 0 2.2-0.1c11.8-1.2 20.4-11.8 19.2-23.6 0-0.3-2.4-31 13.6-44.6 9.1-7.7 10.2-21.2 2.5-30.3z"/>
							<path id="&lt;Path&gt;" class="s1" d="m810.5 439.5h-55.7v-27c0-2.6 2.1-4.7 4.7-4.7h46.3c2.6 0 4.7 2.1 4.7 4.7z"/>
							<path id="&lt;Path&gt;" class="s1" d="m876 439.5h-55.8v-27c0-2.6 2.1-4.7 4.7-4.7h46.3c2.6 0 4.8 2.1 4.8 4.7z"/>
							<path id="&lt;Path&gt;" class="s0" d="m805.8 407.8h-18c2.6 0 4.7 2.1 4.7 4.7v27h18v-27c0-2.6-2.1-4.7-4.7-4.7z"/>
							<path id="&lt;Path&gt;" class="s0" d="m871.2 407.8h-18c2.6 0 4.7 2.1 4.7 4.7v27h18.1v-27c0-2.6-2.2-4.7-4.8-4.7z"/>
							<path id="&lt;Path&gt;" class="s0" d="m864.4 163.1c-0.8-7.3-5.2-13.3-11.2-16.6 1 2.2 1.7 4.4 2 6.9 1.3 11.4-6.6 21.7-17.8 23.5l-0.6 0.2c0 0-1.8 0.3-4.9 0.8-3.2 0.5-7.6 1.2-12.9 2.2-10.7 1.9-24.8 4.8-38.7 8.4-7 1.8-13.9 3.6-20.3 5.6-6.5 1.9-12.4 3.8-17.5 5.5-5 1.8-9.1 3.2-11.9 4.2-2.6 1.1-4.1 1.7-4.1 1.7l-1.1 0.4c-6.1 2.3-12.6 1.7-17.9-1.2 4.8 10.1 16.6 15 27.1 10.9l1.1-0.4c0 0 1.5-0.6 4.1-1.6 2.8-1.1 6.9-2.5 11.9-4.3 5.1-1.7 11-3.5 17.5-5.5 6.4-1.9 13.3-3.7 20.3-5.6 13.9-3.6 28.1-6.4 38.7-8.4 5.3-1 9.8-1.7 12.9-2.2 3.1-0.5 4.9-0.8 4.9-0.8l0.6-0.1c11.2-1.9 19.1-12.2 17.8-23.6z"/>
							<path id="&lt;Path&gt;" class="s0" d="m909.7 192c1.3 2.7 2.1 5.7 2.1 8.9 0.1 11.3-8.7 20.7-19.8 21.5l-1 0.1c0 0-2.8 0.2-7.6 0.6-2.4 0.2-5.4 0.4-8.7 0.6-3.4 0.2-7.1 0.8-11.2 1.1-4.2 0.5-8.6 0.7-13.3 1.5-4.7 0.6-9.6 1.3-14.7 2-5.1 0.8-10.4 1.7-15.7 2.6-5.3 1.1-10.7 2.2-16 3.3-5.4 1.3-10.8 2.3-16 3.7-5.2 1.4-10.3 2.7-15.2 4.2-9.8 2.9-18.9 5.8-26.5 8.5-7.6 2.9-13.9 5.2-18.1 7-1.9 0.9-3.5 1.6-4.5 2.1-1.1 0.5-1.6 0.7-1.6 0.7l-0.8 0.4c-6.4 3-13.6 2.5-19.4-0.6q0 0 0 0.1c5.1 10.7 17.9 15.3 28.6 10.2l0.8-0.4c0 0 0.5-0.2 1.6-0.7 1-0.5 2.6-1.2 4.5-2 4.2-1.9 10.5-4.2 18.1-7 7.6-2.8 16.7-5.7 26.5-8.6 4.9-1.5 10-2.8 15.2-4.2 5.2-1.4 10.6-2.4 16-3.7 5.3-1.1 10.7-2.2 16-3.3 5.3-0.9 10.6-1.7 15.7-2.6 5.1-0.7 10-1.4 14.7-2 4.7-0.8 9.2-1 13.3-1.5 4.1-0.3 7.8-0.9 11.2-1.1 3.3-0.2 6.3-0.4 8.7-0.6 4.8-0.4 7.6-0.6 7.6-0.6h1c11.1-0.9 19.9-10.3 19.8-21.6-0.1-8.1-4.6-15-11.3-18.6z"/>
							<path id="&lt;Path&gt;" class="s0" d="m908.8 243.9c1.5 3.2 2.3 6.8 2.1 10.5-0.7 11.1-9.7 19.7-20.5 20.2 0 0-2.9 0.2-7.9 0.4-2.6 0-5.6 0.1-9.1 0.3-3.7 0-6.9 0.5-10.9 0.7-3.9 0.4-7.9 0.5-12.6 1.2-4.5 0.6-9.3 1.2-14.3 1.8-5 0.9-10.1 1.7-15.2 2.6-5.2 1.2-10.4 2.2-15.6 3.5-5.1 1.4-10.4 2.5-15.3 4.1-5.1 1.4-10 3-14.7 4.7-9.4 3.2-18.1 6.6-25.3 9.8-7.2 3.2-13 6.1-16.9 8.2-3.4 1.9-5.4 3-5.4 3l-2 1.1c-6.6 3.6-14.3 3.4-20.4 0.1 0.2 0.4 0.3 0.8 0.5 1.2 5.7 10.3 18.7 14.1 29.1 8.4l2-1.1c0 0 2-1.1 5.4-3 3.9-2.1 9.7-5 17-8.2 7.2-3.2 15.8-6.6 25.2-9.8 4.7-1.7 9.6-3.3 14.7-4.7 4.9-1.6 10.2-2.7 15.3-4.1 5.2-1.3 10.4-2.3 15.6-3.4 5.1-1 10.2-1.8 15.2-2.6 5-0.7 9.8-1.3 14.3-1.9 4.7-0.7 8.7-0.8 12.6-1.1 4-0.3 7.2-0.8 10.9-0.8 3.5-0.1 6.5-0.2 9.1-0.3 5-0.2 7.9-0.4 7.9-0.4 10.8-0.5 19.8-9.1 20.5-20.1 0.5-8.7-4.2-16.4-11.3-20.3z"/>
							<path id="&lt;Path&gt;" class="s0" d="m908.5 295.3c1.5 3.2 2.4 6.9 2.1 10.7-0.7 10.9-9.5 19.3-20.1 20 0 0-2.4 0.2-6.5 0.4-2.1 0.1-4.6 0.3-7.5 0.4-3 0.1-6 0.4-9.1 0.7-3.2 0.3-6.7 0.6-10.3 0.9-3.8 0.4-7.7 0.9-11.8 1.4-4.1 0.5-8.2 1.3-12.5 2-4.2 0.5-8.4 1.6-12.7 2.4-4.2 0.9-8.4 1.9-12.5 2.9-4.1 1.2-8.1 2.1-11.9 3.3-7.6 2.4-14.6 4.8-20.3 7.2-2.8 1.3-5.5 2.3-7.6 3.4-2.3 1-4.1 1.9-5.6 2.7q-2.1 1.1-3.2 1.7c-0.7 0.4-0.5 0.2-0.5 0.2-6.9 5.4-16.2 5.9-23.5 2 0.7 1.4 1.5 2.8 2.5 4.1 7.4 9.3 20.9 10.9 30.2 3.6 0 0-0.2 0.2 0.6-0.2q1.1-0.6 3.1-1.7c1.5-0.8 3.3-1.7 5.6-2.7 2.1-1 4.8-2.1 7.6-3.4 5.7-2.4 12.7-4.7 20.3-7.1 3.8-1.2 7.8-2.2 11.9-3.4 4.1-1 8.3-2 12.5-2.9 4.3-0.8 8.5-1.8 12.7-2.4 4.3-0.6 8.4-1.5 12.5-1.9 4.1-0.6 8-1 11.8-1.5 3.7-0.3 7.1-0.6 10.3-0.9 3.2-0.3 6.1-0.6 9.1-0.7 2.9-0.1 5.4-0.2 7.5-0.3 4.1-0.3 6.5-0.5 6.5-0.5 10.6-0.6 19.4-9.1 20.1-20 0.6-8.7-4.1-16.5-11.3-20.4z"/>
							<g id="&lt;Group&gt;">
								<path id="&lt;Path&gt;" class="s8" d="m726.4 185.4c-1.1 0-2.3-0.7-2.8-1.8-0.6-1.6 0.1-3.4 1.6-4.1 0.4-0.1 40.3-17.5 83.6-24.1 1.7-0.3 3.3 0.9 3.5 2.5 0.3 1.7-0.9 3.3-2.6 3.5-42.5 6.5-81.6 23.6-82 23.7q-0.6 0.3-1.3 0.3z"/>
								<path id="&lt;Path&gt;" class="s8" d="m761.2 332.7c-1 0-2-0.5-2.6-1.4-0.9-1.4-0.5-3.3 0.9-4.3 1.2-0.7 29.3-18.8 83.6-27 1.6-0.3 3.2 0.9 3.5 2.6 0.2 1.6-0.9 3.2-2.6 3.4-52.8 8-80.8 26-81.1 26.2-0.5 0.3-1.1 0.5-1.7 0.5z"/>
								<g id="&lt;Group&gt;">
									<path id="&lt;Path&gt;" class="s8" d="m828.2 207.9c-1.5 0-2.8-1.1-3-2.7-0.3-1.6 0.9-3.2 2.5-3.5 13-1.9 26.2-3.2 39.2-3.8 1.7-0.1 3.1 1.2 3.2 2.9 0.1 1.7-1.2 3.1-2.9 3.2-12.8 0.6-25.8 1.9-38.5 3.8q-0.3 0.1-0.5 0.1z"/>
									<path id="&lt;Path&gt;" class="s8" d="m722.4 240.8c-1.1 0-2.2-0.5-2.7-1.5-0.9-1.5-0.3-3.4 1.1-4.2 1.4-0.8 34.4-19.2 88.4-30.1 1.6-0.3 3.3 0.7 3.6 2.4 0.3 1.7-0.7 3.3-2.4 3.6-52.9 10.7-86.2 29.2-86.5 29.4q-0.8 0.4-1.5 0.4z"/>
								</g>
								<g id="&lt;Group&gt;">
									<path id="&lt;Path&gt;" class="s8" d="m830.8 256.7c-1.5 0-2.8-1-3-2.5-0.3-1.7 0.8-3.3 2.4-3.6 12.8-2.3 28.7-3.2 39.3-3.3 1.4 0 3.1 1.4 3.1 3.1 0 1.7-1.4 3-3.1 3.1-10.3 0-25.8 0.9-38.2 3.1q-0.2 0.1-0.5 0.1z"/>
									<path id="&lt;Path&gt;" class="s8" d="m726 294.9c-0.9 0-1.9-0.5-2.5-1.4-0.9-1.4-0.6-3.3 0.8-4.2 1.4-0.9 33.8-22.3 87.5-34.8 1.6-0.4 3.3 0.6 3.7 2.2 0.4 1.7-0.7 3.3-2.3 3.7-52.6 12.4-85.1 33.8-85.5 34-0.5 0.3-1.1 0.5-1.7 0.5z"/>
								</g>
								<path id="&lt;Path&gt;" class="s8" d="m837.9 399.7q-0.1 0-0.2-0.1c-1.6 0-2.9-1.5-2.9-3.2 0.1-0.9 1.4-21.7 18.3-41.7 1-1.3 3-1.4 4.3-0.3 1.3 1 1.4 3 0.3 4.3-15.5 18.4-16.7 37.9-16.7 38.1-0.1 1.6-1.5 2.9-3.1 2.9z"/>
							</g>
							<path id="&lt;Path&gt;" class="s8" d="m782.2 428.4h-20.6v-11.6c0-1 0.9-1.9 1.9-1.9h16.8c1 0 1.9 0.9 1.9 1.9z"/>
							<path id="&lt;Path&gt;" class="s8" d="m848.1 428.4h-20.5v-11.6c0-1 0.8-1.9 1.8-1.9h16.9c1 0 1.8 0.9 1.8 1.9z"/>
						</g>
						<g id="&lt;Group&gt;">
							<path id="&lt;Path&gt;" class="s7" d="m750 497.5v61.5c0 4.4 1.8 8.5 4.9 11.3 0 0 15.8 12.1 27.5 16.7 11.6 4.6 50 5.1 61.7 0 11.8-5.1 27.5-16.7 27.5-16.7 3.1-2.8 4.9-6.9 4.9-11.3v-61.5z"/>
							<path id="&lt;Path&gt;" class="s10" d="m833.9 497.5c0 67.9 9.8 71.4-32.3 89.5-2.3 1-5.4 1.7-9.2 2.3 16.2 2.3 42.4 1.8 51.7-2.3 11.8-5.1 27.5-16.7 27.5-16.7 3.1-2.8 4.9-6.9 4.9-11.3v-61.5z"/>
							<g id="&lt;Group&gt;">
								<path id="&lt;Path&gt;" class="s11" d="m876.5 538.1q-0.1 0-0.2 0c-93.6-6.1-125.6-16.4-126.9-16.8-1.9-0.6-2.9-2.7-2.3-4.6 0.6-2 2.7-3 4.6-2.4 0.4 0.1 32.7 10.4 125 16.4 2.1 0.2 3.6 1.9 3.5 4-0.2 1.9-1.8 3.4-3.7 3.4z"/>
								<path id="&lt;Path&gt;" class="s11" d="m876.5 554.2q-0.1 0-0.2 0c-93.6-6.1-125.6-16.3-126.9-16.8-1.9-0.6-2.9-2.7-2.3-4.6 0.6-1.9 2.7-3 4.6-2.3 0.4 0.1 32.7 10.4 125 16.4 2.1 0.1 3.6 1.9 3.5 3.9-0.2 2-1.8 3.4-3.7 3.4z"/>
								<path id="&lt;Path&gt;" class="s11" d="m874.7 569.5q-0.1 0-0.2 0c-93.6-6.1-123.8-16-125.1-16.4-1.9-0.6-2.9-2.7-2.3-4.6 0.6-1.9 2.7-3 4.6-2.4 0.3 0.1 31 10 123.3 16 2 0.2 3.5 1.9 3.4 3.9-0.1 2-1.7 3.5-3.7 3.5z"/>
							</g>
							<g id="&lt;Group&gt;">
								<path id="&lt;Path&gt;" class="s7" d="m876.5 538.1c1.8 0 3.4-1.5 3.5-3.5 0.1-2-1.3-3.7-3.3-3.9-15.8-1-29.8-2.2-42.2-3.4q0.1 4 0.2 7.5c12.3 1.1 26 2.3 41.6 3.3q0.1 0 0.2 0z"/>
								<path id="&lt;Path&gt;" class="s7" d="m876.5 554.3c1.8 0 3.4-1.5 3.5-3.5 0.1-2-1.3-3.8-3.3-3.9-15.6-1-29.5-2.2-41.8-3.4 0 2.7 0 5.2-0.1 7.4 12.3 1.2 26 2.3 41.5 3.4q0.1 0 0.2 0z"/>
								<path id="&lt;Path&gt;" class="s7" d="m874.7 569.5c1.9 0 3.4-1.5 3.5-3.5 0.2-2-1.3-3.8-3.2-3.9-15.4-1-29-2.1-41.1-3.3-0.5 2.7-1.2 5.1-2.2 7.2 12.5 1.3 26.7 2.4 42.8 3.5q0.1 0 0.2 0z"/>
							</g>
							<path id="&lt;Path&gt;" class="s10" d="m750 509c3.5 1 7.1 1.5 10.9 1.5h108.2c2.5 0 5-0.2 7.4-0.7v-12.3h-126.5z"/>
							<path id="&lt;Path&gt;" class="s7" d="m869.1 503.5h-108.2c-22 0-39.9-17.9-39.9-39.9v-26.6h188v26.6c0 22-17.9 39.9-39.9 39.9z"/>
							<path id="&lt;Path&gt;" class="s10" d="m852.7 437v26.6c0 22-17.8 39.9-39.8 39.9h56.2c22 0 39.9-17.9 39.9-39.9v-26.6z"/>
							<path id="&lt;Path&gt;" class="s11" d="m796.1 485.6h-39.9c-8.2 0-14.8-6.6-14.8-14.8v-21h69.4v21c0 8.2-6.5 14.8-14.7 14.8z"/>
						</g>
						<g id="&lt;Group&gt;">
							<path id="&lt;Path&gt;" class="s0" d="m716 312.4c-1.5 0-2.9-0.3-4.2-1-3-1.7-4.8-5.3-4.4-8.7 0-0.8 0.8-1.4 1.6-1.3 0.9 0.1 1.5 0.8 1.4 1.7-0.2 2.2 1 4.5 2.9 5.6 1.9 1 4.5 0.8 6.2-0.6 0.7-0.5 1.7-0.4 2.2 0.3 0.5 0.6 0.4 1.6-0.2 2.1-1.6 1.3-3.6 1.9-5.5 1.9z"/>
							<path id="&lt;Path&gt;" class="s0" d="m889.8 320.3q0 0-0.1 0c-0.9 0-1.6-0.7-1.6-1.6 0.1-0.8 0.7-1.5 1.6-1.5q0.1 0 0.1 0c2.8 0 5.6-1.1 7.5-3.1 2-2 3.2-4.8 3.1-7.6 0-0.9 0.7-1.6 1.6-1.6q0 0 0 0c0.8 0 1.5 0.7 1.5 1.5 0.1 3.7-1.4 7.3-4 9.9-2.5 2.5-6 4-9.7 4z"/>
							<path id="&lt;Path&gt;" class="s0" d="m719 201.4q-0.9 0-1.7-0.1c-3.4-0.6-6.3-2.9-7.7-6.1-0.3-0.7 0-1.6 0.8-2 0.8-0.3 1.7 0 2 0.8 1 2.2 3.1 3.9 5.4 4.2 2.4 0.4 4.9-0.4 6.5-2.2 0.6-0.6 1.5-0.7 2.2-0.1 0.6 0.6 0.6 1.6 0.1 2.2-2 2.1-4.8 3.3-7.6 3.3z"/>
							<path id="&lt;Path&gt;" class="s0" d="m889.7 218.1c-0.8 0-1.5-0.6-1.6-1.4 0-0.9 0.6-1.6 1.4-1.7 6.6-0.6 12.7-6.1 13.7-12.7 0.2-0.8 1-1.4 1.8-1.3 0.8 0.2 1.4 1 1.3 1.8-1.3 8-8.4 14.6-16.5 15.3q-0.1 0-0.1 0z"/>
							<path id="&lt;Path&gt;" class="s0" d="m868.5 365.7c-0.6 0-1.1-0.3-1.4-0.8-0.4-0.7-0.1-1.7 0.6-2.1 3.2-1.8 5.6-5.2 6.1-8.7 0.5-3.5-0.8-7.3-3.4-9.9-0.6-0.6-0.6-1.6 0-2.2 0.6-0.6 1.5-0.6 2.1 0 3.4 3.3 5 8 4.3 12.5-0.6 4.5-3.5 8.6-7.6 11q-0.4 0.2-0.7 0.2z"/>
						</g>
					</g>
					<g id="&lt;Group&gt;">
						<path id="&lt;Compound Path&gt;" fill-rule="evenodd" class="s4" d="m438.3 365.4v1.3c0 2 1.6 3.5 3.5 3.5h10.2v174.6h-10.2c-1.9 0-3.5 1.6-3.5 3.5v1.3c0 2 1.6 3.6 3.5 3.6h10.2v17.3c0 11.1-9 20.2-20.1 20.2h-16.9v-12.4c0-1.9-1.5-3.5-3.5-3.5h-1.3c-2 0-3.5 1.6-3.5 3.5v12.4h-176.8v-12.4c0-1.9-1.6-3.5-3.6-3.5h-1.3c-1.9 0-3.5 1.6-3.5 3.5v12.4h-16.8c-11.2 0-20.2-9.1-20.2-20.2v-17.3h10.2c2 0 3.5-1.6 3.5-3.6v-1.3c0-1.9-1.5-3.5-3.5-3.5h-10.2v-174.6h10.2c2 0 3.5-1.5 3.5-3.5v-1.3c0-1.9-1.5-3.5-3.5-3.5h-10.2v-18.6c0-11.2 9-20.2 20.2-20.2h16.8v13.6c0 2 1.6 3.5 3.5 3.5h1.3c2 0 3.6-1.5 3.6-3.5v-13.6h176.8v13.6c0 2 1.5 3.5 3.5 3.5h1.3c2 0 3.5-1.5 3.5-3.5v-13.6h16.9c11.1 0 20.1 9 20.1 20.2v18.6h-10.2c-1.9 0-3.5 1.6-3.5 3.5zm-238.9 122.9c2.9 0 5.2-2.3 5.2-5.1v-40.4c2.3-1.4 4.2-3.9 4.3-7.8 0.2-6.3-4.2-9.7-9.7-9.6-5.8 0.1-9.5 4.4-9.2 9.6 0.1 3.4 1.7 6.2 4.3 7.8v40.4c0 2.8 2.3 5.1 5.1 5.1zm13.3 85.5c0.1-5.8-3.4-10.4-10-10.2-7 0.3-9.8 6-9.5 10.2 0.2 5.7 4.1 9.3 9.5 9.6 5.5 0.2 9.9-3.6 10-9.6zm0-232.5c-0.1-6.1-4.5-9.9-10-9.6-5.4 0.2-9.3 3.8-9.5 9.6-0.3 4.2 2.5 9.9 9.5 10.1 6.6 0.2 10.1-4.4 10-10.1zm74.1-3c0 2.9 2.3 5.2 5.2 5.2h40.4c1.4 2.3 3.9 4.2 7.7 4.3 6.4 0.2 9.7-4.2 9.6-9.7-0.1-5.8-4.3-9.5-9.6-9.3-3.4 0.2-6.2 1.8-7.7 4.4h-40.4c-2.9 0-5.2 2.3-5.2 5.1zm62.9 237.4c0-2.9-2.3-5.2-5.1-5.2h-40.5c-1.5-2.6-4.3-4.1-7.7-4.3-5.2-0.2-9.5 3.5-9.6 9.2-0.1 5.5 3.2 10 9.6 9.8 3.9-0.2 6.4-2 7.8-4.4h40.4c2.8 0 5.1-2.3 5.1-5.1zm84-12.1c-7 0.3-9.8 6-9.6 10.2 0.3 5.7 4.2 9.3 9.6 9.6 5.5 0.2 9.9-3.6 10-9.6 0.1-5.8-3.4-10.4-10-10.2zm3.4-138.2c-2.9 0-5.2 2.3-5.2 5.2v40.4c-2.6 1.6-4.1 4.3-4.3 7.8-0.2 5.2 3.4 9.4 9.2 9.5 5.5 0.1 10-3.2 9.8-9.5-0.2-3.9-2.1-6.4-4.4-7.8v-40.4c0-2.9-2.3-5.2-5.1-5.2zm6.6-84.1c-0.1-6.1-4.5-9.9-10-9.6-5.4 0.2-9.3 3.8-9.6 9.6-0.2 4.2 2.6 9.9 9.6 10.1 6.6 0.2 10.1-4.4 10-10.1z"/>
						<g id="&lt;Group&gt;">
							<path id="&lt;Path&gt;" class="s1" d="m402.8 563.7h-169.1c-12.3 0-22.2-10-22.2-22.3v-169.1c0-12.3 9.9-22.2 22.2-22.2h169.1c12.3 0 22.3 9.9 22.3 22.2v169.1c0 12.3-10 22.3-22.3 22.3z"/>
							<path id="&lt;Compound Path&gt;" class="s8" d="m317 389.3c-39.6 1.8-67.3 27.8-69.4 69.4-1.5 30.4 18.3 71.5 69.4 73.3 47.6 1.7 72.8-31.8 71.9-73.3-0.8-43.4-32.7-71.1-71.9-69.4z"/>
							<path id="&lt;Compound Path&gt;" class="s9" d="m317.1 394.6c-36.7 1.7-62.3 25.8-64.2 64.2-1.4 28.2 16.8 66.3 64.2 68 44.1 1.5 67.4-29.6 66.6-68-0.8-40.2-30.3-65.8-66.6-64.2z"/>
							<g id="&lt;Group&gt;">
								<path id="&lt;Compound Path&gt;" class="s7" d="m279.1 448.2c-6.9 0.3-11.7 4.9-12.1 12.1-0.3 5.3 3.2 12.5 12.1 12.9 8.4 0.2 12.8-5.6 12.6-12.9-0.1-7.6-5.7-12.4-12.6-12.1z"/>
								<path id="&lt;Compound Path&gt;" class="s7" d="m356.9 448.2c-6.9 0.3-11.7 4.9-12.1 12.1-0.2 5.3 3.2 12.5 12.1 12.9 8.4 0.2 12.8-5.6 12.6-12.9-0.1-7.6-5.7-12.4-12.6-12.1z"/>
							</g>
							<path id="&lt;Path&gt;" class="s12" d="m262.1 469c2-38.5 27.6-62.5 64.3-64.2 17.4-0.8 33.2 4.7 45 15.1-12-16.8-31.9-26.3-54.3-25.3-36.7 1.7-62.3 25.8-64.2 64.2-0.9 17.3 5.7 38.4 21.9 52.4-9.4-12.9-13.3-28.7-12.7-42.2z"/>
							<g id="&lt;Group&gt;">
								<path id="&lt;Compound Path&gt;" class="s12" d="m318 446.6c-7.8 0.4-13.2 5.5-13.7 13.7-0.3 6 3.6 14.1 13.7 14.4 9.4 0.4 14.3-6.2 14.2-14.4-0.2-8.6-6.5-14-14.2-13.7z"/>
								<path id="&lt;Compound Path&gt;" class="s5" d="m318.1 449.5c-6.2 0.3-10.6 4.4-10.9 10.9-0.2 4.7 2.9 11.2 10.9 11.4 7.4 0.3 11.3-4.9 11.2-11.4-0.1-6.8-5.1-11.2-11.2-10.9z"/>
								<path id="&lt;Path&gt;" class="s6" d="m322.7 454.3l-10.7 10.7c0.6 0.8 1.3 1.6 2.2 2.2l10.6-10.6q-0.8-1.4-2.1-2.3z"/>
								<path id="&lt;Path&gt;" class="s6" d="m324.8 465l-10.6-10.6c-0.9 0.5-1.6 1.2-2.2 2.2l10.5 10.5q1.4-0.8 2.3-2.1z"/>
							</g>
							<g id="&lt;Group&gt;">
								<path id="&lt;Path&gt;" class="s7" d="m317.1 526.8c3.7 0.1 7.3-0.1 10.8-0.4v-17.7c0-1.6-1.3-2.8-2.8-2.8h-13.7c-1.5 0-2.7 1.2-2.7 2.8v17.3q4 0.6 8.4 0.8z"/>
								<path id="&lt;Path&gt;" class="s7" d="m327.9 412.7v-17.7c-3.6-0.3-7.1-0.5-10.8-0.4-2.9 0.2-5.7 0.5-8.4 0.9v17.2c0 1.5 1.2 2.8 2.7 2.8h13.7c1.5 0 2.8-1.3 2.8-2.8z"/>
								<path id="&lt;Path&gt;" class="s4" d="m317.1 527.1q4.2 0.1 8.1-0.1v-14.8c0-1.2-0.9-2.1-2.1-2.1h-9.7c-1.2 0-2.1 0.9-2.1 2.1v14.4c1.9 0.2 3.8 0.4 5.8 0.5z"/>
								<path id="&lt;Path&gt;" class="s4" d="m325.2 409.2v-14.8c-2.6-0.1-5.4-0.2-8.1-0.1-2 0.1-3.9 0.3-5.8 0.5v14.4c0 1.1 0.9 2.1 2.1 2.1h9.7c1.2 0 2.1-1 2.1-2.1z"/>
							</g>
							<path id="&lt;Path&gt;" class="s8" d="m402.8 350.1h-169.1c-12.3 0-22.2 9.9-22.2 22.2v169.1c0 12.3 9.9 22.3 22.2 22.3h4.7c-12 0-21.7-9.7-21.7-21.7v-165c0-12 9.7-21.7 21.7-21.7h165c11.9 0 21.7 9.7 21.7 21.7v-4.7c0-12.3-10-22.2-22.3-22.2z"/>
							<g id="&lt;Group&gt;">
								<g id="&lt;Group&gt;">
									<path id="&lt;Path&gt;" class="s8" d="m304.6 366.4h-68c-1.5 0-2.7-1.2-2.7-2.7 0-1.4 1.2-2.6 2.7-2.6h68c1.4 0 2.6 1.2 2.6 2.6 0 1.5-1.2 2.7-2.6 2.7z"/>
									<path id="&lt;Path&gt;" class="s8" d="m347.4 366.4h-22.5c-1.5 0-2.7-1.2-2.7-2.7 0-1.4 1.2-2.6 2.7-2.6h22.5c1.5 0 2.7 1.2 2.7 2.6 0 1.5-1.2 2.7-2.7 2.7z"/>
								</g>
								<path id="&lt;Path&gt;" class="s8" d="m399.5 557.6c-1.5 0-2.6-1.2-2.6-2.7 0-1.4 1.1-2.6 2.6-2.6 0.5 0 11.9-0.3 13.4-13.1 0.1-1.5 1.4-2.5 2.9-2.4 1.4 0.2 2.5 1.5 2.3 3-1.6 14.1-12.9 17.8-18.6 17.8z"/>
							</g>
						</g>
					</g>
					<g id="&lt;Group&gt;">
						<g id="&lt;Group&gt;">
							<path id="&lt;Path&gt;" class="s13" d="m647.3 590.7h-246.4c-10.4 0-18.7-8.4-18.7-18.7v-468.9c0-10.4 8.3-18.7 18.7-18.7h246.4c10.3 0 18.7 8.3 18.7 18.7v468.9c0 10.3-8.4 18.7-18.7 18.7z"/>
							<path id="&lt;Path&gt;" class="s7" d="m642.5 561.9h-236.8c-8.8 0-15.9-7.1-15.9-15.8v-417.2c0-8.7 7.1-15.8 15.9-15.8h236.8c8.8 0 15.8 7.1 15.8 15.8v417.2c0 8.7-7 15.8-15.8 15.8z"/>
							<path id="&lt;Compound Path&gt;" class="s10" d="m531.4 341.5c-39.4 1.8-67 27.7-69 69.1-1.6 30.2 18.1 71.2 69 73 47.5 1.7 72.6-31.7 71.7-73-0.8-43.3-32.6-70.9-71.7-69.1z"/>
							<path id="&lt;Compound Path&gt;" class="s13" d="m527.1 341.5c-37 1.6-62.8 25.9-64.8 64.7-1.4 28.3 17 66.7 64.8 68.4 44.4 1.6 67.9-29.7 67.1-68.4-0.8-40.5-30.6-66.4-67.1-64.7z"/>
							<path id="&lt;Compound Path&gt;" class="s14" d="m527.3 356c-28.9 1.3-49.1 20.3-50.6 50.6-1.1 22.1 13.3 52.2 50.6 53.5 34.8 1.2 53.1-23.3 52.5-53.5-0.6-31.7-23.9-51.9-52.5-50.6z"/>
							<path id="&lt;Path&gt;" class="s13" d="m509.8 463l-24.8-16.3c24.2-28.3 44.8-59.5 61.7-93.7l24.8 16.3c-23.1 29.8-43.8 61-61.7 93.7z"/>
							<path id="&lt;Path&gt;" class="s4" d="m636 264.9h-223.8v-113.7h223.8z"/>
							<g id="&lt;Group&gt;">
								<g id="&lt;Group&gt;">
									<path id="&lt;Compound Path&gt;" class="s10" d="m427 289c-7.7 0.3-13 5.4-13.4 13.4-0.3 5.9 3.5 13.9 13.4 14.3 9.3 0.3 14.2-6.2 14-14.3-0.2-8.4-6.4-13.8-14-13.4z"/>
									<path id="&lt;Compound Path&gt;" class="s15" d="m425.1 287.7c-7.4 0.3-12.5 5.2-12.9 12.9-0.3 5.6 3.4 13.2 12.9 13.6 8.8 0.3 13.5-5.9 13.3-13.6-0.1-8.1-6-13.2-13.3-12.9z"/>
									<path id="&lt;Path&gt;" class="s16" d="m429.2 294.9c-0.1-1.7-0.4-3.3-1-4.6-1-0.3-2-0.4-3.1-0.3-6.1 0.2-10.3 4.2-10.6 10.6-0.1 1.7 0.2 3.5 1 5.2q1.2 0.3 2.6 0.4c7.3 0.2 11.2-4.9 11.1-11.3z"/>
								</g>
								<g id="&lt;Group&gt;">
									<path id="&lt;Compound Path&gt;" class="s10" d="m476.7 288.7c-7.6 0.3-13 5.4-13.4 13.4-0.3 5.9 3.5 13.9 13.4 14.3 9.3 0.3 14.2-6.2 14-14.3-0.2-8.4-6.3-13.8-14-13.4z"/>
									<path id="&lt;Compound Path&gt;" class="s15" d="m474.5 287.7c-7.4 0.3-12.5 5.2-12.9 12.9-0.3 5.6 3.4 13.2 12.9 13.6 8.8 0.3 13.5-5.9 13.3-13.6-0.1-8.1-6.1-13.2-13.3-12.9z"/>
									<path id="&lt;Path&gt;" class="s16" d="m478.6 294.9c-0.1-1.7-0.4-3.3-1-4.6-1-0.3-2-0.4-3.1-0.3-6.1 0.2-10.3 4.2-10.7 10.6 0 1.7 0.3 3.5 1.1 5.2q1.2 0.3 2.6 0.4c7.3 0.2 11.2-4.9 11.1-11.3z"/>
								</g>
								<g id="&lt;Group&gt;">
									<path id="&lt;Compound Path&gt;" class="s10" d="m525.8 289c-7.7 0.3-13 5.4-13.4 13.4-0.3 5.9 3.5 13.9 13.4 14.3 9.3 0.3 14.1-6.2 14-14.3-0.2-8.4-6.4-13.8-14-13.4z"/>
									<path id="&lt;Compound Path&gt;" class="s15" d="m523.9 287.7c-7.4 0.3-12.5 5.2-12.9 12.9-0.3 5.6 3.4 13.2 12.9 13.6 8.8 0.3 13.5-5.9 13.3-13.6-0.2-8.1-6.1-13.2-13.3-12.9z"/>
									<path id="&lt;Path&gt;" class="s16" d="m527.9 294.9c0-1.7-0.4-3.3-0.9-4.6-1-0.3-2-0.4-3.1-0.3-6.1 0.2-10.4 4.2-10.7 10.6-0.1 1.7 0.3 3.5 1.1 5.2q1.2 0.3 2.6 0.4c7.3 0.2 11.2-4.9 11-11.3z"/>
								</g>
								<g id="&lt;Group&gt;">
									<path id="&lt;Compound Path&gt;" class="s10" d="m575.5 288.7c-7.6 0.3-13 5.4-13.4 13.4-0.3 5.9 3.5 13.9 13.4 14.3 9.3 0.3 14.2-6.2 14-14.3-0.2-8.4-6.4-13.8-14-13.4z"/>
									<path id="&lt;Compound Path&gt;" class="s15" d="m573.2 287.7c-7.3 0.3-12.5 5.2-12.8 12.9-0.3 5.6 3.3 13.2 12.8 13.6 8.9 0.3 13.5-5.9 13.4-13.6-0.2-8.1-6.1-13.2-13.4-12.9z"/>
									<path id="&lt;Path&gt;" class="s16" d="m577.3 294.9c0-1.7-0.4-3.3-1-4.6-0.9-0.3-2-0.4-3-0.3-6.1 0.2-10.4 4.2-10.7 10.6-0.1 1.7 0.3 3.5 1 5.2q1.2 0.3 2.6 0.4c7.4 0.2 11.2-4.9 11.1-11.3z"/>
								</g>
								<g id="&lt;Group&gt;">
									<path id="&lt;Compound Path&gt;" class="s10" d="m625.3 288.7c-7.7 0.3-13.1 5.4-13.5 13.4-0.3 5.9 3.5 13.9 13.5 14.3 9.2 0.3 14.1-6.2 13.9-14.3-0.2-8.4-6.3-13.8-13.9-13.4z"/>
									<path id="&lt;Compound Path&gt;" class="s15" d="m622.6 287.7c-7.3 0.3-12.5 5.2-12.9 12.9-0.2 5.6 3.4 13.2 12.9 13.6 8.8 0.3 13.5-5.9 13.4-13.6-0.2-8.1-6.1-13.2-13.4-12.9z"/>
									<path id="&lt;Path&gt;" class="s16" d="m626.7 294.9c0-1.7-0.4-3.3-1-4.6-1-0.3-2-0.4-3.1-0.3-6 0.2-10.3 4.2-10.6 10.6-0.1 1.7 0.2 3.5 1 5.2q1.2 0.3 2.6 0.4c7.3 0.2 11.2-4.9 11.1-11.3z"/>
								</g>
							</g>
							<g id="&lt;Group&gt;">
								<g id="&lt;Group&gt;">
									<path id="&lt;Compound Path&gt;" class="s10" d="m445.6 331.9c-7.6 0.3-13 5.4-13.4 13.4-0.3 5.9 3.5 13.9 13.4 14.3 9.3 0.3 14.2-6.2 14-14.3-0.2-8.4-6.3-13.8-14-13.4z"/>
									<path id="&lt;Compound Path&gt;" class="s15" d="m444.1 330.8c-7.3 0.4-12.5 5.2-12.8 12.9-0.3 5.7 3.3 13.3 12.8 13.6 8.9 0.3 13.5-5.9 13.4-13.6-0.2-8-6.1-13.2-13.4-12.9z"/>
									<path id="&lt;Path&gt;" class="s16" d="m448.2 338c0-1.7-0.4-3.2-1-4.6-1-0.2-2-0.3-3-0.3-6.1 0.3-10.4 4.3-10.7 10.7-0.1 1.6 0.3 3.5 1 5.2q1.2 0.3 2.6 0.3c7.4 0.3 11.2-4.9 11.1-11.3z"/>
								</g>
								<g id="&lt;Group&gt;">
									<path id="&lt;Compound Path&gt;" class="s10" d="m605.7 331.9c-7.7 0.3-13.1 5.4-13.5 13.4-0.3 5.9 3.6 13.9 13.5 14.3 9.2 0.3 14.1-6.2 13.9-14.3-0.1-8.4-6.3-13.8-13.9-13.4z"/>
									<path id="&lt;Compound Path&gt;" class="s15" d="m603.6 330.8c-7.4 0.4-12.5 5.2-12.9 12.9-0.3 5.7 3.4 13.3 12.9 13.6 8.8 0.3 13.5-5.9 13.3-13.6-0.1-8-6-13.2-13.3-12.9z"/>
									<path id="&lt;Path&gt;" class="s16" d="m607.7 338c-0.1-1.7-0.4-3.2-1-4.6-1-0.2-2-0.3-3.1-0.3-6.1 0.3-10.3 4.3-10.7 10.7 0 1.6 0.3 3.5 1.1 5.2q1.2 0.3 2.6 0.3c7.3 0.3 11.2-4.9 11.1-11.3z"/>
								</g>
							</g>
							<g id="&lt;Group&gt;">
								<path id="&lt;Compound Path&gt;" class="s13" d="m444 470c-11.5 0.5-19.6 8-20.2 20.1-0.4 8.9 5.3 20.8 20.2 21.3 13.8 0.5 21.2-9.2 20.9-21.3-0.2-12.6-9.5-20.7-20.9-20.1z"/>
								<path id="&lt;Path&gt;" class="s17" d="m450.8 481.6c-0.1-3.3-0.9-6.1-2.2-8.6-1.5-0.3-3-0.5-4.6-0.4-10 0.5-17 7.1-17.5 17.6-0.2 3 0.5 6.4 2.1 9.4 1.2 0.3 2.5 0.5 3.9 0.6 12.1 0.4 18.5-8.1 18.3-18.6z"/>
								<g id="&lt;Group&gt;">
									<path id="&lt;Compound Path&gt;" class="s14" d="m444.3 474.9c-1.7 0.1-2.9 1.2-3 3-0.1 1.3 0.8 3.1 3 3.2 2.1 0.1 3.2-1.4 3.1-3.2 0-1.9-1.4-3.1-3.1-3z"/>
									<path id="&lt;Compound Path&gt;" class="s14" d="m444.3 500.3c-1.7 0.1-2.9 1.2-3 3-0.1 1.3 0.8 3.1 3 3.2 2.1 0.1 3.2-1.4 3.1-3.2 0-1.9-1.4-3.1-3.1-3z"/>
								</g>
								<g id="&lt;Group&gt;">
									<path id="&lt;Compound Path&gt;" class="s14" d="m455.5 479.5c-1.3-1.2-2.9-1.2-4.3 0-0.9 0.9-1.6 2.7-0.1 4.4 1.4 1.5 3.2 1.2 4.5-0.1 1.3-1.3 1.1-3.2-0.1-4.3z"/>
									<path id="&lt;Compound Path&gt;" class="s14" d="m437.5 497.5c-1.2-1.2-2.9-1.3-4.2 0-1 0.8-1.7 2.7-0.2 4.3 1.5 1.5 3.3 1.3 4.5 0 1.3-1.4 1.2-3.2-0.1-4.3z"/>
								</g>
								<g id="&lt;Group&gt;">
									<path id="&lt;Compound Path&gt;" class="s14" d="m460.2 490.6c-0.1-1.7-1.3-2.9-3.1-3-1.3 0-3 0.8-3.1 3-0.1 2.1 1.4 3.2 3.1 3.2 1.9-0.1 3.1-1.5 3.1-3.2z"/>
									<path id="&lt;Compound Path&gt;" class="s14" d="m434.7 490.6c0-1.7-1.2-2.9-3-3-1.3 0-3.1 0.8-3.1 3-0.1 2.1 1.3 3.2 3.1 3.2 1.9-0.1 3.1-1.5 3-3.2z"/>
								</g>
								<g id="&lt;Group&gt;">
									<path id="&lt;Compound Path&gt;" class="s14" d="m455.6 501.8c1.1-1.2 1.2-2.9 0-4.2-0.9-1-2.8-1.7-4.4-0.1-1.5 1.4-1.3 3.2 0 4.4 1.4 1.3 3.2 1.2 4.4-0.1z"/>
									<path id="&lt;Compound Path&gt;" class="s14" d="m437.6 483.9c1.2-1.3 1.2-3 0-4.3-0.9-1-2.8-1.6-4.4-0.1-1.5 1.4-1.2 3.2 0.1 4.4 1.3 1.3 3.2 1.2 4.3 0z"/>
								</g>
							</g>
							<path id="&lt;Path&gt;" class="s6" d="m418.6 158.2h217.4v-7h-223.8v113.7h6.4z"/>
							<path id="&lt;Path&gt;" class="s5" d="m419.2 261.8h1.8c16-4.4 32.4-9.7 49.1-15.7 64.2-23.4 118.5-53.9 153.1-83.8v-4.2h-204z"/>
							<g id="&lt;Group&gt;">
								<path id="&lt;Path&gt;" class="s13" d="m388.6 326.1v163.8c10.7-1 19.3-37.3 19.3-81.9 0-44.6-8.6-80.8-19.3-81.9z"/>
								<path id="&lt;Path&gt;" class="s13" d="m659.6 326.1v163.8c-10.7-1-19.3-37.3-19.3-81.9 0-44.6 8.6-80.8 19.3-81.9z"/>
							</g>
							<g id="&lt;Group&gt;">
								<g id="&lt;Group&gt;">
									<path id="&lt;Path&gt;" class="s18" d="m458.5 186.6h-24.3c-1.7 0-3.1-1.4-3.1-3.1 0-1.7 1.4-3 3.1-3h24.3c1.7 0 3.1 1.3 3.1 3 0 1.7-1.4 3.1-3.1 3.1z"/>
									<path id="&lt;Path&gt;" class="s18" d="m458.5 211.1h-24.3c-1.7 0-3.1-1.4-3.1-3 0-1.7 1.4-3.1 3.1-3.1h24.3c1.7 0 3.1 1.4 3.1 3.1 0 1.6-1.4 3-3.1 3z"/>
									<path id="&lt;Path&gt;" class="s18" d="m458.5 235.7h-24.3c-1.7 0-3.1-1.4-3.1-3.1 0-1.7 1.4-3.1 3.1-3.1h24.3c1.7 0 3.1 1.4 3.1 3.1 0 1.7-1.4 3.1-3.1 3.1z"/>
									<path id="&lt;Path&gt;" class="s18" d="m458.5 210.9c-1.7 0-3.1-1.3-3.1-3v-24.4c0-1.7 1.4-3 3.1-3 1.7 0 3.1 1.3 3.1 3v24.4c0 1.7-1.4 3-3.1 3z"/>
									<path id="&lt;Path&gt;" class="s18" d="m434.1 235.5c-1.7 0-3.1-1.3-3.1-3v-24.4c0-1.7 1.4-3 3.1-3 1.6 0 3 1.3 3 3v24.4c0 1.7-1.4 3-3 3z"/>
								</g>
								<g id="&lt;Group&gt;">
									<path id="&lt;Path&gt;" class="s18" d="m576.7 186.6h-24.4c-1.6 0-3-1.4-3-3.1 0-1.7 1.4-3 3-3h24.4c1.7 0 3.1 1.3 3.1 3 0 1.7-1.4 3.1-3.1 3.1z"/>
									<path id="&lt;Path&gt;" class="s18" d="m576.7 211.1h-24.4c-1.6 0-3-1.4-3-3 0-1.7 1.4-3.1 3-3.1h24.4c1.7 0 3.1 1.4 3.1 3.1 0 1.6-1.4 3-3.1 3z"/>
									<path id="&lt;Path&gt;" class="s18" d="m576.7 235.7h-24.4c-1.6 0-3-1.4-3-3.1 0-1.7 1.4-3.1 3-3.1h24.4c1.7 0 3.1 1.4 3.1 3.1 0 1.7-1.4 3.1-3.1 3.1z"/>
									<path id="&lt;Path&gt;" class="s18" d="m576.7 210.9c-1.7 0-3.1-1.3-3.1-3v-24.4c0-1.7 1.4-3 3.1-3 1.7 0 3.1 1.3 3.1 3v24.4c0 1.7-1.4 3-3.1 3z"/>
									<path id="&lt;Path&gt;" class="s18" d="m552.2 235.5c-1.7 0-3-1.3-3-3v-24.4c0-1.7 1.3-3 3-3 1.7 0 3.1 1.3 3.1 3v24.4c0 1.7-1.4 3-3.1 3z"/>
								</g>
								<g id="&lt;Group&gt;">
									<path id="&lt;Path&gt;" class="s18" d="m614.1 186.6h-24.3c-1.7 0-3.1-1.4-3.1-3.1 0-1.7 1.4-3 3.1-3h24.3c1.7 0 3.1 1.3 3.1 3 0 1.7-1.4 3.1-3.1 3.1z"/>
									<path id="&lt;Path&gt;" class="s18" d="m614.1 235.7h-24.3c-1.7 0-3.1-1.4-3.1-3.1 0-1.7 1.4-3.1 3.1-3.1h24.3c1.7 0 3.1 1.4 3.1 3.1 0 1.7-1.4 3.1-3.1 3.1z"/>
									<path id="&lt;Path&gt;" class="s18" d="m614.1 235.7c-1.7 0-3.1-1.4-3.1-3.1v-49.1c0-1.7 1.4-3 3.1-3 1.7 0 3.1 1.3 3.1 3v49.1c0 1.7-1.4 3.1-3.1 3.1z"/>
									<path id="&lt;Path&gt;" class="s18" d="m589.7 235.5c-1.7 0-3.1-1.3-3.1-3v-49c0-1.7 1.4-3 3.1-3 1.7 0 3 1.3 3 3v49c0 1.7-1.3 3-3 3z"/>
								</g>
								<g id="&lt;Group&gt;">
									<path id="&lt;Path&gt;" class="s18" d="m531.5 211.1h-24.3c-1.7 0-3.1-1.4-3.1-3 0-1.7 1.4-3.1 3.1-3.1h24.3c1.7 0 3.1 1.4 3.1 3.1 0 1.6-1.4 3-3.1 3z"/>
									<path id="&lt;Path&gt;" class="s18" d="m531.5 210.9c-1.7 0-3-1.3-3-3v-24.4c0-1.7 1.3-3 3-3 1.7 0 3.1 1.3 3.1 3v24.4c0 1.7-1.4 3-3.1 3z"/>
									<path id="&lt;Path&gt;" class="s18" d="m507.1 210.9c-1.7 0-3.1-1.3-3.1-3v-24.4c0-1.7 1.4-3 3.1-3 1.7 0 3.1 1.3 3.1 3v24.4c0 1.7-1.4 3-3.1 3z"/>
									<path id="&lt;Path&gt;" class="s18" d="m531.5 235.5c-1.7 0-3-1.3-3-3v-24.4c0-1.7 1.3-3 3-3 1.7 0 3.1 1.3 3.1 3v24.4c0 1.7-1.4 3-3.1 3z"/>
								</g>
								<g id="&lt;Group&gt;">
									<path id="&lt;Path&gt;" class="s18" d="m495 211.1h-24.3c-1.7 0-3.1-1.4-3.1-3 0-1.7 1.4-3.1 3.1-3.1h24.3c1.7 0 3.1 1.4 3.1 3.1 0 1.6-1.4 3-3.1 3z"/>
									<path id="&lt;Path&gt;" class="s18" d="m495 210.9c-1.7 0-3-1.3-3-3v-24.4c0-1.7 1.3-3 3-3 1.7 0 3.1 1.3 3.1 3v24.4c0 1.7-1.4 3-3.1 3z"/>
									<path id="&lt;Path&gt;" class="s18" d="m470.6 210.9c-1.7 0-3.1-1.3-3.1-3v-24.4c0-1.7 1.4-3 3.1-3 1.7 0 3 1.3 3 3v24.4c0 1.7-1.3 3-3 3z"/>
									<path id="&lt;Path&gt;" class="s18" d="m495 235.5c-1.7 0-3-1.3-3-3v-24.4c0-1.7 1.3-3 3-3 1.7 0 3.1 1.3 3.1 3v24.4c0 1.7-1.4 3-3.1 3z"/>
								</g>
								<path id="&lt;Path&gt;" class="s18" d="m542 235.5c-1.7 0-3.1-1.3-3.1-3 0-1.7 1.4-3.1 3.1-3.1 1.7 0 3.1 1.3 3.1 3v0.1c0 1.7-1.4 3-3.1 3z"/>
							</g>
							<g id="&lt;Group&gt;">
								<g id="&lt;Group&gt;">
									<path id="&lt;Path&gt;" class="s19" d="m521.9 416.3c-0.8 0-1.5-0.3-2.2-0.7-1.8-1.2-2.2-3.6-1-5.3 12.7-18.6 22.4-34.4 28.8-46.9 1-1.9 3.3-2.7 5.2-1.7 1.9 1 2.6 3.3 1.7 5.2-6.6 12.8-16.5 28.9-29.4 47.7-0.7 1.1-1.9 1.7-3.1 1.7z"/>
									<path id="&lt;Path&gt;" class="s19" d="m497.9 449.5c-0.8 0-1.7-0.2-2.4-0.8-1.6-1.3-2-3.7-0.7-5.4 0 0 6.2-8 14.5-19.7 1.3-1.7 3.7-2.1 5.4-0.9 1.7 1.3 2.1 3.7 0.9 5.4-8.5 11.9-14.7 19.9-14.7 19.9-0.7 1-1.9 1.5-3 1.5z"/>
								</g>
								<path id="&lt;Path&gt;" class="s19" d="m468.6 403.1q-0.2 0-0.5 0c-2.1-0.3-3.6-2.2-3.3-4.3 0-0.4 5.8-44.1 47-52.9 2-0.5 4.1 0.9 4.5 3 0.5 2-0.9 4.1-2.9 4.5-35.8 7.6-40.8 44.7-41 46.3-0.2 2-1.9 3.4-3.8 3.4z"/>
							</g>
							<g id="&lt;Group&gt;">
								<path id="&lt;Path&gt;" class="s19" d="m515.1 97.8h-113.1c-2.1 0-3.9-1.7-3.9-3.9 0-2.1 1.8-3.8 3.9-3.8h113.1c2.2 0 3.9 1.7 3.9 3.8 0 2.2-1.7 3.9-3.9 3.9z"/>
								<path id="&lt;Path&gt;" class="s19" d="m566.9 97.8h-31.3c-2.1 0-3.8-1.7-3.8-3.9 0-2.1 1.7-3.8 3.8-3.8h31.3c2.1 0 3.9 1.7 3.9 3.8 0 2.2-1.8 3.9-3.9 3.9z"/>
							</g>
							<g id="&lt;Group&gt;">
								<path id="&lt;Path&gt;" class="s14" d="m639.2 584.5q-1.9 0-3.5-0.3c-1-0.1-1.8-1.1-1.6-2.1 0.1-1.1 1.1-1.8 2.2-1.6 4 0.6 9.8 0 14-3.3 2.7-2.1 4.2-5.2 4.5-9.1 0.1-1 1-1.9 2.1-1.7 1 0.1 1.8 1 1.7 2-0.3 4.9-2.4 9-6 11.8-3.9 3.2-9 4.3-13.4 4.3z"/>
								<path id="&lt;Path&gt;" class="s14" d="m656.7 109.1c-1 0-1.8-0.7-1.9-1.7-0.3-3.9-1.8-7-4.5-9.1-4.2-3.3-10-3.9-14-3.2-1.1 0.1-2.1-0.6-2.2-1.7-0.2-1 0.6-2 1.6-2.1 4.9-0.8 11.9-0.1 16.9 4 3.6 2.8 5.7 6.9 6 11.8 0.1 1-0.7 1.9-1.7 2q-0.1 0-0.2 0z"/>
								<path id="&lt;Path&gt;" class="s14" d="m406 584.4c-4 0-8.1-1.6-11.3-4.4-3.5-3.1-5.6-7.3-5.7-11.7 0-1 0.8-1.9 1.9-1.9q0 0 0 0c1.1 0 1.9 0.8 1.9 1.9 0.1 3.2 1.7 6.5 4.4 8.8 3 2.6 6.7 3.8 10.3 3.3 1-0.1 2 0.7 2.1 1.7 0.2 1.1-0.6 2-1.6 2.2q-1 0.1-2 0.1z"/>
								<path id="&lt;Path&gt;" class="s14" d="m572.7 584.3h-96.6c-1 0-1.9-0.9-1.9-1.9 0-1.1 0.9-2 1.9-2h96.6c1 0 1.9 0.9 1.9 2 0 1-0.9 1.9-1.9 1.9z"/>
							</g>
							<g id="&lt;Group&gt;">
								<path id="&lt;Path&gt;" class="s11" d="m534.3 129.1h-119.5c-2.2 0-3.9-1.7-3.9-3.8 0-2.2 1.7-3.9 3.9-3.9h119.5c2.1 0 3.9 1.7 3.9 3.9 0 2.1-1.8 3.8-3.9 3.8z"/>
							</g>
						</g>
					</g>
					<g id="&lt;Group&gt;">
						<path id="&lt;Compound Path&gt;" fill-rule="evenodd" class="s14" d="m157.1 569.5c-21.5 0-44.1-9.3-56.9-32.4-14.3-25.9-10.7-47-5.2-60.2 7.5-17.9 23.4-32.2 41.6-37.3 16.9-4.7 43.7-5 63.7 9.6 15.9 11.6 24.8 30.7 25.7 55.3 1 29.4-18.1 53.8-48.8 62.3-6.4 1.7-13.2 2.7-20.1 2.7zm-50.1-36.1c14.9 26.8 44.9 32.3 68.1 25.9 20.6-5.7 44.2-23.4 43.1-54.5-0.8-22.5-8.3-39-22.4-49.3-17.8-13-41.9-12.7-57.1-8.4-15.9 4.5-29.9 17.1-36.5 32.8-4.9 11.6-8 30.3 4.8 53.5z"/>
						<path id="&lt;Path&gt;" class="s14" d="m154.1 592c-4.5 0-9.3-0.4-14.5-1.3-42.4-7.2-53.2-47.6-53.6-49.3-0.6-2.1 0.7-4.2 2.8-4.7 2-0.6 4.1 0.7 4.7 2.8 0.4 1.5 10 37.2 47.4 43.6 33.3 5.7 51.6-11.7 51.8-11.9 1.5-1.5 4-1.4 5.5 0.1 1.5 1.5 1.4 4-0.1 5.5-0.8 0.7-16.1 15.2-44 15.2z"/>
						<path id="&lt;Path&gt;" class="s14" d="m168.3 580.2c-21.1 0-48.9-6.3-65.4-35.3-34.2-60.1 12.8-104.2 13.3-104.6 1.5-1.4 4-1.3 5.4 0.2 1.5 1.6 1.4 4.1-0.2 5.5-1.8 1.7-42.9 40.5-11.7 95.1 26.1 45.8 84.4 28.1 85 27.9 2-0.6 4.2 0.5 4.8 2.6 0.7 2-0.5 4.2-2.5 4.8-0.3 0.1-12.6 3.8-28.7 3.8z"/>
						<path id="&lt;Path&gt;" class="s14" d="m159.3 584.9c-21.1 0-48.8-6.3-65.4-34.9-34.3-59.3 12.8-102.9 13.3-103.3 1.6-1.5 4-1.4 5.5 0.2 1.4 1.6 1.3 4.1-0.3 5.5-1.8 1.6-42.9 39.9-11.8 93.8 26.1 45.1 82.7 28.3 85.1 27.5 2-0.6 4.2 0.5 4.8 2.6 0.7 2-0.5 4.2-2.5 4.8-0.3 0.1-12.6 3.8-28.7 3.8z"/>
						<path id="&lt;Path&gt;" class="s14" d="m177.3 585.6c-1.9 0-3.6-1.4-3.8-3.4-0.3-2.1 1.2-4 3.4-4.3 2.5-0.3 62.9-8.3 58.1-75.5-4.8-67.2-55.8-67-58-67-2.2 0.1-3.9-1.6-4-3.8 0-2.1 1.7-3.9 3.8-3.9 0.6-0.1 60.6-0.5 65.9 74.2 5.4 74.7-64.2 83.6-64.9 83.7q-0.3 0-0.5 0z"/>
						<path id="&lt;Path&gt;" class="s14" d="m83.4 491.8c-2 0-3.7-1.6-3.8-3.6-0.1-0.5-2.2-44.7 39.8-62.8 41.8-18 71.3 8 72.6 9.1 1.5 1.4 1.7 3.9 0.2 5.4-1.4 1.6-3.8 1.8-5.4 0.3-1.1-0.9-27.2-23.7-64.3-7.7-37 15.9-35.3 53.6-35.2 55.2 0.1 2.1-1.5 4-3.6 4.1q-0.2 0-0.3 0z"/>
						<path id="&lt;Path&gt;" class="s14" d="m163.6 581c-14.8 0-25.4-4.6-25.6-4.7-2-0.9-2.8-3.2-2-5.2 0.9-1.9 3.2-2.8 5.2-1.9 1.4 0.7 36.7 15.9 66.6-15.6 30.2-31.8 11.8-74.3 11.6-74.7-0.9-2 0-4.3 2-5.1 1.9-0.9 4.2 0 5.1 1.9 0.2 0.5 20.6 47.8-13.1 83.2-16.7 17.6-35.3 22.1-49.8 22.1z"/>
						<path id="&lt;Path&gt;" class="s13" d="m221.1 526.6q-0.4 0-0.7-0.1c-2.1-0.4-3.5-2.4-3.2-4.5 3-17.4 0.8-36.2-6.5-56-0.7-2 0.3-4.2 2.3-5 2-0.7 4.2 0.3 5 2.3 7.7 21.1 10.1 41.2 6.9 60-0.3 1.9-2 3.3-3.8 3.3z"/>
						<path id="&lt;Path&gt;" class="s14" d="m229.9 487.1c-1.5 0-3-0.9-3.6-2.4-0.2-0.3-17.1-37.8-62.4-44.1-43.1-6-71.4 33-71.7 33.3-1.2 1.8-3.6 2.2-5.4 1-1.7-1.3-2.1-3.7-0.9-5.4 1.3-1.8 31.2-43.2 79-36.6 49.8 7 67.8 47 68.5 48.7 0.9 2 0 4.3-2 5.1q-0.8 0.4-1.5 0.4z"/>
						<path id="&lt;Compound Path&gt;" fill-rule="evenodd" class="s13" d="m155.8 586.5c-25.8 0-52.8-11.2-68-39-16.5-30.5-12.2-55.3-5.8-70.8 9.1-21.5 28.3-38.7 50.3-45 20.7-5.9 51.1-6.1 74.6 11 19 13.9 29.6 36.9 30.7 66.6 1.2 35-21.6 64.1-58.1 74-7.5 2.1-15.5 3.2-23.7 3.2zm2.7-150.6c-8.9 0-17.2 1.3-24 3.2-19.8 5.7-37.2 21.3-45.3 40.6-5.8 13.9-9.6 36.3 5.4 64.1 17.9 32.8 54.5 39.8 82.8 32 25-6.8 53.7-28.2 52.4-66.2-0.9-27.7-10.2-48-27.5-60.6-13.2-9.6-29.2-13.1-43.8-13.1z"/>
						<path id="&lt;Path&gt;" class="s4" d="m172.3 594.5l-2.5-4.5c0 0 1.3-0.7 3.5-2.2l2.9 4.3c-2.4 1.6-3.8 2.4-3.9 2.4z"/>
						<path id="&lt;Path&gt;" class="s14" d="m223.3 540.3c-5 10.1-12.7 18-21.2 24-5.6 7.3-11.6 13-16.6 17.1 7.6-2.6 14.5-6.1 20.7-10.4 6.6-8.2 12.9-18.4 17.1-30.7z"/>
						<path id="&lt;Path&gt;" class="s13" d="m175.3 594.2l-3.7-6.8c0.3-0.2 38.2-21.6 45.6-65.4l7.7 1.3c-8.1 47.5-47.9 70-49.6 70.9z"/>
					</g>
					<g id="&lt;Group&gt;">
						<path id="&lt;Path&gt;" class="s20" d="m655.9 293.2c2.7-1.9 8.4-4.6 12.3-2.8l-2.6 3.7z"/>
						<path id="&lt;Path&gt;" class="s21" d="m656.9 322.5c-7.8 9.9-29.9 26.8-32.7 36.7-1.7 6.3-0.2 10.7 2.4 12.7 5.7 4.2 27.6 3.1 52.7-27 7.9-9.5-22.4-22.4-22.4-22.4z"/>
						<path id="&lt;Path&gt;" class="s20" d="m662.8 345.1c0.2-6.4 1.1-12.6 2.4-18.5-4.6-2.5-8.3-4.1-8.3-4.1-0.8 0.9-1.6 1.9-2.6 2.9q-0.7 3.4-1.1 7-0.6 4.9-0.7 10c-0.3 8.9 0 17.4 0.8 25.2 3.1-1.7 6.5-4 10-6.8-0.6-5.1-0.8-10.4-0.5-15.7z"/>
						<path id="&lt;Path&gt;" class="s1" d="m686.1 284.2c0 0-9.1 1.6-16.8 7.7-11.8 9.3-20.6 24.8-20.6 24.8 0 0 8.8 18.7 32.1 29.9l10.2-12.3z"/>
						<path id="&lt;Path&gt;" class="s9" d="m663.6 335.2c2.8-20.4 11.3-38.1 22.7-48.9l-0.2-2.1c0 0-9.1 1.6-16.8 7.7q-1 0.8-1.9 1.6c-6 8.3-10.6 19.4-13.1 31.8 2.3 3 5.4 6.4 9.3 9.9z"/>
						<path id="&lt;Path&gt;" class="s9" d="m680.8 347.3q-0.2 0-0.3 0c-23.3-11.3-32.3-30.1-32.4-30.3-0.2-0.3 0-0.7 0.3-0.9 0.4-0.2 0.8 0 1 0.3 0.1 0.2 8.8 18.3 31.2 29.3l9.9-11.9c0.2-0.3 0.7-0.3 1-0.1 0.3 0.3 0.3 0.7 0.1 1l-10.3 12.4q-0.2 0.2-0.5 0.2z"/>
						<g id="&lt;Group&gt;">
							<path id="&lt;Compound Path&gt;" fill-rule="evenodd" class="s7" d="m694.6 414.9c-8 0-15.9-3.8-22.9-11.1-13.8-14.4-22.1-40-21.1-65.1 1.5-37.4 23.8-67.9 49.7-67.9 7.9 0 15.4 3.4 21.6 9.7 12.4 12.3 19.7 35.7 19.7 62.4-0.1 42.4-19.4 72-47 72zm5.7-141.1c-21.2 0-45.1 24.9-46.7 65-1 24.4 7 49.1 20.2 62.9 6.5 6.7 13.7 10.3 20.8 10.3 25.8 0 43.9-28.4 44-69.1 0.1-26-6.9-48.5-18.8-60.3-5.8-5.9-12.3-8.8-19.5-8.8z"/>
							<path id="&lt;Compound Path&gt;" fill-rule="evenodd" class="s7" d="m692.2 422.1c-9 0-17.7-4.1-25.3-11.9-13.8-14.5-21.8-39.5-20.7-65.2 1.6-40.2 25-73 52-73 8.7 0 16.9 3.7 23.8 10.6 13 13 20.7 37.1 20.6 64.5 0 44.2-20.8 75-50.4 75zm6-147.1c-25.5 0-47.5 31.5-49 70.1-1.1 25 6.6 49.1 19.9 63 7 7.2 14.9 11.1 23.1 11.1 27.9 0 47.4-29.7 47.5-72.1 0-26.6-7.4-50-19.8-62.4-6.4-6.4-13.7-9.7-21.7-9.7z"/>
							<path id="&lt;Compound Path&gt;" fill-rule="evenodd" class="s7" d="m699 422.1c-9 0-17.7-4.1-25.3-11.9-13.8-14.5-21.8-39.5-20.7-65.2 1.6-40.2 25-73 52-73 8.7 0 16.9 3.7 23.8 10.6 13 13 20.7 37.1 20.7 64.5-0.1 44.2-20.9 75-50.5 75zm6-147.1c-25.4 0-47.4 31.5-49 70.1-1.1 25 6.6 49.1 19.9 63 7 7.2 14.9 11.1 23.1 11.1 27.9 0 47.4-29.7 47.5-72.1 0-26.6-7.4-50-19.8-62.4-6.4-6.4-13.7-9.7-21.7-9.7z"/>
							<path id="&lt;Compound Path&gt;" fill-rule="evenodd" class="s7" d="m692.5 416.1c-8.2 0-16.3-4-23.5-11.5-13.7-14.2-21.6-38-20.6-62.2 1.7-41.3 27.1-66.9 49.7-66.9 7.9 0 15.4 3.3 21.6 9.6 12 12.1 18.9 34 18.9 60.2-0.1 41.7-19.1 70.8-46.1 70.8zm5.6-137.6c-21.3 0-45.2 25.7-46.7 64-1 23.4 6.6 46.4 19.7 60 6.7 7 14.1 10.6 21.4 10.6 25.3 0 43-27.9 43.1-67.8 0.1-25-6.7-46.8-18-58.1-5.8-5.8-12.3-8.7-19.5-8.7z"/>
							<path id="&lt;Compound Path&gt;" fill-rule="evenodd" class="s7" d="m694.9 416.6c-8.4 0-16.7-4-24-11.6-13.6-14.2-21.5-38.5-20.5-63.5 1.5-37.5 24-68.1 50.2-68.1 8.4 0 16.3 3.5 22.9 10 12.3 12.3 19.3 34.5 19.2 60.7 0 42.7-19.7 72.5-47.8 72.5zm5.7-140.2c-24.6 0-45.8 29.3-47.2 65.3-1 24.1 6.5 47.6 19.7 61.3 6.6 6.9 14.2 10.6 21.8 10.6 26.4 0 44.8-28.6 44.9-69.5 0-25.5-6.7-46.8-18.4-58.6-6.1-6-13.1-9.1-20.8-9.1z"/>
							<path id="&lt;Compound Path&gt;" fill-rule="evenodd" class="s7" d="m684.7 407.9c-7.6 0-15-3.4-21.3-9.8-11.7-12.1-18.3-32.9-17.7-55.7 0.9-36.1 20-65.5 42.4-65.5 22.2 0 38.6 27.5 39.1 65.5 0.3 23.3-6.1 43.3-17.5 54.9-7 7-15.4 10.6-25 10.6zm3.4-128.1c-20.9 0-38.6 28.1-39.5 62.6-0.6 22.1 5.7 42.1 16.9 53.6 5.7 5.9 12.4 9 19.2 9 8.8 0 16.5-3.3 22.9-9.8 10.9-11 16.9-30.2 16.6-52.8-0.4-36.3-15.6-62.6-36.1-62.6z"/>
							<path id="&lt;Compound Path&gt;" fill-rule="evenodd" class="s7" d="m691 411.8c-7.4 0-14.6-3.4-20.7-9.6-12-12.3-18.8-34-18.1-57.9 0.9-37.2 19.8-67.4 42.2-67.4 22 0 38.3 28.3 38.8 67.4 0.3 24.5-6.2 45.3-17.9 57-6.8 7-15 10.5-24.3 10.5zm3.4-132c-20.8 0-38.4 29-39.3 64.6-0.6 22.8 6.1 44.1 17.3 55.7 5.6 5.7 12 8.7 18.6 8.7 8.5 0 16-3.2 22.2-9.6 11.1-11.2 17.3-31.2 17-54.9-0.4-37.3-15.5-64.5-35.8-64.5z"/>
							<path id="&lt;Path&gt;" class="s7" d="m669 421.5q-0.5 0-0.9-0.3c-15.3-12.3-23.4-41-22.4-78.8 0.9-36.1 20-65.5 42.4-65.5 0.8 0 1.5 0.6 1.5 1.4 0 0.9-0.7 1.5-1.5 1.5-20.9 0-38.6 28.1-39.5 62.6-1 36.9 6.8 64.8 21.3 76.5 0.7 0.5 0.8 1.4 0.3 2.1-0.3 0.3-0.7 0.5-1.2 0.5z"/>
						</g>
						<path id="&lt;Path&gt;" class="s1" d="m693.5 281.1l4.5-1.6 41.2-0.9 5.4 1.6 2.5 4-11.4 44.6-49.4-4.4-0.2-40.5z"/>
						<path id="&lt;Path&gt;" class="s22" d="m732.3 249.1c0 0-0.6 5.9-0.6 13 0 5.9 2.8 13.5 7.4 16.5 0 0-4.2 16.2-24 16.1-14.3-0.1-17.1-15.2-17.1-15.2 3-1 6.7-4.3 7.7-8.9 1.2-5.2-0.8-7.4-0.8-7.4l15.4-15.1z"/>
						<path id="&lt;Path&gt;" class="s20" d="m705.7 270.6c-0.1 0.7-0.6 2.1-0.6 2.1 1.6 2.9 5.3 8.2 15 10.2 6.5 1.4 13 1.3 17.1 0.2 0 0 1.2-2.1 1.9-4.5-4.7-3-6.5-11-6.8-16.6-0.3-6.7 0-12.9 0-12.9h-0.3l-17.6 4.8-9.5 9.3c0 0 2 2.2 0.8 7.4z"/>
						<path id="&lt;Path&gt;" class="s9" d="m761.3 347.5c0.2-8.6-0.9-31.3-0.9-31.3l-18.7 5.6 2.6 45.9 13.5 2.4z"/>
						<path id="&lt;Path&gt;" class="s7" d="m675.6 599.2c0 0-0.7 9.2-3.6 12.2-3.4 3.7-20.3 4.9-19.4 9.5 0.8 4.2 27.1 4.4 30.8-0.3 3.6-4.6 1.2-12.3 2-20.6z"/>
						<path id="&lt;Path&gt;" class="s7" d="m762.9 599.9c0 0 2 7.5 0 11.2-2.3 4.3-17 5.2-16.1 9.8 0.9 4.2 27.2 1.8 29.5-3.6 2.3-5.3-2.4-10.7-3.8-18.9z"/>
						<path id="&lt;Path&gt;" class="s6" d="m680.5 398.7c-1.8 15.4-15.1 79.8-15.8 107-0.5 21.1 0.4 100.9 0.4 100.9 0 0 14.7 6.1 29.3 0 5-24.7 6.1-84.5 9.3-100.9 3-15.3 19.4-64.8 19.4-64.8l-0.8-43.6z"/>
						<path id="&lt;Path&gt;" class="s6" d="m703.7 398.3l-0.3 28.3 8.9 2.5c0 0 9.1 54.8 12.9 76.6 3.7 21.8 26.5 100.9 26.5 100.9 0 0 15.1 1.8 31.3-6.1 0 0-16.7-81.9-18.5-96.6-1.8-14.7-0.3-61.2-2.2-103.1l-48.2-5.3z"/>
						<path id="&lt;Path&gt;" class="s4" d="m722 487.1c1.2 7.2 2.3 13.7 3.2 18.6 0.7 4.3 2.2 10.9 4.1 18.7q0.1 0.1 0.2 0.1c12-0.2 21.1-3.4 21.1-3.4-3.8-18.3-5.7-36.1-5.7-36.1-9.6-0.1-18.9 1.4-22.9 2.1z"/>
						<path id="&lt;Path&gt;" class="s23" d="m691.7 215.1c0 0-0.3 11.2 2.2 13.9 2.4 2.7 4.7-13.3 4.7-13.3z"/>
						<path id="&lt;Path&gt;" class="s23" d="m748 216.5c-0.5-6.3-3.1-7.5-6-8.4-2.8-0.9-6.6-0.3-8.9 1.3-2.6 1.9-7.7 4.1-8.7 7.1-1 3.1 2 6.9 1.7 10.1-0.3 4.1 0.1 4 0.1 8.1 0.1 3.1 0.4 6.4 2.4 8.7 2.1 2.4 5.9 5.8 8.8 4.5 0 0 4.4-0.4 8.5-12.7 2.3-6.7 2.5-13.3 2.1-18.7z"/>
						<path id="&lt;Path&gt;" class="s24" d="m732.5 240c-7-0.8-1.3-10.2-5.9-19.4-2.3-4.7-5.5-7.4-5.5-7.4l-14.9-1.1c0 0-10.7-2.7-12.5 12.6-0.7 4.6-0.4 10.7-0.5 17.2 0 5.9 1.3 15.7 4.3 22.2 3.2 6.9 14.1 8 21.5 3.7 4.6-2.6 9-7.8 10.9-16.4 4.7 1.4 8-1.6 9.5-5.6 2.4-8.7-4.9-8.8-6.9-5.8z"/>
						<path id="&lt;Path&gt;" class="s25" d="m732.4 243.6c-0.9 2-0.6 4 0.7 4.5 1.3 0.6 3.1-0.5 4-2.4 0.9-1.9 0.6-3.9-0.7-4.5-1.3-0.6-3.1 0.5-4 2.4z"/>
						<g id="&lt;Group&gt;">
							<path id="&lt;Path&gt;" class="s23" d="m701.9 227.3c0.3 1.8-2 1.3-4.8 2.3-2.7 0.9-4.4 2.8-4.8 1.7-0.3-0.8-0.8-2.9 3.3-4.9 3.2-1.6 6-0.9 6.3 0.9z"/>
						</g>
						<g id="&lt;Group&gt;">
							<path id="&lt;Path&gt;" class="s23" d="m718.3 230.4c3.2 1.3 4.8 2.9 5.6 2 0.7-0.9 0.9-2.7-3.8-5.5-2.7-1.7-7.3-2.4-7.6 0.1-0.3 2.5 1.7 1.7 5.8 3.4z"/>
						</g>
						<path id="&lt;Path&gt;" class="s25" d="m707.8 235.7c0 0 0.3 1.3 0.3 3.3-0.1 1-0.2 2.1-0.5 3.3-0.2 0.6-0.4 1.2-0.7 1.8q-0.4 0.9-0.9 1.7c-0.3 0.6-0.7 1.1-1 1.6q-0.4 0.7-0.3 0.9c-0.1-0.2 0.1 0.3 0.4 0.4 0.4 0.2 0.8 0.4 1.1 0.5 1.6 0.5 2.8 0.4 2.8 0.4 0.4 0 0.7 0.3 0.7 0.7 0 0.4-0.2 0.6-0.5 0.7h-0.1c0 0-0.3 0.1-0.9 0.2-0.5 0.1-1.4 0.1-2.4 0-0.6-0.1-1.1-0.3-1.7-0.6-0.6-0.4-1.3-0.6-1.8-2-0.1-1.1 0.4-1.9 0.7-2.4 0.3-0.6 0.7-1.1 1-1.6q0.5-0.7 0.9-1.5c0.3-0.5 0.6-0.9 0.8-1.5 0.4-0.9 0.6-1.9 0.8-2.8 0.2-1.7 0.1-2.9 0.1-2.9 0-0.3 0.3-0.6 0.6-0.6 0.3 0 0.5 0.2 0.6 0.4z"/>
						<g id="&lt;Group&gt;">
							<g id="&lt;Group&gt;">
								<path id="&lt;Path&gt;" class="s26" d="m713.4 237.8c0.1 1.5 1.1 2.6 2.3 2.6 1.2-0.1 2.1-1.3 2-2.7 0-1.4-1-2.6-2.2-2.5-1.2 0-2.1 1.2-2.1 2.6z"/>
								<path id="&lt;Path&gt;" class="s26" d="m721.3 238.9c-0.6-2.1-2.6-4-5.6-4.3-1.7-0.1-3.2 1.9-2.8 3 0 0 1.2-1.4 3-1.2 1.8 0.3 5.4 2.5 5.4 2.5z"/>
							</g>
						</g>
						<g id="&lt;Group&gt;">
							<g id="&lt;Group&gt;">
								<path id="&lt;Path&gt;" class="s26" d="m695.6 237.8c0.1 1.4 1 2.5 2.1 2.4 1.1 0 2-1.1 1.9-2.5 0-1.4-1-2.5-2.1-2.5-1.1 0.1-1.9 1.2-1.9 2.6z"/>
								<path id="&lt;Path&gt;" class="s26" d="m702.5 238.8c-0.2-2-2.3-4.1-4.7-4.1-2-0.1-3.2 2.3-2.9 3.3 0 0 1.1-1.7 3.1-1.5 2.2 0.1 4.5 2.3 4.5 2.3z"/>
							</g>
						</g>
						<g id="&lt;Group&gt;">
							<path id="&lt;Path&gt;" class="s26" d="m702.2 256.7c0 0 7 0.6 16-4.7 0 0-0.2 7.2-5.9 8.8-6.2 1.9-10.1-4.1-10.1-4.1z"/>
							<path id="&lt;Path&gt;" class="s27" d="m705.8 257.6c2.6-0.5 6.9-1.8 11.1-3.8 0 0-0.7 4.3-5.1 5.7-3.6 1.2-6-1.9-6-1.9z"/>
						</g>
						<path id="&lt;Path&gt;" class="s23" d="m726.6 220.6c-1.9-3.5-6.1-5.1-12.9-4.8-8.3 0.4-12.5 2.9-21.2 0.7-5.1-1.3-2.6-5.1-2.6-5.1 0 0-4.4-1-4.4-6.5 0-5.5 4.4-7 6.2-6.6 0 0-1.2-4.5 2.5-6.3 3.9-1.8 6.6 1.7 11 2.3 4.4 0.6 7.8-2.3 14.5-2.3 6.7 0 10 4.8 10 4.8 0 0 6.3-0.8 9.8 3.9 3.6 4.8 2.6 8.4 2.6 8.4z"/>
						<g id="&lt;Group&gt;">
							<path id="&lt;Path&gt;" class="s28" d="m699.2 218c-2.3 0-4.5-0.2-6.9-0.9-0.1 0-2.5-0.5-3.4-2.3q-0.6-1.3 0-3.1c-1.4-0.7-4.3-2.7-4.1-6.9 0.2-4.2 2.4-6.7 6.1-7.2 0-1.4 0.1-4.6 3-6.2 3.7-2.1 8.1 1.3 8.3 1.4 0.3 0.2 0.4 0.7 0.1 1-0.2 0.3-0.6 0.4-0.9 0.1-0.1 0-3.9-2.9-6.8-1.3-2.9 1.6-2.2 5.4-2.2 5.6q0.1 0.3-0.1 0.5-0.2 0.3-0.6 0.3c-3.4 0.1-5.3 2.1-5.5 5.9-0.2 4.4 3.8 5.8 3.9 5.8q0.3 0.1 0.4 0.4 0.1 0.3 0 0.6-0.8 1.5-0.3 2.5c0.6 1.2 2.4 1.6 2.4 1.6 5.2 1.4 9.9 0.8 15.3 0 1.8-0.2 3.7-0.5 5.8-0.7l2.4-0.2c6.1-0.7 9.8-1.1 14.2 1 0.4 0.1 0.5 0.5 0.4 0.9-0.2 0.3-0.6 0.5-1 0.3-4.1-1.9-7.4-1.5-13.5-0.8l-2.4 0.2c-2 0.2-3.9 0.5-5.7 0.7-3.2 0.5-6 0.8-8.9 0.8z"/>
							<path id="&lt;Path&gt;" class="s28" d="m695.6 210.7q-3.1 0-5.1-1.4c-1.8-1.4-2.8-4.2-1.5-6.3 0.2-0.4 0.7-0.5 1-0.2 0.3 0.2 0.4 0.6 0.2 0.9-0.9 1.4-0.1 3.5 1.2 4.4 1.2 1 3.1 1.3 5.3 1.1 0.4 0 0.8 0.3 0.8 0.7 0 0.4-0.3 0.7-0.6 0.7q-0.7 0.1-1.3 0.1z"/>
							<path id="&lt;Path&gt;" class="s28" d="m698.7 214.6c-1.8 0-3.6-0.4-5.2-1.3-0.4-0.2-0.5-0.6-0.3-0.9 0.2-0.4 0.6-0.5 0.9-0.3 2.5 1.3 5.5 1.5 8 0.5 0.4-0.2 0.8 0 1 0.4 0.1 0.3-0.1 0.7-0.4 0.9-1.3 0.5-2.7 0.7-4 0.7z"/>
							<path id="&lt;Path&gt;" class="s28" d="m738.6 211.6q-0.2 0-0.3 0c-0.3-0.2-0.5-0.6-0.4-1 1.4-3.1 0.4-7.1-2.3-9.2-0.3-0.3-0.3-0.7-0.1-1 0.3-0.3 0.7-0.4 1-0.1 3.1 2.5 4.3 7.2 2.7 10.9-0.1 0.3-0.3 0.4-0.6 0.4z"/>
							<path id="&lt;Path&gt;" class="s28" d="m739.7 231.7c-1.7 0-3.4-0.4-4.8-1.3-2.2-1.2-3.9-3.2-4.7-5.6-0.1-0.4 0.1-0.8 0.4-0.9 0.4-0.1 0.8 0.1 0.9 0.5 0.7 2 2.2 3.8 4 4.8 1.9 1 4.2 1.3 6.3 0.8 0.3-0.1 0.7 0.2 0.8 0.5 0.1 0.4-0.1 0.8-0.5 0.9q-1.2 0.3-2.4 0.3z"/>
							<path id="&lt;Path&gt;" class="s28" d="m737.1 235.2c-3.1 0-4.5-1.6-5.1-2.4-0.2-0.3-0.1-0.8 0.3-1 0.3-0.2 0.7-0.1 0.9 0.2 1.1 1.8 3.6 2.3 6.7 1.4 0.4-0.1 0.7 0.2 0.8 0.5 0.1 0.4-0.1 0.8-0.4 0.9q-1.8 0.5-3.2 0.4z"/>
						</g>
						<path id="&lt;Path&gt;" class="s23" d="m743.8 201.5c0.7 1.5 0.5 3.2-0.2 4.7-0.6 1.3-1.7 2-2.4 3.1-0.5 0.7 0.4 1.4 1.1 1.1 1.4-0.7 2.3-2.9 2.7-4.4 0.5-1.7 0.3-3.4-0.7-4.9-0.2-0.3-0.7 0-0.5 0.4z"/>
						<path id="&lt;Path&gt;" class="s6" d="m686.1 283.9l7.4-2.8c0 0-4.1 18.6-2.5 37.9h44.4c0 0 1.7-22.2 9.2-38.8l6.7 2.1c0 0-5.7 15.5-5.3 39.5 0.4 30.2 4.4 44.9 8.4 45 5.7 0.3 6.9-19.3 6.9-19.3 0 0 0.8 26.5 1 53.3 0 0-45.1 7.9-81.8-2.1 0 0 1.7-19.6 1.9-37.1 0.1-17.5-2.8-27.1-2.9-38.7-0.3-19.8 6.6-39 6.6-39z"/>
						<path id="&lt;Path&gt;" class="s4" d="m688.4 322.8c-0.1 2.1-0.7 3.3-3.1 3.4-2.4 0.1-3.4-1.9-3.5-3.4-0.1-1.8 1.5-3.1 3.4-3.3 1.8-0.2 3.4 1.6 3.2 3.3z"/>
						<path id="&lt;Path&gt;" class="s4" d="m743.5 322.8c-0.1 2.1-0.7 3.3-3.1 3.4-2.4 0.1-3.4-1.9-3.5-3.4-0.1-1.8 1.5-3.1 3.4-3.3 1.8-0.2 3.4 1.6 3.2 3.3z"/>
						<path id="&lt;Path&gt;" class="s29" d="m629.7 372.6c-8.6-0.4-11-15.8-7.2-30.6 5.4-20.6 22.2-38.4 29.8-46l3.1 10c-4.6 10-7.1 27.5-10 42.6-2.5 13.2-11.2 24.2-15.7 24z"/>
						<path id="&lt;Path&gt;" class="s4" d="m664.7 505.7c-0.1 3.9-0.1 9.9-0.1 17.1 9.9 0.2 17.7-0.8 17.7-0.8 1-18.6 3.5-32.8 3.5-32.8-7.2-1.8-14.4-3-19.3-3.7-1 7.8-1.6 14.7-1.8 20.2z"/>
						<g id="&lt;Group&gt;">
							<path id="&lt;Compound Path&gt;" fill-rule="evenodd" class="s18" d="m716.2 357.9c-8.3 0-17.6-0.3-22-1.2-0.4 0-0.6-0.3-0.6-0.6l-0.6-25.1q0-0.3 0.2-0.5 0.2-0.2 0.5-0.2l38.7-0.2c0.4 0 0.7 0.3 0.7 0.7l0.6 26.1c0 0.4-0.3 0.7-0.7 0.7-0.6 0-8.2 0.3-16.8 0.3zm-21.2-2.5c8.5 1.5 32.8 0.9 37.3 0.8l-0.6-24.7-37.3 0.2z"/>
							<path id="&lt;Path&gt;" class="s18" d="m732.2 336.8h-37.6c-0.4 0-0.7-0.3-0.7-0.7 0-0.4 0.3-0.7 0.7-0.7h37.6c0.4 0 0.7 0.3 0.7 0.7 0 0.4-0.3 0.7-0.7 0.7z"/>
						</g>
						<path id="&lt;Path&gt;" class="s9" d="m715.7 300.3c-13.4 0-19.3-11-19.4-11.1-0.2-0.4 0-0.8 0.3-1 0.3-0.2 0.8 0 1 0.3 0.3 0.6 8.1 14.9 26.5 9 0.4-0.2 0.8 0 0.9 0.4 0.2 0.4 0 0.8-0.4 0.9-3.3 1.1-6.3 1.5-8.9 1.5z"/>
						<g id="&lt;Group&gt;">
							<path id="&lt;Path&gt;" class="s25" d="m629.3 372.8c-0.9 0-3.4-0.3-5.4-3.7-0.2-0.3-0.1-0.8 0.3-1 0.3-0.2 0.7-0.1 0.9 0.3 2 3.3 4.4 3 4.5 3 4.3 0.2 12.7-10 15.1-22.9 0.5-2.8 1-5.6 1.5-8.4 2.3-12.8 4.7-26.1 8.6-34.4 0.1-0.4 0.6-0.5 0.9-0.3 0.4 0.1 0.5 0.6 0.4 0.9-3.8 8.1-6.2 21.3-8.5 34q-0.7 4.3-1.5 8.4c-2.5 13-11.3 24.4-16.5 24.1q0 0-0.3 0z"/>
							<path id="&lt;Path&gt;" class="s25" d="m625.9 365.1c-0.2 0-0.4-0.1-0.6-0.3-0.9-1.2-1.5-2.9-1.4-4.4 0.1-0.4 0.4-0.7 0.8-0.7 0.4 0 0.7 0.3 0.7 0.7-0.1 1.3 0.3 2.5 1.1 3.5 0.2 0.3 0.2 0.8-0.2 1q-0.2 0.2-0.4 0.2z"/>
						</g>
						<g id="&lt;Group&gt;">
							<path id="&lt;Path&gt;" class="s30" d="m647.6 302.6c2-3.5 4.7-7.8 9.8-10.3 5.6-2.8 11.3 1.1 11.3 1.1l-12.3 13.4c0 0-7.9 0-8.8-4.2z"/>
							<path id="&lt;Path&gt;" class="s31" d="m668.7 293.4c4.6 2.6 5.5 4.6 4.4 6-1.3 1.7-6.1-2.6-6.6-1.8-0.6 0.7 5.6 4.7 3.8 7.1-1.9 2.4-6.9-2.9-7.9-1.6-0.9 1.4 3.8 3.4 2.4 6-1.3 2.6-5.7-1.9-8.4-2.3-2.7-0.3 3.4-10.6 3.4-10.6z"/>
						</g>
						<g id="&lt;Group&gt;">
							<path id="&lt;Path&gt;" class="s18" d="m751.5 606.8c-0.3 0-0.6-0.2-0.7-0.6-0.2-0.7-22.6-78.8-26.4-100.4-3.5-20.4-10.9-64.9-11.7-70.3l-11.6-1.4c-0.4 0-0.6-0.4-0.6-0.8 0.1-0.4 0.5-0.6 0.8-0.6l12.1 1.4c0.3 0.1 0.5 0.3 0.6 0.6 0.1 0.5 8.1 49.3 11.9 70.9 3.7 21.5 26.1 99.5 26.3 100.2 0.1 0.4-0.1 0.8-0.5 0.9q-0.1 0.1-0.2 0.1z"/>
							<path id="&lt;Path&gt;" class="s18" d="m777.7 602.6c-0.3 0-0.6-0.2-0.7-0.5-0.2-0.9-17.8-91.8-19.8-103.5-2.1-11.8-3.8-61.2-2.7-78.8 1.1-17 0.1-52.2 0-52.6 0-0.4 0.3-0.7 0.7-0.7 0.5-0.1 0.8 0.3 0.8 0.7 0 0.3 1 35.6 0 52.6-1.1 17.2 0.6 67.1 2.6 78.6 2.1 11.7 19.6 102.5 19.8 103.4 0.1 0.4-0.2 0.8-0.6 0.8q0 0-0.1 0z"/>
							<path id="&lt;Path&gt;" class="s18" d="m754.5 367.6q0 0-0.1 0c-5.2-0.3-8.7-17.8-9.2-45.8-0.3-23.9 5.4-39.6 5.5-39.8 0.1-0.3 0.5-0.5 0.9-0.4 0.3 0.1 0.5 0.6 0.4 0.9-0.1 0.2-5.7 15.7-5.3 39.2 0.5 32.4 4.9 44.3 7.8 44.4q0 0 0 0c3.6 0 5.7-11.4 6.1-18.6 0.1-0.4 0.4-0.7 0.8-0.7 0.4 0 0.7 0.4 0.7 0.8-0.2 2-1.4 20-7.6 20z"/>
							<path id="&lt;Path&gt;" class="s18" d="m687.3 608.9q-0.1 0-0.2 0c-0.4-0.1-0.6-0.5-0.5-0.8 4-20.3 5.4-68.1 6.1-88.5 0.1-5.7 0.2-8.4 0.3-9 0.2-1.7 1-2.6 1.6-3.2 0.6-0.6 0.9-1 0.9-1.7 0-0.7-0.2-1.4-0.4-2.1-0.4-1.3-0.8-2.7-0.3-4.9 0.7-3.2 16.9-60.1 17.6-62.6 0.1-0.3 0.5-0.6 0.9-0.5 0.4 0.2 0.6 0.5 0.5 0.9-0.2 0.6-16.9 59.4-17.6 62.5-0.4 1.8-0.1 3 0.3 4.2 0.2 0.8 0.4 1.6 0.4 2.5 0 1.3-0.6 2-1.2 2.6-0.6 0.6-1.1 1.2-1.3 2.5 0 0.5-0.2 4-0.3 8.8-0.6 20.5-2.1 68.4-6.1 88.7-0.1 0.4-0.4 0.6-0.7 0.6z"/>
							<path id="&lt;Path&gt;" class="s18" d="m720.8 397.6q-2.2 0-4.4 0c-18.1-0.4-34.7-4.2-34.9-4.2-0.4-0.1-0.6-0.5-0.5-0.9 0.1-0.3 0.4-0.6 0.8-0.5 0.2 0.1 16.6 3.8 34.7 4.2 21.9 0.5 44.8-3.1 45-3.1 0.4 0 0.7 0.2 0.8 0.6 0 0.4-0.2 0.7-0.6 0.8-0.2 0-20.3 3.1-40.9 3.1z"/>
							<path id="&lt;Path&gt;" class="s18" d="m720.8 390.7q-2.1 0-4.3 0c-18.2-0.5-34.3-4.1-34.5-4.1-0.4-0.1-0.6-0.5-0.5-0.8 0.1-0.4 0.4-0.6 0.8-0.6 0.2 0.1 16.2 3.6 34.2 4.1 21.9 0.4 44.7-3.1 44.9-3.1 0.4-0.1 0.8 0.2 0.8 0.6 0.1 0.4-0.2 0.7-0.6 0.8-0.2 0-20.2 3.1-40.8 3.1z"/>
							<path id="&lt;Path&gt;" class="s18" d="m706.5 428.6q-0.3 0-0.6-0.2-0.2-0.3-0.1-0.6c0.8-5.8 2-23.1 1.9-30.7 0-0.3 0.3-0.7 0.7-0.7q0 0 0 0c0.4 0 0.7 0.3 0.7 0.7 0.1 7.3-1 23.5-1.8 30 1.4-0.2 4.5-1 5.9-4.1 2-4.4 3-22.8 2.9-25.3-0.1-0.4 0.2-0.8 0.6-0.8 0.4 0 0.7 0.3 0.8 0.7 0.1 2.1-0.7 21-3 26-2.3 5-7.8 5-8 5z"/>
							<path id="&lt;Path&gt;" class="s18" d="m705.8 434.4q-0.1-0.1-0.1-0.1c-0.4 0-0.7-0.4-0.7-0.8l0.8-5.7c0-0.4 0.4-0.6 0.8-0.6 0.4 0 0.6 0.4 0.6 0.8l-0.7 5.7c-0.1 0.4-0.4 0.7-0.7 0.7z"/>
							<path id="&lt;Path&gt;" class="s18" d="m755.1 416.2q-0.2 0-0.3-0.1c-12.3-7.4-15.7-19-15.9-19.5-0.1-0.4 0.2-0.8 0.5-0.9 0.4-0.1 0.8 0.1 0.9 0.5 0.1 0.1 3.4 11.5 15.2 18.7 0.3 0.2 0.5 0.6 0.3 1-0.2 0.2-0.4 0.3-0.7 0.3z"/>
							<path id="&lt;Path&gt;" class="s18" d="m679.3 409.1c-0.2 0-0.5-0.1-0.6-0.3-0.2-0.4-0.2-0.8 0.2-1 6.7-4.7 11.1-13.3 11.2-13.4 0.2-0.3 0.6-0.5 1-0.3 0.3 0.2 0.4 0.6 0.3 1-0.2 0.3-4.7 9-11.7 13.8q-0.2 0.2-0.4 0.2z"/>
						</g>
						<path id="&lt;Path&gt;" class="s32" d="m755.7 335.9c0 0 10.3 25.4 12.6 43.5 2.4 19.7 3.9 44.9 2.8 51.1 0 0 13.6 6.5 14.7-0.3 1.1-6.8 9.9-25.2 8.2-55.5-1.2-22.7-8.9-47.7-8.9-47.7z"/>
						<path id="&lt;Path&gt;" class="s25" d="m785.1 327l-29.4 8.9c0 0 2 5.3 4.6 12.8 15-1.6 24-6.4 28.1-9.1-1.8-7.6-3.3-12.6-3.3-12.6z"/>
						<g id="&lt;Group&gt;">
							<path id="&lt;Compound Path&gt;" fill-rule="evenodd" class="s7" d="m790.2 464.2h-29c-1.2 0-2.1-1-2.1-2.2v-14.6c0-1.2 0.9-2.2 2.1-2.2h29c1.2 0 2.2 1 2.2 2.2v14.6c0 1.2-1 2.2-2.2 2.2zm-26.8-4.3h24.7v-10.4h-24.7z"/>
							<path id="&lt;Path&gt;" class="s33" d="m790.2 450.2h-29c-1.6 0-2.8-1.3-2.8-2.8 0-1.6 1.2-2.9 2.8-2.9h29c1.6 0 2.9 1.3 2.9 2.9 0 1.5-1.3 2.8-2.9 2.8z"/>
							<path id="&lt;Path&gt;" class="s33" d="m815.5 507.8h-63.7v-34.3h65.1v32.9c0 0.8-0.6 1.4-1.4 1.4z"/>
							<path id="&lt;Path&gt;" class="s7" d="m760.6 507.8h-29.3c-0.8 0-1.4-0.6-1.4-1.4v-32.9h32.2v32.9c0 0.8-0.7 1.4-1.5 1.4z"/>
							<path id="&lt;Path&gt;" class="s14" d="m818.6 474h-69.7v-15.1h65.5c2.7 0 4.9 2.2 4.9 4.9v9.4c0 0.4-0.3 0.8-0.7 0.8z"/>
							<path id="&lt;Path&gt;" class="s13" d="m763.5 474h-35.1c-0.4 0-0.7-0.4-0.7-0.8v-9.4c0-2.7 2.2-4.9 4.9-4.9h26.7c2.7 0 4.9 2.2 4.9 4.9v9.4c0 0.4-0.3 0.8-0.7 0.8z"/>
							<g id="&lt;Group&gt;">
								<path id="&lt;Path&gt;" class="s33" d="m784.4 476h-12.7v-5.7h12.7z"/>
								<path id="&lt;Path&gt;" class="s33" d="m811.7 476h-12.8v-5.7h12.8z"/>
								<path id="&lt;Path&gt;" class="s15" d="m783.4 478.7h-10v-6.8h10z"/>
								<path id="&lt;Path&gt;" class="s15" d="m810.6 478.7h-10v-6.8h10z"/>
							</g>
							<path id="&lt;Path&gt;" class="s34" d="m777.8 502.5v3.9c0 0.8-0.6 1.4-1.4 1.4h29.1c0.8 0 1.5-0.6 1.5-1.4v-3.9z"/>
							<path id="&lt;Path&gt;" class="s33" d="m755 502.5v3.9c0 0.8 0.6 1.4 1.4 1.4h-19.5c-0.8 0-1.4-0.6-1.4-1.4v-3.9z"/>
							<path id="&lt;Path&gt;" class="s35" d="m755 468.3h-23.6c-0.2 0-0.3-0.1-0.3-0.3v-4.2c0-1.2 0.9-2.1 2.1-2.1h20c1.2 0 2.2 0.9 2.2 2.1v4.2c0 0.2-0.2 0.3-0.4 0.3z"/>
							<path id="&lt;Path&gt;" class="s11" d="m755.4 499.2h-21.6v-18.9h21.6z"/>
						</g>
						<path id="&lt;Path&gt;" class="s36" d="m771.1 430.5c-1.2 4.7-5.1 6.4-7.3 14h4.9c0 0-1.1 10.5 1.6 11 2.9 0.4 3.2-3.8 4.1-3.7 0.9 0.2 0.2 4.1 2.6 4.3 2.5 0.2 2.9-3.6 4-3.8 1-0.1-0.1 3.1 2 3.1 2.5 0 3.7-4.1 3.6-9.3 0-4.6-1.3-10.9-0.8-15.9l-8.1-2.2z"/>
						<g id="&lt;Group&gt;">
							<path id="&lt;Path&gt;" class="s25" d="m783.3 455.6q-0.4 0-0.8-0.1c-0.4-0.2-0.6-0.6-0.5-0.9 0.2-0.4 0.6-0.6 0.9-0.5 0.4 0.1 0.7 0.1 1-0.1 1.2-0.9 2-4.1 2-7.9 0-1.8-0.2-3.8-0.4-6-0.3-3.4-0.7-6.9-0.4-10 0.3-1.6 0.9-3.8 1.8-6.6 2.9-9.6 7.7-25.6 6.4-48.8-1.2-22.3-8.8-47.3-8.9-47.5-0.1-0.4 0.1-0.8 0.5-0.9 0.4-0.1 0.8 0.1 0.9 0.5 0.1 0.2 7.7 25.3 8.9 47.9 1.3 23.4-3.5 39.5-6.4 49.2-0.9 2.7-1.5 4.9-1.8 6.4-0.3 2.9 0.1 6.3 0.4 9.6 0.2 2.2 0.5 4.4 0.5 6.2 0 3.5-0.7 7.6-2.7 9q-0.6 0.5-1.4 0.5z"/>
							<path id="&lt;Path&gt;" class="s25" d="m789.3 380c-0.4 0-0.8-0.4-0.8-0.7 0-3 0.3-5.5 1-7.8 0.1-0.4 0.5-0.6 0.9-0.5 0.4 0.1 0.6 0.5 0.5 0.9-0.7 2.2-1 4.5-0.9 7.3 0 0.4-0.3 0.8-0.7 0.8q0 0 0 0z"/>
						</g>
						<path id="&lt;Path&gt;" class="s1" d="m780.3 307.1c-10.6-16.2-13.6-20.3-28.3-24.6q0 0 0 0c-0.1 0.2-5.7 15.7-5.3 39.2q0 3.2 0.1 6.1l9.9 15.8c24.3-4 34-15 34-15-5.7-12.9-10.4-21.5-10.4-21.5z"/>
						<path id="&lt;Path&gt;" class="s9" d="m756.7 344.3c-0.4 0-0.7-0.3-0.7-0.6-0.1-0.4 0.2-0.8 0.6-0.8 23.7-3.9 33.4-14.7 33.5-14.8 0.3-0.3 0.8-0.3 1.1-0.1 0.3 0.3 0.3 0.7 0 1-0.4 0.5-10.1 11.4-34.4 15.3q-0.1 0-0.1 0z"/>
					</g>
					<g id="&lt;Group&gt;">
						<path id="&lt;Path&gt;" class="s4" d="m942.2 184.4l4.1-0.1 26.5 93.4 0.3 56.8-29.9 0.2z"/>
						<path id="&lt;Path&gt;" class="s6" d="m942.9 284.5h5.9l0.2 30.8-5.9 0.1z"/>
						<path id="&lt;Path&gt;" class="s6" d="m942.2 184.4l1 150.3h2.7l-1-150.4z"/>
						<path id="&lt;Path&gt;" class="s4" d="m943.1 184.4h-4.1l-25.2 93.7 0.3 56.8 30-0.2z"/>
						<path id="&lt;Path&gt;" class="s6" d="m944 284.5l-5.9 0.1 0.2 30.8h6z"/>
						<path id="&lt;Path&gt;" class="s5" d="m938.2 215.9h-2.7l-16.7 62.2 0.2 37.7 19.9-0.2z"/>
						<g id="&lt;Group&gt;">
							<path id="&lt;Path&gt;" class="s4" d="m941.9 375.1l-27.5 0.1-0.4-59.6 27.5-0.2z"/>
							<path id="&lt;Path&gt;" class="s6" d="m941.9 375.1h-5.6l-0.4-59.7h5.6z"/>
						</g>
						<g id="&lt;Group&gt;">
							<path id="&lt;Path&gt;" class="s4" d="m945.9 375l27.5-0.2-0.4-59.6-27.5 0.2z"/>
							<path id="&lt;Path&gt;" class="s6" d="m945.9 375h5.6l-0.4-59.7-5.6 0.1z"/>
						</g>
						<g id="&lt;Group&gt;">
							<path id="&lt;Path&gt;" class="s7" d="m910.8 368c3.3-2 31.2 5.2 31.2 5.2l0.2 29c0 0-27 56.1-32.7 88.9-5.7 32.8-0.7 66.1-0.6 76.9 0.1 10.7-4.2 18.6-12.2 21.6-10.2 3.8-18.8-2.6-24.3-15.5-5.5-12.8-12.7-55.2-4.4-93.5 8.4-38.2 21.7-56 21.6-66.8 0-10.7-14.6-14.4-15.1-18.7-0.6-4.3 1.5-12.4 4.2-14 2.6-1.6 13.9-1.2 26.8 1.5 0 0 2.6-13 5.3-14.6z"/>
							<path id="&lt;Path&gt;" class="s13" d="m903.5 398.2c-10.6-4.9-22.6-7.6-28.7-8.8-0.4 2.1-0.6 4.2-0.3 5.7 0.5 4.3 15.1 8 15.1 18.7 0.1 10.8-13.2 28.6-21.6 66.8-8.3 38.2-1.1 80.7 4.4 93.5 5.5 12.9 14.1 19.3 24.3 15.5 8-3 12.3-10.9 12.2-21.6 0-4.5-0.9-12.8-1.5-23.3-2.6-0.7-5.8-2.2-9.4-5.1-9.7-8-9.9-33.3-5.8-57 4.2-23.7 21.7-63.6 21.7-63.6 0 0 11.8-3.3 10.7-7.5-1.2-4.3-6-6.5-21.1-13.3z"/>
							<g id="&lt;Group&gt;">
								<path id="&lt;Path&gt;" class="s19" d="m871.5 503.3q0 0-0.1 0c-0.9 0-1.5-0.8-1.5-1.7 2.2-35.4 25.2-82.5 25.4-83 0.4-0.8 1.4-1.1 2.2-0.8 0.8 0.4 1.1 1.4 0.7 2.2-0.2 0.5-22.9 47.1-25.1 81.8 0 0.9-0.7 1.5-1.6 1.5z"/>
								<path id="&lt;Path&gt;" class="s19" d="m892.2 585.8q0 0-0.1 0c-16.9-1.6-19.3-24.9-19.4-25.9-0.1-0.9 0.6-1.7 1.5-1.8 0.9 0 1.6 0.6 1.7 1.5 0.1 0.2 2.3 21.6 16.5 23 0.9 0.1 1.5 0.9 1.4 1.8 0 0.8-0.7 1.4-1.6 1.4z"/>
								<path id="&lt;Path&gt;" class="s19" d="m901.1 581c-0.4 0-0.8-0.1-1.1-0.4-0.7-0.6-0.7-1.6-0.2-2.3 0.2-0.1 3.6-4.2 2.8-11.3-0.1-0.9 0.5-1.7 1.4-1.8 0.9-0.1 1.7 0.5 1.8 1.4 0.9 8.7-3.3 13.7-3.5 13.9-0.3 0.3-0.8 0.5-1.2 0.5z"/>
							</g>
							<path id="&lt;Path&gt;" class="s10" d="m937.4 398.1q-0.4 0.1-0.8-0.2c-0.1-0.1-10.5-7.5-24.7-11.7-0.7-0.2-1.1-1-0.9-1.6 0.2-0.7 1-1.1 1.7-0.9 14.5 4.3 25 11.8 25.4 12.1 0.6 0.4 0.7 1.2 0.3 1.8-0.2 0.4-0.6 0.5-1 0.5z"/>
							<path id="&lt;Path&gt;" class="s11" d="m936.4 378.4q-0.2 0-0.5-0.1c-11.4-3.8-21.7-4.7-21.8-4.7-0.9 0-1.6-0.8-1.5-1.7 0.1-0.9 0.9-1.6 1.7-1.5 0.5 0 10.9 0.9 22.6 4.9 0.9 0.2 1.3 1.2 1 2-0.2 0.7-0.8 1.1-1.5 1.1z"/>
						</g>
						<g id="&lt;Group&gt;">
							<path id="&lt;Path&gt;" class="s7" d="m976.9 367.6c-3.3-2-31.1 5.5-31.1 5.5l0.2 29.1c0 0 27.8 55.7 33.9 88.4 6.1 32.8 1.5 66.2 1.6 76.9 0.1 10.8 4.5 18.5 12.5 21.4 10.2 3.7 18.8-2.8 24.1-15.7 5.3-13 12-55.5 3.1-93.6-8.8-38.1-22.4-55.7-22.5-66.5 0-10.7 14.5-14.6 15-18.9 0.5-4.3-1.7-12.3-4.4-13.9-2.7-1.6-14-1-26.9 1.7 0 0-2.8-12.8-5.5-14.4z"/>
							<path id="&lt;Path&gt;" class="s13" d="m984.7 397.6c10.5-5 22.4-7.8 28.5-9.1 0.5 2.1 0.7 4.1 0.5 5.7-0.5 4.3-15 8.2-15 18.9 0.1 10.8 13.7 28.4 22.5 66.5 8.9 38.1 2.2 80.6-3.1 93.6-5.3 12.9-13.9 19.4-24.1 15.7-8-2.9-12.4-10.6-12.5-21.4 0-4.4 0.7-12.8 1.2-23.3 2.6-0.7 5.8-2.3 9.3-5.3 9.7-8.1 9.5-33.3 5-57-4.4-23.6-22.4-63.3-22.4-63.3 0 0-11.9-3.1-10.8-7.4 1-4.3 5.9-6.5 20.9-13.6z"/>
							<g id="&lt;Group&gt;">
								<path id="&lt;Path&gt;" class="s19" d="m1018 502.4c-0.8 0-1.5-0.7-1.6-1.5-2.6-34.8-25.9-81-26.2-81.5-0.4-0.8-0.1-1.8 0.7-2.2 0.8-0.4 1.8-0.1 2.2 0.7 0.2 0.5 23.9 47.3 26.5 82.7 0.1 0.9-0.6 1.7-1.5 1.7q0 0.1-0.1 0.1z"/>
								<path id="&lt;Path&gt;" class="s19" d="m998.4 585.1c-0.8 0-1.5-0.6-1.6-1.4-0.1-0.9 0.5-1.7 1.4-1.8 14.2-1.5 16.1-23 16.2-23.2 0-0.9 0.8-1.5 1.7-1.5 0.9 0.1 1.5 0.9 1.5 1.7-0.1 1-2.2 24.4-19 26.2q-0.1 0-0.2 0z"/>
								<path id="&lt;Path&gt;" class="s19" d="m989.5 580.4c-0.4 0-0.9-0.1-1.2-0.5-0.2-0.2-4.5-5.1-3.7-13.8 0.1-0.9 0.8-1.5 1.7-1.4 0.9 0 1.6 0.8 1.5 1.7-0.7 7.2 2.7 11.2 2.9 11.3 0.6 0.7 0.5 1.7-0.1 2.3-0.3 0.3-0.7 0.4-1.1 0.4z"/>
							</g>
							<path id="&lt;Path&gt;" class="s10" d="m950.8 398.1c-0.4 0-0.8-0.2-1-0.6-0.5-0.5-0.3-1.3 0.2-1.8 0.5-0.3 10.8-7.9 25.3-12.4 0.7-0.2 1.4 0.1 1.6 0.8 0.3 0.7-0.1 1.4-0.8 1.6-14.1 4.4-24.4 12-24.5 12.1q-0.4 0.3-0.8 0.3z"/>
							<path id="&lt;Path&gt;" class="s11" d="m951.5 378.3c-0.7 0-1.3-0.4-1.6-1.1-0.2-0.8 0.2-1.7 1-2 11.8-4.2 22.1-5.1 22.6-5.2 0.9-0.1 1.6 0.6 1.7 1.5 0.1 0.9-0.6 1.6-1.4 1.7-0.1 0-10.5 1-21.8 5q-0.3 0.1-0.5 0.1z"/>
						</g>
						<g id="&lt;Group&gt;">
							<path id="&lt;Compound Path&gt;" class="s4" d="m942.9 302.3c-16.2 0.9-27.5 11.6-28.2 28.6-0.3 6.9 2.1 15.1 7.8 21.2 4.6 4.8 11.4 8.3 20.7 8.6 19.5 0.6 29.7-13.2 29.3-30.2-0.2-8.8-3.6-16-8.8-20.9-5.4-5-12.7-7.7-20.8-7.3z"/>
							<path id="&lt;Path&gt;" class="s5" d="m954.9 314.8c-0.1-2.7-0.5-5.3-1.2-7.6-3.3-1.3-6.9-1.9-10.8-1.7-14.4 0.8-24.4 10.3-25 25.5-0.2 2.7 0.2 5.8 1.2 8.8 2.8 1.1 6 1.8 9.8 1.9 17.3 0.5 26.4-11.8 26-26.9z"/>
							<path id="&lt;Compound Path&gt;" fill-rule="evenodd" class="s6" d="m944 342.8q-0.3 0-0.6 0c-3.2-0.1-6-1.3-8-3.4-2-2.2-3.1-5.2-3-8.2 0.3-6.3 4.6-10.6 10.9-11 3-0.1 5.9 0.9 8 2.8 2.1 2 3.4 4.9 3.4 8.1 0.1 3.5-1 6.6-3.1 8.7-1.9 2-4.5 3-7.6 3zm-0.6-21c-5.6 0.3-9.1 4-9.4 9.5-0.1 2.5 0.9 5.1 2.6 7 1.6 1.8 4 2.8 6.9 2.9 2.9 0.1 5.3-0.8 7-2.5 1.8-1.8 2.7-4.5 2.6-7.5 0-2.8-1.1-5.3-2.9-7-1.8-1.7-4.2-2.5-6.8-2.4z"/>
							<path id="&lt;Path&gt;" class="s6" d="m945.5 361.7c-13.7 0.1-21.4-6.7-23.6-9.1-5.4-5.7-8.4-13.8-8-21.8 0-0.4 0.3-0.8 0.8-0.7 0.5 0 0.8 0.4 0.8 0.8-0.3 7.5 2.5 15.2 7.6 20.6 2.4 2.5 11.5 10.6 28.2 8.2 0.4-0.1 0.8 0.2 0.9 0.7 0 0.4-0.3 0.8-0.7 0.9q-3.2 0.4-6 0.4z"/>
							<path id="&lt;Path&gt;" class="s6" d="m972.5 331.3c-0.4 0-0.8-0.3-0.8-0.8-0.2-8.1-3.3-15.4-8.6-20.3-5.8-5.5-15.2-8.2-23.9-6.9-0.4 0.1-0.8-0.2-0.9-0.7-0.1-0.4 0.3-0.8 0.7-0.9 9.1-1.4 19 1.5 25.2 7.3 5.6 5.3 8.9 12.9 9.1 21.5 0 0.4-0.3 0.8-0.8 0.8q0 0 0 0z"/>
						</g>
					</g>
					<g id="&lt;Group&gt;">
						<path id="&lt;Path&gt;" class="s18" d="m1016.1 589.5c42.4-1.5 58.1-31.6 77.8-44.5 0 0 12.1-9.2 27.7-12.1 1.9-11.7 2-30.3 0-40.7 0 0-20.4 2.2-37.9 15.9-16.4 12.7-67.6 81.4-67.6 81.4z"/>
						<path id="&lt;Compound Path&gt;" fill-rule="evenodd" class="s6" d="m1087.3 506.5c1 47.5-27.9 86-82.5 84.1-58.7-2.1-81.3-49.3-79.5-84.1 2.3-47.7 34.1-77.5 79.5-79.6 45-2 81.5 29.8 82.5 79.6zm-50.3 1.4c-0.4-18.9-14.3-30.9-31.3-30.2-17.2 0.8-29.3 12.1-30.2 30.2-0.6 13.2 8 31.1 30.2 31.9 20.7 0.7 31.7-13.9 31.3-31.9z"/>
						<path id="&lt;Path&gt;" class="s37" d="m1004.9 430.9c-42.3 1.9-72 29.1-75.5 72.6 8.4 3.1 17.9 5 28.7 5.4 6.1 0.2 11.9-0.1 17.4-0.9q0 0 0-0.1c0.9-18.1 13-29.4 30.2-30.2 6.4-0.3 12.4 1.3 17.4 4.3 9.7-12.1 15.4-27.6 17.1-44.7-10.7-4.7-22.6-7-35.3-6.4z"/>
						<path id="&lt;Compound Path&gt;" fill-rule="evenodd" class="s7" d="m1048.7 507.6c0.5 24.8-14.6 45-43.2 44-30.7-1.1-42.5-25.8-41.6-44 1.2-25 17.8-40.6 41.6-41.7 23.5-1 42.6 15.6 43.2 41.7zm-11.7 0.3c-0.4-18.9-14.3-30.9-31.3-30.2-17.2 0.8-29.3 12.1-30.2 30.2-0.6 13.2 8 31.1 30.2 31.9 20.7 0.7 31.7-13.9 31.3-31.9z"/>
						<g id="&lt;Group&gt;">
							<path id="&lt;Path&gt;" class="s18" d="m960.6 483.3q-0.1 0-0.2-0.1c-0.4-0.2-0.6-0.6-0.4-1 0.1-0.2 12.2-29.1 49.8-26.2 0.4 0 0.7 0.4 0.7 0.8-0.1 0.4-0.4 0.7-0.8 0.7-36.5-2.8-48.3 25-48.4 25.3-0.1 0.3-0.4 0.5-0.7 0.5z"/>
							<path id="&lt;Path&gt;" class="s18" d="m1007 568.6c-16.7 0-28.1-6.6-28.3-6.7-0.3-0.2-0.4-0.6-0.2-1 0.2-0.3 0.6-0.4 1-0.2 0.2 0.1 27.3 15.6 59.1-2 28.6-15.8 24.9-51.9 24.9-52.3 0-0.4 0.2-0.7 0.6-0.8 0.4 0 0.8 0.3 0.8 0.7 0.1 0.3 3.9 37.4-25.6 53.7-11.8 6.5-22.9 8.6-32.3 8.6z"/>
							<path id="&lt;Path&gt;" class="s18" d="m1055.2 561.8c-0.2 0-0.4-0.1-0.6-0.3-0.2-0.3-0.2-0.7 0.2-1 9.7-7.4 15.8-19.1 16.4-31.3 0-0.4 0.3-0.7 0.7-0.7 0.4 0 0.7 0.3 0.7 0.7-0.6 12.7-6.9 24.8-17 32.5q-0.2 0.1-0.4 0.1z"/>
							<path id="&lt;Path&gt;" class="s18" d="m1073.7 481.7c-0.3 0-0.6-0.2-0.7-0.5-5.4-15.3-16.9-28.2-31.5-35.3-0.4-0.2-0.5-0.7-0.4-1 0.2-0.4 0.6-0.5 1-0.4 15 7.3 26.8 20.5 32.3 36.3 0.1 0.3-0.1 0.7-0.5 0.9q-0.1 0-0.2 0z"/>
							<path id="&lt;Path&gt;" class="s18" d="m976.6 576.3q-0.1 0-0.1 0c-13.3-3.7-24.8-13.2-31-25.4-0.1-0.4 0-0.8 0.4-1 0.3-0.2 0.8-0.1 1 0.3 5.9 11.9 17.1 21.1 29.9 24.6 0.4 0.2 0.7 0.6 0.5 0.9 0 0.4-0.3 0.6-0.7 0.6z"/>
							<path id="&lt;Path&gt;" class="s18" d="m936.3 492q0 0 0 0c-0.4 0-0.7-0.3-0.7-0.7 0.4-11.1 5-21.9 12.8-29.7 0.3-0.3 0.8-0.3 1.1 0 0.2 0.2 0.2 0.7 0 1-7.6 7.6-12.1 18-12.4 28.7 0 0.4-0.4 0.7-0.8 0.7z"/>
							<path id="&lt;Path&gt;" class="s18" d="m1023.9 453.5q-0.2 0-0.4-0.1c-4.4-2.9-9.9-4.1-15.1-3.2-0.4 0.1-0.7-0.2-0.8-0.6-0.1-0.4 0.2-0.7 0.6-0.8 5.5-1 11.4 0.2 16.1 3.4 0.3 0.2 0.4 0.6 0.2 1-0.1 0.2-0.4 0.3-0.6 0.3z"/>
						</g>
					</g>
				</g>
			</g>
		</g>
	</g>
</svg>