<svg version="1.2" xmlns="http://www.w3.org/2000/svg" viewBox="0 0 1500 979" width="1500" height="979">
	<title>4047676-ai</title>
	<style>
		.s0 { fill: #263238 } 
		.s1 { fill: #ff5151 } 
		.s2 { opacity: .1;fill: #000000 } 
		.s3 { fill: #ffffff } 
		.s4 { fill: #4da990 } 
		.s5 { fill: #7dfcda } 
		.s6 { fill: #c7c7c7 } 
		.s7 { fill: #a6a6a6 } 
		.s8 { fill: #ebebeb } 
		.s9 { fill: #dbdbdb } 
	</style>
	<g id="Floor">
		<g id="&lt;Group&gt;">
			<path id="&lt;Path&gt;" class="s0" d="m114.1 876.1l159-0.5 158.9-0.1 318-0.4 318 0.4 158.9 0.1 159 0.5-159 0.5-158.9 0.2-318 0.3-318-0.3-158.9-0.2z"/>
		</g>
	</g>
	<g id="Boxes">
		<g id="&lt;Group&gt;">
			<g id="&lt;Group&gt;">
				<path id="&lt;Path&gt;" class="s1" d="m1208 540.7v69.7h-63v-69.7z"/>
				<path id="&lt;Path&gt;" class="s1" d="m1240.5 610.4h-32.5v-69.7h32.5z"/>
				<path id="&lt;Path&gt;" class="s2" d="m1240.5 610.4h-32.5v-69.7h32.5z"/>
				<path id="&lt;Path&gt;" class="s3" d="m1181.9 555.8h-1.4-1l-0.5-1.2-0.9 1.2-1-2.4-1.1 2.4h-2.9-1.4l-0.4-1.6-0.5 1.6h-0.9v-15.1h12z"/>
				<g id="&lt;Group&gt;">
					<path id="&lt;Path&gt;" class="s1" d="m1238.2 605.6q-3.6-7.4-7.1-14.9l-7.1-15-6.9-15.1q-3.5-7.5-6.9-15.1 3.6 7.4 7.2 14.9l7 15 7 15.1q3.4 7.5 6.8 15.1z"/>
					<path id="&lt;Path&gt;" class="s1" d="m1238.2 545.5q-3.4 7.6-6.8 15.1l-7 15.1-7 15q-3.6 7.5-7.2 14.9 3.4-7.6 6.9-15.1l6.9-15.1 7.1-15q3.5-7.5 7.1-14.9z"/>
				</g>
			</g>
			<g id="&lt;Group&gt;">
				<path id="&lt;Path&gt;" class="s1" d="m1032.3 540.7v69.7h-63v-69.7z"/>
				<path id="&lt;Path&gt;" class="s1" d="m1064.8 610.4h-32.5v-69.7h32.5z"/>
				<path id="&lt;Path&gt;" class="s2" d="m1064.8 610.4h-32.5v-69.7h32.5z"/>
				<path id="&lt;Path&gt;" class="s3" d="m1006.1 555.8h-1.3-1l-0.6-1.2-0.8 1.2-1-2.4-1.1 2.4h-2.9-1.4l-0.5-1.6-0.4 1.6h-0.9v-15.1h11.9z"/>
				<g id="&lt;Group&gt;">
					<path id="&lt;Path&gt;" class="s1" d="m1062.5 605.6q-3.6-7.4-7.1-14.9l-7.1-15-6.9-15.1q-3.5-7.5-6.9-15.1 3.6 7.4 7.2 14.9l7 15 7 15.1q3.4 7.5 6.8 15.1z"/>
					<path id="&lt;Path&gt;" class="s1" d="m1062.5 545.5q-3.4 7.6-6.8 15.1l-7 15.1-7 15q-3.6 7.5-7.2 14.9 3.4-7.6 6.9-15.1l6.9-15.1 7.1-15q3.5-7.5 7.1-14.9z"/>
				</g>
			</g>
			<g id="&lt;Group&gt;">
				<path id="&lt;Path&gt;" class="s1" d="m380.4 540.7v69.7h-63v-69.7z"/>
				<path id="&lt;Path&gt;" class="s1" d="m412.9 610.4h-32.5v-69.7h32.5z"/>
				<path id="&lt;Path&gt;" class="s2" d="m412.9 610.4h-32.5v-69.7h32.5z"/>
				<path id="&lt;Path&gt;" class="s3" d="m354.2 555.8h-1.3-1l-0.6-1.2-0.8 1.2-1.1-2.4-1 2.4h-2.9-1.4l-0.5-1.6-0.4 1.6h-0.9v-15.1h11.9z"/>
				<g id="&lt;Group&gt;">
					<path id="&lt;Path&gt;" class="s1" d="m410.6 605.6q-3.6-7.4-7.1-14.9l-7.1-15-6.9-15.1q-3.5-7.5-6.9-15.1 3.6 7.4 7.2 14.9l7 15 7 15.1q3.4 7.5 6.8 15.1z"/>
					<path id="&lt;Path&gt;" class="s1" d="m410.6 545.5q-3.4 7.6-6.8 15.1l-7 15.1-7 15q-3.6 7.5-7.2 14.9 3.4-7.6 6.9-15.1l6.9-15.1 7.1-15q3.5-7.5 7.1-14.9z"/>
				</g>
				<g id="&lt;Group&gt;">
					<path id="&lt;Path&gt;" class="s1" d="m307 555.8h62.9l10.5-15.1h-63z"/>
					<path id="&lt;Path&gt;" class="s2" d="m307 555.8h62.9l10.5-15.1h-63z"/>
				</g>
				<path id="&lt;Path&gt;" class="s1" d="m390.8 555.8h32.4l-10.4-15.1h-32.4z"/>
			</g>
			<g id="&lt;Group&gt;">
				<path id="&lt;Path&gt;" class="s1" d="m556 540.7v69.7h-62.9v-69.7z"/>
				<path id="&lt;Path&gt;" class="s1" d="m588.5 610.4h-32.5v-69.7h32.5z"/>
				<path id="&lt;Path&gt;" class="s2" d="m588.5 610.4h-32.5v-69.7h32.5z"/>
				<path id="&lt;Path&gt;" class="s3" d="m529.9 555.8h-1.3-1l-0.6-1.2-0.8 1.2-1.1-2.4-1 2.4h-3-1.3l-0.5-1.6-0.4 1.6h-0.9v-15.1h11.9z"/>
				<g id="&lt;Group&gt;">
					<path id="&lt;Path&gt;" class="s1" d="m586.3 605.6q-3.6-7.4-7.2-14.9l-7-15-7-15.1q-3.4-7.5-6.8-15.1 3.6 7.4 7.1 14.9l7.1 15 6.9 15.1q3.5 7.5 6.9 15.1z"/>
					<path id="&lt;Path&gt;" class="s1" d="m586.3 545.5q-3.4 7.6-6.9 15.1l-6.9 15.1-7.1 15q-3.5 7.5-7.1 14.9 3.4-7.6 6.8-15.1l7-15.1 7-15q3.6-7.5 7.2-14.9z"/>
				</g>
				<g id="&lt;Group&gt;">
					<path id="&lt;Path&gt;" class="s1" d="m482.7 555.8h62.9l10.4-15.1h-62.9z"/>
					<path id="&lt;Path&gt;" class="s2" d="m482.7 555.8h62.9l10.4-15.1h-62.9z"/>
				</g>
				<path id="&lt;Path&gt;" class="s1" d="m566.5 555.8h32.4l-10.5-15.1h-32.4z"/>
			</g>
		</g>
	</g>
	<g id="Machine">
		<g id="Capa 4">
		</g>
		<g id="&lt;Group&gt;">
			<g id="&lt;Group&gt;">
				<g id="&lt;Group&gt;">
					<path id="&lt;Path&gt;" class="s4" d="m257.2 876.1h-56.4v-215.1h56.4z"/>
					<path id="&lt;Path&gt;" class="s5" d="m262.4 682.9h-66.6v-21.9h66.6z"/>
					<path id="&lt;Path&gt;" class="s5" d="m262.4 876.1h-66.6v-21.8h66.6z"/>
				</g>
				<g id="&lt;Group&gt;">
					<path id="&lt;Path&gt;" class="s4" d="m527 876.1h-56.4v-215.1h56.4z"/>
					<path id="&lt;Path&gt;" class="s5" d="m532.2 682.9h-66.6v-21.9h66.6z"/>
					<path id="&lt;Path&gt;" class="s5" d="m532.2 876.1h-66.6v-21.8h66.6z"/>
				</g>
				<g id="&lt;Group&gt;">
					<path id="&lt;Path&gt;" class="s4" d="m1030.9 876.1h-56.4v-215.1h56.4z"/>
					<path id="&lt;Path&gt;" class="s5" d="m1036 682.9h-66.5v-21.9h66.5z"/>
					<path id="&lt;Path&gt;" class="s5" d="m1036 876.1h-66.5v-21.8h66.5z"/>
				</g>
				<g id="&lt;Group&gt;">
					<path id="&lt;Path&gt;" class="s4" d="m1300.7 876.1h-56.4v-215.1h56.4z"/>
					<path id="&lt;Path&gt;" class="s5" d="m1305.8 682.9h-66.5v-21.9h66.5z"/>
					<path id="&lt;Path&gt;" class="s5" d="m1305.8 876.1h-66.5v-21.8h66.5z"/>
				</g>
				<g id="&lt;Group&gt;">
					<g id="&lt;Group&gt;">
						<path id="&lt;Path&gt;" class="s4" d="m1317.1 661h-1134.2c-13.1 0-23.8-10.6-23.8-23.8 0-13.1 10.7-23.8 23.8-23.8h1134.2c13.1 0 23.8 10.7 23.8 23.8 0 13.2-10.7 23.8-23.8 23.8z"/>
						<path id="&lt;Compound Path&gt;" fill-rule="evenodd" class="s5" d="m1317.1 664h-1134.2c-14.8 0-26.8-12-26.8-26.8 0-14.8 12-26.8 26.8-26.8h1134.2c14.8 0 26.8 12 26.8 26.8 0 14.8-12 26.8-26.8 26.8zm-1134.2-47.6c-11.5 0-20.8 9.3-20.8 20.8 0 11.5 9.3 20.8 20.8 20.8h1134.2c11.5 0 20.8-9.3 20.8-20.8 0-11.5-9.3-20.8-20.8-20.8z"/>
					</g>
					<g id="&lt;Group&gt;">
						<g id="&lt;Group&gt;">
							<g id="&lt;Group&gt;">
								<path id="&lt;Path&gt;" class="s5" d="m195.7 637.2c0 4.6-3.8 8.3-8.4 8.3-4.6 0-8.3-3.7-8.3-8.3 0-4.6 3.7-8.3 8.3-8.3 4.6 0 8.4 3.7 8.4 8.3z"/>
							</g>
							<path id="&lt;Path&gt;" class="s4" d="m195.7 637.2q0 0.8-0.2 1.6h-16.3q-0.2-0.8-0.2-1.6 0-0.8 0.2-1.6h16.3q0.2 0.8 0.2 1.6z"/>
						</g>
						<g id="&lt;Group&gt;">
							<g id="&lt;Group&gt;">
								<path id="&lt;Path&gt;" class="s5" d="m237.3 637.2c0 4.6-3.7 8.3-8.3 8.3-4.6 0-8.3-3.7-8.3-8.3 0-4.6 3.7-8.3 8.3-8.3 4.6 0 8.3 3.7 8.3 8.3z"/>
							</g>
							<path id="&lt;Path&gt;" class="s4" d="m237.3 637.2q0 0.8-0.1 1.6h-16.4q-0.1-0.8-0.1-1.6 0-0.8 0.1-1.6h16.4q0.1 0.8 0.1 1.6z"/>
						</g>
						<g id="&lt;Group&gt;">
							<g id="&lt;Group&gt;">
								<path id="&lt;Path&gt;" class="s5" d="m279 637.2c0 4.6-3.7 8.3-8.3 8.3-4.6 0-8.3-3.7-8.3-8.3 0-4.6 3.7-8.3 8.3-8.3 4.6 0 8.3 3.7 8.3 8.3z"/>
							</g>
							<path id="&lt;Path&gt;" class="s4" d="m279 637.2q0 0.8-0.1 1.6h-16.4q-0.1-0.8-0.1-1.6 0-0.8 0.1-1.6h16.4q0.1 0.8 0.1 1.6z"/>
						</g>
						<g id="&lt;Group&gt;">
							<g id="&lt;Group&gt;">
								<path id="&lt;Path&gt;" class="s5" d="m320.7 637.2c0 4.6-3.7 8.3-8.3 8.3-4.6 0-8.3-3.7-8.3-8.3 0-4.6 3.7-8.3 8.3-8.3 4.6 0 8.3 3.7 8.3 8.3z"/>
							</g>
							<path id="&lt;Path&gt;" class="s4" d="m320.7 637.2q0 0.8-0.2 1.6h-16.3q-0.1-0.8-0.2-1.6 0.1-0.8 0.2-1.6h16.3q0.2 0.8 0.2 1.6z"/>
						</g>
						<g id="&lt;Group&gt;">
							<g id="&lt;Group&gt;">
								<path id="&lt;Path&gt;" class="s5" d="m362.4 637.2c0 4.6-3.8 8.3-8.3 8.3-4.6 0-8.4-3.7-8.4-8.3 0-4.6 3.8-8.3 8.4-8.3 4.5 0 8.3 3.7 8.3 8.3z"/>
							</g>
							<path id="&lt;Path&gt;" class="s4" d="m362.4 637.2q0 0.8-0.2 1.6h-16.3q-0.2-0.8-0.2-1.6 0-0.8 0.2-1.6h16.3q0.2 0.8 0.2 1.6z"/>
						</g>
						<g id="&lt;Group&gt;">
							<g id="&lt;Group&gt;">
								<path id="&lt;Path&gt;" class="s5" d="m404.1 637.2c0 4.6-3.8 8.3-8.4 8.3-4.6 0-8.3-3.7-8.3-8.3 0-4.6 3.7-8.3 8.3-8.3 4.6 0 8.4 3.7 8.4 8.3z"/>
							</g>
							<path id="&lt;Path&gt;" class="s4" d="m404.1 637.2q0 0.8-0.2 1.6h-16.3q-0.2-0.8-0.2-1.6 0-0.8 0.2-1.6h16.3q0.2 0.8 0.2 1.6z"/>
						</g>
						<g id="&lt;Group&gt;">
							<g id="&lt;Group&gt;">
								<path id="&lt;Path&gt;" class="s5" d="m445.7 637.2c0 4.6-3.7 8.3-8.3 8.3-4.6 0-8.3-3.7-8.3-8.3 0-4.6 3.7-8.3 8.3-8.3 4.6 0 8.3 3.7 8.3 8.3z"/>
							</g>
							<path id="&lt;Path&gt;" class="s4" d="m445.7 637.2q0 0.8-0.1 1.6h-16.4q-0.1-0.8-0.1-1.6 0-0.8 0.1-1.6h16.4q0.1 0.8 0.1 1.6z"/>
						</g>
						<g id="&lt;Group&gt;">
							<g id="&lt;Group&gt;">
								<path id="&lt;Path&gt;" class="s5" d="m487.4 637.2c0 4.6-3.7 8.3-8.3 8.3-4.6 0-8.3-3.7-8.3-8.3 0-4.6 3.7-8.3 8.3-8.3 4.6 0 8.3 3.7 8.3 8.3z"/>
							</g>
							<path id="&lt;Path&gt;" class="s4" d="m487.4 637.2q0 0.8-0.1 1.6h-16.4q-0.1-0.8-0.1-1.6 0-0.8 0.1-1.6h16.4q0.1 0.8 0.1 1.6z"/>
						</g>
						<g id="&lt;Group&gt;">
							<g id="&lt;Group&gt;">
								<path id="&lt;Path&gt;" class="s5" d="m529.1 637.2c0 4.6-3.7 8.3-8.3 8.3-4.6 0-8.4-3.7-8.4-8.3 0-4.6 3.8-8.3 8.4-8.3 4.6 0 8.3 3.7 8.3 8.3z"/>
							</g>
							<path id="&lt;Path&gt;" class="s4" d="m529.1 637.2q0 0.8-0.2 1.6h-16.3q-0.2-0.8-0.2-1.6 0-0.8 0.2-1.6h16.3q0.2 0.8 0.2 1.6z"/>
						</g>
						<g id="&lt;Group&gt;">
							<g id="&lt;Group&gt;">
								<path id="&lt;Path&gt;" class="s5" d="m570.8 637.2c0 4.6-3.8 8.3-8.4 8.3-4.6 0-8.3-3.7-8.3-8.3 0-4.6 3.7-8.3 8.3-8.3 4.6 0 8.4 3.7 8.4 8.3z"/>
							</g>
							<path id="&lt;Path&gt;" class="s4" d="m570.8 637.2q0 0.8-0.2 1.6h-16.3q-0.2-0.8-0.2-1.6 0-0.8 0.2-1.6h16.3q0.2 0.8 0.2 1.6z"/>
						</g>
						<g id="&lt;Group&gt;">
							<g id="&lt;Group&gt;">
								<path id="&lt;Path&gt;" class="s5" d="m612.4 637.2c0 4.6-3.7 8.3-8.3 8.3-4.6 0-8.3-3.7-8.3-8.3 0-4.6 3.7-8.3 8.3-8.3 4.6 0 8.3 3.7 8.3 8.3z"/>
							</g>
							<path id="&lt;Path&gt;" class="s4" d="m612.5 637.2q0 0.8-0.2 1.6h-16.3q-0.2-0.8-0.2-1.6 0-0.8 0.2-1.6h16.3q0.2 0.8 0.2 1.6z"/>
						</g>
						<g id="&lt;Group&gt;">
							<g id="&lt;Group&gt;">
								<path id="&lt;Path&gt;" class="s5" d="m654.1 637.2c0 4.6-3.7 8.3-8.3 8.3-4.6 0-8.3-3.7-8.3-8.3 0-4.6 3.7-8.3 8.3-8.3 4.6 0 8.3 3.7 8.3 8.3z"/>
							</g>
							<path id="&lt;Path&gt;" class="s4" d="m654.1 637.2q0 0.8-0.1 1.6h-16.4q-0.1-0.8-0.1-1.6 0-0.8 0.1-1.6h16.4q0.1 0.8 0.1 1.6z"/>
						</g>
						<g id="&lt;Group&gt;">
							<g id="&lt;Group&gt;">
								<path id="&lt;Path&gt;" class="s5" d="m695.8 637.2c0 4.6-3.7 8.3-8.3 8.3-4.6 0-8.3-3.7-8.3-8.3 0-4.6 3.7-8.3 8.3-8.3 4.6 0 8.3 3.7 8.3 8.3z"/>
							</g>
							<path id="&lt;Path&gt;" class="s4" d="m695.8 637.2q0 0.8-0.1 1.6h-16.4q-0.1-0.8-0.1-1.6 0-0.8 0.1-1.6h16.4q0.1 0.8 0.1 1.6z"/>
						</g>
						<g id="&lt;Group&gt;">
							<g id="&lt;Group&gt;">
								<path id="&lt;Path&gt;" class="s5" d="m737.5 637.2c0 4.6-3.7 8.3-8.3 8.3-4.6 0-8.4-3.7-8.4-8.3 0-4.6 3.8-8.3 8.4-8.3 4.6 0 8.3 3.7 8.3 8.3z"/>
							</g>
							<path id="&lt;Path&gt;" class="s4" d="m737.5 637.2q0 0.8-0.2 1.6h-16.3q-0.2-0.8-0.2-1.6 0-0.8 0.2-1.6h16.3q0.2 0.8 0.2 1.6z"/>
						</g>
						<g id="&lt;Group&gt;">
							<g id="&lt;Group&gt;">
								<path id="&lt;Path&gt;" class="s5" d="m779.2 637.2c0 4.6-3.8 8.3-8.4 8.3-4.6 0-8.3-3.7-8.3-8.3 0-4.6 3.7-8.3 8.3-8.3 4.6 0 8.4 3.7 8.4 8.3z"/>
							</g>
							<path id="&lt;Path&gt;" class="s4" d="m779.2 637.2q0 0.8-0.2 1.6h-16.3q-0.2-0.8-0.2-1.6 0-0.8 0.2-1.6h16.3q0.2 0.8 0.2 1.6z"/>
						</g>
						<g id="&lt;Group&gt;">
							<g id="&lt;Group&gt;">
								<path id="&lt;Path&gt;" class="s5" d="m820.8 637.2c0 4.6-3.7 8.3-8.3 8.3-4.6 0-8.3-3.7-8.3-8.3 0-4.6 3.7-8.3 8.3-8.3 4.6 0 8.3 3.7 8.3 8.3z"/>
							</g>
							<path id="&lt;Path&gt;" class="s4" d="m820.8 637.2q0 0.8-0.1 1.6h-16.4q-0.1-0.8-0.1-1.6 0-0.8 0.1-1.6h16.4q0.1 0.8 0.1 1.6z"/>
						</g>
						<g id="&lt;Group&gt;">
							<g id="&lt;Group&gt;">
								<path id="&lt;Path&gt;" class="s5" d="m862.5 637.2c0 4.6-3.7 8.3-8.3 8.3-4.6 0-8.3-3.7-8.3-8.3 0-4.6 3.7-8.3 8.3-8.3 4.6 0 8.3 3.7 8.3 8.3z"/>
							</g>
							<path id="&lt;Path&gt;" class="s4" d="m862.5 637.2q0 0.8-0.1 1.6h-16.4q-0.1-0.8-0.1-1.6 0-0.8 0.1-1.6h16.4q0.1 0.8 0.1 1.6z"/>
						</g>
						<g id="&lt;Group&gt;">
							<g id="&lt;Group&gt;">
								<path id="&lt;Path&gt;" class="s5" d="m904.2 637.2c0 4.6-3.7 8.3-8.3 8.3-4.6 0-8.3-3.7-8.3-8.3 0-4.6 3.7-8.3 8.3-8.3 4.6 0 8.3 3.7 8.3 8.3z"/>
							</g>
							<path id="&lt;Path&gt;" class="s4" d="m904.2 637.2q0 0.8-0.2 1.6h-16.3q-0.2-0.8-0.2-1.6 0-0.8 0.2-1.6h16.3q0.2 0.8 0.2 1.6z"/>
						</g>
						<g id="&lt;Group&gt;">
							<g id="&lt;Group&gt;">
								<path id="&lt;Path&gt;" class="s5" d="m945.9 637.2c0 4.6-3.8 8.3-8.3 8.3-4.6 0-8.4-3.7-8.4-8.3 0-4.6 3.8-8.3 8.4-8.3 4.5 0 8.3 3.7 8.3 8.3z"/>
							</g>
							<path id="&lt;Path&gt;" class="s4" d="m945.9 637.2q0 0.8-0.2 1.6h-16.3q-0.2-0.8-0.2-1.6 0-0.8 0.2-1.6h16.3q0.2 0.8 0.2 1.6z"/>
						</g>
						<g id="&lt;Group&gt;">
							<g id="&lt;Group&gt;">
								<path id="&lt;Path&gt;" class="s5" d="m987.6 637.2c0 4.6-3.8 8.3-8.4 8.3-4.6 0-8.3-3.7-8.3-8.3 0-4.6 3.7-8.3 8.3-8.3 4.6 0 8.4 3.7 8.4 8.3z"/>
							</g>
							<path id="&lt;Path&gt;" class="s4" d="m987.6 637.2q0 0.8-0.2 1.6h-16.3q-0.2-0.8-0.2-1.6 0-0.8 0.2-1.6h16.3q0.2 0.8 0.2 1.6z"/>
						</g>
						<g id="&lt;Group&gt;">
							<g id="&lt;Group&gt;">
								<path id="&lt;Path&gt;" class="s5" d="m1029.2 637.2c0 4.6-3.7 8.3-8.3 8.3-4.6 0-8.3-3.7-8.3-8.3 0-4.6 3.7-8.3 8.3-8.3 4.6 0 8.3 3.7 8.3 8.3z"/>
							</g>
							<path id="&lt;Path&gt;" class="s4" d="m1029.2 637.2q0 0.8-0.1 1.6h-16.4q-0.1-0.8-0.1-1.6 0-0.8 0.1-1.6h16.4q0.1 0.8 0.1 1.6z"/>
						</g>
						<g id="&lt;Group&gt;">
							<g id="&lt;Group&gt;">
								<path id="&lt;Path&gt;" class="s5" d="m1070.9 637.2c0 4.6-3.7 8.3-8.3 8.3-4.6 0-8.3-3.7-8.3-8.3 0-4.6 3.7-8.3 8.3-8.3 4.6 0 8.3 3.7 8.3 8.3z"/>
							</g>
							<path id="&lt;Path&gt;" class="s4" d="m1070.9 637.2q0 0.8-0.1 1.6h-16.4q-0.1-0.8-0.1-1.6 0-0.8 0.1-1.6h16.4q0.1 0.8 0.1 1.6z"/>
						</g>
						<g id="&lt;Group&gt;">
							<g id="&lt;Group&gt;">
								<path id="&lt;Path&gt;" class="s5" d="m1112.6 637.2c0 4.6-3.7 8.3-8.3 8.3-4.6 0-8.4-3.7-8.4-8.3 0-4.6 3.8-8.3 8.4-8.3 4.6 0 8.3 3.7 8.3 8.3z"/>
							</g>
							<path id="&lt;Path&gt;" class="s4" d="m1112.6 637.2q0 0.8-0.2 1.6h-16.3q-0.2-0.8-0.2-1.6 0-0.8 0.2-1.6h16.3q0.2 0.8 0.2 1.6z"/>
						</g>
						<g id="&lt;Group&gt;">
							<g id="&lt;Group&gt;">
								<path id="&lt;Path&gt;" class="s5" d="m1154.3 637.2c0 4.6-3.8 8.3-8.4 8.3-4.6 0-8.3-3.7-8.3-8.3 0-4.6 3.7-8.3 8.3-8.3 4.6 0 8.4 3.7 8.4 8.3z"/>
							</g>
							<path id="&lt;Path&gt;" class="s4" d="m1154.3 637.2q0 0.8-0.2 1.6h-16.3q-0.2-0.8-0.2-1.6 0-0.8 0.2-1.6h16.3q0.2 0.8 0.2 1.6z"/>
						</g>
						<g id="&lt;Group&gt;">
							<g id="&lt;Group&gt;">
								<path id="&lt;Path&gt;" class="s5" d="m1195.9 637.2c0 4.6-3.7 8.3-8.3 8.3-4.6 0-8.3-3.7-8.3-8.3 0-4.6 3.7-8.3 8.3-8.3 4.6 0 8.3 3.7 8.3 8.3z"/>
							</g>
							<path id="&lt;Path&gt;" class="s4" d="m1196 637.2q-0.1 0.8-0.2 1.6h-16.3q-0.2-0.8-0.2-1.6 0-0.8 0.2-1.6h16.3q0.1 0.8 0.2 1.6z"/>
						</g>
						<g id="&lt;Group&gt;">
							<g id="&lt;Group&gt;">
								<path id="&lt;Path&gt;" class="s5" d="m1237.6 637.2c0 4.6-3.7 8.3-8.3 8.3-4.6 0-8.3-3.7-8.3-8.3 0-4.6 3.7-8.3 8.3-8.3 4.6 0 8.3 3.7 8.3 8.3z"/>
							</g>
							<path id="&lt;Path&gt;" class="s4" d="m1237.6 637.2q0 0.8-0.1 1.6h-16.4q-0.1-0.8-0.1-1.6 0-0.8 0.1-1.6h16.4q0.1 0.8 0.1 1.6z"/>
						</g>
						<g id="&lt;Group&gt;">
							<g id="&lt;Group&gt;">
								<path id="&lt;Path&gt;" class="s5" d="m1279.3 637.2c0 4.6-3.7 8.3-8.3 8.3-4.6 0-8.3-3.7-8.3-8.3 0-4.6 3.7-8.3 8.3-8.3 4.6 0 8.3 3.7 8.3 8.3z"/>
							</g>
							<path id="&lt;Path&gt;" class="s4" d="m1279.3 637.2q0 0.8-0.1 1.6h-16.4q-0.1-0.8-0.1-1.6 0-0.8 0.1-1.6h16.4q0.1 0.8 0.1 1.6z"/>
						</g>
						<g id="&lt;Group&gt;">
							<g id="&lt;Group&gt;">
								<path id="&lt;Path&gt;" class="s5" d="m1321 637.2c0 4.6-3.7 8.3-8.3 8.3-4.6 0-8.4-3.7-8.4-8.3 0-4.6 3.8-8.3 8.4-8.3 4.6 0 8.3 3.7 8.3 8.3z"/>
							</g>
							<path id="&lt;Path&gt;" class="s4" d="m1321 637.2q0 0.8-0.2 1.6h-16.3q-0.2-0.8-0.2-1.6 0-0.8 0.2-1.6h16.3q0.2 0.8 0.2 1.6z"/>
						</g>
					</g>
				</g>
			</g>
			<g id="&lt;Group&gt;">
				<path id="&lt;Path&gt;" class="s5" d="m907 876.1h-314v-476.4h314z"/>
				<path id="&lt;Path&gt;" class="s4" d="m593 610.4h-74.1v-95.4l30-28.9h44.1z"/>
				<path id="&lt;Path&gt;" class="s4" d="m907 610.4h74.1v-95.4l-30-28.9h-44.1z"/>
				<g id="&lt;Group&gt;">
					<path id="&lt;Path&gt;" class="s6" d="m870.8 568h-241.6v-129.9h241.6z"/>
					<path id="&lt;Path&gt;" class="s7" d="m828.9 568h-157.8v-129.9h157.8z"/>
					<path id="&lt;Path&gt;" class="s0" d="m820.1 560.8h-140.2v-115.4h140.2z"/>
					<g id="&lt;Group&gt;">
						<path id="&lt;Path&gt;" class="s4" d="m664.2 459.3c0 7.7-6.2 13.9-13.9 13.9-7.6 0-13.9-6.2-13.9-13.9 0-7.7 6.3-13.9 13.9-13.9 7.7 0 13.9 6.2 13.9 13.9z"/>
						<path id="&lt;Path&gt;" class="s8" d="m661.9 459.3c0 6.4-5.2 11.5-11.6 11.5-6.4 0-11.5-5.1-11.5-11.5 0-6.4 5.1-11.6 11.5-11.6 6.4 0 11.6 5.2 11.6 11.6z"/>
						<path id="&lt;Path&gt;" class="s1" d="m661.9 459.3h-11.6-11.5c0-6.4 5.1-11.6 11.5-11.6 6.4 0 11.6 5.2 11.6 11.6z"/>
						<path id="&lt;Path&gt;" class="s9" d="m650.2 459.3h-11.4c0-3.1 1.2-6 3.3-8.1z"/>
						<path id="&lt;Path&gt;" class="s0" d="m648.1 450.8l0.6-0.1 2.5 9.4-1.4 0.3z"/>
					</g>
					<g id="&lt;Group&gt;">
						<path id="&lt;Path&gt;" class="s4" d="m664.2 503.1c0 7.7-6.2 13.9-13.9 13.9-7.6 0-13.9-6.2-13.9-13.9 0-7.7 6.3-13.9 13.9-13.9 7.7 0 13.9 6.2 13.9 13.9z"/>
						<path id="&lt;Path&gt;" class="s8" d="m661.9 503.1c0 6.4-5.2 11.5-11.6 11.5-6.4 0-11.5-5.1-11.5-11.5 0-6.4 5.1-11.6 11.5-11.6 6.4 0 11.6 5.2 11.6 11.6z"/>
						<path id="&lt;Path&gt;" class="s1" d="m661.9 503.1h-11.6-11.5c0-6.4 5.1-11.6 11.5-11.6 6.4 0 11.6 5.2 11.6 11.6z"/>
						<path id="&lt;Path&gt;" class="s9" d="m650.2 503.1h-11.4c0-3.1 1.2-6 3.3-8.1z"/>
						<path id="&lt;Path&gt;" class="s0" d="m650.3 494.4h0.6v9.8l-1.4-0.1z"/>
					</g>
					<g id="&lt;Group&gt;">
						<path id="&lt;Path&gt;" class="s4" d="m664.2 546.9c0 7.7-6.2 13.9-13.9 13.9-7.6 0-13.9-6.2-13.9-13.9 0-7.7 6.3-13.9 13.9-13.9 7.7 0 13.9 6.2 13.9 13.9z"/>
						<path id="&lt;Path&gt;" class="s8" d="m661.9 546.9c0 6.4-5.2 11.5-11.6 11.5-6.4 0-11.5-5.1-11.5-11.5 0-6.4 5.1-11.6 11.5-11.6 6.4 0 11.6 5.2 11.6 11.6z"/>
						<path id="&lt;Path&gt;" class="s1" d="m661.9 546.9h-11.6-11.5c0-6.4 5.1-11.6 11.5-11.6 6.4 0 11.6 5.2 11.6 11.6z"/>
						<path id="&lt;Path&gt;" class="s9" d="m650.2 546.9h-11.4c0-3.1 1.2-6 3.3-8.1z"/>
						<path id="&lt;Path&gt;" class="s0" d="m654.6 539.1l0.6 0.3-4.6 8.6-1.2-0.7z"/>
					</g>
					<path id="&lt;Path&gt;" class="s1" d="m864.9 479.3h-30.6v-35.5h30.6z"/>
					<path id="&lt;Path&gt;" class="s5" d="m837 513c-1.5 0-2.7-1.3-2.7-2.7v-21.5c0-1.5 1.2-2.7 2.7-2.7 1.5 0 2.7 1.2 2.7 2.7v21.5c0 1.4-1.2 2.7-2.7 2.7z"/>
					<path id="&lt;Path&gt;" class="s5" d="m845.4 513c-1.5 0-2.7-1.3-2.7-2.7v-21.5c0-1.5 1.2-2.7 2.7-2.7 1.5 0 2.7 1.2 2.7 2.7v21.5c0 1.4-1.2 2.7-2.7 2.7z"/>
					<path id="&lt;Path&gt;" class="s5" d="m853.8 513c-1.5 0-2.7-1.3-2.7-2.7v-21.5c0-1.5 1.2-2.7 2.7-2.7 1.5 0 2.7 1.2 2.7 2.7v21.5c0 1.4-1.2 2.7-2.7 2.7z"/>
					<path id="&lt;Path&gt;" class="s5" d="m862.2 513c-1.5 0-2.7-1.3-2.7-2.7v-21.5c0-1.5 1.2-2.7 2.7-2.7 1.5 0 2.7 1.2 2.7 2.7v21.5c0 1.4-1.2 2.7-2.7 2.7z"/>
					<path id="&lt;Path&gt;" class="s1" d="m840 524c0 1.6-1.3 3-3 3-1.6 0-3-1.4-3-3 0-1.7 1.4-3 3-3 1.7 0 3 1.3 3 3z"/>
					<path id="&lt;Path&gt;" class="s1" d="m848.4 524c0 1.6-1.3 3-3 3-1.6 0-3-1.4-3-3 0-1.7 1.4-3 3-3 1.7 0 3 1.3 3 3z"/>
					<path id="&lt;Path&gt;" class="s3" d="m856.8 524c0 1.6-1.3 3-3 3-1.6 0-3-1.4-3-3 0-1.7 1.4-3 3-3 1.7 0 3 1.3 3 3z"/>
					<path id="&lt;Path&gt;" class="s1" d="m865.2 524c0 1.6-1.3 3-3 3-1.6 0-3-1.4-3-3 0-1.7 1.4-3 3-3 1.7 0 3 1.3 3 3z"/>
					<path id="&lt;Path&gt;" class="s3" d="m840 532.3c0 1.6-1.3 3-3 3-1.6 0-3-1.4-3-3 0-1.7 1.4-3 3-3 1.7 0 3 1.3 3 3z"/>
					<path id="&lt;Path&gt;" class="s3" d="m848.4 532.3c0 1.6-1.3 3-3 3-1.6 0-3-1.4-3-3 0-1.7 1.4-3 3-3 1.7 0 3 1.3 3 3z"/>
					<path id="&lt;Path&gt;" class="s1" d="m856.8 532.3c0 1.6-1.3 3-3 3-1.6 0-3-1.4-3-3 0-1.7 1.4-3 3-3 1.7 0 3 1.3 3 3z"/>
					<path id="&lt;Path&gt;" class="s3" d="m865.2 532.3c0 1.6-1.3 3-3 3-1.6 0-3-1.4-3-3 0-1.7 1.4-3 3-3 1.7 0 3 1.3 3 3z"/>
					<path id="&lt;Path&gt;" class="s3" d="m840 540.6c0 1.7-1.3 3-3 3-1.6 0-3-1.3-3-3 0-1.6 1.4-3 3-3 1.7 0 3 1.4 3 3z"/>
					<path id="&lt;Path&gt;" class="s1" d="m848.4 540.6c0 1.7-1.3 3-3 3-1.6 0-3-1.3-3-3 0-1.6 1.4-3 3-3 1.7 0 3 1.4 3 3z"/>
					<path id="&lt;Path&gt;" class="s3" d="m856.8 540.6c0 1.7-1.3 3-3 3-1.6 0-3-1.3-3-3 0-1.6 1.4-3 3-3 1.7 0 3 1.4 3 3z"/>
					<path id="&lt;Path&gt;" class="s1" d="m865.2 540.6c0 1.7-1.3 3-3 3-1.6 0-3-1.3-3-3 0-1.6 1.4-3 3-3 1.7 0 3 1.4 3 3z"/>
					<path id="&lt;Path&gt;" class="s1" d="m840 548.9c0 1.7-1.3 3-3 3-1.6 0-3-1.3-3-3 0-1.6 1.4-3 3-3 1.7 0 3 1.4 3 3z"/>
					<path id="&lt;Path&gt;" class="s1" d="m848.4 548.9c0 1.7-1.3 3-3 3-1.6 0-3-1.3-3-3 0-1.6 1.4-3 3-3 1.7 0 3 1.4 3 3z"/>
					<path id="&lt;Path&gt;" class="s3" d="m856.8 548.9c0 1.7-1.3 3-3 3-1.6 0-3-1.3-3-3 0-1.6 1.4-3 3-3 1.7 0 3 1.4 3 3z"/>
					<path id="&lt;Path&gt;" class="s1" d="m865.2 548.9c0 1.7-1.3 3-3 3-1.6 0-3-1.3-3-3 0-1.6 1.4-3 3-3 1.7 0 3 1.4 3 3z"/>
				</g>
				<path id="&lt;Path&gt;" class="s0" d="m586.4 854.3h327.2v21.8h-327.2z"/>
				<g id="&lt;Group&gt;">
					<path id="&lt;Path&gt;" class="s0" d="m641.5 836.4h-5.5v-69.2h5.5z"/>
					<path id="&lt;Path&gt;" class="s0" d="m653.9 836.4h-5.5v-69.2h5.5z"/>
					<path id="&lt;Path&gt;" class="s0" d="m666.2 836.4h-5.5v-69.2h5.5z"/>
					<path id="&lt;Path&gt;" class="s0" d="m678.6 836.4h-5.5v-69.2h5.5z"/>
					<path id="&lt;Path&gt;" class="s0" d="m690.9 836.4h-5.5v-69.2h5.5z"/>
					<path id="&lt;Path&gt;" class="s0" d="m703.3 836.4h-5.5v-69.2h5.5z"/>
					<path id="&lt;Path&gt;" class="s0" d="m715.7 836.4h-5.5v-69.2h5.5z"/>
					<path id="&lt;Path&gt;" class="s0" d="m728 836.4h-5.5v-69.2h5.5z"/>
					<path id="&lt;Path&gt;" class="s0" d="m740.4 836.4h-5.5v-69.2h5.5z"/>
					<path id="&lt;Path&gt;" class="s0" d="m752.7 836.4h-5.4v-69.2h5.4z"/>
					<path id="&lt;Path&gt;" class="s0" d="m765.1 836.4h-5.5v-69.2h5.5z"/>
					<path id="&lt;Path&gt;" class="s0" d="m777.5 836.4h-5.5v-69.2h5.5z"/>
					<path id="&lt;Path&gt;" class="s0" d="m789.8 836.4h-5.5v-69.2h5.5z"/>
					<path id="&lt;Path&gt;" class="s0" d="m802.2 836.4h-5.5v-69.2h5.5z"/>
					<path id="&lt;Path&gt;" class="s0" d="m814.6 836.4h-5.5v-69.2h5.5z"/>
					<path id="&lt;Path&gt;" class="s0" d="m826.9 836.4h-5.5v-69.2h5.5z"/>
					<path id="&lt;Path&gt;" class="s0" d="m839.3 836.4h-5.5v-69.2h5.5z"/>
					<path id="&lt;Path&gt;" class="s0" d="m851.6 836.4h-5.5v-69.2h5.5z"/>
					<path id="&lt;Path&gt;" class="s0" d="m864 836.4h-5.5v-69.2h5.5z"/>
				</g>
				<g id="&lt;Group&gt;">
					<g id="&lt;Group&gt;">
						<path id="&lt;Path&gt;" class="s3" d="m642.3 664h-10.4v-74.9h10.4z"/>
						<path id="&lt;Path&gt;" class="s6" d="m642.3 600.8v63.2h-10.4v-63.2z"/>
						<path id="&lt;Path&gt;" class="s1" d="m645.9 595.7v5.1h-17.7v-5.1z"/>
					</g>
					<g id="&lt;Group&gt;">
						<path id="&lt;Path&gt;" class="s3" d="m668 664h-10.4v-74.9h10.4z"/>
						<path id="&lt;Path&gt;" class="s6" d="m668 629.1v34.9h-10.4v-34.9z"/>
						<path id="&lt;Path&gt;" class="s1" d="m671.7 624.1v5h-17.7v-5z"/>
					</g>
					<g id="&lt;Group&gt;">
						<path id="&lt;Path&gt;" class="s3" d="m693.7 664h-10.3v-74.9h10.3z"/>
						<path id="&lt;Path&gt;" class="s6" d="m693.7 607v57h-10.3v-57z"/>
						<path id="&lt;Path&gt;" class="s1" d="m697.4 602v5h-17.7v-5z"/>
					</g>
					<g id="&lt;Group&gt;">
						<path id="&lt;Path&gt;" class="s3" d="m719.5 664h-10.4v-74.9h10.4z"/>
						<path id="&lt;Path&gt;" class="s6" d="m719.5 600.8v63.2h-10.4v-63.2z"/>
						<path id="&lt;Path&gt;" class="s1" d="m723.1 595.7v5.1h-17.7v-5.1z"/>
					</g>
					<g id="&lt;Group&gt;">
						<path id="&lt;Path&gt;" class="s3" d="m745.2 664h-10.4v-74.9h10.4z"/>
						<path id="&lt;Path&gt;" class="s6" d="m745.2 594.1v69.9h-10.4v-69.9z"/>
						<path id="&lt;Path&gt;" class="s1" d="m748.9 589.1v5h-17.8v-5z"/>
					</g>
				</g>
				<g id="&lt;Group&gt;">
					<path id="&lt;Path&gt;" class="s4" d="m797.9 621.9h-32.8v-32.8h32.8z"/>
					<path id="&lt;Path&gt;" class="s4" d="m797.9 664h-32.8v-32.8h32.8z"/>
					<path id="&lt;Path&gt;" class="s1" d="m792.4 605.5c0 6-4.9 10.9-10.9 10.9-6 0-10.9-4.9-10.9-10.9 0-6 4.9-10.9 10.9-10.9 6 0 10.9 4.9 10.9 10.9z"/>
					<path id="&lt;Path&gt;" class="s6" d="m792.4 647.6c0 6.1-4.9 10.9-10.9 10.9-6 0-10.9-4.8-10.9-10.9 0-6 4.9-10.9 10.9-10.9 6 0 10.9 4.9 10.9 10.9z"/>
				</g>
				<g id="&lt;Group&gt;">
					<path id="&lt;Path&gt;" class="s4" d="m655.2 399.7h-26v-30.8h26z"/>
					<path id="&lt;Path&gt;" class="s5" d="m659.6 372.8h-34.9v-15.3h34.9z"/>
				</g>
				<g id="&lt;Group&gt;">
					<path id="&lt;Path&gt;" class="s4" d="m706.1 399.7h-26.1v-30.8h26.1z"/>
					<path id="&lt;Path&gt;" class="s5" d="m710.5 372.8h-34.9v-15.3h34.9z"/>
				</g>
				<g id="&lt;Group&gt;">
					<path id="&lt;Path&gt;" class="s4" d="m870.8 664h-14.3v-74.9h14.3z"/>
					<path id="&lt;Path&gt;" class="s0" d="m866.2 658.8h-5.1v-64.5h5.1z"/>
					<g id="&lt;Group&gt;">
						<path id="&lt;Path&gt;" class="s3" d="m865.4 626.6h-3.4v-25.5h3.4z"/>
						<path id="&lt;Path&gt;" class="s1" d="m870.8 603.2c0 4-3.2 7.2-7.1 7.2-4 0-7.2-3.2-7.2-7.2 0-4 3.2-7.2 7.2-7.2 3.9 0 7.1 3.2 7.1 7.2z"/>
					</g>
				</g>
				<g id="&lt;Group&gt;">
					<path id="&lt;Path&gt;" class="s4" d="m847.2 664h-14.4v-74.9h14.4z"/>
					<path id="&lt;Path&gt;" class="s0" d="m842.5 658.8h-5v-64.5h5z"/>
					<g id="&lt;Group&gt;">
						<path id="&lt;Path&gt;" class="s3" d="m841.7 626.6h-3.4v18.9h3.4z"/>
						<path id="&lt;Path&gt;" class="s1" d="m847.2 645.5c0 4-3.2 7.2-7.2 7.2-4 0-7.2-3.2-7.2-7.2 0-3.9 3.2-7.2 7.2-7.2 4 0 7.2 3.3 7.2 7.2z"/>
					</g>
				</g>
				<g id="&lt;Group&gt;">
					<path id="&lt;Path&gt;" class="s4" d="m823.5 664h-14.3v-74.9h14.3z"/>
					<path id="&lt;Path&gt;" class="s0" d="m818.9 658.8h-5.1v-64.5h5.1z"/>
					<g id="&lt;Group&gt;">
						<path id="&lt;Path&gt;" class="s3" d="m818.1 626.6h-3.5v-25.5h3.5z"/>
						<path id="&lt;Path&gt;" class="s1" d="m823.5 594.6c0 3.9-3.2 7.2-7.1 7.2-4 0-7.2-3.3-7.2-7.2 0-4 3.2-7.2 7.2-7.2 3.9 0 7.1 3.2 7.1 7.2z"/>
					</g>
				</g>
			</g>
		</g>
	</g>
	<g id="Robot Arm">
		<g id="&lt;Group&gt;">
			<path id="&lt;Path&gt;" class="s4" d="m91 186.9h1318v17.7h-1318z"/>
			<path id="&lt;Path&gt;" class="s4" d="m91 92.2h1318v17.7h-1318z"/>
			<g id="&lt;Group&gt;">
				<g id="&lt;Group&gt;">
					<path id="&lt;Path&gt;" class="s4" d="m90.5 108h36.8v80h-36.8z"/>
					<path id="&lt;Path&gt;" class="s4" d="m553.4 185.7h-34.2v-74.6h34.2z"/>
					<path id="&lt;Path&gt;" class="s4" d="m980.9 185.7h-34.3v-74.6h34.3z"/>
					<path id="&lt;Path&gt;" class="s4" d="m1372.8 109h36.7v80h-36.7z"/>
				</g>
				<path id="&lt;Path&gt;" class="s4" d="m322.6 189.3l-65.5-72.9-65.6 72.9-69.9-77.6 3.6-3.2 66.3 73.6 65.6-73 65.5 73 65.5-73 65.6 73 67.8-75.1 3.6 3.2-71.5 79.1-65.5-72.9z"/>
				<path id="&lt;Path&gt;" class="s4" d="m749.3 189.3l-65.6-72.9-65.5 72.9-70-77.6 3.6-3.2 66.4 73.6 65.5-73 65.6 73 65.5-73 65.5 73 67.9-75.1 3.6 3.2-71.5 79.1-65.5-72.9z"/>
				<path id="&lt;Path&gt;" class="s4" d="m1175.9 189.3l-65.5-72.9-65.5 72.9-70-77.6 3.6-3.2 66.4 73.6 65.5-73 65.5 73 65.6-73 65.5 73 67.9-75.1 3.6 3.2-71.5 79.1-65.5-72.9z"/>
			</g>
			<g id="&lt;Group&gt;">
				<path id="&lt;Path&gt;" class="s1" d="m350.9 414.2h18.8l1.7-46.8c0.3-6.3-4.7-11.6-11.1-11.6-6.3 0-11.3 5.3-11 11.6z"/>
				<path id="&lt;Path&gt;" class="s5" d="m404.6 325.2l47.7 19.5c5.7 2.3 12.3-0.4 14.7-6.2 2.3-5.8-0.4-12.4-6.2-14.7l-47.7-19.5c-5.8-2.3-12.4 0.4-14.7 6.2-2.4 5.8 0.4 12.4 6.2 14.7z"/>
				<g id="&lt;Group&gt;">
					<path id="&lt;Path&gt;" class="s0" d="m496.3 195.7c0 12.6 10.2 22.9 22.8 22.9 12.6 0 22.9-10.3 22.9-22.9 0-12.6-10.3-22.8-22.9-22.8-12.6 0-22.8 10.2-22.8 22.8z"/>
					<path id="&lt;Path&gt;" class="s4" d="m509.1 195.7c0 5.6 4.5 10.1 10 10.1 5.6 0 10.1-4.5 10.1-10.1 0-5.5-4.5-10-10.1-10-5.5 0-10 4.5-10 10z"/>
				</g>
				<g id="&lt;Group&gt;">
					<path id="&lt;Path&gt;" class="s0" d="m384 195.7c0 12.6 10.3 22.9 22.9 22.9 12.6 0 22.8-10.3 22.8-22.9 0-12.6-10.2-22.8-22.8-22.8-12.6 0-22.9 10.2-22.9 22.8z"/>
					<path id="&lt;Path&gt;" class="s4" d="m396.8 195.7c0 5.6 4.5 10.1 10.1 10.1 5.5 0 10-4.5 10-10.1 0-5.5-4.5-10-10-10-5.6 0-10.1 4.5-10.1 10z"/>
				</g>
				<path id="&lt;Path&gt;" class="s4" d="m374.8 227.3h176.4v-24.4h-176.4z"/>
				<g id="&lt;Group&gt;">
					<path id="&lt;Path&gt;" class="s4" d="m410.4 269.1h105.2l20-41.8h-145.2z"/>
					<path id="&lt;Path&gt;" class="s0" d="m390.4 227.3l5.3 11h134.6l5.3-11z"/>
				</g>
				<g id="&lt;Group&gt;">
					<g id="&lt;Group&gt;">
						<path id="&lt;Path&gt;" class="s1" d="m463 347.5c7.8 0 14.3-6 14.9-13.8l6.1-66.2c0.8-12.1-8.8-22.4-21-22.4-12.2 0-21.8 10.3-21 22.4l6.1 66.2c0.6 7.8 7.1 13.8 14.9 13.8z"/>
						<g id="&lt;Group&gt;">
							<path id="&lt;Compound Path&gt;" fill-rule="evenodd" class="s1" d="m486.9 267.8l-0.1 1.3-5.9 64.8c-0.7 9.3-8.5 16.6-17.9 16.6-5.9 0-11.2-2.9-14.5-7.3-1.9-2.7-3.1-5.8-3.4-9.2l-1.5-17.3-4.4-47.6-0.2-1.3c-0.4-6.7 1.9-13.2 6.4-18.1 4.6-4.9 11-7.6 17.6-7.6 6.6 0 13 2.7 17.6 7.6 4.5 4.9 6.8 11.4 6.3 18.1zm-14.8 72.4c1.6-1.8 2.6-4.2 2.8-6.8l5.9-64.3 0.1-0.9q0-0.4 0.1-0.9 0-0.9 0-1.7 0-0.1 0-0.1 0-0.1 0-0.2c-0.2-4.3-1.8-8.3-4.8-11.5-3.5-3.7-8.2-5.7-13.2-5.7-5.1 0-9.7 2-13.2 5.7-2 2.2-3.5 4.8-4.2 7.6q0 0.1-0.1 0.1-0.1 0.7-0.2 1.3-0.1 0.4-0.2 0.7-0.1 1.2-0.1 2.5 0 0.5 0 1v0.3l0.2 1.8 4.6 50.2 1.3 14.2c0.2 2.6 1.2 4.9 2.8 6.7q0.4 0.5 0.8 0.9c0.2 0.3 0.5 0.5 0.8 0.7 0.3 0.3 0.6 0.5 0.9 0.7q0.4 0.3 0.7 0.5 0 0 0 0 0.3 0.1 0.5 0.2 0.3 0.2 0.6 0.3 0.2 0.1 0.4 0.2 0 0 0 0 0.5 0.2 0.9 0.3 0.4 0.1 0.8 0.2 0.2 0.1 0.4 0.1 0.3 0.1 0.7 0.1 0.3 0.1 0.5 0.1 0.6 0 1.1 0 0.6 0 1.2 0 0.5-0.1 1-0.2 0.1 0 0.2 0 0.6-0.1 1.1-0.3 0.5-0.2 1-0.4c0.8-0.3 1.5-0.7 2.2-1.1q0.4-0.3 0.8-0.7c0.3-0.2 0.6-0.4 0.8-0.7q0.4-0.4 0.8-0.9z"/>
							<path id="&lt;Compound Path&gt;" fill-rule="evenodd" class="s2" d="m486.9 267.8l-0.1 1.3-5.9 64.8c-0.7 9.3-8.5 16.6-17.9 16.6-5.9 0-11.2-2.9-14.5-7.3-1.9-2.7-3.1-5.8-3.4-9.2l-1.5-17.3-4.4-47.6-0.2-1.3c-0.4-6.7 1.9-13.2 6.4-18.1 4.6-4.9 11-7.6 17.6-7.6 6.6 0 13 2.7 17.6 7.6 4.5 4.9 6.8 11.4 6.3 18.1zm-14.8 72.4c1.6-1.8 2.6-4.2 2.8-6.8l5.9-64.3 0.1-0.9q0-0.4 0.1-0.9 0-0.9 0-1.7 0-0.1 0-0.1 0-0.1 0-0.2c-0.2-4.3-1.8-8.3-4.8-11.5-3.5-3.7-8.2-5.7-13.2-5.7-5.1 0-9.7 2-13.2 5.7-2 2.2-3.5 4.8-4.2 7.6q0 0.1-0.1 0.1-0.1 0.7-0.2 1.3-0.1 0.4-0.2 0.7-0.1 1.2-0.1 2.5 0 0.5 0 1v0.3l0.2 1.8 4.6 50.2 1.3 14.2c0.2 2.6 1.2 4.9 2.8 6.7q0.4 0.5 0.8 0.9c0.2 0.3 0.5 0.5 0.8 0.7 0.3 0.3 0.6 0.5 0.9 0.7q0.4 0.3 0.7 0.5 0 0 0 0 0.3 0.1 0.5 0.2 0.3 0.2 0.6 0.3 0.2 0.1 0.4 0.2 0 0 0 0 0.5 0.2 0.9 0.3 0.4 0.1 0.8 0.2 0.2 0.1 0.4 0.1 0.3 0.1 0.7 0.1 0.3 0.1 0.5 0.1 0.6 0 1.1 0 0.6 0 1.2 0 0.5-0.1 1-0.2 0.1 0 0.2 0 0.6-0.1 1.1-0.3 0.5-0.2 1-0.4c0.8-0.3 1.5-0.7 2.2-1.1q0.4-0.3 0.8-0.7c0.3-0.2 0.6-0.4 0.8-0.7q0.4-0.4 0.8-0.9z"/>
						</g>
					</g>
					<g id="&lt;Group&gt;">
						<path id="&lt;Path&gt;" class="s5" d="m445 266c0 9.9 8 18 18 18 9.9 0 18-8.1 18-18 0-10-8.1-18.1-18-18.1-10 0-18 8.1-18 18.1z"/>
						<path id="&lt;Path&gt;" class="s4" d="m450.4 266c0 6.9 5.6 12.6 12.6 12.6 7 0 12.6-5.7 12.6-12.6 0-7-5.6-12.7-12.6-12.7-7 0-12.6 5.7-12.6 12.7z"/>
					</g>
					<g id="&lt;Group&gt;">
						<path id="&lt;Path&gt;" class="s5" d="m451.2 332.8c0 6.5 5.3 11.7 11.8 11.7 6.5 0 11.8-5.2 11.8-11.7 0-6.6-5.3-11.8-11.8-11.8-6.5 0-11.8 5.2-11.8 11.8z"/>
						<path id="&lt;Path&gt;" class="s4" d="m454.7 332.8c0 4.5 3.7 8.2 8.3 8.2 4.6 0 8.3-3.7 8.3-8.2 0-4.6-3.7-8.3-8.3-8.3-4.6 0-8.3 3.7-8.3 8.3z"/>
					</g>
				</g>
				<g id="&lt;Group&gt;">
					<path id="&lt;Path&gt;" class="s4" d="m368.9 374.2l48.1-51.7c4.3-4.6 4-11.8-0.5-16-4.6-4.3-11.7-4-16 0.6l-48.2 51.7c-4.2 4.6-4 11.7 0.6 16 4.6 4.2 11.7 4 16-0.6z"/>
					<path id="&lt;Path&gt;" class="s5" d="m404.2 315.1c0 2.3 1.9 4.2 4.2 4.2 2.4 0 4.3-1.9 4.3-4.2 0-2.3-1.9-4.2-4.3-4.2-2.3 0-4.2 1.9-4.2 4.2z"/>
					<path id="&lt;Path&gt;" class="s5" d="m356.1 366.8c0 2.3 1.9 4.2 4.2 4.2 2.4 0 4.3-1.9 4.3-4.2 0-2.4-1.9-4.2-4.3-4.2-2.3 0-4.2 1.8-4.2 4.2z"/>
				</g>
				<path id="&lt;Path&gt;" class="s4" d="m347.6 420.7h25.5v-6.5h-25.5z"/>
				<path id="&lt;Path&gt;" class="s5" d="m351.1 446.1h18.5v-25.4h-18.5z"/>
				<g id="&lt;Group&gt;">
					<path id="&lt;Path&gt;" class="s4" d="m341.8 459.1h37.1v-13h-37.1z"/>
					<path id="&lt;Path&gt;" class="s5" d="m368.5 452.6c0 1.7 1.4 3.2 3.2 3.2 1.8 0 3.2-1.5 3.2-3.2 0-1.8-1.4-3.2-3.2-3.2-1.8 0-3.2 1.4-3.2 3.2z"/>
					<path id="&lt;Path&gt;" class="s5" d="m345.8 452.6c0 1.7 1.4 3.2 3.2 3.2 1.8 0 3.2-1.5 3.2-3.2 0-1.8-1.4-3.2-3.2-3.2-1.8 0-3.2 1.4-3.2 3.2z"/>
				</g>
				<g id="&lt;Group&gt;">
					<g id="&lt;Group&gt;">
						<path id="&lt;Path&gt;" class="s5" d="m387.1 488.2h10l-21.7-29.1h-14.8z"/>
						<path id="&lt;Path&gt;" class="s5" d="m379.9 509.8h5.2l12-21.6h-10z"/>
					</g>
					<g id="&lt;Group&gt;">
						<path id="&lt;Path&gt;" class="s5" d="m333.6 488.2h-10l21.7-29.1h14.7z"/>
						<path id="&lt;Path&gt;" class="s5" d="m340.8 509.8h-5.2l-12-21.6h10z"/>
					</g>
				</g>
				<g id="&lt;Group&gt;">
					<path id="&lt;Path&gt;" class="s1" d="m340.8 535.3h39.1v-25c0-6.2-5.1-11.3-11.3-11.3h-16.5c-6.3 0-11.3 5.1-11.3 11.3z"/>
					<path id="&lt;Path&gt;" class="s1" d="m350.1 499.9h20.5v-3.5h-20.5z"/>
					<path id="&lt;Path&gt;" class="s4" d="m347.6 496.4h25.5v-5.4h-25.5z"/>
					<path id="&lt;Path&gt;" class="s4" d="m340.8 528.3h39.1v-12.1h-39.1z"/>
				</g>
			</g>
			<g id="&lt;Group&gt;">
				<path id="&lt;Path&gt;" class="s1" d="m1185.9 458.1h-18.8l-1.7-46.7c-0.3-6.4 4.7-11.7 11.1-11.7 6.3 0 11.4 5.3 11 11.7z"/>
				<path id="&lt;Path&gt;" class="s5" d="m1134.7 360.6l-48.7-16.8c-5.9-2-9.1-8.5-7-14.4 2-5.9 8.4-9 14.3-7l48.7 16.8c5.9 2.1 9.1 8.5 7 14.4-2 5.9-8.4 9-14.3 7z"/>
				<g id="&lt;Group&gt;">
					<path id="&lt;Path&gt;" class="s0" d="m1056.6 195.7c0 12.6-10.2 22.9-22.9 22.9-12.6 0-22.8-10.3-22.8-22.9 0-12.6 10.2-22.8 22.8-22.8 12.7 0 22.9 10.2 22.9 22.8z"/>
					<path id="&lt;Path&gt;" class="s4" d="m1043.8 195.7c0 5.6-4.5 10.1-10.1 10.1-5.5 0-10-4.5-10-10.1 0-5.5 4.5-10 10-10 5.6 0 10.1 4.5 10.1 10z"/>
				</g>
				<g id="&lt;Group&gt;">
					<path id="&lt;Path&gt;" class="s0" d="m1168.8 195.7c0 12.6-10.2 22.9-22.8 22.9-12.6 0-22.8-10.3-22.8-22.9 0-12.6 10.2-22.8 22.8-22.8 12.6 0 22.8 10.2 22.8 22.8z"/>
					<path id="&lt;Path&gt;" class="s4" d="m1156.1 195.7c0 5.6-4.5 10.1-10.1 10.1-5.5 0-10.1-4.5-10.1-10.1 0-5.5 4.6-10 10.1-10 5.6 0 10.1 4.5 10.1 10z"/>
				</g>
				<path id="&lt;Path&gt;" class="s4" d="m1178.1 227.3h-176.5v-24.4h176.5z"/>
				<g id="&lt;Group&gt;">
					<path id="&lt;Path&gt;" class="s4" d="m1142.5 269.1h-105.2l-20-41.8h145.2z"/>
					<path id="&lt;Path&gt;" class="s0" d="m1017.3 227.3l5.3 11h134.6l5.2-11z"/>
				</g>
				<g id="&lt;Group&gt;">
					<g id="&lt;Group&gt;">
						<path id="&lt;Path&gt;" class="s1" d="m1089.9 347.5c-7.8 0-14.3-6-14.9-13.8l-6.1-66.2c-0.8-12.1 8.8-22.4 21-22.4 12.2 0 21.8 10.3 20.9 22.4l-6.1 66.2c-0.5 7.8-7 13.8-14.8 13.8z"/>
						<g id="&lt;Group&gt;">
							<path id="&lt;Compound Path&gt;" fill-rule="evenodd" class="s1" d="m1113.8 267.8l-0.1 1.3-5.4 58.5-0.6 6.4c-0.4 6.1-3.9 11.3-9 14.2-2.6 1.5-5.6 2.3-8.8 2.3-9.4 0-17.2-7.3-17.9-16.6l-5.9-64.8-0.2-1.3c-0.4-6.7 1.9-13.2 6.4-18.1 4.5-4.9 10.9-7.6 17.6-7.6 6.6 0 13 2.7 17.5 7.6 4.6 4.9 6.9 11.4 6.4 18.1zm-11.3 57.8l5.2-56.5v-0.4q0.1-0.7 0.1-1.4 0.1-0.9 0.1-1.8 0-1-0.2-1.9 0 0 0-0.1c-0.5-3.6-2.1-7-4.6-9.7-3.5-3.7-8.2-5.7-13.2-5.7-5.1 0-9.8 2-13.2 5.7-3 3.2-4.6 7.2-4.8 11.5q0 0.1 0 0.2 0 0 0 0 0 0.9 0 1.8 0 0.5 0.1 0.9l0.1 0.9 5.9 64.3c0.1 1.8 0.6 3.5 1.5 5q0.2 0.5 0.6 0.9 0.3 0.5 0.7 0.9 0.3 0.4 0.7 0.8 0.1 0.1 0.2 0.2 0.3 0.3 0.6 0.5 1 0.9 2.2 1.5 0.5 0.3 1 0.5 0 0 0.1 0 0.4 0.2 0.8 0.3 0.3 0.1 0.7 0.2 0.1 0 0.2 0 0.7 0.2 1.5 0.3 0.5 0 1.1 0 0.5 0 1.1 0h0.1q0.6-0.1 1.1-0.2 0.6-0.1 1.2-0.3 0.5-0.2 1-0.3 0.3-0.2 0.6-0.4 0.4-0.1 0.7-0.3 0.4-0.2 0.8-0.5c0.3-0.2 0.6-0.4 0.9-0.7 2.4-1.9 4.1-4.9 4.4-8.3z"/>
							<path id="&lt;Compound Path&gt;" fill-rule="evenodd" class="s2" d="m1113.8 267.8l-0.1 1.3-5.4 58.5-0.6 6.4c-0.4 6.1-3.9 11.3-9 14.2-2.6 1.5-5.6 2.3-8.8 2.3-9.4 0-17.2-7.3-17.9-16.6l-5.9-64.8-0.2-1.3c-0.4-6.7 1.9-13.2 6.4-18.1 4.5-4.9 10.9-7.6 17.6-7.6 6.6 0 13 2.7 17.5 7.6 4.6 4.9 6.9 11.4 6.4 18.1zm-11.3 57.8l5.2-56.5v-0.4q0.1-0.7 0.1-1.4 0.1-0.9 0.1-1.8 0-1-0.2-1.9 0 0 0-0.1c-0.5-3.6-2.1-7-4.6-9.7-3.5-3.7-8.2-5.7-13.2-5.7-5.1 0-9.8 2-13.2 5.7-3 3.2-4.6 7.2-4.8 11.5q0 0.1 0 0.2 0 0 0 0 0 0.9 0 1.8 0 0.5 0.1 0.9l0.1 0.9 5.9 64.3c0.1 1.8 0.6 3.5 1.5 5q0.2 0.5 0.6 0.9 0.3 0.5 0.7 0.9 0.3 0.4 0.7 0.8 0.1 0.1 0.2 0.2 0.3 0.3 0.6 0.5 1 0.9 2.2 1.5 0.5 0.3 1 0.5 0 0 0.1 0 0.4 0.2 0.8 0.3 0.3 0.1 0.7 0.2 0.1 0 0.2 0 0.7 0.2 1.5 0.3 0.5 0 1.1 0 0.5 0 1.1 0h0.1q0.6-0.1 1.1-0.2 0.6-0.1 1.2-0.3 0.5-0.2 1-0.3 0.3-0.2 0.6-0.4 0.4-0.1 0.7-0.3 0.4-0.2 0.8-0.5c0.3-0.2 0.6-0.4 0.9-0.7 2.4-1.9 4.1-4.9 4.4-8.3z"/>
						</g>
					</g>
					<g id="&lt;Group&gt;">
						<path id="&lt;Path&gt;" class="s5" d="m1107.9 266c0 9.9-8.1 18-18 18-10 0-18-8.1-18-18 0-10 8-18.1 18-18.1 9.9 0 18 8.1 18 18.1z"/>
						<path id="&lt;Path&gt;" class="s4" d="m1102.5 266c0 6.9-5.6 12.6-12.6 12.6-7 0-12.7-5.7-12.7-12.6 0-7 5.7-12.7 12.7-12.7 7 0 12.6 5.7 12.6 12.7z"/>
					</g>
					<g id="&lt;Group&gt;">
						<path id="&lt;Path&gt;" class="s5" d="m1101.7 332.8c0 6.5-5.3 11.7-11.8 11.7-6.5 0-11.8-5.2-11.8-11.7 0-6.6 5.3-11.8 11.8-11.8 6.5 0 11.8 5.2 11.8 11.8z"/>
						<path id="&lt;Path&gt;" class="s4" d="m1098.1 332.8c0 4.5-3.7 8.2-8.2 8.2-4.6 0-8.3-3.7-8.3-8.2 0-4.6 3.7-8.3 8.3-8.3 4.5 0 8.2 3.7 8.2 8.3z"/>
					</g>
				</g>
				<g id="&lt;Group&gt;">
					<path id="&lt;Path&gt;" class="s4" d="m1166.7 416.6l-37.3-60c-3.3-5.4-1.7-12.3 3.6-15.6 5.3-3.3 12.3-1.7 15.6 3.6l37.3 60.1c3.3 5.3 1.6 12.3-3.7 15.6-5.3 3.2-12.2 1.6-15.5-3.7z"/>
					<path id="&lt;Path&gt;" class="s5" d="m1143.4 351.8c-0.5 2.3-2.7 3.8-5 3.3-2.3-0.4-3.8-2.6-3.3-4.9 0.4-2.3 2.7-3.8 4.9-3.3 2.3 0.4 3.8 2.6 3.4 4.9z"/>
					<path id="&lt;Path&gt;" class="s5" d="m1180.6 411.8c-0.4 2.3-2.7 3.7-4.9 3.3-2.3-0.4-3.8-2.7-3.4-5 0.5-2.2 2.7-3.7 5-3.3 2.3 0.5 3.8 2.7 3.3 5z"/>
				</g>
				<g id="&lt;Group&gt;">
					<path id="&lt;Path&gt;" class="s4" d="m1189.2 464.7h-25.5v-6.6h25.5z"/>
					<path id="&lt;Path&gt;" class="s5" d="m1185.7 490h-18.5v-25.3h18.5z"/>
					<g id="&lt;Group&gt;">
						<path id="&lt;Path&gt;" class="s4" d="m1195 503h-37.1v-13h37.1z"/>
						<path id="&lt;Path&gt;" class="s5" d="m1168.3 496.5c0 1.8-1.4 3.2-3.2 3.2-1.7 0-3.2-1.4-3.2-3.2 0-1.7 1.5-3.2 3.2-3.2 1.8 0 3.2 1.5 3.2 3.2z"/>
						<path id="&lt;Path&gt;" class="s5" d="m1191 496.5c0 1.8-1.4 3.2-3.2 3.2-1.7 0-3.2-1.4-3.2-3.2 0-1.7 1.5-3.2 3.2-3.2 1.8 0 3.2 1.5 3.2 3.2z"/>
					</g>
					<g id="&lt;Group&gt;">
						<g id="&lt;Group&gt;">
							<path id="&lt;Path&gt;" class="s5" d="m1143.7 532.1h-12l27.7-29.1h16.8z"/>
							<path id="&lt;Path&gt;" class="s5" d="m1144.9 553.8h-5.1l-8.1-21.7h12z"/>
						</g>
						<g id="&lt;Group&gt;">
							<path id="&lt;Path&gt;" class="s5" d="m1209.3 532.1h11.9l-27.7-29.1h-16.7z"/>
							<path id="&lt;Path&gt;" class="s5" d="m1208 553.8h5.2l8-21.7h-11.9z"/>
						</g>
					</g>
				</g>
			</g>
		</g>
	</g>
</svg>