<svg version="1.2" xmlns="http://www.w3.org/2000/svg" viewBox="0 0 1344 809" width="1344" height="809">
	<title>industrial-electricity-svg</title>
	<style>
		.s0 { fill: #263238 } 
		.s1 { fill: #ff5151 } 
		.s2 { opacity: .1;fill: #000000 } 
		.s3 { fill: #ffffff } 
		.s4 { fill: #4da990 } 
		.s5 { fill: #7dfcda } 
		.s6 { fill: #c7c7c7 } 
		.s7 { fill: #a6a6a6 } 
		.s8 { fill: #ebebeb } 
		.s9 { fill: #dbdbdb } 
	</style>
	<g id="Floor">
		<g id="&lt;Group&gt;">
			<path id="&lt;Path&gt;" class="s0" d="m34.1 797.1l159-0.5 158.9-0.1 318-0.4 318 0.4 158.9 0.1 159 0.5-159 0.5-158.9 0.2-318 0.3-318-0.3-158.9-0.2z"/>
		</g>
	</g>
	<g id="Boxes">
		<g id="&lt;Group&gt;">
			<g id="&lt;Group&gt;">
				<path id="&lt;Path&gt;" class="s1" d="m1128 461.7v69.7h-63v-69.7z"/>
				<path id="&lt;Path&gt;" class="s1" d="m1160.5 531.4h-32.5v-69.7h32.5z"/>
				<path id="&lt;Path&gt;" class="s2" d="m1160.5 531.4h-32.5v-69.7h32.5z"/>
				<path id="&lt;Path&gt;" class="s3" d="m1101.9 476.8h-1.4-1l-0.5-1.2-0.9 1.2-1-2.4-1.1 2.4h-2.9-1.4l-0.4-1.6-0.5 1.6h-0.9v-15.1h12z"/>
				<g id="&lt;Group&gt;">
					<path id="&lt;Path&gt;" class="s1" d="m1158.2 526.6q-3.6-7.4-7.1-14.9l-7.1-15-6.9-15.1q-3.5-7.5-6.9-15.1 3.6 7.4 7.2 14.9l7 15 7 15.1q3.4 7.5 6.8 15.1z"/>
					<path id="&lt;Path&gt;" class="s1" d="m1158.2 466.5q-3.4 7.6-6.8 15.1l-7 15.1-7 15q-3.6 7.5-7.2 14.9 3.4-7.6 6.9-15.1l6.9-15.1 7.1-15q3.5-7.5 7.1-14.9z"/>
				</g>
			</g>
			<g id="&lt;Group&gt;">
				<path id="&lt;Path&gt;" class="s1" d="m952.3 461.7v69.7h-63v-69.7z"/>
				<path id="&lt;Path&gt;" class="s1" d="m984.8 531.4h-32.5v-69.7h32.5z"/>
				<path id="&lt;Path&gt;" class="s2" d="m984.8 531.4h-32.5v-69.7h32.5z"/>
				<path id="&lt;Path&gt;" class="s3" d="m926.1 476.8h-1.3-1l-0.6-1.2-0.8 1.2-1-2.4-1.1 2.4h-2.9-1.4l-0.5-1.6-0.4 1.6h-0.9v-15.1h11.9z"/>
				<g id="&lt;Group&gt;">
					<path id="&lt;Path&gt;" class="s1" d="m982.5 526.6q-3.6-7.4-7.1-14.9l-7.1-15-6.9-15.1q-3.5-7.5-6.9-15.1 3.6 7.4 7.2 14.9l7 15 7 15.1q3.4 7.5 6.8 15.1z"/>
					<path id="&lt;Path&gt;" class="s1" d="m982.5 466.5q-3.4 7.6-6.8 15.1l-7 15.1-7 15q-3.6 7.5-7.2 14.9 3.4-7.6 6.9-15.1l6.9-15.1 7.1-15q3.5-7.5 7.1-14.9z"/>
				</g>
			</g>
			<g id="&lt;Group&gt;">
				<path id="&lt;Path&gt;" class="s1" d="m300.4 461.7v69.7h-63v-69.7z"/>
				<path id="&lt;Path&gt;" class="s1" d="m332.9 531.4h-32.5v-69.7h32.5z"/>
				<path id="&lt;Path&gt;" class="s2" d="m332.9 531.4h-32.5v-69.7h32.5z"/>
				<path id="&lt;Path&gt;" class="s3" d="m274.2 476.8h-1.3-1l-0.6-1.2-0.8 1.2-1.1-2.4-1 2.4h-2.9-1.4l-0.5-1.6-0.4 1.6h-0.9v-15.1h11.9z"/>
				<g id="&lt;Group&gt;">
					<path id="&lt;Path&gt;" class="s1" d="m330.6 526.6q-3.6-7.4-7.1-14.9l-7.1-15-6.9-15.1q-3.5-7.5-6.9-15.1 3.6 7.4 7.2 14.9l7 15 7 15.1q3.4 7.5 6.8 15.1z"/>
					<path id="&lt;Path&gt;" class="s1" d="m330.6 466.5q-3.4 7.6-6.8 15.1l-7 15.1-7 15q-3.6 7.5-7.2 14.9 3.4-7.6 6.9-15.1l6.9-15.1 7.1-15q3.5-7.5 7.1-14.9z"/>
				</g>
				<g id="&lt;Group&gt;">
					<path id="&lt;Path&gt;" class="s1" d="m227 476.8h62.9l10.5-15.1h-63z"/>
					<path id="&lt;Path&gt;" class="s2" d="m227 476.8h62.9l10.5-15.1h-63z"/>
				</g>
				<path id="&lt;Path&gt;" class="s1" d="m310.8 476.8h32.4l-10.4-15.1h-32.4z"/>
			</g>
			<g id="&lt;Group&gt;">
				<path id="&lt;Path&gt;" class="s1" d="m476 461.7v69.7h-62.9v-69.7z"/>
				<path id="&lt;Path&gt;" class="s1" d="m508.5 531.4h-32.5v-69.7h32.5z"/>
				<path id="&lt;Path&gt;" class="s2" d="m508.5 531.4h-32.5v-69.7h32.5z"/>
				<path id="&lt;Path&gt;" class="s3" d="m449.9 476.8h-1.3-1l-0.6-1.2-0.8 1.2-1.1-2.4-1 2.4h-3-1.3l-0.5-1.6-0.4 1.6h-0.9v-15.1h11.9z"/>
				<g id="&lt;Group&gt;">
					<path id="&lt;Path&gt;" class="s1" d="m506.3 526.6q-3.6-7.4-7.2-14.9l-7-15-7-15.1q-3.4-7.5-6.8-15.1 3.6 7.4 7.1 14.9l7.1 15 6.9 15.1q3.5 7.5 6.9 15.1z"/>
					<path id="&lt;Path&gt;" class="s1" d="m506.3 466.5q-3.4 7.6-6.9 15.1l-6.9 15.1-7.1 15q-3.5 7.5-7.1 14.9 3.4-7.6 6.8-15.1l7-15.1 7-15q3.6-7.5 7.2-14.9z"/>
				</g>
				<g id="&lt;Group&gt;">
					<path id="&lt;Path&gt;" class="s1" d="m402.7 476.8h62.9l10.4-15.1h-62.9z"/>
					<path id="&lt;Path&gt;" class="s2" d="m402.7 476.8h62.9l10.4-15.1h-62.9z"/>
				</g>
				<path id="&lt;Path&gt;" class="s1" d="m486.5 476.8h32.4l-10.5-15.1h-32.4z"/>
			</g>
		</g>
	</g>
	<g id="Machine">
		<g id="Capa 4">
		</g>
		<g id="&lt;Group&gt;">
			<g id="&lt;Group&gt;">
				<g id="&lt;Group&gt;">
					<path id="&lt;Path&gt;" class="s4" d="m177.2 797.1h-56.4v-215.1h56.4z"/>
					<path id="&lt;Path&gt;" class="s5" d="m182.4 603.9h-66.6v-21.9h66.6z"/>
					<path id="&lt;Path&gt;" class="s5" d="m182.4 797.1h-66.6v-21.8h66.6z"/>
				</g>
				<g id="&lt;Group&gt;">
					<path id="&lt;Path&gt;" class="s4" d="m447 797.1h-56.4v-215.1h56.4z"/>
					<path id="&lt;Path&gt;" class="s5" d="m452.2 603.9h-66.6v-21.9h66.6z"/>
					<path id="&lt;Path&gt;" class="s5" d="m452.2 797.1h-66.6v-21.8h66.6z"/>
				</g>
				<g id="&lt;Group&gt;">
					<path id="&lt;Path&gt;" class="s4" d="m950.9 797.1h-56.4v-215.1h56.4z"/>
					<path id="&lt;Path&gt;" class="s5" d="m956 603.9h-66.5v-21.9h66.5z"/>
					<path id="&lt;Path&gt;" class="s5" d="m956 797.1h-66.5v-21.8h66.5z"/>
				</g>
				<g id="&lt;Group&gt;">
					<path id="&lt;Path&gt;" class="s4" d="m1220.7 797.1h-56.4v-215.1h56.4z"/>
					<path id="&lt;Path&gt;" class="s5" d="m1225.8 603.9h-66.5v-21.9h66.5z"/>
					<path id="&lt;Path&gt;" class="s5" d="m1225.8 797.1h-66.5v-21.8h66.5z"/>
				</g>
				<g id="&lt;Group&gt;">
					<g id="&lt;Group&gt;">
						<path id="&lt;Path&gt;" class="s4" d="m1237.1 582h-1134.2c-13.1 0-23.8-10.6-23.8-23.8 0-13.1 10.7-23.8 23.8-23.8h1134.2c13.1 0 23.8 10.7 23.8 23.8 0 13.2-10.7 23.8-23.8 23.8z"/>
						<path id="&lt;Compound Path&gt;" fill-rule="evenodd" class="s5" d="m1237.1 585h-1134.2c-14.8 0-26.8-12-26.8-26.8 0-14.8 12-26.8 26.8-26.8h1134.2c14.8 0 26.8 12 26.8 26.8 0 14.8-12 26.8-26.8 26.8zm-1134.2-47.6c-11.5 0-20.8 9.3-20.8 20.8 0 11.5 9.3 20.8 20.8 20.8h1134.2c11.5 0 20.8-9.3 20.8-20.8 0-11.5-9.3-20.8-20.8-20.8z"/>
					</g>
					<g id="&lt;Group&gt;">
						<g id="&lt;Group&gt;">
							<g id="&lt;Group&gt;">
								<path id="&lt;Path&gt;" class="s5" d="m115.7 558.2c0 4.6-3.8 8.3-8.4 8.3-4.6 0-8.3-3.7-8.3-8.3 0-4.6 3.7-8.3 8.3-8.3 4.6 0 8.4 3.7 8.4 8.3z"/>
							</g>
							<path id="&lt;Path&gt;" class="s4" d="m115.7 558.2q0 0.8-0.2 1.6h-16.3q-0.2-0.8-0.2-1.6 0-0.8 0.2-1.6h16.3q0.2 0.8 0.2 1.6z"/>
						</g>
						<g id="&lt;Group&gt;">
							<g id="&lt;Group&gt;">
								<path id="&lt;Path&gt;" class="s5" d="m157.3 558.2c0 4.6-3.7 8.3-8.3 8.3-4.6 0-8.3-3.7-8.3-8.3 0-4.6 3.7-8.3 8.3-8.3 4.6 0 8.3 3.7 8.3 8.3z"/>
							</g>
							<path id="&lt;Path&gt;" class="s4" d="m157.3 558.2q0 0.8-0.1 1.6h-16.4q-0.1-0.8-0.1-1.6 0-0.8 0.1-1.6h16.4q0.1 0.8 0.1 1.6z"/>
						</g>
						<g id="&lt;Group&gt;">
							<g id="&lt;Group&gt;">
								<path id="&lt;Path&gt;" class="s5" d="m199 558.2c0 4.6-3.7 8.3-8.3 8.3-4.6 0-8.3-3.7-8.3-8.3 0-4.6 3.7-8.3 8.3-8.3 4.6 0 8.3 3.7 8.3 8.3z"/>
							</g>
							<path id="&lt;Path&gt;" class="s4" d="m199 558.2q0 0.8-0.1 1.6h-16.4q-0.1-0.8-0.1-1.6 0-0.8 0.1-1.6h16.4q0.1 0.8 0.1 1.6z"/>
						</g>
						<g id="&lt;Group&gt;">
							<g id="&lt;Group&gt;">
								<path id="&lt;Path&gt;" class="s5" d="m240.7 558.2c0 4.6-3.7 8.3-8.3 8.3-4.6 0-8.3-3.7-8.3-8.3 0-4.6 3.7-8.3 8.3-8.3 4.6 0 8.3 3.7 8.3 8.3z"/>
							</g>
							<path id="&lt;Path&gt;" class="s4" d="m240.7 558.2q0 0.8-0.2 1.6h-16.3q-0.1-0.8-0.2-1.6 0.1-0.8 0.2-1.6h16.3q0.2 0.8 0.2 1.6z"/>
						</g>
						<g id="&lt;Group&gt;">
							<g id="&lt;Group&gt;">
								<path id="&lt;Path&gt;" class="s5" d="m282.4 558.2c0 4.6-3.8 8.3-8.3 8.3-4.6 0-8.4-3.7-8.4-8.3 0-4.6 3.8-8.3 8.4-8.3 4.5 0 8.3 3.7 8.3 8.3z"/>
							</g>
							<path id="&lt;Path&gt;" class="s4" d="m282.4 558.2q0 0.8-0.2 1.6h-16.3q-0.2-0.8-0.2-1.6 0-0.8 0.2-1.6h16.3q0.2 0.8 0.2 1.6z"/>
						</g>
						<g id="&lt;Group&gt;">
							<g id="&lt;Group&gt;">
								<path id="&lt;Path&gt;" class="s5" d="m324.1 558.2c0 4.6-3.8 8.3-8.4 8.3-4.6 0-8.3-3.7-8.3-8.3 0-4.6 3.7-8.3 8.3-8.3 4.6 0 8.4 3.7 8.4 8.3z"/>
							</g>
							<path id="&lt;Path&gt;" class="s4" d="m324.1 558.2q0 0.8-0.2 1.6h-16.3q-0.2-0.8-0.2-1.6 0-0.8 0.2-1.6h16.3q0.2 0.8 0.2 1.6z"/>
						</g>
						<g id="&lt;Group&gt;">
							<g id="&lt;Group&gt;">
								<path id="&lt;Path&gt;" class="s5" d="m365.7 558.2c0 4.6-3.7 8.3-8.3 8.3-4.6 0-8.3-3.7-8.3-8.3 0-4.6 3.7-8.3 8.3-8.3 4.6 0 8.3 3.7 8.3 8.3z"/>
							</g>
							<path id="&lt;Path&gt;" class="s4" d="m365.7 558.2q0 0.8-0.1 1.6h-16.4q-0.1-0.8-0.1-1.6 0-0.8 0.1-1.6h16.4q0.1 0.8 0.1 1.6z"/>
						</g>
						<g id="&lt;Group&gt;">
							<g id="&lt;Group&gt;">
								<path id="&lt;Path&gt;" class="s5" d="m407.4 558.2c0 4.6-3.7 8.3-8.3 8.3-4.6 0-8.3-3.7-8.3-8.3 0-4.6 3.7-8.3 8.3-8.3 4.6 0 8.3 3.7 8.3 8.3z"/>
							</g>
							<path id="&lt;Path&gt;" class="s4" d="m407.4 558.2q0 0.8-0.1 1.6h-16.4q-0.1-0.8-0.1-1.6 0-0.8 0.1-1.6h16.4q0.1 0.8 0.1 1.6z"/>
						</g>
						<g id="&lt;Group&gt;">
							<g id="&lt;Group&gt;">
								<path id="&lt;Path&gt;" class="s5" d="m449.1 558.2c0 4.6-3.7 8.3-8.3 8.3-4.6 0-8.4-3.7-8.4-8.3 0-4.6 3.8-8.3 8.4-8.3 4.6 0 8.3 3.7 8.3 8.3z"/>
							</g>
							<path id="&lt;Path&gt;" class="s4" d="m449.1 558.2q0 0.8-0.2 1.6h-16.3q-0.2-0.8-0.2-1.6 0-0.8 0.2-1.6h16.3q0.2 0.8 0.2 1.6z"/>
						</g>
						<g id="&lt;Group&gt;">
							<g id="&lt;Group&gt;">
								<path id="&lt;Path&gt;" class="s5" d="m490.8 558.2c0 4.6-3.8 8.3-8.4 8.3-4.6 0-8.3-3.7-8.3-8.3 0-4.6 3.7-8.3 8.3-8.3 4.6 0 8.4 3.7 8.4 8.3z"/>
							</g>
							<path id="&lt;Path&gt;" class="s4" d="m490.8 558.2q0 0.8-0.2 1.6h-16.3q-0.2-0.8-0.2-1.6 0-0.8 0.2-1.6h16.3q0.2 0.8 0.2 1.6z"/>
						</g>
						<g id="&lt;Group&gt;">
							<g id="&lt;Group&gt;">
								<path id="&lt;Path&gt;" class="s5" d="m532.4 558.2c0 4.6-3.7 8.3-8.3 8.3-4.6 0-8.3-3.7-8.3-8.3 0-4.6 3.7-8.3 8.3-8.3 4.6 0 8.3 3.7 8.3 8.3z"/>
							</g>
							<path id="&lt;Path&gt;" class="s4" d="m532.5 558.2q0 0.8-0.2 1.6h-16.3q-0.2-0.8-0.2-1.6 0-0.8 0.2-1.6h16.3q0.2 0.8 0.2 1.6z"/>
						</g>
						<g id="&lt;Group&gt;">
							<g id="&lt;Group&gt;">
								<path id="&lt;Path&gt;" class="s5" d="m574.1 558.2c0 4.6-3.7 8.3-8.3 8.3-4.6 0-8.3-3.7-8.3-8.3 0-4.6 3.7-8.3 8.3-8.3 4.6 0 8.3 3.7 8.3 8.3z"/>
							</g>
							<path id="&lt;Path&gt;" class="s4" d="m574.1 558.2q0 0.8-0.1 1.6h-16.4q-0.1-0.8-0.1-1.6 0-0.8 0.1-1.6h16.4q0.1 0.8 0.1 1.6z"/>
						</g>
						<g id="&lt;Group&gt;">
							<g id="&lt;Group&gt;">
								<path id="&lt;Path&gt;" class="s5" d="m615.8 558.2c0 4.6-3.7 8.3-8.3 8.3-4.6 0-8.3-3.7-8.3-8.3 0-4.6 3.7-8.3 8.3-8.3 4.6 0 8.3 3.7 8.3 8.3z"/>
							</g>
							<path id="&lt;Path&gt;" class="s4" d="m615.8 558.2q0 0.8-0.1 1.6h-16.4q-0.1-0.8-0.1-1.6 0-0.8 0.1-1.6h16.4q0.1 0.8 0.1 1.6z"/>
						</g>
						<g id="&lt;Group&gt;">
							<g id="&lt;Group&gt;">
								<path id="&lt;Path&gt;" class="s5" d="m657.5 558.2c0 4.6-3.7 8.3-8.3 8.3-4.6 0-8.4-3.7-8.4-8.3 0-4.6 3.8-8.3 8.4-8.3 4.6 0 8.3 3.7 8.3 8.3z"/>
							</g>
							<path id="&lt;Path&gt;" class="s4" d="m657.5 558.2q0 0.8-0.2 1.6h-16.3q-0.2-0.8-0.2-1.6 0-0.8 0.2-1.6h16.3q0.2 0.8 0.2 1.6z"/>
						</g>
						<g id="&lt;Group&gt;">
							<g id="&lt;Group&gt;">
								<path id="&lt;Path&gt;" class="s5" d="m699.2 558.2c0 4.6-3.8 8.3-8.4 8.3-4.6 0-8.3-3.7-8.3-8.3 0-4.6 3.7-8.3 8.3-8.3 4.6 0 8.4 3.7 8.4 8.3z"/>
							</g>
							<path id="&lt;Path&gt;" class="s4" d="m699.2 558.2q0 0.8-0.2 1.6h-16.3q-0.2-0.8-0.2-1.6 0-0.8 0.2-1.6h16.3q0.2 0.8 0.2 1.6z"/>
						</g>
						<g id="&lt;Group&gt;">
							<g id="&lt;Group&gt;">
								<path id="&lt;Path&gt;" class="s5" d="m740.8 558.2c0 4.6-3.7 8.3-8.3 8.3-4.6 0-8.3-3.7-8.3-8.3 0-4.6 3.7-8.3 8.3-8.3 4.6 0 8.3 3.7 8.3 8.3z"/>
							</g>
							<path id="&lt;Path&gt;" class="s4" d="m740.8 558.2q0 0.8-0.1 1.6h-16.4q-0.1-0.8-0.1-1.6 0-0.8 0.1-1.6h16.4q0.1 0.8 0.1 1.6z"/>
						</g>
						<g id="&lt;Group&gt;">
							<g id="&lt;Group&gt;">
								<path id="&lt;Path&gt;" class="s5" d="m782.5 558.2c0 4.6-3.7 8.3-8.3 8.3-4.6 0-8.3-3.7-8.3-8.3 0-4.6 3.7-8.3 8.3-8.3 4.6 0 8.3 3.7 8.3 8.3z"/>
							</g>
							<path id="&lt;Path&gt;" class="s4" d="m782.5 558.2q0 0.8-0.1 1.6h-16.4q-0.1-0.8-0.1-1.6 0-0.8 0.1-1.6h16.4q0.1 0.8 0.1 1.6z"/>
						</g>
						<g id="&lt;Group&gt;">
							<g id="&lt;Group&gt;">
								<path id="&lt;Path&gt;" class="s5" d="m824.2 558.2c0 4.6-3.7 8.3-8.3 8.3-4.6 0-8.3-3.7-8.3-8.3 0-4.6 3.7-8.3 8.3-8.3 4.6 0 8.3 3.7 8.3 8.3z"/>
							</g>
							<path id="&lt;Path&gt;" class="s4" d="m824.2 558.2q0 0.8-0.2 1.6h-16.3q-0.2-0.8-0.2-1.6 0-0.8 0.2-1.6h16.3q0.2 0.8 0.2 1.6z"/>
						</g>
						<g id="&lt;Group&gt;">
							<g id="&lt;Group&gt;">
								<path id="&lt;Path&gt;" class="s5" d="m865.9 558.2c0 4.6-3.8 8.3-8.3 8.3-4.6 0-8.4-3.7-8.4-8.3 0-4.6 3.8-8.3 8.4-8.3 4.5 0 8.3 3.7 8.3 8.3z"/>
							</g>
							<path id="&lt;Path&gt;" class="s4" d="m865.9 558.2q0 0.8-0.2 1.6h-16.3q-0.2-0.8-0.2-1.6 0-0.8 0.2-1.6h16.3q0.2 0.8 0.2 1.6z"/>
						</g>
						<g id="&lt;Group&gt;">
							<g id="&lt;Group&gt;">
								<path id="&lt;Path&gt;" class="s5" d="m907.6 558.2c0 4.6-3.8 8.3-8.4 8.3-4.6 0-8.3-3.7-8.3-8.3 0-4.6 3.7-8.3 8.3-8.3 4.6 0 8.4 3.7 8.4 8.3z"/>
							</g>
							<path id="&lt;Path&gt;" class="s4" d="m907.6 558.2q0 0.8-0.2 1.6h-16.3q-0.2-0.8-0.2-1.6 0-0.8 0.2-1.6h16.3q0.2 0.8 0.2 1.6z"/>
						</g>
						<g id="&lt;Group&gt;">
							<g id="&lt;Group&gt;">
								<path id="&lt;Path&gt;" class="s5" d="m949.2 558.2c0 4.6-3.7 8.3-8.3 8.3-4.6 0-8.3-3.7-8.3-8.3 0-4.6 3.7-8.3 8.3-8.3 4.6 0 8.3 3.7 8.3 8.3z"/>
							</g>
							<path id="&lt;Path&gt;" class="s4" d="m949.2 558.2q0 0.8-0.1 1.6h-16.4q-0.1-0.8-0.1-1.6 0-0.8 0.1-1.6h16.4q0.1 0.8 0.1 1.6z"/>
						</g>
						<g id="&lt;Group&gt;">
							<g id="&lt;Group&gt;">
								<path id="&lt;Path&gt;" class="s5" d="m990.9 558.2c0 4.6-3.7 8.3-8.3 8.3-4.6 0-8.3-3.7-8.3-8.3 0-4.6 3.7-8.3 8.3-8.3 4.6 0 8.3 3.7 8.3 8.3z"/>
							</g>
							<path id="&lt;Path&gt;" class="s4" d="m990.9 558.2q0 0.8-0.1 1.6h-16.4q-0.1-0.8-0.1-1.6 0-0.8 0.1-1.6h16.4q0.1 0.8 0.1 1.6z"/>
						</g>
						<g id="&lt;Group&gt;">
							<g id="&lt;Group&gt;">
								<path id="&lt;Path&gt;" class="s5" d="m1032.6 558.2c0 4.6-3.7 8.3-8.3 8.3-4.6 0-8.4-3.7-8.4-8.3 0-4.6 3.8-8.3 8.4-8.3 4.6 0 8.3 3.7 8.3 8.3z"/>
							</g>
							<path id="&lt;Path&gt;" class="s4" d="m1032.6 558.2q0 0.8-0.2 1.6h-16.3q-0.2-0.8-0.2-1.6 0-0.8 0.2-1.6h16.3q0.2 0.8 0.2 1.6z"/>
						</g>
						<g id="&lt;Group&gt;">
							<g id="&lt;Group&gt;">
								<path id="&lt;Path&gt;" class="s5" d="m1074.3 558.2c0 4.6-3.8 8.3-8.4 8.3-4.6 0-8.3-3.7-8.3-8.3 0-4.6 3.7-8.3 8.3-8.3 4.6 0 8.4 3.7 8.4 8.3z"/>
							</g>
							<path id="&lt;Path&gt;" class="s4" d="m1074.3 558.2q0 0.8-0.2 1.6h-16.3q-0.2-0.8-0.2-1.6 0-0.8 0.2-1.6h16.3q0.2 0.8 0.2 1.6z"/>
						</g>
						<g id="&lt;Group&gt;">
							<g id="&lt;Group&gt;">
								<path id="&lt;Path&gt;" class="s5" d="m1115.9 558.2c0 4.6-3.7 8.3-8.3 8.3-4.6 0-8.3-3.7-8.3-8.3 0-4.6 3.7-8.3 8.3-8.3 4.6 0 8.3 3.7 8.3 8.3z"/>
							</g>
							<path id="&lt;Path&gt;" class="s4" d="m1116 558.2q-0.1 0.8-0.2 1.6h-16.3q-0.2-0.8-0.2-1.6 0-0.8 0.2-1.6h16.3q0.1 0.8 0.2 1.6z"/>
						</g>
						<g id="&lt;Group&gt;">
							<g id="&lt;Group&gt;">
								<path id="&lt;Path&gt;" class="s5" d="m1157.6 558.2c0 4.6-3.7 8.3-8.3 8.3-4.6 0-8.3-3.7-8.3-8.3 0-4.6 3.7-8.3 8.3-8.3 4.6 0 8.3 3.7 8.3 8.3z"/>
							</g>
							<path id="&lt;Path&gt;" class="s4" d="m1157.6 558.2q0 0.8-0.1 1.6h-16.4q-0.1-0.8-0.1-1.6 0-0.8 0.1-1.6h16.4q0.1 0.8 0.1 1.6z"/>
						</g>
						<g id="&lt;Group&gt;">
							<g id="&lt;Group&gt;">
								<path id="&lt;Path&gt;" class="s5" d="m1199.3 558.2c0 4.6-3.7 8.3-8.3 8.3-4.6 0-8.3-3.7-8.3-8.3 0-4.6 3.7-8.3 8.3-8.3 4.6 0 8.3 3.7 8.3 8.3z"/>
							</g>
							<path id="&lt;Path&gt;" class="s4" d="m1199.3 558.2q0 0.8-0.1 1.6h-16.4q-0.1-0.8-0.1-1.6 0-0.8 0.1-1.6h16.4q0.1 0.8 0.1 1.6z"/>
						</g>
						<g id="&lt;Group&gt;">
							<g id="&lt;Group&gt;">
								<path id="&lt;Path&gt;" class="s5" d="m1241 558.2c0 4.6-3.7 8.3-8.3 8.3-4.6 0-8.4-3.7-8.4-8.3 0-4.6 3.8-8.3 8.4-8.3 4.6 0 8.3 3.7 8.3 8.3z"/>
							</g>
							<path id="&lt;Path&gt;" class="s4" d="m1241 558.2q0 0.8-0.2 1.6h-16.3q-0.2-0.8-0.2-1.6 0-0.8 0.2-1.6h16.3q0.2 0.8 0.2 1.6z"/>
						</g>
					</g>
				</g>
			</g>
			<g id="&lt;Group&gt;">
				<path id="&lt;Path&gt;" class="s5" d="m827 797.1h-314v-476.4h314z"/>
				<path id="&lt;Path&gt;" class="s4" d="m513 531.4h-74.1v-95.4l30-28.9h44.1z"/>
				<path id="&lt;Path&gt;" class="s4" d="m827 531.4h74.1v-95.4l-30-28.9h-44.1z"/>
				<g id="&lt;Group&gt;">
					<path id="&lt;Path&gt;" class="s6" d="m790.8 489h-241.6v-129.9h241.6z"/>
					<path id="&lt;Path&gt;" class="s7" d="m748.9 489h-157.8v-129.9h157.8z"/>
					<path id="&lt;Path&gt;" class="s0" d="m740.1 481.8h-140.2v-115.4h140.2z"/>
					<g id="&lt;Group&gt;">
						<path id="&lt;Path&gt;" class="s4" d="m584.2 380.3c0 7.7-6.2 13.9-13.9 13.9-7.6 0-13.9-6.2-13.9-13.9 0-7.7 6.3-13.9 13.9-13.9 7.7 0 13.9 6.2 13.9 13.9z"/>
						<path id="&lt;Path&gt;" class="s8" d="m581.9 380.3c0 6.4-5.2 11.5-11.6 11.5-6.4 0-11.5-5.1-11.5-11.5 0-6.4 5.1-11.6 11.5-11.6 6.4 0 11.6 5.2 11.6 11.6z"/>
						<path id="&lt;Path&gt;" class="s1" d="m581.9 380.3h-11.6-11.5c0-6.4 5.1-11.6 11.5-11.6 6.4 0 11.6 5.2 11.6 11.6z"/>
						<path id="&lt;Path&gt;" class="s9" d="m570.2 380.3h-11.4c0-3.1 1.2-6 3.3-8.1z"/>
						<path id="&lt;Path&gt;" class="s0" d="m568.1 371.8l0.6-0.1 2.5 9.4-1.4 0.3z"/>
					</g>
					<g id="&lt;Group&gt;">
						<path id="&lt;Path&gt;" class="s4" d="m584.2 424.1c0 7.7-6.2 13.9-13.9 13.9-7.6 0-13.9-6.2-13.9-13.9 0-7.7 6.3-13.9 13.9-13.9 7.7 0 13.9 6.2 13.9 13.9z"/>
						<path id="&lt;Path&gt;" class="s8" d="m581.9 424.1c0 6.4-5.2 11.5-11.6 11.5-6.4 0-11.5-5.1-11.5-11.5 0-6.4 5.1-11.6 11.5-11.6 6.4 0 11.6 5.2 11.6 11.6z"/>
						<path id="&lt;Path&gt;" class="s1" d="m581.9 424.1h-11.6-11.5c0-6.4 5.1-11.6 11.5-11.6 6.4 0 11.6 5.2 11.6 11.6z"/>
						<path id="&lt;Path&gt;" class="s9" d="m570.2 424.1h-11.4c0-3.1 1.2-6 3.3-8.1z"/>
						<path id="&lt;Path&gt;" class="s0" d="m570.3 415.4h0.6v9.8l-1.4-0.1z"/>
					</g>
					<g id="&lt;Group&gt;">
						<path id="&lt;Path&gt;" class="s4" d="m584.2 467.9c0 7.7-6.2 13.9-13.9 13.9-7.6 0-13.9-6.2-13.9-13.9 0-7.7 6.3-13.9 13.9-13.9 7.7 0 13.9 6.2 13.9 13.9z"/>
						<path id="&lt;Path&gt;" class="s8" d="m581.9 467.9c0 6.4-5.2 11.5-11.6 11.5-6.4 0-11.5-5.1-11.5-11.5 0-6.4 5.1-11.6 11.5-11.6 6.4 0 11.6 5.2 11.6 11.6z"/>
						<path id="&lt;Path&gt;" class="s1" d="m581.9 467.9h-11.6-11.5c0-6.4 5.1-11.6 11.5-11.6 6.4 0 11.6 5.2 11.6 11.6z"/>
						<path id="&lt;Path&gt;" class="s9" d="m570.2 467.9h-11.4c0-3.1 1.2-6 3.3-8.1z"/>
						<path id="&lt;Path&gt;" class="s0" d="m574.6 460.1l0.6 0.3-4.6 8.6-1.2-0.7z"/>
					</g>
					<path id="&lt;Path&gt;" class="s1" d="m784.9 400.3h-30.6v-35.5h30.6z"/>
					<path id="&lt;Path&gt;" class="s5" d="m757 434c-1.5 0-2.7-1.3-2.7-2.7v-21.5c0-1.5 1.2-2.7 2.7-2.7 1.5 0 2.7 1.2 2.7 2.7v21.5c0 1.4-1.2 2.7-2.7 2.7z"/>
					<path id="&lt;Path&gt;" class="s5" d="m765.4 434c-1.5 0-2.7-1.3-2.7-2.7v-21.5c0-1.5 1.2-2.7 2.7-2.7 1.5 0 2.7 1.2 2.7 2.7v21.5c0 1.4-1.2 2.7-2.7 2.7z"/>
					<path id="&lt;Path&gt;" class="s5" d="m773.8 434c-1.5 0-2.7-1.3-2.7-2.7v-21.5c0-1.5 1.2-2.7 2.7-2.7 1.5 0 2.7 1.2 2.7 2.7v21.5c0 1.4-1.2 2.7-2.7 2.7z"/>
					<path id="&lt;Path&gt;" class="s5" d="m782.2 434c-1.5 0-2.7-1.3-2.7-2.7v-21.5c0-1.5 1.2-2.7 2.7-2.7 1.5 0 2.7 1.2 2.7 2.7v21.5c0 1.4-1.2 2.7-2.7 2.7z"/>
					<path id="&lt;Path&gt;" class="s1" d="m760 445c0 1.6-1.3 3-3 3-1.6 0-3-1.4-3-3 0-1.7 1.4-3 3-3 1.7 0 3 1.3 3 3z"/>
					<path id="&lt;Path&gt;" class="s1" d="m768.4 445c0 1.6-1.3 3-3 3-1.6 0-3-1.4-3-3 0-1.7 1.4-3 3-3 1.7 0 3 1.3 3 3z"/>
					<path id="&lt;Path&gt;" class="s3" d="m776.8 445c0 1.6-1.3 3-3 3-1.6 0-3-1.4-3-3 0-1.7 1.4-3 3-3 1.7 0 3 1.3 3 3z"/>
					<path id="&lt;Path&gt;" class="s1" d="m785.2 445c0 1.6-1.3 3-3 3-1.6 0-3-1.4-3-3 0-1.7 1.4-3 3-3 1.7 0 3 1.3 3 3z"/>
					<path id="&lt;Path&gt;" class="s3" d="m760 453.3c0 1.6-1.3 3-3 3-1.6 0-3-1.4-3-3 0-1.7 1.4-3 3-3 1.7 0 3 1.3 3 3z"/>
					<path id="&lt;Path&gt;" class="s3" d="m768.4 453.3c0 1.6-1.3 3-3 3-1.6 0-3-1.4-3-3 0-1.7 1.4-3 3-3 1.7 0 3 1.3 3 3z"/>
					<path id="&lt;Path&gt;" class="s1" d="m776.8 453.3c0 1.6-1.3 3-3 3-1.6 0-3-1.4-3-3 0-1.7 1.4-3 3-3 1.7 0 3 1.3 3 3z"/>
					<path id="&lt;Path&gt;" class="s3" d="m785.2 453.3c0 1.6-1.3 3-3 3-1.6 0-3-1.4-3-3 0-1.7 1.4-3 3-3 1.7 0 3 1.3 3 3z"/>
					<path id="&lt;Path&gt;" class="s3" d="m760 461.6c0 1.7-1.3 3-3 3-1.6 0-3-1.3-3-3 0-1.6 1.4-3 3-3 1.7 0 3 1.4 3 3z"/>
					<path id="&lt;Path&gt;" class="s1" d="m768.4 461.6c0 1.7-1.3 3-3 3-1.6 0-3-1.3-3-3 0-1.6 1.4-3 3-3 1.7 0 3 1.4 3 3z"/>
					<path id="&lt;Path&gt;" class="s3" d="m776.8 461.6c0 1.7-1.3 3-3 3-1.6 0-3-1.3-3-3 0-1.6 1.4-3 3-3 1.7 0 3 1.4 3 3z"/>
					<path id="&lt;Path&gt;" class="s1" d="m785.2 461.6c0 1.7-1.3 3-3 3-1.6 0-3-1.3-3-3 0-1.6 1.4-3 3-3 1.7 0 3 1.4 3 3z"/>
					<path id="&lt;Path&gt;" class="s1" d="m760 469.9c0 1.7-1.3 3-3 3-1.6 0-3-1.3-3-3 0-1.6 1.4-3 3-3 1.7 0 3 1.4 3 3z"/>
					<path id="&lt;Path&gt;" class="s1" d="m768.4 469.9c0 1.7-1.3 3-3 3-1.6 0-3-1.3-3-3 0-1.6 1.4-3 3-3 1.7 0 3 1.4 3 3z"/>
					<path id="&lt;Path&gt;" class="s3" d="m776.8 469.9c0 1.7-1.3 3-3 3-1.6 0-3-1.3-3-3 0-1.6 1.4-3 3-3 1.7 0 3 1.4 3 3z"/>
					<path id="&lt;Path&gt;" class="s1" d="m785.2 469.9c0 1.7-1.3 3-3 3-1.6 0-3-1.3-3-3 0-1.6 1.4-3 3-3 1.7 0 3 1.4 3 3z"/>
				</g>
				<path id="&lt;Path&gt;" class="s0" d="m506.4 775.3h327.2v21.8h-327.2z"/>
				<g id="&lt;Group&gt;">
					<path id="&lt;Path&gt;" class="s0" d="m561.5 757.4h-5.5v-69.2h5.5z"/>
					<path id="&lt;Path&gt;" class="s0" d="m573.9 757.4h-5.5v-69.2h5.5z"/>
					<path id="&lt;Path&gt;" class="s0" d="m586.2 757.4h-5.5v-69.2h5.5z"/>
					<path id="&lt;Path&gt;" class="s0" d="m598.6 757.4h-5.5v-69.2h5.5z"/>
					<path id="&lt;Path&gt;" class="s0" d="m610.9 757.4h-5.5v-69.2h5.5z"/>
					<path id="&lt;Path&gt;" class="s0" d="m623.3 757.4h-5.5v-69.2h5.5z"/>
					<path id="&lt;Path&gt;" class="s0" d="m635.7 757.4h-5.5v-69.2h5.5z"/>
					<path id="&lt;Path&gt;" class="s0" d="m648 757.4h-5.5v-69.2h5.5z"/>
					<path id="&lt;Path&gt;" class="s0" d="m660.4 757.4h-5.5v-69.2h5.5z"/>
					<path id="&lt;Path&gt;" class="s0" d="m672.7 757.4h-5.4v-69.2h5.4z"/>
					<path id="&lt;Path&gt;" class="s0" d="m685.1 757.4h-5.5v-69.2h5.5z"/>
					<path id="&lt;Path&gt;" class="s0" d="m697.5 757.4h-5.5v-69.2h5.5z"/>
					<path id="&lt;Path&gt;" class="s0" d="m709.8 757.4h-5.5v-69.2h5.5z"/>
					<path id="&lt;Path&gt;" class="s0" d="m722.2 757.4h-5.5v-69.2h5.5z"/>
					<path id="&lt;Path&gt;" class="s0" d="m734.6 757.4h-5.5v-69.2h5.5z"/>
					<path id="&lt;Path&gt;" class="s0" d="m746.9 757.4h-5.5v-69.2h5.5z"/>
					<path id="&lt;Path&gt;" class="s0" d="m759.3 757.4h-5.5v-69.2h5.5z"/>
					<path id="&lt;Path&gt;" class="s0" d="m771.6 757.4h-5.5v-69.2h5.5z"/>
					<path id="&lt;Path&gt;" class="s0" d="m784 757.4h-5.5v-69.2h5.5z"/>
				</g>
				<g id="&lt;Group&gt;">
					<g id="&lt;Group&gt;">
						<path id="&lt;Path&gt;" class="s3" d="m562.3 585h-10.4v-74.9h10.4z"/>
						<path id="&lt;Path&gt;" class="s6" d="m562.3 521.8v63.2h-10.4v-63.2z"/>
						<path id="&lt;Path&gt;" class="s1" d="m565.9 516.7v5.1h-17.7v-5.1z"/>
					</g>
					<g id="&lt;Group&gt;">
						<path id="&lt;Path&gt;" class="s3" d="m588 585h-10.4v-74.9h10.4z"/>
						<path id="&lt;Path&gt;" class="s6" d="m588 550.1v34.9h-10.4v-34.9z"/>
						<path id="&lt;Path&gt;" class="s1" d="m591.7 545.1v5h-17.7v-5z"/>
					</g>
					<g id="&lt;Group&gt;">
						<path id="&lt;Path&gt;" class="s3" d="m613.7 585h-10.3v-74.9h10.3z"/>
						<path id="&lt;Path&gt;" class="s6" d="m613.7 528v57h-10.3v-57z"/>
						<path id="&lt;Path&gt;" class="s1" d="m617.4 523v5h-17.7v-5z"/>
					</g>
					<g id="&lt;Group&gt;">
						<path id="&lt;Path&gt;" class="s3" d="m639.5 585h-10.4v-74.9h10.4z"/>
						<path id="&lt;Path&gt;" class="s6" d="m639.5 521.8v63.2h-10.4v-63.2z"/>
						<path id="&lt;Path&gt;" class="s1" d="m643.1 516.7v5.1h-17.7v-5.1z"/>
					</g>
					<g id="&lt;Group&gt;">
						<path id="&lt;Path&gt;" class="s3" d="m665.2 585h-10.4v-74.9h10.4z"/>
						<path id="&lt;Path&gt;" class="s6" d="m665.2 515.1v69.9h-10.4v-69.9z"/>
						<path id="&lt;Path&gt;" class="s1" d="m668.9 510.1v5h-17.8v-5z"/>
					</g>
				</g>
				<g id="&lt;Group&gt;">
					<path id="&lt;Path&gt;" class="s4" d="m717.9 542.9h-32.8v-32.8h32.8z"/>
					<path id="&lt;Path&gt;" class="s4" d="m717.9 585h-32.8v-32.8h32.8z"/>
					<path id="&lt;Path&gt;" class="s1" d="m712.4 526.5c0 6-4.9 10.9-10.9 10.9-6 0-10.9-4.9-10.9-10.9 0-6 4.9-10.9 10.9-10.9 6 0 10.9 4.9 10.9 10.9z"/>
					<path id="&lt;Path&gt;" class="s6" d="m712.4 568.6c0 6.1-4.9 10.9-10.9 10.9-6 0-10.9-4.8-10.9-10.9 0-6 4.9-10.9 10.9-10.9 6 0 10.9 4.9 10.9 10.9z"/>
				</g>
				<g id="&lt;Group&gt;">
					<path id="&lt;Path&gt;" class="s4" d="m575.2 320.7h-26v-30.8h26z"/>
					<path id="&lt;Path&gt;" class="s5" d="m579.6 293.8h-34.9v-15.3h34.9z"/>
				</g>
				<g id="&lt;Group&gt;">
					<path id="&lt;Path&gt;" class="s4" d="m626.1 320.7h-26.1v-30.8h26.1z"/>
					<path id="&lt;Path&gt;" class="s5" d="m630.5 293.8h-34.9v-15.3h34.9z"/>
				</g>
				<g id="&lt;Group&gt;">
					<path id="&lt;Path&gt;" class="s4" d="m790.8 585h-14.3v-74.9h14.3z"/>
					<path id="&lt;Path&gt;" class="s0" d="m786.2 579.8h-5.1v-64.5h5.1z"/>
					<g id="&lt;Group&gt;">
						<path id="&lt;Path&gt;" class="s3" d="m785.4 547.6h-3.4v-25.5h3.4z"/>
						<path id="&lt;Path&gt;" class="s1" d="m790.8 524.2c0 4-3.2 7.2-7.1 7.2-4 0-7.2-3.2-7.2-7.2 0-4 3.2-7.2 7.2-7.2 3.9 0 7.1 3.2 7.1 7.2z"/>
					</g>
				</g>
				<g id="&lt;Group&gt;">
					<path id="&lt;Path&gt;" class="s4" d="m767.2 585h-14.4v-74.9h14.4z"/>
					<path id="&lt;Path&gt;" class="s0" d="m762.5 579.8h-5v-64.5h5z"/>
					<g id="&lt;Group&gt;">
						<path id="&lt;Path&gt;" class="s3" d="m761.7 547.6h-3.4v18.9h3.4z"/>
						<path id="&lt;Path&gt;" class="s1" d="m767.2 566.5c0 4-3.2 7.2-7.2 7.2-4 0-7.2-3.2-7.2-7.2 0-3.9 3.2-7.2 7.2-7.2 4 0 7.2 3.3 7.2 7.2z"/>
					</g>
				</g>
				<g id="&lt;Group&gt;">
					<path id="&lt;Path&gt;" class="s4" d="m743.5 585h-14.3v-74.9h14.3z"/>
					<path id="&lt;Path&gt;" class="s0" d="m738.9 579.8h-5.1v-64.5h5.1z"/>
					<g id="&lt;Group&gt;">
						<path id="&lt;Path&gt;" class="s3" d="m738.1 547.6h-3.5v-25.5h3.5z"/>
						<path id="&lt;Path&gt;" class="s1" d="m743.5 515.6c0 3.9-3.2 7.2-7.1 7.2-4 0-7.2-3.3-7.2-7.2 0-4 3.2-7.2 7.2-7.2 3.9 0 7.1 3.2 7.1 7.2z"/>
					</g>
				</g>
			</g>
		</g>
	</g>
	<g id="Robot Arm">
		<g id="&lt;Group&gt;">
			<path id="&lt;Path&gt;" class="s4" d="m11 107.9h1318v17.7h-1318z"/>
			<path id="&lt;Path&gt;" class="s4" d="m11 13.2h1318v17.7h-1318z"/>
			<g id="&lt;Group&gt;">
				<g id="&lt;Group&gt;">
					<path id="&lt;Path&gt;" class="s4" d="m10.5 29h36.8v80h-36.8z"/>
					<path id="&lt;Path&gt;" class="s4" d="m473.4 106.7h-34.2v-74.6h34.2z"/>
					<path id="&lt;Path&gt;" class="s4" d="m900.9 106.7h-34.3v-74.6h34.3z"/>
					<path id="&lt;Path&gt;" class="s4" d="m1292.8 30h36.7v80h-36.7z"/>
				</g>
				<path id="&lt;Path&gt;" class="s4" d="m242.6 110.3l-65.5-72.9-65.6 72.9-69.9-77.6 3.6-3.2 66.3 73.6 65.6-73 65.5 73 65.5-73 65.6 73 67.8-75.1 3.6 3.2-71.5 79.1-65.5-72.9z"/>
				<path id="&lt;Path&gt;" class="s4" d="m669.3 110.3l-65.6-72.9-65.5 72.9-70-77.6 3.6-3.2 66.4 73.6 65.5-73 65.6 73 65.5-73 65.5 73 67.9-75.1 3.6 3.2-71.5 79.1-65.5-72.9z"/>
				<path id="&lt;Path&gt;" class="s4" d="m1095.9 110.3l-65.5-72.9-65.5 72.9-70-77.6 3.6-3.2 66.4 73.6 65.5-73 65.5 73 65.6-73 65.5 73 67.9-75.1 3.6 3.2-71.5 79.1-65.5-72.9z"/>
			</g>
			<g id="&lt;Group&gt;">
				<path id="&lt;Path&gt;" class="s1" d="m270.9 335.2h18.8l1.7-46.8c0.3-6.3-4.7-11.6-11.1-11.6-6.3 0-11.3 5.3-11 11.6z"/>
				<path id="&lt;Path&gt;" class="s5" d="m324.6 246.2l47.7 19.5c5.7 2.3 12.3-0.4 14.7-6.2 2.3-5.8-0.4-12.4-6.2-14.7l-47.7-19.5c-5.8-2.3-12.4 0.4-14.7 6.2-2.4 5.8 0.4 12.4 6.2 14.7z"/>
				<g id="&lt;Group&gt;">
					<path id="&lt;Path&gt;" class="s0" d="m416.3 116.7c0 12.6 10.2 22.9 22.8 22.9 12.6 0 22.9-10.3 22.9-22.9 0-12.6-10.3-22.8-22.9-22.8-12.6 0-22.8 10.2-22.8 22.8z"/>
					<path id="&lt;Path&gt;" class="s4" d="m429.1 116.7c0 5.6 4.5 10.1 10 10.1 5.6 0 10.1-4.5 10.1-10.1 0-5.5-4.5-10-10.1-10-5.5 0-10 4.5-10 10z"/>
				</g>
				<g id="&lt;Group&gt;">
					<path id="&lt;Path&gt;" class="s0" d="m304 116.7c0 12.6 10.3 22.9 22.9 22.9 12.6 0 22.8-10.3 22.8-22.9 0-12.6-10.2-22.8-22.8-22.8-12.6 0-22.9 10.2-22.9 22.8z"/>
					<path id="&lt;Path&gt;" class="s4" d="m316.8 116.7c0 5.6 4.5 10.1 10.1 10.1 5.5 0 10-4.5 10-10.1 0-5.5-4.5-10-10-10-5.6 0-10.1 4.5-10.1 10z"/>
				</g>
				<path id="&lt;Path&gt;" class="s4" d="m294.8 148.3h176.4v-24.4h-176.4z"/>
				<g id="&lt;Group&gt;">
					<path id="&lt;Path&gt;" class="s4" d="m330.4 190.1h105.2l20-41.8h-145.2z"/>
					<path id="&lt;Path&gt;" class="s0" d="m310.4 148.3l5.3 11h134.6l5.3-11z"/>
				</g>
				<g id="&lt;Group&gt;">
					<g id="&lt;Group&gt;">
						<path id="&lt;Path&gt;" class="s1" d="m383 268.5c7.8 0 14.3-6 14.9-13.8l6.1-66.2c0.8-12.1-8.8-22.4-21-22.4-12.2 0-21.8 10.3-21 22.4l6.1 66.2c0.6 7.8 7.1 13.8 14.9 13.8z"/>
						<g id="&lt;Group&gt;">
							<path id="&lt;Compound Path&gt;" fill-rule="evenodd" class="s1" d="m406.9 188.8l-0.1 1.3-5.9 64.8c-0.7 9.3-8.5 16.6-17.9 16.6-5.9 0-11.2-2.9-14.5-7.3-1.9-2.7-3.1-5.8-3.4-9.2l-1.5-17.3-4.4-47.6-0.2-1.3c-0.4-6.7 1.9-13.2 6.4-18.1 4.6-4.9 11-7.6 17.6-7.6 6.6 0 13 2.7 17.6 7.6 4.5 4.9 6.8 11.4 6.3 18.1zm-14.8 72.4c1.6-1.8 2.6-4.2 2.8-6.8l5.9-64.3 0.1-0.9q0-0.4 0.1-0.9 0-0.9 0-1.7 0-0.1 0-0.1 0-0.1 0-0.2c-0.2-4.3-1.8-8.3-4.8-11.5-3.5-3.7-8.2-5.7-13.2-5.7-5.1 0-9.7 2-13.2 5.7-2 2.2-3.5 4.8-4.2 7.6q0 0.1-0.1 0.1-0.1 0.7-0.2 1.3-0.1 0.4-0.2 0.7-0.1 1.2-0.1 2.5 0 0.5 0 1v0.3l0.2 1.8 4.6 50.2 1.3 14.2c0.2 2.6 1.2 4.9 2.8 6.7q0.4 0.5 0.8 0.9c0.2 0.3 0.5 0.5 0.8 0.7 0.3 0.3 0.6 0.5 0.9 0.7q0.4 0.3 0.7 0.5 0.3 0.1 0.5 0.2 0.3 0.2 0.6 0.3 0.2 0.1 0.4 0.2 0.5 0.2 0.9 0.3 0.4 0.1 0.8 0.2 0.2 0.1 0.4 0.1 0.3 0.1 0.7 0.1 0.3 0.1 0.5 0.1 0.6 0 1.1 0 0.6 0 1.2 0 0.5-0.1 1-0.2 0.1 0 0.2 0 0.6-0.1 1.1-0.3 0.5-0.2 1-0.4c0.8-0.3 1.5-0.7 2.2-1.1q0.4-0.3 0.8-0.7c0.3-0.2 0.6-0.4 0.8-0.7q0.4-0.4 0.8-0.9z"/>
							<path id="&lt;Compound Path&gt;" fill-rule="evenodd" class="s2" d="m406.9 188.8l-0.1 1.3-5.9 64.8c-0.7 9.3-8.5 16.6-17.9 16.6-5.9 0-11.2-2.9-14.5-7.3-1.9-2.7-3.1-5.8-3.4-9.2l-1.5-17.3-4.4-47.6-0.2-1.3c-0.4-6.7 1.9-13.2 6.4-18.1 4.6-4.9 11-7.6 17.6-7.6 6.6 0 13 2.7 17.6 7.6 4.5 4.9 6.8 11.4 6.3 18.1zm-14.8 72.4c1.6-1.8 2.6-4.2 2.8-6.8l5.9-64.3 0.1-0.9q0-0.4 0.1-0.9 0-0.9 0-1.7 0-0.1 0-0.1 0-0.1 0-0.2c-0.2-4.3-1.8-8.3-4.8-11.5-3.5-3.7-8.2-5.7-13.2-5.7-5.1 0-9.7 2-13.2 5.7-2 2.2-3.5 4.8-4.2 7.6q0 0.1-0.1 0.1-0.1 0.7-0.2 1.3-0.1 0.4-0.2 0.7-0.1 1.2-0.1 2.5 0 0.5 0 1v0.3l0.2 1.8 4.6 50.2 1.3 14.2c0.2 2.6 1.2 4.9 2.8 6.7q0.4 0.5 0.8 0.9c0.2 0.3 0.5 0.5 0.8 0.7 0.3 0.3 0.6 0.5 0.9 0.7q0.4 0.3 0.7 0.5 0.3 0.1 0.5 0.2 0.3 0.2 0.6 0.3 0.2 0.1 0.4 0.2 0.5 0.2 0.9 0.3 0.4 0.1 0.8 0.2 0.2 0.1 0.4 0.1 0.3 0.1 0.7 0.1 0.3 0.1 0.5 0.1 0.6 0 1.1 0 0.6 0 1.2 0 0.5-0.1 1-0.2 0.1 0 0.2 0 0.6-0.1 1.1-0.3 0.5-0.2 1-0.4c0.8-0.3 1.5-0.7 2.2-1.1q0.4-0.3 0.8-0.7c0.3-0.2 0.6-0.4 0.8-0.7q0.4-0.4 0.8-0.9z"/>
						</g>
					</g>
					<g id="&lt;Group&gt;">
						<path id="&lt;Path&gt;" class="s5" d="m365 187c0 9.9 8 18 18 18 9.9 0 18-8.1 18-18 0-10-8.1-18.1-18-18.1-10 0-18 8.1-18 18.1z"/>
						<path id="&lt;Path&gt;" class="s4" d="m370.4 187c0 6.9 5.6 12.6 12.6 12.6 7 0 12.6-5.7 12.6-12.6 0-7-5.6-12.7-12.6-12.7-7 0-12.6 5.7-12.6 12.7z"/>
					</g>
					<g id="&lt;Group&gt;">
						<path id="&lt;Path&gt;" class="s5" d="m371.2 253.8c0 6.5 5.3 11.7 11.8 11.7 6.5 0 11.8-5.2 11.8-11.7 0-6.6-5.3-11.8-11.8-11.8-6.5 0-11.8 5.2-11.8 11.8z"/>
						<path id="&lt;Path&gt;" class="s4" d="m374.7 253.8c0 4.5 3.7 8.2 8.3 8.2 4.6 0 8.3-3.7 8.3-8.2 0-4.6-3.7-8.3-8.3-8.3-4.6 0-8.3 3.7-8.3 8.3z"/>
					</g>
				</g>
				<g id="&lt;Group&gt;">
					<path id="&lt;Path&gt;" class="s4" d="m288.9 295.2l48.1-51.7c4.3-4.6 4-11.8-0.5-16-4.6-4.3-11.7-4-16 0.6l-48.2 51.7c-4.2 4.6-4 11.7 0.6 16 4.6 4.2 11.7 4 16-0.6z"/>
					<path id="&lt;Path&gt;" class="s5" d="m324.2 236.1c0 2.3 1.9 4.2 4.2 4.2 2.4 0 4.3-1.9 4.3-4.2 0-2.3-1.9-4.2-4.3-4.2-2.3 0-4.2 1.9-4.2 4.2z"/>
					<path id="&lt;Path&gt;" class="s5" d="m276.1 287.8c0 2.3 1.9 4.2 4.2 4.2 2.4 0 4.3-1.9 4.3-4.2 0-2.4-1.9-4.2-4.3-4.2-2.3 0-4.2 1.8-4.2 4.2z"/>
				</g>
				<path id="&lt;Path&gt;" class="s4" d="m267.6 341.7h25.5v-6.5h-25.5z"/>
				<path id="&lt;Path&gt;" class="s5" d="m271.1 367.1h18.5v-25.4h-18.5z"/>
				<g id="&lt;Group&gt;">
					<path id="&lt;Path&gt;" class="s4" d="m261.8 380.1h37.1v-13h-37.1z"/>
					<path id="&lt;Path&gt;" class="s5" d="m288.5 373.6c0 1.7 1.4 3.2 3.2 3.2 1.8 0 3.2-1.5 3.2-3.2 0-1.8-1.4-3.2-3.2-3.2-1.8 0-3.2 1.4-3.2 3.2z"/>
					<path id="&lt;Path&gt;" class="s5" d="m265.8 373.6c0 1.7 1.4 3.2 3.2 3.2 1.8 0 3.2-1.5 3.2-3.2 0-1.8-1.4-3.2-3.2-3.2-1.8 0-3.2 1.4-3.2 3.2z"/>
				</g>
				<g id="&lt;Group&gt;">
					<g id="&lt;Group&gt;">
						<path id="&lt;Path&gt;" class="s5" d="m307.1 409.2h10l-21.7-29.1h-14.8z"/>
						<path id="&lt;Path&gt;" class="s5" d="m299.9 430.8h5.2l12-21.6h-10z"/>
					</g>
					<g id="&lt;Group&gt;">
						<path id="&lt;Path&gt;" class="s5" d="m253.6 409.2h-10l21.7-29.1h14.7z"/>
						<path id="&lt;Path&gt;" class="s5" d="m260.8 430.8h-5.2l-12-21.6h10z"/>
					</g>
				</g>
				<g id="&lt;Group&gt;">
					<path id="&lt;Path&gt;" class="s1" d="m260.8 456.3h39.1v-25c0-6.2-5.1-11.3-11.3-11.3h-16.5c-6.3 0-11.3 5.1-11.3 11.3z"/>
					<path id="&lt;Path&gt;" class="s1" d="m270.1 420.9h20.5v-3.5h-20.5z"/>
					<path id="&lt;Path&gt;" class="s4" d="m267.6 417.4h25.5v-5.4h-25.5z"/>
					<path id="&lt;Path&gt;" class="s4" d="m260.8 449.3h39.1v-12.1h-39.1z"/>
				</g>
			</g>
			<g id="&lt;Group&gt;">
				<path id="&lt;Path&gt;" class="s1" d="m1105.9 379.1h-18.8l-1.7-46.7c-0.3-6.4 4.7-11.7 11.1-11.7 6.3 0 11.4 5.3 11 11.7z"/>
				<path id="&lt;Path&gt;" class="s5" d="m1054.7 281.6l-48.7-16.8c-5.9-2-9.1-8.5-7-14.4 2-5.9 8.4-9 14.3-7l48.7 16.8c5.9 2.1 9.1 8.5 7 14.4-2 5.9-8.4 9-14.3 7z"/>
				<g id="&lt;Group&gt;">
					<path id="&lt;Path&gt;" class="s0" d="m976.6 116.7c0 12.6-10.2 22.9-22.9 22.9-12.6 0-22.8-10.3-22.8-22.9 0-12.6 10.2-22.8 22.8-22.8 12.7 0 22.9 10.2 22.9 22.8z"/>
					<path id="&lt;Path&gt;" class="s4" d="m963.8 116.7c0 5.6-4.5 10.1-10.1 10.1-5.5 0-10-4.5-10-10.1 0-5.5 4.5-10 10-10 5.6 0 10.1 4.5 10.1 10z"/>
				</g>
				<g id="&lt;Group&gt;">
					<path id="&lt;Path&gt;" class="s0" d="m1088.8 116.7c0 12.6-10.2 22.9-22.8 22.9-12.6 0-22.8-10.3-22.8-22.9 0-12.6 10.2-22.8 22.8-22.8 12.6 0 22.8 10.2 22.8 22.8z"/>
					<path id="&lt;Path&gt;" class="s4" d="m1076.1 116.7c0 5.6-4.5 10.1-10.1 10.1-5.5 0-10.1-4.5-10.1-10.1 0-5.5 4.6-10 10.1-10 5.6 0 10.1 4.5 10.1 10z"/>
				</g>
				<path id="&lt;Path&gt;" class="s4" d="m1098.1 148.3h-176.5v-24.4h176.5z"/>
				<g id="&lt;Group&gt;">
					<path id="&lt;Path&gt;" class="s4" d="m1062.5 190.1h-105.2l-20-41.8h145.2z"/>
					<path id="&lt;Path&gt;" class="s0" d="m937.3 148.3l5.3 11h134.6l5.2-11z"/>
				</g>
				<g id="&lt;Group&gt;">
					<g id="&lt;Group&gt;">
						<path id="&lt;Path&gt;" class="s1" d="m1009.9 268.5c-7.8 0-14.3-6-14.9-13.8l-6.1-66.2c-0.8-12.1 8.8-22.4 21-22.4 12.2 0 21.8 10.3 20.9 22.4l-6.1 66.2c-0.5 7.8-7 13.8-14.8 13.8z"/>
						<g id="&lt;Group&gt;">
							<path id="&lt;Compound Path&gt;" fill-rule="evenodd" class="s1" d="m1033.8 188.8l-0.1 1.3-5.4 58.5-0.6 6.4c-0.4 6.1-3.9 11.3-9 14.2-2.6 1.5-5.6 2.3-8.8 2.3-9.4 0-17.2-7.3-17.9-16.6l-5.9-64.8-0.2-1.3c-0.4-6.7 1.9-13.2 6.4-18.1 4.5-4.9 10.9-7.6 17.6-7.6 6.6 0 13 2.7 17.5 7.6 4.6 4.9 6.9 11.4 6.4 18.1zm-11.3 57.8l5.2-56.5v-0.4q0.1-0.7 0.1-1.4 0.1-0.9 0.1-1.8 0-1-0.2-1.9 0 0 0-0.1c-0.5-3.6-2.1-7-4.6-9.7-3.5-3.7-8.2-5.7-13.2-5.7-5.1 0-9.8 2-13.2 5.7-3 3.2-4.6 7.2-4.8 11.5q0 0.1 0 0.2 0 0.9 0 1.8 0 0.5 0.1 0.9l0.1 0.9 5.9 64.3c0.1 1.8 0.6 3.5 1.5 5q0.2 0.5 0.6 0.9 0.3 0.5 0.7 0.9 0.3 0.4 0.7 0.8 0.1 0.1 0.2 0.2 0.3 0.3 0.6 0.5 1 0.9 2.2 1.5 0.5 0.3 1 0.5 0 0 0.1 0 0.4 0.2 0.8 0.3 0.3 0.1 0.7 0.2 0.1 0 0.2 0 0.7 0.2 1.5 0.3 0.5 0 1.1 0 0.5 0 1.1 0h0.1q0.6-0.1 1.1-0.2 0.6-0.1 1.2-0.3 0.5-0.2 1-0.3 0.3-0.2 0.6-0.4 0.4-0.1 0.7-0.3 0.4-0.2 0.8-0.5c0.3-0.2 0.6-0.4 0.9-0.7 2.4-1.9 4.1-4.9 4.4-8.3z"/>
							<path id="&lt;Compound Path&gt;" fill-rule="evenodd" class="s2" d="m1033.8 188.8l-0.1 1.3-5.4 58.5-0.6 6.4c-0.4 6.1-3.9 11.3-9 14.2-2.6 1.5-5.6 2.3-8.8 2.3-9.4 0-17.2-7.3-17.9-16.6l-5.9-64.8-0.2-1.3c-0.4-6.7 1.9-13.2 6.4-18.1 4.5-4.9 10.9-7.6 17.6-7.6 6.6 0 13 2.7 17.5 7.6 4.6 4.9 6.9 11.4 6.4 18.1zm-11.3 57.8l5.2-56.5v-0.4q0.1-0.7 0.1-1.4 0.1-0.9 0.1-1.8 0-1-0.2-1.9 0 0 0-0.1c-0.5-3.6-2.1-7-4.6-9.7-3.5-3.7-8.2-5.7-13.2-5.7-5.1 0-9.8 2-13.2 5.7-3 3.2-4.6 7.2-4.8 11.5q0 0.1 0 0.2 0 0.9 0 1.8 0 0.5 0.1 0.9l0.1 0.9 5.9 64.3c0.1 1.8 0.6 3.5 1.5 5q0.2 0.5 0.6 0.9 0.3 0.5 0.7 0.9 0.3 0.4 0.7 0.8 0.1 0.1 0.2 0.2 0.3 0.3 0.6 0.5 1 0.9 2.2 1.5 0.5 0.3 1 0.5 0 0 0.1 0 0.4 0.2 0.8 0.3 0.3 0.1 0.7 0.2 0.1 0 0.2 0 0.7 0.2 1.5 0.3 0.5 0 1.1 0 0.5 0 1.1 0h0.1q0.6-0.1 1.1-0.2 0.6-0.1 1.2-0.3 0.5-0.2 1-0.3 0.3-0.2 0.6-0.4 0.4-0.1 0.7-0.3 0.4-0.2 0.8-0.5c0.3-0.2 0.6-0.4 0.9-0.7 2.4-1.9 4.1-4.9 4.4-8.3z"/>
						</g>
					</g>
					<g id="&lt;Group&gt;">
						<path id="&lt;Path&gt;" class="s5" d="m1027.9 187c0 9.9-8.1 18-18 18-10 0-18-8.1-18-18 0-10 8-18.1 18-18.1 9.9 0 18 8.1 18 18.1z"/>
						<path id="&lt;Path&gt;" class="s4" d="m1022.5 187c0 6.9-5.6 12.6-12.6 12.6-7 0-12.7-5.7-12.7-12.6 0-7 5.7-12.7 12.7-12.7 7 0 12.6 5.7 12.6 12.7z"/>
					</g>
					<g id="&lt;Group&gt;">
						<path id="&lt;Path&gt;" class="s5" d="m1021.7 253.8c0 6.5-5.3 11.7-11.8 11.7-6.5 0-11.8-5.2-11.8-11.7 0-6.6 5.3-11.8 11.8-11.8 6.5 0 11.8 5.2 11.8 11.8z"/>
						<path id="&lt;Path&gt;" class="s4" d="m1018.1 253.8c0 4.5-3.7 8.2-8.2 8.2-4.6 0-8.3-3.7-8.3-8.2 0-4.6 3.7-8.3 8.3-8.3 4.5 0 8.2 3.7 8.2 8.3z"/>
					</g>
				</g>
				<g id="&lt;Group&gt;">
					<path id="&lt;Path&gt;" class="s4" d="m1086.7 337.6l-37.3-60c-3.3-5.4-1.7-12.3 3.6-15.6 5.3-3.3 12.3-1.7 15.6 3.6l37.3 60.1c3.3 5.3 1.6 12.3-3.7 15.6-5.3 3.2-12.2 1.6-15.5-3.7z"/>
					<path id="&lt;Path&gt;" class="s5" d="m1063.4 272.8c-0.5 2.3-2.7 3.8-5 3.3-2.3-0.4-3.8-2.6-3.3-4.9 0.4-2.3 2.7-3.8 4.9-3.3 2.3 0.4 3.8 2.6 3.4 4.9z"/>
					<path id="&lt;Path&gt;" class="s5" d="m1100.6 332.8c-0.4 2.3-2.7 3.7-4.9 3.3-2.3-0.4-3.8-2.7-3.4-5 0.5-2.2 2.7-3.7 5-3.3 2.3 0.5 3.8 2.7 3.3 5z"/>
				</g>
				<g id="&lt;Group&gt;">
					<path id="&lt;Path&gt;" class="s4" d="m1109.2 385.7h-25.5v-6.6h25.5z"/>
					<path id="&lt;Path&gt;" class="s5" d="m1105.7 411h-18.5v-25.3h18.5z"/>
					<g id="&lt;Group&gt;">
						<path id="&lt;Path&gt;" class="s4" d="m1115 424h-37.1v-13h37.1z"/>
						<path id="&lt;Path&gt;" class="s5" d="m1088.3 417.5c0 1.8-1.4 3.2-3.2 3.2-1.7 0-3.2-1.4-3.2-3.2 0-1.7 1.5-3.2 3.2-3.2 1.8 0 3.2 1.5 3.2 3.2z"/>
						<path id="&lt;Path&gt;" class="s5" d="m1111 417.5c0 1.8-1.4 3.2-3.2 3.2-1.7 0-3.2-1.4-3.2-3.2 0-1.7 1.5-3.2 3.2-3.2 1.8 0 3.2 1.5 3.2 3.2z"/>
					</g>
					<g id="&lt;Group&gt;">
						<g id="&lt;Group&gt;">
							<path id="&lt;Path&gt;" class="s5" d="m1063.7 453.1h-12l27.7-29.1h16.8z"/>
							<path id="&lt;Path&gt;" class="s5" d="m1064.9 474.8h-5.1l-8.1-21.7h12z"/>
						</g>
						<g id="&lt;Group&gt;">
							<path id="&lt;Path&gt;" class="s5" d="m1129.3 453.1h11.9l-27.7-29.1h-16.7z"/>
							<path id="&lt;Path&gt;" class="s5" d="m1128 474.8h5.2l8-21.7h-11.9z"/>
						</g>
					</g>
				</g>
			</g>
		</g>
	</g>
</svg>