<svg version="1.2" xmlns="http://www.w3.org/2000/svg" viewBox="0 0 1000 1000" width="1000" height="1000">
	<title>6502421-ai</title>
	<style>
		.s0 { fill: #92e3a9 } 
		.s1 { opacity: .7;fill: #ffffff } 
		.s2 { fill: none;stroke: #263238;stroke-linecap: round;stroke-linejoin: round;stroke-width: 2 } 
		.s3 { fill: none;stroke: #263238;stroke-width: 2 } 
		.s4 { fill: #263238;stroke: #263238;stroke-linecap: round;stroke-linejoin: round;stroke-width: 2 } 
		.s5 { fill: #ffffff;stroke: #263238;stroke-linecap: round;stroke-linejoin: round;stroke-width: 2 } 
		.s6 { fill: #92e3a9;stroke: #263238;stroke-linecap: round;stroke-linejoin: round;stroke-width: 2 } 
		.s7 { fill: #263238;stroke: #ffffff;stroke-linecap: round;stroke-linejoin: round;stroke-width: 2 } 
		.s8 { fill: none;stroke: #263238;stroke-linecap: round;stroke-linejoin: round;stroke-width: 6 } 
		.s9 { fill: none;stroke: #ffffff;stroke-linecap: round;stroke-linejoin: round;stroke-width: 6 } 
		.s10 { fill: #263238 } 
	</style>
	<g id="Background Simple">
		<g id="&lt;Group&gt;">
			<path id="&lt;Path&gt;" class="s0" d="m942 476.6c-9.9 83.6-48 180.8-124.3 225.5-115.2 67.4-105.5 171.2-330.3 216.4-35.1 7-68.4 10-99.7 9.4-16.9-0.3-33.2-1.7-49-4-142.9-20.9-239-120.2-274.3-240.1-46.4-157.7 46.3-261 107.7-323.2 61.5-62.2 106.5-256 327.1-302.1 33.7-7 68.1-10.5 102.5-9.7 78.5 1.9 164.2 27.7 223.4 81.5q6.7 6.1 13 12.6c82.4 84.5 117.4 219.7 103.9 333.7z"/>
			<path id="&lt;Path&gt;" class="s1" d="m942 476.6c-9.9 83.6-48 180.8-124.3 225.5-115.2 67.4-105.5 171.2-330.3 216.4-35.1 7-68.4 10-99.7 9.4-16.9-0.3-33.2-1.7-49-4-142.9-20.9-239-120.2-274.3-240.1-46.4-157.7 46.3-261 107.7-323.2 61.5-62.2 106.5-256 327.1-302.1 33.7-7 68.1-10.5 102.5-9.7 78.5 1.9 164.2 27.7 223.4 81.5q6.7 6.1 13 12.6c82.4 84.5 117.4 219.7 103.9 333.7z"/>
		</g>
	</g>
	<g id="Table">
		<g id="&lt;Group&gt;">
			<path id="&lt;Path&gt;" class="s2" d="m927.6 565.9h30.3"/>
			<path id="&lt;Path&gt;" class="s2" d="m45.2 565.9h868.8"/>
		</g>
	</g>
	<g id="Gears">
		<g id="&lt;Group&gt;">
			<g id="&lt;Group&gt;">
				<path id="&lt;Compound Path&gt;" fill-rule="evenodd" class="s3" d="m865.9 333.8c-1.5 7.7-4.5 14.8-8.8 20.9l9.1 12.2-11 11-12.2-9.1c-6.2 4.3-13.3 7.2-21 8.6l-2.1 15h-15.7l-2.1-15c-7.7-1.5-14.8-4.5-21-8.8l-12.1 9.1-11.1-11.1 9.2-12.1c-4.3-6.2-7.3-13.3-8.6-21l-15-2.1v-15.7l15-2.1c1.4-7.7 4.5-14.8 8.8-21l-9.1-12.1 11-11.1 12.2 9.2c6.2-4.3 13.3-7.3 21-8.7l2.1-14.9h15.7l2.1 15c7.7 1.4 14.8 4.5 21 8.7l12.1-9 11 11-9.1 12.2c4.3 6.2 7.2 13.3 8.6 21l15 2.1v15.7zm-15.7-10.2c0-20.9-17-37.9-38-37.9-20.9 0-37.9 17-37.9 37.9 0 21 17 38 37.9 38 21 0 38-17 38-38z"/>
				<path id="&lt;Compound Path&gt;" fill-rule="evenodd" class="s3" d="m913.6 426.6c-1.1 5.5-3.2 10.6-6.3 15l6.5 8.7-7.9 7.9-8.7-6.5c-4.4 3-9.5 5.1-15 6.1l-1.5 10.7h-11.2l-1.6-10.7c-5.5-1.1-10.5-3.2-14.9-6.3l-8.7 6.5-7.9-7.9 6.5-8.7c-3-4.4-5.2-9.5-6.2-15l-10.7-1.5v-11.2l10.8-1.6c1-5.4 3.2-10.5 6.2-14.9l-6.5-8.7 7.9-7.9 8.7 6.5c4.5-3 9.6-5.2 15-6.2l1.6-10.7h11.2l1.5 10.8c5.5 1 10.6 3.2 15 6.2l8.6-6.5 8 8-6.6 8.7c3.1 4.4 5.2 9.5 6.2 15l10.7 1.5v11.2zm-11.2-7.3c0-15-12.2-27.1-27.2-27.1-15 0-27.1 12.1-27.1 27.1 0 15 12.1 27.2 27.1 27.2 15 0 27.2-12.2 27.2-27.2z"/>
			</g>
			<g id="&lt;Group&gt;">
				<path id="&lt;Compound Path&gt;" fill-rule="evenodd" class="s3" d="m146.8 415.4c1.3-7 4-13.4 7.9-19.1l-8.2-11 10.1-10.1 11.1 8.3c5.6-3.9 12.1-6.6 19.1-7.9l2-13.7h14.2l2 13.8c7 1.3 13.5 4.1 19.1 8l11.1-8.3 10.1 10.1-8.4 11.1c3.9 5.6 6.6 12.1 7.9 19.1l13.7 2v14.3l-13.8 1.9c-1.3 7-4 13.5-7.9 19.1l8.3 11.1-10.1 10.1-11.1-8.4c-5.7 3.9-12.2 6.6-19.2 7.9l-1.9 13.7h-14.3l-2-13.7c-7-1.4-13.5-4.1-19.1-8l-11 8.3-10.1-10.1 8.3-11.1c-3.9-5.7-6.6-12.2-7.9-19.2l-13.7-1.9v-14.3zm14.4 9.2c0 19.2 15.5 34.7 34.6 34.7 19.1 0 34.7-15.5 34.7-34.7 0-19.1-15.6-34.6-34.7-34.6-19.1 0-34.6 15.5-34.6 34.6z"/>
				<path id="&lt;Compound Path&gt;" fill-rule="evenodd" class="s3" d="m106.1 338.4c0.8-4.2 2.5-8.2 4.8-11.6l-5-6.8 6.1-6.1 6.8 5c3.5-2.3 7.4-4 11.7-4.8l1.2-8.3h8.7l1.2 8.4c4.3 0.8 8.2 2.5 11.6 4.8l6.8-5 6.1 6.1-5 6.8c2.3 3.5 4 7.4 4.8 11.7l8.3 1.2v8.7l-8.4 1.2c-0.8 4.3-2.5 8.2-4.8 11.6l5 6.8-6.1 6.2-6.8-5.1c-3.5 2.3-7.4 4-11.7 4.8l-1.2 8.3h-8.7l-1.2-8.4c-4.3-0.8-8.2-2.4-11.6-4.8l-6.8 5-6.1-6.1 5-6.8c-2.3-3.4-4-7.4-4.8-11.7l-8.3-1.2v-8.7zm8.7 5.7c0 11.6 9.5 21.1 21.2 21.1 11.6 0 21.1-9.5 21.1-21.1 0-11.7-9.5-21.2-21.1-21.2-11.7 0-21.2 9.5-21.2 21.2z"/>
				<path id="&lt;Compound Path&gt;" fill-rule="evenodd" class="s3" d="m444.9 179c1.1-5.9 3.4-11.3 6.7-16l-7-9.3 8.5-8.5 9.3 7c4.7-3.2 10.2-5.5 16-6.6l1.7-11.4h11.9l1.7 11.5c5.8 1.1 11.3 3.4 16 6.6l9.2-6.9 8.5 8.5-7 9.3c3.3 4.7 5.5 10.1 6.6 16l11.5 1.6v12l-11.5 1.6c-1.1 5.9-3.4 11.3-6.7 16l6.9 9.3-8.4 8.5-9.3-7c-4.8 3.2-10.2 5.5-16.1 6.6l-1.6 11.4h-12l-1.6-11.5c-5.9-1.1-11.3-3.4-16-6.6l-9.3 6.9-8.4-8.5 6.9-9.3c-3.2-4.7-5.5-10.1-6.5-16l-11.5-1.6v-12zm12 7.7c0 16.1 13 29.1 29 29.1 16 0 29-13 29-29.1 0-16-13-29-29-29-16 0-29 13-29 29z"/>
			</g>
		</g>
	</g>
	<g id="Device">
		<g id="&lt;Group&gt;">
			<g id="&lt;Group&gt;">
				<path id="&lt;Path&gt;" class="s4" d="m796 578.8h-582.1v-382.9c0-8.8 7.1-15.9 15.9-15.9h550.2c8.8 0 16 7.1 16 15.9z"/>
				<path id="&lt;Path&gt;" class="s5" d="m883.3 755.1h-756.7l87.3-176.3h582.1z"/>
				<path id="&lt;Path&gt;" class="s6" d="m760.7 547.2h-511.6v-335.6h511.6z"/>
				<g id="&lt;Group&gt;">
					<path id="&lt;Path&gt;" class="s7" d="m480.6 634.6l1-21.4h-30.7l-2.1 21.4z"/>
					<path id="&lt;Path&gt;" class="s7" d="m544.2 634.6l-1-21.4h-30.8v21.4z"/>
					<path id="&lt;Path&gt;" class="s7" d="m709.7 657.6h32.9l-7.7-23h-31.8z"/>
					<path id="&lt;Path&gt;" class="s7" d="m448.8 634.6l2.1-21.4h-30.8l-3 21.4z"/>
					<path id="&lt;Path&gt;" class="s7" d="m385.3 634.6l4.1-21.4h-30.8l-5.1 21.4z"/>
					<path id="&lt;Path&gt;" class="s7" d="m671.3 634.6l-5.1-21.4h-30.8l4.2 21.4z"/>
					<path id="&lt;Path&gt;" class="s7" d="m703.1 634.6l-6.2-21.4h-30.7l5.1 21.4z"/>
					<path id="&lt;Path&gt;" class="s7" d="m353.5 634.6l5.1-21.4h-30.7l-6.2 21.4z"/>
					<path id="&lt;Path&gt;" class="s7" d="m576 634.6l-2.1-21.4h-30.7l1 21.4z"/>
					<path id="&lt;Path&gt;" class="s7" d="m734.9 634.6l-7.2-21.4h-30.8l6.2 21.4z"/>
					<path id="&lt;Path&gt;" class="s7" d="m639.6 634.6l-4.2-21.4h-30.7l3.1 21.4z"/>
					<path id="&lt;Path&gt;" class="s7" d="m607.8 634.6l-3.1-21.4h-30.8l2.1 21.4z"/>
					<path id="&lt;Path&gt;" class="s7" d="m512.4 634.6v-21.4h-30.8l-1 21.4z"/>
					<path id="&lt;Path&gt;" class="s7" d="m289.9 634.6h-31.8l-8.7 23h32.8z"/>
					<path id="&lt;Path&gt;" class="s7" d="m297.1 613.2h-30.8l-8.2 21.4h31.8z"/>
					<path id="&lt;Path&gt;" class="s7" d="m321.7 634.6l6.2-21.4h-30.8l-7.2 21.4z"/>
					<path id="&lt;Path&gt;" class="s7" d="m240 682.2l-10.1 26.5h35.3l8.8-26.5z"/>
					<path id="&lt;Path&gt;" class="s7" d="m282.2 657.6h-32.8l-9.4 24.6h34z"/>
					<path id="&lt;Path&gt;" class="s7" d="m274 682.2l-8.8 26.5h35.3l7.6-26.5z"/>
					<path id="&lt;Path&gt;" class="s7" d="m417.1 634.6l3-21.4h-30.7l-4.1 21.4z"/>
					<path id="&lt;Path&gt;" class="s7" d="m413.8 657.6l3.3-23h-31.8l-4.4 23z"/>
					<path id="&lt;Path&gt;" class="s7" d="m380.9 657.6l4.4-23h-31.8l-5.5 23z"/>
					<path id="&lt;Path&gt;" class="s7" d="m446.7 657.6l2.1-23h-31.7l-3.3 23z"/>
					<path id="&lt;Path&gt;" class="s7" d="m321.7 634.6h-31.8l-7.7 23h32.9z"/>
					<path id="&lt;Path&gt;" class="s7" d="m716.8 682.2h34.1l-8.3-24.6h-32.9z"/>
					<path id="&lt;Path&gt;" class="s7" d="m348 657.6l5.5-23h-31.8l-6.6 23z"/>
					<path id="&lt;Path&gt;" class="s7" d="m282.2 657.6l-8.2 24.6h34.1l7-24.6z"/>
					<path id="&lt;Path&gt;" class="s7" d="m644 657.6l-4.4-23h-31.8l3.3 23z"/>
					<path id="&lt;Path&gt;" class="s7" d="m611.1 657.6l-3.3-23h-31.8l2.2 23z"/>
					<path id="&lt;Path&gt;" class="s7" d="m709.7 657.6l-6.6-23h-31.8l5.6 23z"/>
					<path id="&lt;Path&gt;" class="s7" d="m512.4 657.6v-23h-31.8l-1 23z"/>
					<path id="&lt;Path&gt;" class="s7" d="m578.2 657.6l-2.2-23h-31.8l1.1 23z"/>
					<path id="&lt;Path&gt;" class="s7" d="m545.3 657.6l-1.1-23h-31.8v23z"/>
					<path id="&lt;Path&gt;" class="s7" d="m479.6 657.6l1-23h-31.8l-2.1 23z"/>
					<path id="&lt;Path&gt;" class="s7" d="m578.2 657.6l2.4 24.6h34l-3.5-24.6z"/>
					<path id="&lt;Path&gt;" class="s7" d="m611.1 657.6l3.5 24.6h34.1l-4.7-24.6z"/>
					<path id="&lt;Path&gt;" class="s7" d="m315.1 657.6l-7 24.6h34l5.9-24.6z"/>
					<path id="&lt;Path&gt;" class="s7" d="m644 657.6l4.7 24.6h34.1l-5.9-24.6z"/>
					<path id="&lt;Path&gt;" class="s7" d="m512.4 657.6l0.1 24.6h34l-1.2-24.6z"/>
					<path id="&lt;Path&gt;" class="s7" d="m676.9 657.6l5.9 24.6h34l-7.1-24.6z"/>
					<path id="&lt;Path&gt;" class="s7" d="m545.3 657.6l1.2 24.6h34.1l-2.4-24.6z"/>
					<path id="&lt;Path&gt;" class="s7" d="m380.9 657.6l-4.7 24.6h34.1l3.5-24.6z"/>
					<path id="&lt;Path&gt;" class="s7" d="m348 657.6l-5.9 24.6h34.1l4.7-24.6z"/>
					<path id="&lt;Path&gt;" class="s7" d="m479.6 657.6l-1.2 24.6h34.1l-0.1-24.6z"/>
					<path id="&lt;Path&gt;" class="s7" d="m446.7 657.6l-2.4 24.6h34.1l1.2-24.6z"/>
					<path id="&lt;Path&gt;" class="s7" d="m413.8 657.6l-3.5 24.6h34l2.4-24.6z"/>
					<path id="&lt;Path&gt;" class="s7" d="m676.9 657.6l-5.6-23h-31.7l4.4 23z"/>
					<path id="&lt;Path&gt;" class="s7" d="m297.1 613.2l7.4-22h-29.8l-8.4 22z"/>
					<path id="&lt;Path&gt;" class="s7" d="m266.3 613.2h-28.3l-9.2 21.4h29.3z"/>
					<path id="&lt;Path&gt;" class="s7" d="m274.7 591.2h-27.4l-9.3 22h28.3z"/>
					<path id="&lt;Path&gt;" class="s7" d="m258.1 634.6h-29.3l-9.8 23h30.4z"/>
					<path id="&lt;Path&gt;" class="s7" d="m249.4 657.6h-30.4l-10.5 24.6h31.5z"/>
					<path id="&lt;Path&gt;" class="s7" d="m240 682.2h-31.5l-11.3 26.5h32.7z"/>
					<path id="&lt;Path&gt;" class="s7" d="m766.7 634.6l8.8 23h29.1l-9.8-23z"/>
					<path id="&lt;Path&gt;" class="s7" d="m785 682.2h30.1l-10.5-24.6h-29.1z"/>
					<path id="&lt;Path&gt;" class="s7" d="m795.1 708.7h31.3l-11.3-26.5h-30.1z"/>
					<path id="&lt;Path&gt;" class="s7" d="m543.2 613.2l-1.1-22h-29.7v22z"/>
					<path id="&lt;Path&gt;" class="s7" d="m766.7 634.6h28.1l-9.1-21.4h-27.3z"/>
					<path id="&lt;Path&gt;" class="s7" d="m750.9 682.2h34.1l-9.5-24.6h-32.9z"/>
					<path id="&lt;Path&gt;" class="s7" d="m327.9 613.2l6.3-22h-29.7l-7.4 22z"/>
					<path id="&lt;Path&gt;" class="s7" d="m727.7 613.2l7.2 21.4h31.8l-8.3-21.4z"/>
					<path id="&lt;Path&gt;" class="s7" d="m785.7 613.2l-9.4-22h-26.3l8.4 22z"/>
					<path id="&lt;Path&gt;" class="s7" d="m758.4 613.2l-8.4-22h-29.7l7.4 22z"/>
					<path id="&lt;Path&gt;" class="s7" d="m648.7 682.2l5.1 26.5h35.3l-6.3-26.5z"/>
					<path id="&lt;Path&gt;" class="s7" d="m759.8 708.7h35.3l-10.1-26.5h-34.1z"/>
					<path id="&lt;Path&gt;" class="s7" d="m727.7 613.2l-7.4-22h-29.7l6.3 22z"/>
					<path id="&lt;Path&gt;" class="s7" d="m716.8 682.2l7.7 26.5h35.3l-8.9-26.5z"/>
					<path id="&lt;Path&gt;" class="s7" d="m682.8 682.2l6.3 26.5h35.4l-7.7-26.5z"/>
					<path id="&lt;Path&gt;" class="s7" d="m742.6 657.6h32.9l-8.8-23h-31.8z"/>
					<path id="&lt;Path&gt;" class="s7" d="m450.9 613.2l2.1-22h-29.7l-3.2 22z"/>
					<path id="&lt;Path&gt;" class="s7" d="m696.9 613.2l-6.3-22h-29.7l5.3 22z"/>
					<path id="&lt;Path&gt;" class="s7" d="m420.1 613.2l3.2-22h-29.7l-4.2 22z"/>
					<path id="&lt;Path&gt;" class="s7" d="m512.4 613.2v-22h-29.7l-1.1 22z"/>
					<path id="&lt;Path&gt;" class="s7" d="m389.4 613.2l4.2-22h-29.7l-5.3 22z"/>
					<path id="&lt;Path&gt;" class="s7" d="m358.6 613.2l5.3-22h-29.7l-6.3 22z"/>
					<path id="&lt;Path&gt;" class="s7" d="m481.6 613.2l1.1-22h-29.7l-2.1 22z"/>
					<path id="&lt;Path&gt;" class="s7" d="m666.2 613.2l-5.3-22h-29.7l4.2 22z"/>
					<path id="&lt;Path&gt;" class="s7" d="m635.4 613.2l-4.2-22h-29.7l3.2 22z"/>
					<path id="&lt;Path&gt;" class="s7" d="m573.9 613.2l-2.1-22h-29.7l1.1 22z"/>
					<path id="&lt;Path&gt;" class="s7" d="m648.7 682.2h-34.1-34-34.1-34-34.1-34.1-34-34.1-34.1-34l-7.6 26.5h35.3 35.4 35.3 35.3 35.4 35.3 35.3 35.3 35.4 35.3z"/>
					<path id="&lt;Path&gt;" class="s7" d="m604.7 613.2l-3.2-22h-29.7l2.1 22z"/>
				</g>
				<path id="&lt;Path&gt;" class="s4" d="m883.6 765.9h-757v-10.8h757z"/>
			</g>
		</g>
	</g>
	<g id="Coding">
		<g id="&lt;Group&gt;">
			<g id="&lt;Group&gt;">
				<path id="&lt;Path&gt;" class="s8" d="m282.1 238h33"/>
				<path id="&lt;Path&gt;" class="s9" d="m282.1 255h123.9"/>
				<path id="&lt;Path&gt;" class="s9" d="m473.8 255h123.9"/>
				<path id="&lt;Path&gt;" class="s8" d="m414 255h49.1"/>
				<path id="&lt;Path&gt;" class="s8" d="m282.1 271.9h71.3"/>
				<path id="&lt;Path&gt;" class="s8" d="m362.3 271.9h71.3"/>
				<path id="&lt;Path&gt;" class="s8" d="m442.6 271.9h71.3"/>
				<path id="&lt;Path&gt;" class="s8" d="m522.8 271.9h30.3"/>
				<path id="&lt;Path&gt;" class="s8" d="m324 238h33"/>
				<g id="&lt;Group&gt;">
					<path id="&lt;Path&gt;" class="s8" d="m520.1 238h33"/>
					<path id="&lt;Path&gt;" class="s9" d="m476.4 238h33"/>
					<path id="&lt;Path&gt;" class="s8" d="m365.9 238h96.3"/>
				</g>
			</g>
			<g id="&lt;Group&gt;">
				<path id="&lt;Path&gt;" class="s8" d="m282.1 341.4h33"/>
				<path id="&lt;Path&gt;" class="s9" d="m282.1 358.4h123.9"/>
				<path id="&lt;Path&gt;" class="s8" d="m473.8 358.4h123.9"/>
				<path id="&lt;Path&gt;" class="s8" d="m414 358.4h49.1"/>
				<path id="&lt;Path&gt;" class="s8" d="m282.1 375.3h71.3"/>
				<path id="&lt;Path&gt;" class="s8" d="m362.3 375.3h71.3"/>
				<path id="&lt;Path&gt;" class="s9" d="m442.6 375.3h71.3"/>
				<path id="&lt;Path&gt;" class="s8" d="m522.8 375.3h30.3"/>
				<path id="&lt;Path&gt;" class="s8" d="m324 341.4h33"/>
				<g id="&lt;Group&gt;">
					<path id="&lt;Path&gt;" class="s8" d="m520.1 341.4h33"/>
					<path id="&lt;Path&gt;" class="s9" d="m476.4 341.4h33"/>
					<path id="&lt;Path&gt;" class="s8" d="m365.9 341.4h96.3"/>
				</g>
			</g>
			<g id="&lt;Group&gt;">
				<path id="&lt;Path&gt;" class="s8" d="m282.1 493.9h33"/>
				<path id="&lt;Path&gt;" class="s9" d="m282.1 510.8h123.9"/>
				<path id="&lt;Path&gt;" class="s8" d="m473.8 510.8h123.9"/>
				<path id="&lt;Path&gt;" class="s8" d="m414 510.8h49.1"/>
				<path id="&lt;Path&gt;" class="s8" d="m282.1 527.7h71.3"/>
				<path id="&lt;Path&gt;" class="s8" d="m362.3 527.7h71.3"/>
				<path id="&lt;Path&gt;" class="s9" d="m442.6 527.7h71.3"/>
				<path id="&lt;Path&gt;" class="s8" d="m522.8 527.7h30.3"/>
				<path id="&lt;Path&gt;" class="s8" d="m324 493.9h33"/>
				<g id="&lt;Group&gt;">
					<path id="&lt;Path&gt;" class="s8" d="m520.1 493.9h33"/>
					<path id="&lt;Path&gt;" class="s9" d="m476.4 493.9h33"/>
					<path id="&lt;Path&gt;" class="s8" d="m365.9 493.9h96.3"/>
				</g>
			</g>
			<g id="&lt;Group&gt;">
				<g id="&lt;Group&gt;">
					<path id="&lt;Path&gt;" class="s8" d="m467.5 289.7h33"/>
					<path id="&lt;Path&gt;" class="s8" d="m423.8 289.7h33"/>
					<path id="&lt;Path&gt;" class="s8" d="m313.3 289.7h96.3"/>
				</g>
				<g id="&lt;Group&gt;">
					<path id="&lt;Path&gt;" class="s8" d="m467.5 320.1l33-0.1"/>
					<path id="&lt;Path&gt;" class="s8" d="m423.8 320.1l33-0.1"/>
					<path id="&lt;Path&gt;" class="s9" d="m313.3 320.1l96.3-0.1"/>
				</g>
				<g id="&lt;Group&gt;">
					<path id="&lt;Path&gt;" class="s8" d="m346.3 304.9h-33"/>
					<path id="&lt;Path&gt;" class="s8" d="m390 304.9h-33"/>
					<path id="&lt;Path&gt;" class="s9" d="m500.5 304.9h-96.3"/>
				</g>
			</g>
			<g id="&lt;Group&gt;">
				<g id="&lt;Group&gt;">
					<path id="&lt;Path&gt;" class="s8" d="m467.5 395.8h33"/>
					<path id="&lt;Path&gt;" class="s8" d="m423.8 395.8h33"/>
					<path id="&lt;Path&gt;" class="s8" d="m313.3 395.8h96.3"/>
				</g>
				<g id="&lt;Group&gt;">
					<path id="&lt;Path&gt;" class="s8" d="m467.5 426.1h33"/>
					<path id="&lt;Path&gt;" class="s8" d="m423.8 426.1h33"/>
					<path id="&lt;Path&gt;" class="s9" d="m313.3 426.1h96.3"/>
				</g>
				<g id="&lt;Group&gt;">
					<path id="&lt;Path&gt;" class="s8" d="m346.3 411h-33"/>
					<path id="&lt;Path&gt;" class="s8" d="m390 411h-33"/>
					<path id="&lt;Path&gt;" class="s9" d="m500.5 411h-96.3"/>
				</g>
			</g>
			<g id="&lt;Group&gt;">
				<g id="&lt;Group&gt;">
					<path id="&lt;Path&gt;" class="s8" d="m346.3 444h-33"/>
					<path id="&lt;Path&gt;" class="s8" d="m390 444h-33"/>
					<path id="&lt;Path&gt;" class="s9" d="m500.5 444h-96.3"/>
				</g>
				<g id="&lt;Group&gt;">
					<path id="&lt;Path&gt;" class="s8" d="m346.3 474.3h-33"/>
					<path id="&lt;Path&gt;" class="s8" d="m390 474.3h-33"/>
					<path id="&lt;Path&gt;" class="s9" d="m500.5 474.3h-96.3"/>
				</g>
				<g id="&lt;Group&gt;">
					<path id="&lt;Path&gt;" class="s8" d="m467.5 459.1h33"/>
					<path id="&lt;Path&gt;" class="s8" d="m423.8 459.1h33"/>
					<path id="&lt;Path&gt;" class="s9" d="m313.3 459.1h96.3"/>
				</g>
			</g>
			<g id="&lt;Group&gt;">
				<path id="&lt;Path&gt;" class="s10" d="m269.9 242.6h-10.6v-10.4h10.6z"/>
				<path id="&lt;Path&gt;" class="s10" d="m269.9 259.6h-10.6v-10.4h10.6z"/>
				<path id="&lt;Path&gt;" class="s10" d="m269.9 276.7h-10.6v-10.4h10.6z"/>
				<path id="&lt;Path&gt;" class="s10" d="m269.9 293.8h-10.6v-10.4h10.6z"/>
				<path id="&lt;Path&gt;" class="s10" d="m269.9 310.9h-10.6v-10.4h10.6z"/>
				<path id="&lt;Path&gt;" class="s10" d="m269.9 328h-10.6v-10.4h10.6z"/>
				<path id="&lt;Path&gt;" class="s10" d="m269.9 345.1h-10.6v-10.4h10.6z"/>
				<path id="&lt;Path&gt;" class="s10" d="m269.9 362.2h-10.6v-10.4h10.6z"/>
				<path id="&lt;Path&gt;" class="s10" d="m269.9 379.3h-10.6v-10.4h10.6z"/>
				<path id="&lt;Path&gt;" class="s10" d="m269.9 396.3h-10.6v-10.4h10.6z"/>
				<path id="&lt;Path&gt;" class="s10" d="m269.9 413.4h-10.6v-10.4h10.6z"/>
				<path id="&lt;Path&gt;" class="s10" d="m269.9 430.5h-10.6v-10.4h10.6z"/>
				<path id="&lt;Path&gt;" class="s10" d="m269.9 447.6h-10.6v-10.4h10.6z"/>
				<path id="&lt;Path&gt;" class="s10" d="m269.9 464.7h-10.6v-10.4h10.6z"/>
				<path id="&lt;Path&gt;" class="s10" d="m269.9 481.8h-10.6v-10.4h10.6z"/>
				<path id="&lt;Path&gt;" class="s10" d="m269.9 498.9h-10.6v-10.4h10.6z"/>
				<path id="&lt;Path&gt;" class="s10" d="m269.9 515.9h-10.6v-10.4h10.6z"/>
				<path id="&lt;Path&gt;" class="s10" d="m269.9 533h-10.6v-10.4h10.6z"/>
			</g>
		</g>
	</g>
	<g id="Speech Bubble">
		<g id="&lt;Group&gt;">
			<path id="&lt;Path&gt;" class="s4" d="m760.1 45.3c-63.2 0-114.4 51.2-114.4 114.4 0 32.5 13.6 61.8 35.3 82.6l-16.2 30.4 39.9-12.9c16.4 9.1 35.3 14.3 55.4 14.3 63.2 0 114.4-51.2 114.4-114.4 0-63.2-51.2-114.4-114.4-114.4z"/>
			<path id="&lt;Path&gt;" class="s5" d="m754.6 37.2c-63.1 0-114.4 51.2-114.4 114.3 0 32.5 13.6 61.9 35.4 82.7l-16.3 30.4 39.9-13c16.4 9.1 35.3 14.3 55.4 14.3 63.2 0 114.4-51.2 114.4-114.4 0-63.1-51.2-114.3-114.4-114.3z"/>
		</g>
	</g>
	<g id="Code">
		<g id="&lt;Group&gt;">
			<path id="&lt;Compound Path&gt;" class="s0" d="m716.3 198.7l-43.9-31.1v-16.4l43.9-31.4v16.6l-31.5 22.9 31.5 22.9z"/>
			<path id="&lt;Compound Path&gt;" class="s0" d="m729.7 204.2l33.5-124.5h14.3l-33.7 124.5z"/>
			<path id="&lt;Compound Path&gt;" class="s0" d="m790.9 198.7v-16.5l31.6-23-31.6-22.8v-16.6l44.1 31.2v16.5z"/>
		</g>
		<g id="&lt;Group&gt;">
			<path id="&lt;Compound Path&gt;" class="s10" d="m721.8 191.9l-44-31.1v-16.4l44-31.4v16.6l-31.5 22.9 31.5 22.9z"/>
			<path id="&lt;Compound Path&gt;" class="s10" d="m735.1 197.4l33.5-124.5h14.3l-33.6 124.5z"/>
			<path id="&lt;Compound Path&gt;" class="s10" d="m796.3 191.9v-16.5l31.7-23-31.7-22.8v-16.6l44.1 31.2v16.5z"/>
		</g>
	</g>
	<g id="Hand 2">
		<g id="&lt;Group&gt;">
			<path id="&lt;Path&gt;" class="s4" d="m667.7 767.1l69.2 57.1c0 0 4.1 10.9 13.6 23.2 9.6 12.2 121.2 58.5 121.2 58.5l19.1 5.5-208.3-156.6z"/>
			<g id="&lt;Group&gt;">
				<path id="&lt;Path&gt;" class="s5" d="m802.6 721.6c0 0-18.6-22.7-26.9-37.1-8.2-14.5-19.9-48.2-28.9-68.2-8.9-19.9-22-26.1-37.8-32.3-15.9-6.2-22.1-4.8-22.1-0.7 0 4.1 6.2 11.7 6.2 11.7l-26.8 4.8c0 0-11-6.2-17.9-4.1-6.9 2.1-20 15.1-20 15.1 0 0-13.7-4.8-22-2.7-8.2 2.1-30.9 13.1-40.6 17.9-9.6 4.8-19.9 5.5-19.3 9.6 0.7 4.1 10.4 11 19.3 9.7 9-1.4 24.1-6.9 33.7-6.9 9.7 0 14.5 2 19.3 5.5 4.8 3.4 24.8 31.6 27.5 35.1 2.8 3.4 5.5 17.2 5.5 17.2 0 0-12.1-5.2-19.7-12.1-7.5-6.9-18.4-23-30.8-24.4-12.3-1.4-25.8 9.6-19 15.1 6.9 5.5 13.8 9 18.6 15.2 4.8 6.2 12.4 24.8 25.5 44.7 13.1 20 41.3 32.4 41.3 32.4l58.5 24c0 0 15.1-35.7 43.3-45.4 28.2-9.6 36.5-13.7 36.5-13.7z"/>
				<path id="&lt;Path&gt;" class="s2" d="m546.5 635.6c0 0 6.8-1.7 8.7-2.3 1.9-0.7 4.2-2.6 4.2-2.6"/>
				<path id="&lt;Path&gt;" class="s2" d="m628.4 610.8c0 0 31.7 17.8 40.7 22.6 3.7 2 12.4 6 15.1 15.1 3.1 10.6 9.6 16.4 9.6 16.4"/>
				<path id="&lt;Path&gt;" class="s2" d="m666.3 599.8c0 0 31 24.1 33 24.8 2.1 0.7 9.7 1.4 13.1 7.6 3.4 6.2 6.9 13.1 6.9 13.1"/>
				<path id="&lt;Path&gt;" class="s2" d="m693.1 595c0 0 11-2.1 15.2 6.2 4.1 8.3 22 28.2 22 28.2"/>
				<path id="&lt;Path&gt;" class="s2" d="m594.7 683.8c0 0 8.3-4.1 4.1-10.3-4.1-6.2-12.3-6.2-12.3-6.2"/>
				<path id="&lt;Path&gt;" class="s6" d="m801.2 712.7c0 0-37.2 9.6-60.6 35.8-23.4 26.1-23.4 48.2-21.3 51.6 2 3.4 46.8 27.5 46.8 27.5 0 0 27.5-53 46.8-66 19.2-13.1 33-16.6 33-16.6 0 0-34.4-22-35.8-24.7-1.4-2.8-4.1-9.7-8.9-7.6z"/>
				<path id="&lt;Path&gt;" class="s6" d="m905.8 919.8c0 0-37.9-19.2-46.8-24.1-9-4.8-70.2-37.8-70.2-37.8 0 0-7.6-2.1-11.7-4.1-4.1-2.1-10.3-1.4-13.1-15.9-2.7-14.4 4.1-43.3 35.1-72.2 31-28.9 50.2-27.5 50.2-27.5 0 0 13.1-1.4 16.6 1.3 3.4 2.8 4.1 11 7.5 12.4 3.5 1.4 98.7 29.9 98.7 29.9"/>
				<path id="&lt;Path&gt;" class="s2" d="m797.7 813.9c0 0-4.1 20.6 5.5 37.8"/>
				<path id="&lt;Path&gt;" class="s2" d="m807.4 840.7c0 0-4.2 1.4 6.9 19.3"/>
			</g>
		</g>
	</g>
	<g id="Hand 1">
		<g id="&lt;Group&gt;">
			<path id="&lt;Path&gt;" class="s4" d="m383.3 706.3c0 0-45.4 53.9-59 64.8-13.6 10.9-25.9 17.7-25.9 17.7l-49 49.1c0 0 1.4 6.8-12.2 14.9-13.6 8.2-40.9 17.7-47.7 20.5-6.8 2.7-81.7 36.7-81.7 36.7z"/>
			<g id="&lt;Group&gt;">
				<path id="&lt;Compound Path&gt;" fill-rule="evenodd" class="s5" d="m456.7 631.5c-0.9 5.7-10.5 10.9-12.8 12.8-2.4 1.9-7.7 4.8-7.7 4.8 0 0 7.2 8.6 2.9 14.3-4.3 5.7-22.9 9.1-32.9 17.2-10 8.1-18.1 16.7-22.9 25.7-4.8 9.1-22.4 31-44.4 41-21.9 10.1-61 28.2-61 28.2 0 0-28.1-42.9-45.8-52-17.6-9.1-23.3-11-23.3-11l3.8-5.2c0 0 27.6-40.6 35.3-55.8 7.6-15.3 15.2-39.6 20-47.2 4.8-7.7 30.5-3.8 30.5-3.8 0 0 18.6-16.7 24.3-17.7 5.8-0.9 28.6 9.1 28.6 9.1 0 0 28.2-16.2 34.9-14.8 6.6 1.4 20 29.6 25.2 34.3 5.3 4.8 15.8 12.9 15.8 12.9 0 0 17.1 1 21.9-0.5 4.8-1.4 8.6 1.9 7.6 7.7zm-51.5 19.5c0 0-16.7-6.2-20.5-9.1l-9 27.7c0 0 18.6-15.7 29.5-18.6z"/>
				<path id="&lt;Path&gt;" class="s2" d="m280.3 631.9c0 0-1.4-8.1-0.5-10.9 1-2.9 18.6-20.5 18.6-20.5"/>
				<path id="&lt;Path&gt;" class="s2" d="m295.5 641.5l3.9-12.4 51.9-37.2"/>
				<path id="&lt;Path&gt;" class="s2" d="m321.3 650.5c0 0 1.9-11.9 4.3-13.8 2.4-1.9 20.5-6.2 20.5-6.2 0 0 27.7-23.8 32.4-23.8 4.8 0 39.6 18.6 48.7 17.6"/>
				<path id="&lt;Path&gt;" class="s2" d="m442.4 626.2c0 0-6.2 0-2.8 3.8 3.3 3.9 10.4 2 13.8 1"/>
				<path id="&lt;Path&gt;" class="s2" d="m405.2 651c0 0 17.2-10 31-1.9"/>
				<path id="&lt;Path&gt;" class="s2" d="m431.9 652l-9.5 3.3c0 0 3.8 7.6 4.3 10.5 0.5 2.9 0.5 2.9 0.5 2.9"/>
				<path id="&lt;Path&gt;" class="s2" d="m375.7 669.6l-8.6 19.1"/>
				<path id="&lt;Path&gt;" class="s6" d="m149.1 743.5c0 0 30.1-19.5 41.1-27.6 10.9-8.1 16.6-6.7 22.4-8.6 5.7-1.9 34.3 6.7 53.4 30.5 19.1 23.8 17.1 41.5 14.8 46.3-2.4 4.7-62.5 41-62.5 41 0 0-8.6-34.4-33.9-54.9-25.2-20.5-35.3-26.7-35.3-26.7z"/>
				<path id="&lt;Path&gt;" class="s6" d="m29 800.6c0 0 55.6-34 64.9-39.6 9.3-5.6 20-13.2 20-13.2 0 0 2.9-14.7 17.1-15.2 14.2-0.6 27.8 5 46.4 15.2 18.5 10.1 41.5 47.2 43.9 61.9 2.5 14.7 7.3 19.3 3.4 28.9-3.9 9.7-18.5 10.2-21.4 10.2-3 0-9.8 6.1-9.8 6.1l-104.5 68"/>
				<path id="&lt;Path&gt;" class="s2" d="m201.7 823c0 0 4.3 3.2-4.4 16.8"/>
				<path id="&lt;Path&gt;" class="s2" d="m195.4 829.4c0 0-0.6 14.3-13.7 27.3"/>
			</g>
		</g>
	</g>
</svg>